<svg width="1728" height="253" viewBox="0 0 1728 253" fill="none" xmlns="http://www.w3.org/2000/svg">
<path d="M0 48L1728 117.47V253H0V48Z" fill="#0097A7"/>
<path d="M1728 0L0 117.556V253H1728V0Z" fill="#0097A7" fill-opacity="0.17"/>
<path d="M104.136 133.104L104.436 131.119C104.558 130.319 104.775 129.557 105.086 128.834C105.409 128.1 105.809 127.417 106.287 126.783C106.765 126.138 107.31 125.56 107.922 125.048L109.473 126.299C108.961 127.033 108.516 127.789 108.138 128.567C107.771 129.335 107.505 130.157 107.338 131.036L106.971 133.104H104.136ZM108.739 133.104L109.039 131.119C109.161 130.319 109.378 129.557 109.689 128.834C110.012 128.1 110.412 127.417 110.89 126.783C111.368 126.138 111.913 125.56 112.525 125.048L114.076 126.299C113.564 127.033 113.12 127.789 112.742 128.567C112.375 129.335 112.108 130.157 111.941 131.036L111.574 133.104H108.739ZM119.663 143.528L126.034 126.716H128.236L126.034 133.454L119.23 151H117.028L119.663 143.528ZM118.562 126.716L118.913 143.495L118.596 151H116.544L115.644 126.716H118.562ZM130.421 143.161L135.841 126.716H138.894L130.404 151H128.253L130.421 143.161ZM128.503 126.716L129.52 143.728L129.787 151H127.719L126.551 133.171L126.468 126.716H128.503ZM145.231 125.382L140.778 151H137.893L142.346 125.382H145.231ZM141.879 141.36L140.828 141.31C140.951 140.365 141.162 139.381 141.462 138.358C141.773 137.324 142.201 136.367 142.746 135.489C143.291 134.599 143.975 133.888 144.798 133.354C145.632 132.82 146.632 132.576 147.8 132.62C148.701 132.643 149.423 132.854 149.968 133.254C150.524 133.654 150.93 134.177 151.186 134.822C151.452 135.456 151.614 136.156 151.669 136.923C151.725 137.679 151.714 138.43 151.636 139.175L149.668 151H146.782L148.767 139.125C148.823 138.547 148.828 137.963 148.784 137.374C148.751 136.773 148.584 136.267 148.284 135.856C147.983 135.433 147.466 135.211 146.732 135.189C145.965 135.167 145.293 135.356 144.714 135.756C144.147 136.156 143.669 136.679 143.28 137.324C142.891 137.957 142.579 138.636 142.346 139.358C142.124 140.07 141.968 140.737 141.879 141.36ZM160.392 151.334C159.225 151.311 158.252 151.078 157.473 150.633C156.695 150.188 156.089 149.588 155.655 148.832C155.222 148.076 154.933 147.22 154.788 146.263C154.655 145.307 154.644 144.312 154.755 143.278L155.005 141.243C155.138 140.176 155.389 139.125 155.756 138.091C156.122 137.057 156.617 136.123 157.24 135.289C157.863 134.444 158.63 133.777 159.542 133.287C160.453 132.798 161.521 132.576 162.744 132.62C163.956 132.654 164.918 132.926 165.629 133.438C166.341 133.949 166.863 134.616 167.197 135.439C167.531 136.262 167.72 137.168 167.764 138.158C167.82 139.147 167.786 140.137 167.664 141.126L167.414 142.844H156.456L156.906 140.326L164.879 140.342L164.945 139.892C165.034 139.214 165.051 138.519 164.995 137.807C164.94 137.085 164.729 136.473 164.362 135.973C163.995 135.461 163.394 135.183 162.56 135.139C161.704 135.094 160.993 135.255 160.425 135.622C159.87 135.989 159.419 136.484 159.075 137.107C158.73 137.729 158.463 138.408 158.274 139.142C158.096 139.864 157.968 140.565 157.89 141.243L157.64 143.295C157.573 143.906 157.551 144.534 157.573 145.179C157.596 145.813 157.701 146.402 157.89 146.947C158.091 147.492 158.407 147.937 158.841 148.281C159.286 148.615 159.897 148.793 160.676 148.815C161.543 148.837 162.321 148.659 163.011 148.281C163.711 147.903 164.35 147.403 164.929 146.78L166.33 148.665C165.852 149.277 165.296 149.782 164.662 150.183C164.039 150.583 163.366 150.878 162.644 151.067C161.921 151.256 161.17 151.345 160.392 151.334ZM174.769 136.99L172.334 151H169.449L172.584 132.954H175.303L174.769 136.99ZM173.435 141.36L172.384 141.31C172.506 140.365 172.718 139.381 173.018 138.358C173.329 137.324 173.757 136.367 174.302 135.489C174.847 134.611 175.531 133.905 176.353 133.371C177.187 132.826 178.188 132.57 179.356 132.604C180.256 132.637 180.979 132.854 181.524 133.254C182.08 133.654 182.486 134.177 182.741 134.822C183.008 135.456 183.169 136.156 183.225 136.923C183.281 137.679 183.269 138.43 183.192 139.175L181.224 151H178.338L180.323 139.125C180.379 138.547 180.384 137.963 180.34 137.374C180.306 136.773 180.139 136.267 179.839 135.856C179.539 135.433 179.022 135.211 178.288 135.189C177.521 135.167 176.848 135.356 176.27 135.756C175.703 136.156 175.225 136.679 174.836 137.324C174.447 137.957 174.135 138.636 173.902 139.358C173.679 140.07 173.524 140.737 173.435 141.36ZM202.422 147.914L204.006 138.091C204.062 137.513 204.029 137.007 203.906 136.573C203.795 136.128 203.562 135.778 203.206 135.522C202.861 135.267 202.372 135.139 201.738 135.139C201.16 135.128 200.643 135.244 200.187 135.489C199.731 135.722 199.353 136.051 199.053 136.473C198.764 136.896 198.564 137.385 198.452 137.941L195.6 137.957C195.678 137.146 195.906 136.412 196.284 135.756C196.673 135.089 197.168 134.522 197.769 134.055C198.369 133.577 199.036 133.215 199.77 132.971C200.504 132.715 201.266 132.592 202.055 132.604C203.189 132.615 204.134 132.854 204.89 133.321C205.646 133.777 206.191 134.422 206.525 135.255C206.87 136.078 206.986 137.046 206.875 138.158L205.407 147.064C205.307 147.698 205.268 148.309 205.291 148.899C205.313 149.488 205.341 150.094 205.374 150.716L205.341 151L202.455 151.017C202.344 150.505 202.294 149.988 202.305 149.466C202.316 148.943 202.355 148.426 202.422 147.914ZM204.223 140.059L203.873 142.227L202.038 142.21C201.449 142.21 200.86 142.277 200.27 142.411C199.692 142.544 199.153 142.755 198.653 143.044C198.163 143.322 197.752 143.695 197.418 144.162C197.096 144.618 196.896 145.179 196.818 145.846C196.751 146.391 196.768 146.88 196.868 147.314C196.979 147.737 197.196 148.076 197.518 148.331C197.852 148.576 198.319 148.698 198.919 148.698C199.542 148.698 200.143 148.559 200.721 148.281C201.299 148.003 201.794 147.625 202.205 147.147C202.628 146.669 202.906 146.124 203.039 145.513L203.489 146.914C203.356 147.492 203.128 148.053 202.806 148.598C202.494 149.132 202.111 149.61 201.655 150.033C201.199 150.444 200.687 150.767 200.12 151C199.564 151.245 198.97 151.367 198.336 151.367C197.324 151.367 196.473 151.139 195.784 150.683C195.095 150.227 194.583 149.616 194.249 148.848C193.916 148.07 193.782 147.192 193.849 146.213C193.905 145.168 194.155 144.256 194.6 143.478C195.056 142.7 195.645 142.06 196.368 141.56C197.09 141.048 197.897 140.67 198.786 140.426C199.687 140.17 200.621 140.042 201.588 140.042L204.223 140.059ZM214.464 136.99L212.029 151H209.143L212.279 132.954H214.998L214.464 136.99ZM213.13 141.36L212.079 141.31C212.201 140.365 212.412 139.381 212.713 138.358C213.024 137.324 213.452 136.367 213.997 135.489C214.542 134.611 215.225 133.905 216.048 133.371C216.882 132.826 217.883 132.57 219.05 132.604C219.951 132.637 220.674 132.854 221.219 133.254C221.775 133.654 222.18 134.177 222.436 134.822C222.703 135.456 222.864 136.156 222.92 136.923C222.975 137.679 222.964 138.43 222.886 139.175L220.918 151H218.033L220.018 139.125C220.073 138.547 220.079 137.963 220.034 137.374C220.001 136.773 219.834 136.267 219.534 135.856C219.234 135.433 218.717 135.211 217.983 135.189C217.216 135.167 216.543 135.356 215.965 135.756C215.398 136.156 214.92 136.679 214.531 137.324C214.141 137.957 213.83 138.636 213.597 139.358C213.374 140.07 213.219 140.737 213.13 141.36ZM239.448 151.334C238.281 151.311 237.308 151.078 236.529 150.633C235.751 150.188 235.145 149.588 234.712 148.832C234.278 148.076 233.989 147.22 233.844 146.263C233.711 145.307 233.7 144.312 233.811 143.278L234.061 141.243C234.194 140.176 234.445 139.125 234.812 138.091C235.179 137.057 235.673 136.123 236.296 135.289C236.919 134.444 237.686 133.777 238.598 133.287C239.509 132.798 240.577 132.576 241.8 132.62C243.012 132.654 243.974 132.926 244.685 133.438C245.397 133.949 245.919 134.616 246.253 135.439C246.587 136.262 246.776 137.168 246.82 138.158C246.876 139.147 246.842 140.137 246.72 141.126L246.47 142.844H235.512L235.962 140.326L243.935 140.342L244.001 139.892C244.09 139.214 244.107 138.519 244.051 137.807C243.996 137.085 243.785 136.473 243.418 135.973C243.051 135.461 242.45 135.183 241.616 135.139C240.76 135.094 240.049 135.255 239.482 135.622C238.926 135.989 238.475 136.484 238.131 137.107C237.786 137.729 237.519 138.408 237.33 139.142C237.152 139.864 237.024 140.565 236.946 141.243L236.696 143.295C236.63 143.906 236.607 144.534 236.63 145.179C236.652 145.813 236.757 146.402 236.946 146.947C237.147 147.492 237.463 147.937 237.897 148.281C238.342 148.615 238.953 148.793 239.732 148.815C240.599 148.837 241.377 148.659 242.067 148.281C242.767 147.903 243.407 147.403 243.985 146.78L245.386 148.665C244.908 149.277 244.352 149.782 243.718 150.183C243.095 150.583 242.423 150.878 241.7 151.067C240.977 151.256 240.227 151.345 239.448 151.334ZM257.845 146.247C257.922 145.691 257.822 145.224 257.544 144.846C257.278 144.456 256.922 144.128 256.477 143.862C256.043 143.595 255.615 143.356 255.193 143.144C254.615 142.855 254.053 142.555 253.508 142.244C252.974 141.932 252.496 141.577 252.074 141.176C251.651 140.776 251.323 140.309 251.09 139.775C250.856 139.242 250.762 138.608 250.806 137.874C250.851 137.073 251.045 136.345 251.39 135.689C251.735 135.033 252.191 134.477 252.758 134.021C253.325 133.554 253.964 133.198 254.676 132.954C255.387 132.709 256.132 132.598 256.911 132.62C257.989 132.643 258.912 132.893 259.679 133.371C260.458 133.838 261.041 134.483 261.43 135.306C261.831 136.117 262.009 137.051 261.964 138.108L259.112 138.091C259.134 137.579 259.062 137.107 258.895 136.673C258.74 136.228 258.484 135.873 258.128 135.606C257.772 135.328 257.311 135.183 256.744 135.172C256.21 135.172 255.721 135.278 255.276 135.489C254.831 135.7 254.464 136 254.175 136.39C253.897 136.779 253.719 137.24 253.642 137.774C253.586 138.163 253.619 138.502 253.742 138.791C253.875 139.069 254.064 139.314 254.309 139.525C254.553 139.736 254.826 139.925 255.126 140.092C255.437 140.248 255.743 140.398 256.043 140.543C256.844 140.932 257.611 141.354 258.345 141.81C259.079 142.266 259.668 142.828 260.113 143.495C260.569 144.151 260.769 144.99 260.713 146.013C260.658 146.869 260.452 147.631 260.096 148.298C259.74 148.965 259.268 149.527 258.679 149.983C258.1 150.438 257.439 150.783 256.694 151.017C255.96 151.25 255.182 151.356 254.359 151.334C253.247 151.311 252.268 151.056 251.423 150.566C250.589 150.077 249.945 149.404 249.489 148.548C249.044 147.692 248.844 146.703 248.888 145.579L251.79 145.596C251.768 146.208 251.846 146.753 252.024 147.231C252.202 147.709 252.491 148.087 252.891 148.365C253.302 148.632 253.836 148.771 254.492 148.782C255.037 148.782 255.549 148.693 256.027 148.515C256.505 148.326 256.905 148.048 257.227 147.681C257.561 147.303 257.767 146.825 257.845 146.247ZM273.172 132.954L272.755 135.322H264.549L264.983 132.954H273.172ZM268.402 128.567H271.287L268.235 146.564C268.202 146.853 268.191 147.158 268.202 147.481C268.213 147.803 268.285 148.076 268.419 148.298C268.563 148.52 268.825 148.637 269.203 148.648C269.403 148.648 269.603 148.632 269.803 148.598C270.003 148.554 270.198 148.515 270.387 148.482L270.137 151.017C269.836 151.128 269.525 151.206 269.203 151.25C268.891 151.306 268.574 151.328 268.252 151.317C267.385 151.306 266.734 151.05 266.301 150.55C265.878 150.038 265.606 149.416 265.483 148.682C265.361 147.937 265.333 147.214 265.4 146.513L268.402 128.567ZM282.579 147.914L284.163 138.091C284.219 137.513 284.186 137.007 284.063 136.573C283.952 136.128 283.719 135.778 283.363 135.522C283.018 135.267 282.529 135.139 281.895 135.139C281.317 135.128 280.8 135.244 280.344 135.489C279.888 135.722 279.51 136.051 279.21 136.473C278.921 136.896 278.721 137.385 278.609 137.941L275.757 137.957C275.835 137.146 276.063 136.412 276.441 135.756C276.83 135.089 277.325 134.522 277.926 134.055C278.526 133.577 279.193 133.215 279.927 132.971C280.661 132.715 281.422 132.592 282.212 132.604C283.346 132.615 284.291 132.854 285.047 133.321C285.803 133.777 286.348 134.422 286.682 135.255C287.026 136.078 287.143 137.046 287.032 138.158L285.564 147.064C285.464 147.698 285.425 148.309 285.448 148.899C285.47 149.488 285.498 150.094 285.531 150.716L285.498 151L282.612 151.017C282.501 150.505 282.451 149.988 282.462 149.466C282.473 148.943 282.512 148.426 282.579 147.914ZM284.38 140.059L284.03 142.227L282.195 142.21C281.606 142.21 281.017 142.277 280.427 142.411C279.849 142.544 279.31 142.755 278.809 143.044C278.32 143.322 277.909 143.695 277.575 144.162C277.253 144.618 277.053 145.179 276.975 145.846C276.908 146.391 276.925 146.88 277.025 147.314C277.136 147.737 277.353 148.076 277.675 148.331C278.009 148.576 278.476 148.698 279.076 148.698C279.699 148.698 280.299 148.559 280.878 148.281C281.456 148.003 281.951 147.625 282.362 147.147C282.785 146.669 283.062 146.124 283.196 145.513L283.646 146.914C283.513 147.492 283.285 148.053 282.962 148.598C282.651 149.132 282.267 149.61 281.812 150.033C281.356 150.444 280.844 150.767 280.277 151C279.721 151.245 279.126 151.367 278.493 151.367C277.481 151.367 276.63 151.139 275.941 150.683C275.251 150.227 274.74 149.616 274.406 148.848C274.073 148.07 273.939 147.192 274.006 146.213C274.062 145.168 274.312 144.256 274.757 143.478C275.212 142.7 275.802 142.06 276.525 141.56C277.247 141.048 278.053 140.67 278.943 140.426C279.844 140.17 280.778 140.042 281.745 140.042L284.38 140.059ZM298.857 132.954L298.44 135.322H290.234L290.668 132.954H298.857ZM294.087 128.567H296.972L293.92 146.564C293.887 146.853 293.876 147.158 293.887 147.481C293.898 147.803 293.97 148.076 294.104 148.298C294.248 148.52 294.509 148.637 294.888 148.648C295.088 148.648 295.288 148.632 295.488 148.598C295.688 148.554 295.883 148.515 296.072 148.482L295.822 151.017C295.521 151.128 295.21 151.206 294.888 151.25C294.576 151.306 294.259 151.328 293.937 151.317C293.07 151.306 292.419 151.05 291.985 150.55C291.563 150.038 291.291 149.416 291.168 148.682C291.046 147.937 291.018 147.214 291.085 146.513L294.087 128.567ZM305.595 151.334C304.428 151.311 303.455 151.078 302.676 150.633C301.898 150.188 301.292 149.588 300.858 148.832C300.425 148.076 300.136 147.22 299.991 146.263C299.858 145.307 299.847 144.312 299.958 143.278L300.208 141.243C300.341 140.176 300.592 139.125 300.959 138.091C301.325 137.057 301.82 136.123 302.443 135.289C303.066 134.444 303.833 133.777 304.745 133.287C305.656 132.798 306.724 132.576 307.947 132.62C309.159 132.654 310.121 132.926 310.832 133.438C311.544 133.949 312.066 134.616 312.4 135.439C312.734 136.262 312.923 137.168 312.967 138.158C313.023 139.147 312.989 140.137 312.867 141.126L312.617 142.844H301.659L302.109 140.326L310.082 140.342L310.148 139.892C310.237 139.214 310.254 138.519 310.198 137.807C310.143 137.085 309.932 136.473 309.565 135.973C309.198 135.461 308.597 135.183 307.763 135.139C306.907 135.094 306.196 135.255 305.629 135.622C305.073 135.989 304.622 136.484 304.278 137.107C303.933 137.729 303.666 138.408 303.477 139.142C303.299 139.864 303.171 140.565 303.093 141.243L302.843 143.295C302.776 143.906 302.754 144.534 302.776 145.179C302.799 145.813 302.904 146.402 303.093 146.947C303.294 147.492 303.61 147.937 304.044 148.281C304.489 148.615 305.1 148.793 305.879 148.815C306.746 148.837 307.524 148.659 308.214 148.281C308.914 147.903 309.554 147.403 310.132 146.78L311.533 148.665C311.055 149.277 310.499 149.782 309.865 150.183C309.242 150.583 308.569 150.878 307.847 151.067C307.124 151.256 306.373 151.345 305.595 151.334ZM331.764 146.247C331.842 145.691 331.741 145.224 331.463 144.846C331.197 144.456 330.841 144.128 330.396 143.862C329.962 143.595 329.534 143.356 329.112 143.144C328.534 142.855 327.972 142.555 327.427 142.244C326.894 141.932 326.415 141.577 325.993 141.176C325.57 140.776 325.242 140.309 325.009 139.775C324.775 139.242 324.681 138.608 324.725 137.874C324.77 137.073 324.964 136.345 325.309 135.689C325.654 135.033 326.11 134.477 326.677 134.021C327.244 133.554 327.883 133.198 328.595 132.954C329.306 132.709 330.051 132.598 330.83 132.62C331.908 132.643 332.831 132.893 333.598 133.371C334.377 133.838 334.96 134.483 335.35 135.306C335.75 136.117 335.928 137.051 335.883 138.108L333.031 138.091C333.054 137.579 332.981 137.107 332.814 136.673C332.659 136.228 332.403 135.873 332.047 135.606C331.691 135.328 331.23 135.183 330.663 135.172C330.129 135.172 329.64 135.278 329.195 135.489C328.75 135.7 328.384 136 328.094 136.39C327.816 136.779 327.639 137.24 327.561 137.774C327.505 138.163 327.538 138.502 327.661 138.791C327.794 139.069 327.983 139.314 328.228 139.525C328.472 139.736 328.745 139.925 329.045 140.092C329.356 140.248 329.662 140.398 329.962 140.543C330.763 140.932 331.53 141.354 332.264 141.81C332.998 142.266 333.587 142.828 334.032 143.495C334.488 144.151 334.688 144.99 334.632 146.013C334.577 146.869 334.371 147.631 334.015 148.298C333.66 148.965 333.187 149.527 332.598 149.983C332.019 150.438 331.358 150.783 330.613 151.017C329.879 151.25 329.101 151.356 328.278 151.334C327.166 151.311 326.188 151.056 325.342 150.566C324.509 150.077 323.864 149.404 323.408 148.548C322.963 147.692 322.763 146.703 322.807 145.579L325.709 145.596C325.687 146.208 325.765 146.753 325.943 147.231C326.121 147.709 326.41 148.087 326.81 148.365C327.222 148.632 327.755 148.771 328.411 148.782C328.956 148.782 329.468 148.693 329.946 148.515C330.424 148.326 330.824 148.048 331.147 147.681C331.48 147.303 331.686 146.825 331.764 146.247ZM347.091 132.954L346.674 135.322H338.468L338.902 132.954H347.091ZM342.321 128.567H345.207L342.154 146.564C342.121 146.853 342.11 147.158 342.121 147.481C342.132 147.803 342.204 148.076 342.338 148.298C342.482 148.52 342.744 148.637 343.122 148.648C343.322 148.648 343.522 148.632 343.722 148.598C343.922 148.554 344.117 148.515 344.306 148.482L344.056 151.017C343.756 151.128 343.444 151.206 343.122 151.25C342.81 151.306 342.494 151.328 342.171 151.317C341.304 151.306 340.653 151.05 340.22 150.55C339.797 150.038 339.525 149.416 339.402 148.682C339.28 147.937 339.252 147.214 339.319 146.513L342.321 128.567ZM356.498 147.914L358.082 138.091C358.138 137.513 358.105 137.007 357.982 136.573C357.871 136.128 357.638 135.778 357.282 135.522C356.937 135.267 356.448 135.139 355.814 135.139C355.236 135.128 354.719 135.244 354.263 135.489C353.807 135.722 353.429 136.051 353.129 136.473C352.84 136.896 352.64 137.385 352.528 137.941L349.676 137.957C349.754 137.146 349.982 136.412 350.36 135.756C350.749 135.089 351.244 134.522 351.845 134.055C352.445 133.577 353.112 133.215 353.846 132.971C354.58 132.715 355.342 132.592 356.131 132.604C357.265 132.615 358.21 132.854 358.966 133.321C359.722 133.777 360.267 134.422 360.601 135.255C360.946 136.078 361.062 137.046 360.951 138.158L359.483 147.064C359.383 147.698 359.344 148.309 359.367 148.899C359.389 149.488 359.417 150.094 359.45 150.716L359.417 151L356.531 151.017C356.42 150.505 356.37 149.988 356.381 149.466C356.392 148.943 356.431 148.426 356.498 147.914ZM358.299 140.059L357.949 142.227L356.114 142.21C355.525 142.21 354.936 142.277 354.346 142.411C353.768 142.544 353.229 142.755 352.729 143.044C352.239 143.322 351.828 143.695 351.494 144.162C351.172 144.618 350.972 145.179 350.894 145.846C350.827 146.391 350.844 146.88 350.944 147.314C351.055 147.737 351.272 148.076 351.594 148.331C351.928 148.576 352.395 148.698 352.995 148.698C353.618 148.698 354.219 148.559 354.797 148.281C355.375 148.003 355.87 147.625 356.281 147.147C356.704 146.669 356.982 146.124 357.115 145.513L357.565 146.914C357.432 147.492 357.204 148.053 356.882 148.598C356.57 149.132 356.187 149.61 355.731 150.033C355.275 150.444 354.763 150.767 354.196 151C353.64 151.245 353.045 151.367 352.412 151.367C351.4 151.367 350.549 151.139 349.86 150.683C349.171 150.227 348.659 149.616 348.325 148.848C347.992 148.07 347.858 147.192 347.925 146.213C347.981 145.168 348.231 144.256 348.676 143.478C349.132 142.7 349.721 142.06 350.444 141.56C351.166 141.048 351.972 140.67 352.862 140.426C353.763 140.17 354.697 140.042 355.664 140.042L358.299 140.059ZM370.775 125.382L366.322 151H363.453L367.906 125.382H370.775ZM378.38 125.382L373.927 151H371.058L375.511 125.382H378.38ZM387.77 146.247C387.848 145.691 387.748 145.224 387.47 144.846C387.203 144.456 386.847 144.128 386.402 143.862C385.969 143.595 385.541 143.356 385.118 143.144C384.54 142.855 383.979 142.555 383.434 142.244C382.9 141.932 382.422 141.577 381.999 141.176C381.577 140.776 381.249 140.309 381.015 139.775C380.782 139.242 380.687 138.608 380.732 137.874C380.776 137.073 380.971 136.345 381.316 135.689C381.66 135.033 382.116 134.477 382.683 134.021C383.25 133.554 383.89 133.198 384.601 132.954C385.313 132.709 386.058 132.598 386.836 132.62C387.915 132.643 388.838 132.893 389.605 133.371C390.383 133.838 390.967 134.483 391.356 135.306C391.756 136.117 391.934 137.051 391.89 138.108L389.038 138.091C389.06 137.579 388.988 137.107 388.821 136.673C388.665 136.228 388.409 135.873 388.054 135.606C387.698 135.328 387.236 135.183 386.669 135.172C386.136 135.172 385.646 135.278 385.202 135.489C384.757 135.7 384.39 136 384.101 136.39C383.823 136.779 383.645 137.24 383.567 137.774C383.512 138.163 383.545 138.502 383.667 138.791C383.801 139.069 383.99 139.314 384.234 139.525C384.479 139.736 384.751 139.925 385.052 140.092C385.363 140.248 385.669 140.398 385.969 140.543C386.769 140.932 387.537 141.354 388.27 141.81C389.004 142.266 389.594 142.828 390.038 143.495C390.494 144.151 390.694 144.99 390.639 146.013C390.583 146.869 390.378 147.631 390.022 148.298C389.666 148.965 389.193 149.527 388.604 149.983C388.026 150.438 387.364 150.783 386.619 151.017C385.885 151.25 385.107 151.356 384.284 151.334C383.172 151.311 382.194 151.056 381.349 150.566C380.515 150.077 379.87 149.404 379.414 148.548C378.969 147.692 378.769 146.703 378.814 145.579L381.716 145.596C381.694 146.208 381.771 146.753 381.949 147.231C382.127 147.709 382.416 148.087 382.817 148.365C383.228 148.632 383.762 148.771 384.418 148.782C384.963 148.782 385.474 148.693 385.952 148.515C386.43 148.326 386.831 148.048 387.153 147.681C387.487 147.303 387.692 146.825 387.77 146.247ZM397.06 147.331L396.66 149.799C396.471 151.011 396.043 152.14 395.376 153.185C394.708 154.23 393.891 155.12 392.924 155.853L391.256 154.603C391.645 154.124 392.001 153.635 392.323 153.135C392.646 152.646 392.918 152.129 393.141 151.584C393.374 151.039 393.552 150.466 393.674 149.866L394.108 147.331H397.06ZM414.089 132.954L410.953 151H408.085L411.22 132.954H414.089ZM411.887 128.2C411.909 127.711 412.065 127.289 412.354 126.933C412.643 126.566 413.038 126.377 413.538 126.366C414.061 126.355 414.467 126.527 414.756 126.883C415.045 127.239 415.178 127.661 415.156 128.15C415.134 128.617 414.973 129.029 414.673 129.385C414.372 129.729 413.978 129.907 413.488 129.918C412.977 129.929 412.577 129.768 412.288 129.435C412.01 129.09 411.876 128.679 411.887 128.2ZM425.013 132.954L424.596 135.322H416.39L416.824 132.954H425.013ZM420.243 128.567H423.129L420.076 146.564C420.043 146.853 420.032 147.158 420.043 147.481C420.054 147.803 420.126 148.076 420.26 148.298C420.404 148.52 420.666 148.637 421.044 148.648C421.244 148.648 421.444 148.632 421.644 148.598C421.844 148.554 422.039 148.515 422.228 148.482L421.978 151.017C421.677 151.128 421.366 151.206 421.044 151.25C420.732 151.306 420.415 151.328 420.093 151.317C419.226 151.306 418.575 151.05 418.142 150.55C417.719 150.038 417.447 149.416 417.324 148.682C417.202 147.937 417.174 147.214 417.241 146.513L420.243 128.567ZM432.652 125.382L432.302 127.5C432.179 128.289 431.957 129.051 431.635 129.785C431.323 130.508 430.929 131.192 430.45 131.836C429.983 132.47 429.444 133.043 428.833 133.554L427.281 132.303C427.804 131.581 428.249 130.83 428.616 130.052C428.983 129.273 429.25 128.445 429.416 127.567L429.8 125.382H432.652ZM439.207 146.247C439.284 145.691 439.184 145.224 438.906 144.846C438.64 144.456 438.284 144.128 437.839 143.862C437.405 143.595 436.977 143.356 436.555 143.144C435.977 142.855 435.415 142.555 434.87 142.244C434.336 141.932 433.858 141.577 433.436 141.176C433.013 140.776 432.685 140.309 432.452 139.775C432.218 139.242 432.124 138.608 432.168 137.874C432.213 137.073 432.407 136.345 432.752 135.689C433.097 135.033 433.553 134.477 434.12 134.021C434.687 133.554 435.326 133.198 436.038 132.954C436.749 132.709 437.494 132.598 438.273 132.62C439.351 132.643 440.274 132.893 441.041 133.371C441.82 133.838 442.403 134.483 442.792 135.306C443.193 136.117 443.371 137.051 443.326 138.108L440.474 138.091C440.496 137.579 440.424 137.107 440.257 136.673C440.102 136.228 439.846 135.873 439.49 135.606C439.134 135.328 438.673 135.183 438.106 135.172C437.572 135.172 437.083 135.278 436.638 135.489C436.193 135.7 435.826 136 435.537 136.39C435.259 136.779 435.081 137.24 435.004 137.774C434.948 138.163 434.981 138.502 435.104 138.791C435.237 139.069 435.426 139.314 435.671 139.525C435.915 139.736 436.188 139.925 436.488 140.092C436.799 140.248 437.105 140.398 437.405 140.543C438.206 140.932 438.973 141.354 439.707 141.81C440.441 142.266 441.03 142.828 441.475 143.495C441.931 144.151 442.131 144.99 442.075 146.013C442.02 146.869 441.814 147.631 441.458 148.298C441.102 148.965 440.63 149.527 440.041 149.983C439.462 150.438 438.801 150.783 438.056 151.017C437.322 151.25 436.544 151.356 435.721 151.334C434.609 151.311 433.63 151.056 432.785 150.566C431.951 150.077 431.307 149.404 430.851 148.548C430.406 147.692 430.206 146.703 430.25 145.579L433.152 145.596C433.13 146.208 433.208 146.753 433.386 147.231C433.564 147.709 433.853 148.087 434.253 148.365C434.665 148.632 435.198 148.771 435.854 148.782C436.399 148.782 436.911 148.693 437.389 148.515C437.867 148.326 438.267 148.048 438.59 147.681C438.923 147.303 439.129 146.825 439.207 146.247ZM462.356 146.664L464.741 132.954H467.627L464.491 151H461.756L462.356 146.664ZM463.44 142.961L464.441 142.928C464.319 143.906 464.13 144.901 463.874 145.913C463.618 146.914 463.246 147.831 462.757 148.665C462.279 149.499 461.639 150.166 460.839 150.666C460.038 151.156 459.037 151.384 457.836 151.35C456.902 151.328 456.158 151.111 455.602 150.7C455.046 150.277 454.629 149.738 454.351 149.082C454.073 148.415 453.906 147.692 453.85 146.914C453.795 146.124 453.811 145.352 453.9 144.595L455.852 132.954H458.72L456.769 144.645C456.736 145.001 456.713 145.407 456.702 145.863C456.691 146.319 456.73 146.764 456.819 147.197C456.919 147.62 457.097 147.976 457.353 148.265C457.62 148.543 458.003 148.693 458.504 148.715C459.616 148.771 460.511 148.509 461.189 147.931C461.867 147.353 462.379 146.614 462.723 145.713C463.079 144.801 463.318 143.884 463.44 142.961ZM478.101 146.247C478.179 145.691 478.079 145.224 477.801 144.846C477.534 144.456 477.178 144.128 476.733 143.862C476.3 143.595 475.872 143.356 475.449 143.144C474.871 142.855 474.309 142.555 473.764 142.244C473.231 141.932 472.753 141.577 472.33 141.176C471.908 140.776 471.58 140.309 471.346 139.775C471.113 139.242 471.018 138.608 471.063 137.874C471.107 137.073 471.302 136.345 471.646 135.689C471.991 135.033 472.447 134.477 473.014 134.021C473.581 133.554 474.22 133.198 474.932 132.954C475.644 132.709 476.389 132.598 477.167 132.62C478.245 132.643 479.168 132.893 479.936 133.371C480.714 133.838 481.298 134.483 481.687 135.306C482.087 136.117 482.265 137.051 482.22 138.108L479.368 138.091C479.391 137.579 479.318 137.107 479.152 136.673C478.996 136.228 478.74 135.873 478.384 135.606C478.029 135.328 477.567 135.183 477 135.172C476.466 135.172 475.977 135.278 475.532 135.489C475.088 135.7 474.721 136 474.432 136.39C474.154 136.779 473.976 137.24 473.898 137.774C473.842 138.163 473.876 138.502 473.998 138.791C474.131 139.069 474.32 139.314 474.565 139.525C474.81 139.736 475.082 139.925 475.382 140.092C475.694 140.248 475.999 140.398 476.3 140.543C477.1 140.932 477.867 141.354 478.601 141.81C479.335 142.266 479.924 142.828 480.369 143.495C480.825 144.151 481.025 144.99 480.97 146.013C480.914 146.869 480.708 147.631 480.352 148.298C479.997 148.965 479.524 149.527 478.935 149.983C478.357 150.438 477.695 150.783 476.95 151.017C476.216 151.25 475.438 151.356 474.615 151.334C473.503 151.311 472.525 151.056 471.68 150.566C470.846 150.077 470.201 149.404 469.745 148.548C469.3 147.692 469.1 146.703 469.145 145.579L472.047 145.596C472.024 146.208 472.102 146.753 472.28 147.231C472.458 147.709 472.747 148.087 473.147 148.365C473.559 148.632 474.092 148.771 474.748 148.782C475.293 148.782 475.805 148.693 476.283 148.515C476.761 148.326 477.161 148.048 477.484 147.681C477.817 147.303 478.023 146.825 478.101 146.247ZM493.478 146.664L495.863 132.954H498.749L495.613 151H492.878L493.478 146.664ZM494.563 142.961L495.563 142.928C495.441 143.906 495.252 144.901 494.996 145.913C494.74 146.914 494.368 147.831 493.879 148.665C493.401 149.499 492.761 150.166 491.961 150.666C491.16 151.156 490.159 151.384 488.959 151.35C488.025 151.328 487.28 151.111 486.724 150.7C486.168 150.277 485.751 149.738 485.473 149.082C485.195 148.415 485.028 147.692 484.972 146.914C484.917 146.124 484.933 145.352 485.022 144.595L486.974 132.954H489.843L487.891 144.645C487.858 145.001 487.836 145.407 487.824 145.863C487.813 146.319 487.852 146.764 487.941 147.197C488.041 147.62 488.219 147.976 488.475 148.265C488.742 148.543 489.125 148.693 489.626 148.715C490.738 148.771 491.633 148.509 492.311 147.931C492.989 147.353 493.501 146.614 493.845 145.713C494.201 144.801 494.44 143.884 494.563 142.961ZM509.039 147.914L510.624 138.091C510.68 137.513 510.646 137.007 510.524 136.573C510.413 136.128 510.179 135.778 509.823 135.522C509.479 135.267 508.989 135.139 508.356 135.139C507.777 135.128 507.26 135.244 506.805 135.489C506.349 135.722 505.971 136.051 505.67 136.473C505.381 136.896 505.181 137.385 505.07 137.941L502.218 137.957C502.296 137.146 502.524 136.412 502.902 135.756C503.291 135.089 503.786 134.522 504.386 134.055C504.987 133.577 505.654 133.215 506.388 132.971C507.121 132.715 507.883 132.592 508.673 132.604C509.807 132.615 510.752 132.854 511.508 133.321C512.264 133.777 512.809 134.422 513.142 135.255C513.487 136.078 513.604 137.046 513.493 138.158L512.025 147.064C511.925 147.698 511.886 148.309 511.908 148.899C511.93 149.488 511.958 150.094 511.992 150.716L511.958 151L509.073 151.017C508.962 150.505 508.912 149.988 508.923 149.466C508.934 148.943 508.973 148.426 509.039 147.914ZM510.841 140.059L510.491 142.227L508.656 142.21C508.067 142.21 507.477 142.277 506.888 142.411C506.31 142.544 505.77 142.755 505.27 143.044C504.781 143.322 504.369 143.695 504.036 144.162C503.713 144.618 503.513 145.179 503.436 145.846C503.369 146.391 503.385 146.88 503.486 147.314C503.597 147.737 503.814 148.076 504.136 148.331C504.47 148.576 504.937 148.698 505.537 148.698C506.16 148.698 506.76 148.559 507.338 148.281C507.916 148.003 508.411 147.625 508.823 147.147C509.245 146.669 509.523 146.124 509.657 145.513L510.107 146.914C509.973 147.492 509.746 148.053 509.423 148.598C509.112 149.132 508.728 149.61 508.272 150.033C507.816 150.444 507.305 150.767 506.738 151C506.182 151.245 505.587 151.367 504.953 151.367C503.941 151.367 503.091 151.139 502.401 150.683C501.712 150.227 501.201 149.616 500.867 148.848C500.533 148.07 500.4 147.192 500.467 146.213C500.522 145.168 500.773 144.256 501.217 143.478C501.673 142.7 502.262 142.06 502.985 141.56C503.708 141.048 504.514 140.67 505.404 140.426C506.304 140.17 507.238 140.042 508.206 140.042L510.841 140.059ZM523.316 125.382L518.863 151H515.994L520.448 125.382H523.316ZM530.922 125.382L526.468 151H523.6L528.053 125.382H530.922ZM535.408 148.949L542.03 132.954H545.182L535.858 153.802C535.625 154.336 535.347 154.869 535.025 155.403C534.713 155.948 534.346 156.443 533.924 156.888C533.512 157.332 533.04 157.688 532.506 157.955C531.984 158.222 531.394 158.35 530.738 158.339C530.471 158.339 530.204 158.305 529.938 158.238C529.66 158.183 529.387 158.116 529.12 158.038L529.404 155.537C529.504 155.559 529.604 155.575 529.704 155.587C529.804 155.609 529.904 155.626 530.004 155.637C530.683 155.67 531.255 155.553 531.722 155.286C532.189 155.02 532.584 154.653 532.906 154.186C533.229 153.73 533.512 153.218 533.757 152.651L535.408 148.949ZM535.625 132.954L536.692 147.114L536.859 150.316L534.708 151.4L532.573 132.954H535.625ZM562.11 132.954L561.693 135.322H553.488L553.921 132.954H562.11ZM557.34 128.567H560.226L557.174 146.564C557.14 146.853 557.129 147.158 557.14 147.481C557.151 147.803 557.224 148.076 557.357 148.298C557.502 148.52 557.763 148.637 558.141 148.648C558.341 148.648 558.541 148.632 558.741 148.598C558.942 148.554 559.136 148.515 559.325 148.482L559.075 151.017C558.775 151.128 558.463 151.206 558.141 151.25C557.83 151.306 557.513 151.328 557.19 151.317C556.323 151.306 555.673 151.05 555.239 150.55C554.816 150.038 554.544 149.416 554.422 148.682C554.299 147.937 554.272 147.214 554.338 146.513L557.34 128.567ZM569.699 125.382L565.246 151H562.361L566.814 125.382H569.699ZM566.347 141.36L565.296 141.31C565.418 140.365 565.63 139.381 565.93 138.358C566.241 137.324 566.669 136.367 567.214 135.489C567.759 134.599 568.443 133.888 569.266 133.354C570.099 132.82 571.1 132.576 572.268 132.62C573.168 132.643 573.891 132.854 574.436 133.254C574.992 133.654 575.398 134.177 575.653 134.822C575.92 135.456 576.081 136.156 576.137 136.923C576.193 137.679 576.182 138.43 576.104 139.175L574.136 151H571.25L573.235 139.125C573.291 138.547 573.296 137.963 573.252 137.374C573.218 136.773 573.052 136.267 572.751 135.856C572.451 135.433 571.934 135.211 571.2 135.189C570.433 135.167 569.76 135.356 569.182 135.756C568.615 136.156 568.137 136.679 567.748 137.324C567.359 137.957 567.047 138.636 566.814 139.358C566.591 140.07 566.436 140.737 566.347 141.36ZM584.86 151.334C583.692 151.311 582.72 151.078 581.941 150.633C581.163 150.188 580.557 149.588 580.123 148.832C579.69 148.076 579.401 147.22 579.256 146.263C579.123 145.307 579.111 144.312 579.223 143.278L579.473 141.243C579.606 140.176 579.856 139.125 580.223 138.091C580.59 137.057 581.085 136.123 581.708 135.289C582.33 134.444 583.098 133.777 584.009 133.287C584.921 132.798 585.989 132.576 587.212 132.62C588.424 132.654 589.385 132.926 590.097 133.438C590.809 133.949 591.331 134.616 591.665 135.439C591.998 136.262 592.187 137.168 592.232 138.158C592.287 139.147 592.254 140.137 592.132 141.126L591.882 142.844H580.924L581.374 140.326L589.346 140.342L589.413 139.892C589.502 139.214 589.519 138.519 589.463 137.807C589.408 137.085 589.196 136.473 588.829 135.973C588.462 135.461 587.862 135.183 587.028 135.139C586.172 135.094 585.46 135.255 584.893 135.622C584.337 135.989 583.887 136.484 583.542 137.107C583.198 137.729 582.931 138.408 582.742 139.142C582.564 139.864 582.436 140.565 582.358 141.243L582.108 143.295C582.041 143.906 582.019 144.534 582.041 145.179C582.064 145.813 582.169 146.402 582.358 146.947C582.558 147.492 582.875 147.937 583.309 148.281C583.754 148.615 584.365 148.793 585.143 148.815C586.011 148.837 586.789 148.659 587.478 148.281C588.179 147.903 588.818 147.403 589.396 146.78L590.797 148.665C590.319 149.277 589.763 149.782 589.13 150.183C588.507 150.583 587.834 150.878 587.112 151.067C586.389 151.256 585.638 151.345 584.86 151.334ZM607.076 136.606L603.373 157.938H600.488L604.824 132.954H607.443L607.076 136.606ZM616.015 141.16L615.799 142.828C615.676 143.806 615.465 144.807 615.165 145.83C614.876 146.841 614.464 147.77 613.931 148.615C613.408 149.46 612.735 150.138 611.912 150.65C611.09 151.15 610.083 151.378 608.894 151.334C607.871 151.3 607.037 151.033 606.392 150.533C605.758 150.033 605.274 149.388 604.941 148.598C604.618 147.809 604.407 146.964 604.307 146.063C604.207 145.151 604.19 144.279 604.257 143.445L604.607 140.876C604.763 139.964 605.002 139.025 605.324 138.057C605.647 137.079 606.075 136.173 606.609 135.339C607.142 134.505 607.804 133.832 608.593 133.321C609.394 132.809 610.345 132.57 611.445 132.604C612.613 132.637 613.53 132.926 614.197 133.471C614.865 134.005 615.343 134.7 615.632 135.556C615.932 136.401 616.099 137.318 616.132 138.308C616.165 139.286 616.127 140.237 616.015 141.16ZM612.947 142.844L613.147 141.143C613.213 140.554 613.252 139.925 613.263 139.258C613.286 138.58 613.219 137.935 613.063 137.324C612.919 136.712 612.635 136.212 612.213 135.823C611.801 135.422 611.201 135.211 610.411 135.189C609.811 135.178 609.255 135.3 608.744 135.556C608.243 135.811 607.793 136.156 607.393 136.59C606.992 137.023 606.653 137.507 606.375 138.041C606.108 138.563 605.908 139.092 605.775 139.625L604.958 144.712C604.946 145.357 605.063 145.991 605.308 146.614C605.552 147.225 605.908 147.737 606.375 148.148C606.853 148.559 607.443 148.782 608.143 148.815C608.988 148.86 609.694 148.704 610.261 148.348C610.839 147.992 611.306 147.52 611.662 146.93C612.029 146.33 612.313 145.674 612.513 144.962C612.713 144.24 612.858 143.534 612.947 142.844ZM623.537 135.906L620.919 151H618.033L621.169 132.954H623.954L623.537 135.906ZM628.357 132.837L628.041 135.706C627.829 135.661 627.612 135.622 627.39 135.589C627.179 135.556 626.968 135.539 626.756 135.539C626.1 135.528 625.533 135.656 625.055 135.923C624.577 136.189 624.166 136.545 623.821 136.99C623.487 137.435 623.204 137.924 622.97 138.458C622.737 138.991 622.548 139.531 622.403 140.076L621.553 140.576C621.653 139.82 621.808 138.98 622.02 138.057C622.242 137.123 622.559 136.234 622.97 135.389C623.382 134.533 623.921 133.838 624.588 133.304C625.255 132.77 626.089 132.526 627.09 132.57C627.312 132.581 627.524 132.615 627.724 132.67C627.935 132.715 628.146 132.77 628.357 132.837ZM628.674 142.844L628.891 141.143C629.036 140.064 629.303 139.014 629.692 137.991C630.092 136.968 630.62 136.045 631.276 135.222C631.932 134.399 632.722 133.749 633.645 133.271C634.579 132.793 635.657 132.576 636.88 132.62C638.037 132.654 638.998 132.926 639.766 133.438C640.533 133.938 641.128 134.599 641.55 135.422C641.984 136.245 642.267 137.151 642.401 138.141C642.534 139.13 642.551 140.126 642.451 141.126L642.234 142.844C642.089 143.912 641.817 144.962 641.417 145.996C641.028 147.019 640.499 147.942 639.832 148.765C639.176 149.577 638.381 150.222 637.447 150.7C636.524 151.167 635.457 151.378 634.245 151.334C633.077 151.311 632.11 151.044 631.343 150.533C630.587 150.022 629.992 149.354 629.558 148.532C629.136 147.709 628.858 146.803 628.724 145.813C628.591 144.823 628.574 143.834 628.674 142.844ZM631.777 141.126L631.56 142.878C631.504 143.434 631.482 144.051 631.493 144.729C631.504 145.396 631.599 146.035 631.777 146.647C631.954 147.258 632.249 147.77 632.661 148.181C633.083 148.582 633.667 148.798 634.412 148.832C635.257 148.876 635.968 148.721 636.547 148.365C637.136 148.009 637.62 147.536 637.998 146.947C638.387 146.347 638.687 145.691 638.898 144.979C639.11 144.256 639.26 143.545 639.349 142.844L639.565 141.11C639.621 140.554 639.643 139.942 639.632 139.275C639.621 138.608 639.527 137.969 639.349 137.357C639.171 136.734 638.87 136.217 638.448 135.806C638.037 135.394 637.453 135.172 636.697 135.139C635.907 135.105 635.218 135.272 634.629 135.639C634.05 135.995 633.567 136.479 633.178 137.09C632.788 137.702 632.477 138.363 632.244 139.075C632.021 139.786 631.866 140.47 631.777 141.126ZM649.839 136.606L646.137 157.938H643.251L647.588 132.954H650.206L649.839 136.606ZM658.779 141.16L658.562 142.828C658.44 143.806 658.229 144.807 657.928 145.83C657.639 146.841 657.228 147.77 656.694 148.615C656.172 149.46 655.499 150.138 654.676 150.65C653.853 151.15 652.847 151.378 651.657 151.334C650.634 151.3 649.8 151.033 649.156 150.533C648.522 150.033 648.038 149.388 647.705 148.598C647.382 147.809 647.171 146.964 647.071 146.063C646.971 145.151 646.954 144.279 647.021 143.445L647.371 140.876C647.527 139.964 647.766 139.025 648.088 138.057C648.411 137.079 648.839 136.173 649.372 135.339C649.906 134.505 650.568 133.832 651.357 133.321C652.158 132.809 653.108 132.57 654.209 132.604C655.377 132.637 656.294 132.926 656.961 133.471C657.628 134.005 658.106 134.7 658.395 135.556C658.696 136.401 658.862 137.318 658.896 138.308C658.929 139.286 658.89 140.237 658.779 141.16ZM655.71 142.844L655.91 141.143C655.977 140.554 656.016 139.925 656.027 139.258C656.049 138.58 655.983 137.935 655.827 137.324C655.682 136.712 655.399 136.212 654.976 135.823C654.565 135.422 653.965 135.211 653.175 135.189C652.575 135.178 652.019 135.3 651.507 135.556C651.007 135.811 650.557 136.156 650.156 136.59C649.756 137.023 649.417 137.507 649.139 138.041C648.872 138.563 648.672 139.092 648.538 139.625L647.721 144.712C647.71 145.357 647.827 145.991 648.071 146.614C648.316 147.225 648.672 147.737 649.139 148.148C649.617 148.559 650.206 148.782 650.907 148.815C651.752 148.86 652.458 148.704 653.025 148.348C653.603 147.992 654.07 147.52 654.426 146.93C654.793 146.33 655.076 145.674 655.277 144.962C655.477 144.24 655.621 143.534 655.71 142.844ZM667.285 151.334C666.118 151.311 665.145 151.078 664.366 150.633C663.588 150.188 662.982 149.588 662.548 148.832C662.115 148.076 661.826 147.22 661.681 146.263C661.548 145.307 661.537 144.312 661.648 143.278L661.898 141.243C662.031 140.176 662.282 139.125 662.648 138.091C663.015 137.057 663.51 136.123 664.133 135.289C664.755 134.444 665.523 133.777 666.434 133.287C667.346 132.798 668.414 132.576 669.637 132.62C670.849 132.654 671.811 132.926 672.522 133.438C673.234 133.949 673.756 134.616 674.09 135.439C674.423 136.262 674.612 137.168 674.657 138.158C674.713 139.147 674.679 140.137 674.557 141.126L674.307 142.844H663.349L663.799 140.326L671.772 140.342L671.838 139.892C671.927 139.214 671.944 138.519 671.888 137.807C671.833 137.085 671.621 136.473 671.255 135.973C670.888 135.461 670.287 135.183 669.453 135.139C668.597 135.094 667.885 135.255 667.318 135.622C666.762 135.989 666.312 136.484 665.967 137.107C665.623 137.729 665.356 138.408 665.167 139.142C664.989 139.864 664.861 140.565 664.783 141.243L664.533 143.295C664.466 143.906 664.444 144.534 664.466 145.179C664.489 145.813 664.594 146.402 664.783 146.947C664.983 147.492 665.3 147.937 665.734 148.281C666.179 148.615 666.79 148.793 667.569 148.815C668.436 148.837 669.214 148.659 669.904 148.281C670.604 147.903 671.243 147.403 671.822 146.78L673.223 148.665C672.744 149.277 672.189 149.782 671.555 150.183C670.932 150.583 670.259 150.878 669.537 151.067C668.814 151.256 668.063 151.345 667.285 151.334ZM681.845 135.906L679.227 151H676.342L679.477 132.954H682.262L681.845 135.906ZM686.665 132.837L686.349 135.706C686.137 135.661 685.921 135.622 685.698 135.589C685.487 135.556 685.276 135.539 685.064 135.539C684.408 135.528 683.841 135.656 683.363 135.923C682.885 136.189 682.474 136.545 682.129 136.99C681.795 137.435 681.512 137.924 681.278 138.458C681.045 138.991 680.856 139.531 680.711 140.076L679.861 140.576C679.961 139.82 680.116 138.98 680.328 138.057C680.55 137.123 680.867 136.234 681.278 135.389C681.69 134.533 682.229 133.838 682.896 133.304C683.563 132.77 684.397 132.526 685.398 132.57C685.62 132.581 685.832 132.615 686.032 132.67C686.243 132.715 686.454 132.77 686.665 132.837ZM696.839 132.954L696.422 135.322H688.217L688.65 132.954H696.839ZM692.069 128.567H694.955L691.903 146.564C691.869 146.853 691.858 147.158 691.869 147.481C691.88 147.803 691.953 148.076 692.086 148.298C692.231 148.52 692.492 148.637 692.87 148.648C693.07 148.648 693.27 148.632 693.47 148.598C693.67 148.554 693.865 148.515 694.054 148.482L693.804 151.017C693.504 151.128 693.192 151.206 692.87 151.25C692.559 151.306 692.242 151.328 691.919 151.317C691.052 151.306 690.401 151.05 689.968 150.55C689.545 150.038 689.273 149.416 689.151 148.682C689.028 147.937 689 147.214 689.067 146.513L692.069 128.567ZM701.526 148.949L708.147 132.954H711.3L701.976 153.802C701.743 154.336 701.465 154.869 701.142 155.403C700.831 155.948 700.464 156.443 700.042 156.888C699.63 157.332 699.158 157.688 698.624 157.955C698.101 158.222 697.512 158.35 696.856 158.339C696.589 158.339 696.322 158.305 696.055 158.238C695.778 158.183 695.505 158.116 695.238 158.038L695.522 155.537C695.622 155.559 695.722 155.575 695.822 155.587C695.922 155.609 696.022 155.626 696.122 155.637C696.8 155.67 697.373 155.553 697.84 155.286C698.307 155.02 698.702 154.653 699.024 154.186C699.347 153.73 699.63 153.218 699.875 152.651L701.526 148.949ZM701.743 132.954L702.81 147.114L702.977 150.316L700.826 151.4L698.691 132.954H701.743ZM709.582 149.416C709.582 148.871 709.754 148.415 710.099 148.048C710.455 147.681 710.905 147.492 711.45 147.481C711.995 147.47 712.439 147.637 712.784 147.981C713.14 148.326 713.312 148.771 713.301 149.315C713.301 149.86 713.123 150.311 712.767 150.666C712.423 151.022 711.978 151.206 711.433 151.217C710.899 151.228 710.455 151.067 710.099 150.733C709.743 150.4 709.571 149.96 709.582 149.416Z" fill="white"/>
<path d="M125.609 168.716L121.389 193H118.421L122.64 168.716H125.609ZM131.797 168.716L131.33 171.351H115.985L116.452 168.716H131.797ZM137.984 167.382L133.531 193H130.646L135.099 167.382H137.984ZM134.632 183.36L133.581 183.31C133.704 182.365 133.915 181.381 134.215 180.358C134.526 179.324 134.954 178.367 135.499 177.489C136.044 176.599 136.728 175.888 137.551 175.354C138.385 174.82 139.385 174.576 140.553 174.62C141.454 174.643 142.176 174.854 142.721 175.254C143.277 175.654 143.683 176.177 143.939 176.822C144.205 177.456 144.367 178.156 144.422 178.923C144.478 179.679 144.467 180.43 144.389 181.175L142.421 193H139.535L141.52 181.125C141.576 180.547 141.581 179.963 141.537 179.374C141.504 178.773 141.337 178.267 141.037 177.856C140.736 177.433 140.219 177.211 139.485 177.189C138.718 177.167 138.046 177.356 137.467 177.756C136.9 178.156 136.422 178.679 136.033 179.324C135.644 179.957 135.333 180.636 135.099 181.358C134.877 182.07 134.721 182.737 134.632 183.36ZM153.145 193.334C151.978 193.311 151.005 193.078 150.226 192.633C149.448 192.188 148.842 191.588 148.408 190.832C147.975 190.076 147.686 189.22 147.541 188.263C147.408 187.307 147.397 186.312 147.508 185.278L147.758 183.243C147.891 182.176 148.142 181.125 148.509 180.091C148.875 179.057 149.37 178.123 149.993 177.289C150.616 176.444 151.383 175.777 152.295 175.287C153.206 174.798 154.274 174.576 155.497 174.62C156.709 174.654 157.671 174.926 158.382 175.438C159.094 175.949 159.616 176.616 159.95 177.439C160.284 178.262 160.473 179.168 160.517 180.158C160.573 181.147 160.539 182.137 160.417 183.126L160.167 184.844H149.209L149.659 182.326L157.632 182.342L157.698 181.892C157.787 181.214 157.804 180.519 157.748 179.807C157.693 179.085 157.482 178.473 157.115 177.973C156.748 177.461 156.147 177.183 155.313 177.139C154.457 177.094 153.746 177.255 153.179 177.622C152.623 177.989 152.172 178.484 151.828 179.107C151.483 179.729 151.216 180.408 151.027 181.142C150.849 181.864 150.721 182.565 150.643 183.243L150.393 185.295C150.326 185.906 150.304 186.534 150.326 187.179C150.349 187.813 150.454 188.402 150.643 188.947C150.844 189.492 151.16 189.937 151.594 190.281C152.039 190.615 152.65 190.793 153.429 190.815C154.296 190.837 155.074 190.659 155.764 190.281C156.464 189.903 157.104 189.403 157.682 188.78L159.083 190.665C158.605 191.277 158.049 191.782 157.415 192.183C156.792 192.583 156.119 192.878 155.397 193.067C154.674 193.256 153.923 193.345 153.145 193.334ZM175.478 177.906L172.859 193H169.974L173.109 174.954H175.895L175.478 177.906ZM180.298 174.837L179.981 177.706C179.77 177.661 179.553 177.622 179.33 177.589C179.119 177.556 178.908 177.539 178.697 177.539C178.041 177.528 177.474 177.656 176.995 177.923C176.517 178.189 176.106 178.545 175.761 178.99C175.428 179.435 175.144 179.924 174.911 180.458C174.677 180.991 174.488 181.531 174.344 182.076L173.493 182.576C173.593 181.82 173.749 180.98 173.96 180.057C174.182 179.123 174.499 178.234 174.911 177.389C175.322 176.533 175.861 175.838 176.528 175.304C177.196 174.77 178.029 174.526 179.03 174.57C179.253 174.581 179.464 174.615 179.664 174.67C179.875 174.715 180.086 174.77 180.298 174.837ZM186.319 174.954L183.183 193H180.314L183.45 174.954H186.319ZM184.117 170.2C184.139 169.711 184.295 169.289 184.584 168.933C184.873 168.566 185.268 168.377 185.768 168.366C186.291 168.355 186.697 168.527 186.986 168.883C187.275 169.239 187.408 169.661 187.386 170.15C187.364 170.617 187.203 171.029 186.902 171.385C186.602 171.729 186.207 171.907 185.718 171.918C185.207 171.929 184.806 171.768 184.517 171.435C184.239 171.09 184.106 170.679 184.117 170.2ZM200.295 174.954H202.897L199.812 193.15C199.634 194.484 199.245 195.691 198.644 196.769C198.044 197.848 197.232 198.687 196.209 199.288C195.186 199.899 193.952 200.183 192.506 200.138C191.873 200.127 191.239 200.022 190.605 199.822C189.982 199.632 189.388 199.366 188.82 199.021C188.253 198.687 187.764 198.293 187.353 197.837L188.704 195.769C189.182 196.313 189.727 196.747 190.338 197.07C190.961 197.403 191.645 197.581 192.39 197.603C193.29 197.637 194.052 197.47 194.675 197.103C195.308 196.736 195.809 196.219 196.176 195.552C196.543 194.896 196.787 194.151 196.91 193.317L199.361 178.773L200.295 174.954ZM188.587 184.844L188.804 183.193C188.926 182.181 189.137 181.164 189.438 180.141C189.749 179.118 190.171 178.184 190.705 177.339C191.25 176.483 191.939 175.804 192.773 175.304C193.618 174.804 194.641 174.576 195.842 174.62C196.887 174.654 197.716 174.943 198.327 175.488C198.95 176.032 199.411 176.727 199.712 177.572C200.012 178.417 200.19 179.307 200.245 180.241C200.312 181.175 200.312 182.053 200.245 182.876L199.945 185.128C199.8 186.017 199.567 186.951 199.245 187.93C198.933 188.897 198.516 189.798 197.994 190.632C197.471 191.466 196.815 192.138 196.026 192.65C195.247 193.15 194.313 193.384 193.224 193.35C192.089 193.317 191.189 193.028 190.522 192.483C189.866 191.938 189.376 191.238 189.054 190.381C188.743 189.525 188.559 188.614 188.504 187.646C188.459 186.668 188.487 185.734 188.587 184.844ZM191.656 183.16L191.472 184.861C191.406 185.439 191.361 186.062 191.339 186.729C191.328 187.396 191.389 188.03 191.522 188.63C191.667 189.231 191.939 189.731 192.34 190.131C192.751 190.52 193.351 190.726 194.141 190.748C194.93 190.771 195.636 190.565 196.259 190.131C196.893 189.698 197.421 189.142 197.844 188.463C198.266 187.785 198.577 187.096 198.778 186.395L199.528 181.625C199.55 181.136 199.5 180.641 199.378 180.141C199.267 179.629 199.083 179.157 198.828 178.723C198.572 178.29 198.244 177.939 197.844 177.672C197.443 177.394 196.971 177.239 196.426 177.205C195.581 177.161 194.869 177.317 194.291 177.672C193.724 178.017 193.262 178.49 192.907 179.09C192.551 179.679 192.273 180.335 192.073 181.058C191.884 181.77 191.745 182.47 191.656 183.16ZM211.37 167.382L206.917 193H204.031L208.484 167.382H211.37ZM208.017 183.36L206.967 183.31C207.089 182.365 207.3 181.381 207.6 180.358C207.912 179.324 208.34 178.367 208.885 177.489C209.43 176.599 210.113 175.888 210.936 175.354C211.77 174.82 212.771 174.576 213.938 174.62C214.839 174.643 215.562 174.854 216.106 175.254C216.662 175.654 217.068 176.177 217.324 176.822C217.591 177.456 217.752 178.156 217.808 178.923C217.863 179.679 217.852 180.43 217.774 181.175L215.806 193H212.921L214.906 181.125C214.961 180.547 214.967 179.963 214.922 179.374C214.889 178.773 214.722 178.267 214.422 177.856C214.122 177.433 213.605 177.211 212.871 177.189C212.104 177.167 211.431 177.356 210.853 177.756C210.286 178.156 209.808 178.679 209.418 179.324C209.029 179.957 208.718 180.636 208.484 181.358C208.262 182.07 208.106 182.737 208.017 183.36ZM229.599 174.954L229.182 177.322H220.977L221.41 174.954H229.599ZM224.829 170.567H227.715L224.663 188.564C224.629 188.853 224.618 189.158 224.629 189.481C224.64 189.803 224.713 190.076 224.846 190.298C224.991 190.52 225.252 190.637 225.63 190.648C225.83 190.648 226.03 190.632 226.23 190.598C226.43 190.554 226.625 190.515 226.814 190.482L226.564 193.017C226.264 193.128 225.952 193.206 225.63 193.25C225.319 193.306 225.002 193.328 224.679 193.317C223.812 193.306 223.161 193.05 222.728 192.55C222.305 192.038 222.033 191.416 221.911 190.682C221.788 189.937 221.76 189.214 221.827 188.513L224.829 170.567ZM246.962 188.247C247.04 187.691 246.939 187.224 246.661 186.846C246.395 186.456 246.039 186.128 245.594 185.862C245.16 185.595 244.732 185.356 244.31 185.144C243.732 184.855 243.17 184.555 242.625 184.244C242.092 183.932 241.613 183.577 241.191 183.176C240.768 182.776 240.44 182.309 240.207 181.775C239.973 181.242 239.879 180.608 239.923 179.874C239.968 179.073 240.162 178.345 240.507 177.689C240.852 177.033 241.308 176.477 241.875 176.021C242.442 175.554 243.081 175.198 243.793 174.954C244.504 174.709 245.249 174.598 246.028 174.62C247.106 174.643 248.029 174.893 248.796 175.371C249.575 175.838 250.158 176.483 250.548 177.306C250.948 178.117 251.126 179.051 251.081 180.108L248.229 180.091C248.252 179.579 248.179 179.107 248.012 178.673C247.857 178.228 247.601 177.873 247.245 177.606C246.889 177.328 246.428 177.183 245.861 177.172C245.327 177.172 244.838 177.278 244.393 177.489C243.948 177.7 243.582 178 243.292 178.39C243.014 178.779 242.837 179.24 242.759 179.774C242.703 180.163 242.736 180.502 242.859 180.791C242.992 181.069 243.181 181.314 243.426 181.525C243.67 181.736 243.943 181.925 244.243 182.092C244.554 182.248 244.86 182.398 245.16 182.543C245.961 182.932 246.728 183.354 247.462 183.81C248.196 184.266 248.785 184.828 249.23 185.495C249.686 186.151 249.886 186.99 249.83 188.013C249.775 188.869 249.569 189.631 249.213 190.298C248.857 190.965 248.385 191.527 247.796 191.983C247.217 192.438 246.556 192.783 245.811 193.017C245.077 193.25 244.299 193.356 243.476 193.334C242.364 193.311 241.386 193.056 240.54 192.566C239.707 192.077 239.062 191.404 238.606 190.548C238.161 189.692 237.961 188.703 238.005 187.579L240.907 187.596C240.885 188.208 240.963 188.753 241.141 189.231C241.319 189.709 241.608 190.087 242.008 190.365C242.42 190.632 242.953 190.771 243.609 190.782C244.154 190.782 244.666 190.693 245.144 190.515C245.622 190.326 246.022 190.048 246.345 189.681C246.678 189.303 246.884 188.825 246.962 188.247ZM257.169 190.949L263.79 174.954H266.943L257.619 195.802C257.386 196.336 257.108 196.869 256.785 197.403C256.474 197.948 256.107 198.443 255.685 198.888C255.273 199.332 254.801 199.688 254.267 199.955C253.744 200.222 253.155 200.35 252.499 200.339C252.232 200.339 251.965 200.305 251.698 200.238C251.42 200.183 251.148 200.116 250.881 200.038L251.165 197.537C251.265 197.559 251.365 197.575 251.465 197.587C251.565 197.609 251.665 197.626 251.765 197.637C252.443 197.67 253.016 197.553 253.483 197.286C253.95 197.02 254.345 196.653 254.667 196.186C254.99 195.73 255.273 195.218 255.518 194.651L257.169 190.949ZM257.386 174.954L258.453 189.114L258.62 192.316L256.468 193.4L254.334 174.954H257.386ZM275.882 188.247C275.96 187.691 275.86 187.224 275.582 186.846C275.315 186.456 274.959 186.128 274.515 185.862C274.081 185.595 273.653 185.356 273.23 185.144C272.652 184.855 272.091 184.555 271.546 184.244C271.012 183.932 270.534 183.577 270.111 183.176C269.689 182.776 269.361 182.309 269.127 181.775C268.894 181.242 268.799 180.608 268.844 179.874C268.888 179.073 269.083 178.345 269.428 177.689C269.772 177.033 270.228 176.477 270.795 176.021C271.362 175.554 272.002 175.198 272.713 174.954C273.425 174.709 274.17 174.598 274.948 174.62C276.027 174.643 276.95 174.893 277.717 175.371C278.495 175.838 279.079 176.483 279.468 177.306C279.868 178.117 280.046 179.051 280.002 180.108L277.15 180.091C277.172 179.579 277.1 179.107 276.933 178.673C276.777 178.228 276.522 177.873 276.166 177.606C275.81 177.328 275.348 177.183 274.781 177.172C274.248 177.172 273.758 177.278 273.314 177.489C272.869 177.7 272.502 178 272.213 178.39C271.935 178.779 271.757 179.24 271.679 179.774C271.624 180.163 271.657 180.502 271.779 180.791C271.913 181.069 272.102 181.314 272.346 181.525C272.591 181.736 272.863 181.925 273.164 182.092C273.475 182.248 273.781 182.398 274.081 182.543C274.882 182.932 275.649 183.354 276.383 183.81C277.116 184.266 277.706 184.828 278.15 185.495C278.606 186.151 278.807 186.99 278.751 188.013C278.695 188.869 278.49 189.631 278.134 190.298C277.778 190.965 277.305 191.527 276.716 191.983C276.138 192.438 275.476 192.783 274.731 193.017C273.998 193.25 273.219 193.356 272.396 193.334C271.285 193.311 270.306 193.056 269.461 192.566C268.627 192.077 267.982 191.404 267.526 190.548C267.082 189.692 266.881 188.703 266.926 187.579L269.828 187.596C269.806 188.208 269.884 188.753 270.061 189.231C270.239 189.709 270.528 190.087 270.929 190.365C271.34 190.632 271.874 190.771 272.53 190.782C273.075 190.782 273.586 190.693 274.064 190.515C274.542 190.326 274.943 190.048 275.265 189.681C275.599 189.303 275.804 188.825 275.882 188.247ZM291.21 174.954L290.793 177.322H282.587L283.021 174.954H291.21ZM286.44 170.567H289.325L286.273 188.564C286.24 188.853 286.228 189.158 286.24 189.481C286.251 189.803 286.323 190.076 286.456 190.298C286.601 190.52 286.862 190.637 287.24 190.648C287.44 190.648 287.641 190.632 287.841 190.598C288.041 190.554 288.235 190.515 288.424 190.482L288.174 193.017C287.874 193.128 287.563 193.206 287.24 193.25C286.929 193.306 286.612 193.328 286.29 193.317C285.422 193.306 284.772 193.05 284.338 192.55C283.916 192.038 283.643 191.416 283.521 190.682C283.399 189.937 283.371 189.214 283.438 188.513L286.44 170.567ZM297.948 193.334C296.78 193.311 295.807 193.078 295.029 192.633C294.251 192.188 293.645 191.588 293.211 190.832C292.778 190.076 292.488 189.22 292.344 188.263C292.21 187.307 292.199 186.312 292.311 185.278L292.561 183.243C292.694 182.176 292.944 181.125 293.311 180.091C293.678 179.057 294.173 178.123 294.796 177.289C295.418 176.444 296.186 175.777 297.097 175.287C298.009 174.798 299.076 174.576 300.3 174.62C301.512 174.654 302.473 174.926 303.185 175.438C303.897 175.949 304.419 176.616 304.753 177.439C305.086 178.262 305.275 179.168 305.32 180.158C305.375 181.147 305.342 182.137 305.22 183.126L304.97 184.844H294.012L294.462 182.326L302.434 182.342L302.501 181.892C302.59 181.214 302.607 180.519 302.551 179.807C302.496 179.085 302.284 178.473 301.917 177.973C301.55 177.461 300.95 177.183 300.116 177.139C299.26 177.094 298.548 177.255 297.981 177.622C297.425 177.989 296.975 178.484 296.63 179.107C296.286 179.729 296.019 180.408 295.83 181.142C295.652 181.864 295.524 182.565 295.446 183.243L295.196 185.295C295.129 185.906 295.107 186.534 295.129 187.179C295.151 187.813 295.257 188.402 295.446 188.947C295.646 189.492 295.963 189.937 296.397 190.281C296.842 190.615 297.453 190.793 298.231 190.815C299.099 190.837 299.877 190.659 300.566 190.281C301.267 189.903 301.906 189.403 302.484 188.78L303.885 190.665C303.407 191.277 302.851 191.782 302.218 192.183C301.595 192.583 300.922 192.878 300.199 193.067C299.477 193.256 298.726 193.345 297.948 193.334ZM312.375 178.723L309.89 193H307.021L310.157 174.954H312.858L312.375 178.723ZM311.057 183.31L309.823 183.276C309.934 182.287 310.14 181.281 310.44 180.258C310.74 179.224 311.163 178.273 311.708 177.406C312.252 176.538 312.947 175.849 313.792 175.337C314.637 174.815 315.66 174.576 316.861 174.62C317.729 174.643 318.435 174.848 318.979 175.237C319.524 175.627 319.941 176.132 320.23 176.755C320.519 177.367 320.703 178.045 320.781 178.79C320.859 179.524 320.859 180.252 320.781 180.975L318.779 193H315.894L317.879 181.108C317.945 180.497 317.94 179.896 317.862 179.307C317.784 178.718 317.573 178.223 317.228 177.823C316.895 177.422 316.355 177.211 315.61 177.189C314.788 177.155 314.104 177.333 313.559 177.722C313.014 178.101 312.569 178.606 312.225 179.24C311.891 179.863 311.635 180.536 311.457 181.258C311.28 181.981 311.146 182.665 311.057 183.31ZM320.731 181.592L318.729 182.209C318.829 181.297 319.046 180.391 319.38 179.49C319.713 178.579 320.158 177.75 320.714 177.005C321.27 176.26 321.948 175.671 322.749 175.237C323.549 174.793 324.472 174.581 325.517 174.604C326.451 174.626 327.208 174.832 327.786 175.221C328.364 175.599 328.798 176.099 329.087 176.722C329.387 177.344 329.576 178.039 329.654 178.807C329.732 179.574 329.726 180.352 329.637 181.142L327.652 193H324.784L326.752 181.092C326.818 180.469 326.813 179.863 326.735 179.274C326.668 178.673 326.463 178.178 326.118 177.789C325.773 177.4 325.217 177.2 324.45 177.189C323.861 177.189 323.349 177.322 322.916 177.589C322.482 177.845 322.115 178.195 321.815 178.64C321.526 179.073 321.292 179.552 321.114 180.074C320.948 180.586 320.82 181.092 320.731 181.592ZM347.083 167.382L342.63 193H339.744L344.197 167.382H347.083ZM354.772 174.954L346.999 183.46L342.279 188.08L342.696 184.494L345.865 180.891L351.069 174.954H354.772ZM348.984 193L345.482 184.227L347.333 181.642L352.136 193H348.984ZM360.826 193.334C359.658 193.311 358.685 193.078 357.907 192.633C357.129 192.188 356.523 191.588 356.089 190.832C355.655 190.076 355.366 189.22 355.222 188.263C355.088 187.307 355.077 186.312 355.188 185.278L355.439 183.243C355.572 182.176 355.822 181.125 356.189 180.091C356.556 179.057 357.051 178.123 357.674 177.289C358.296 176.444 359.063 175.777 359.975 175.287C360.887 174.798 361.954 174.576 363.177 174.62C364.389 174.654 365.351 174.926 366.063 175.438C366.774 175.949 367.297 176.616 367.631 177.439C367.964 178.262 368.153 179.168 368.198 180.158C368.253 181.147 368.22 182.137 368.098 183.126L367.847 184.844H356.89L357.34 182.326L365.312 182.342L365.379 181.892C365.468 181.214 365.485 180.519 365.429 179.807C365.373 179.085 365.162 178.473 364.795 177.973C364.428 177.461 363.828 177.183 362.994 177.139C362.138 177.094 361.426 177.255 360.859 177.622C360.303 177.989 359.853 178.484 359.508 179.107C359.164 179.729 358.897 180.408 358.708 181.142C358.53 181.864 358.402 182.565 358.324 183.243L358.074 185.295C358.007 185.906 357.985 186.534 358.007 187.179C358.029 187.813 358.135 188.402 358.324 188.947C358.524 189.492 358.841 189.937 359.275 190.281C359.719 190.615 360.331 190.793 361.109 190.815C361.977 190.837 362.755 190.659 363.444 190.281C364.145 189.903 364.784 189.403 365.362 188.78L366.763 190.665C366.285 191.277 365.729 191.782 365.096 192.183C364.473 192.583 363.8 192.878 363.077 193.067C362.355 193.256 361.604 193.345 360.826 193.334ZM376.37 193.334C375.203 193.311 374.23 193.078 373.451 192.633C372.673 192.188 372.067 191.588 371.633 190.832C371.2 190.076 370.911 189.22 370.766 188.263C370.633 187.307 370.622 186.312 370.733 185.278L370.983 183.243C371.116 182.176 371.367 181.125 371.734 180.091C372.1 179.057 372.595 178.123 373.218 177.289C373.841 176.444 374.608 175.777 375.52 175.287C376.431 174.798 377.499 174.576 378.722 174.62C379.934 174.654 380.896 174.926 381.607 175.438C382.319 175.949 382.841 176.616 383.175 177.439C383.509 178.262 383.698 179.168 383.742 180.158C383.798 181.147 383.764 182.137 383.642 183.126L383.392 184.844H372.434L372.884 182.326L380.857 182.342L380.923 181.892C381.012 181.214 381.029 180.519 380.973 179.807C380.918 179.085 380.707 178.473 380.34 177.973C379.973 177.461 379.372 177.183 378.538 177.139C377.682 177.094 376.971 177.255 376.404 177.622C375.848 177.989 375.397 178.484 375.053 179.107C374.708 179.729 374.441 180.408 374.252 181.142C374.074 181.864 373.946 182.565 373.868 183.243L373.618 185.295C373.552 185.906 373.529 186.534 373.552 187.179C373.574 187.813 373.679 188.402 373.868 188.947C374.069 189.492 374.385 189.937 374.819 190.281C375.264 190.615 375.875 190.793 376.654 190.815C377.521 190.837 378.299 190.659 378.989 190.281C379.689 189.903 380.329 189.403 380.907 188.78L382.308 190.665C381.83 191.277 381.274 191.782 380.64 192.183C380.017 192.583 379.345 192.878 378.622 193.067C377.899 193.256 377.149 193.345 376.37 193.334ZM390.814 178.606L387.111 199.938H384.226L388.562 174.954H391.181L390.814 178.606ZM399.753 183.16L399.537 184.828C399.414 185.806 399.203 186.807 398.903 187.83C398.614 188.841 398.202 189.77 397.669 190.615C397.146 191.46 396.473 192.138 395.651 192.65C394.828 193.15 393.821 193.378 392.632 193.334C391.609 193.3 390.775 193.033 390.13 192.533C389.496 192.033 389.012 191.388 388.679 190.598C388.356 189.809 388.145 188.964 388.045 188.063C387.945 187.151 387.928 186.279 387.995 185.445L388.345 182.876C388.501 181.964 388.74 181.025 389.063 180.057C389.385 179.079 389.813 178.173 390.347 177.339C390.88 176.505 391.542 175.832 392.331 175.321C393.132 174.809 394.083 174.57 395.184 174.604C396.351 174.637 397.268 174.926 397.935 175.471C398.603 176.005 399.081 176.7 399.37 177.556C399.67 178.401 399.837 179.318 399.87 180.308C399.904 181.286 399.865 182.237 399.753 183.16ZM396.685 184.844L396.885 183.143C396.951 182.554 396.99 181.925 397.001 181.258C397.024 180.58 396.957 179.935 396.801 179.324C396.657 178.712 396.373 178.212 395.951 177.823C395.539 177.422 394.939 177.211 394.149 177.189C393.549 177.178 392.993 177.3 392.482 177.556C391.981 177.811 391.531 178.156 391.131 178.59C390.73 179.023 390.391 179.507 390.113 180.041C389.846 180.563 389.646 181.092 389.513 181.625L388.696 186.712C388.684 187.357 388.801 187.991 389.046 188.614C389.29 189.225 389.646 189.737 390.113 190.148C390.591 190.559 391.181 190.782 391.881 190.815C392.726 190.86 393.432 190.704 393.999 190.348C394.578 189.992 395.045 189.52 395.4 188.93C395.767 188.33 396.051 187.674 396.251 186.962C396.451 186.24 396.596 185.534 396.685 184.844ZM411.111 188.247C411.189 187.691 411.089 187.224 410.811 186.846C410.544 186.456 410.189 186.128 409.744 185.862C409.31 185.595 408.882 185.356 408.46 185.144C407.881 184.855 407.32 184.555 406.775 184.244C406.241 183.932 405.763 183.577 405.341 183.176C404.918 182.776 404.59 182.309 404.357 181.775C404.123 181.242 404.029 180.608 404.073 179.874C404.118 179.073 404.312 178.345 404.657 177.689C405.002 177.033 405.457 176.477 406.025 176.021C406.592 175.554 407.231 175.198 407.943 174.954C408.654 174.709 409.399 174.598 410.177 174.62C411.256 174.643 412.179 174.893 412.946 175.371C413.724 175.838 414.308 176.483 414.697 177.306C415.098 178.117 415.276 179.051 415.231 180.108L412.379 180.091C412.401 179.579 412.329 179.107 412.162 178.673C412.007 178.228 411.751 177.873 411.395 177.606C411.039 177.328 410.578 177.183 410.011 177.172C409.477 177.172 408.988 177.278 408.543 177.489C408.098 177.7 407.731 178 407.442 178.39C407.164 178.779 406.986 179.24 406.909 179.774C406.853 180.163 406.886 180.502 407.009 180.791C407.142 181.069 407.331 181.314 407.576 181.525C407.82 181.736 408.093 181.925 408.393 182.092C408.704 182.248 409.01 182.398 409.31 182.543C410.111 182.932 410.878 183.354 411.612 183.81C412.346 184.266 412.935 184.828 413.38 185.495C413.836 186.151 414.036 186.99 413.98 188.013C413.925 188.869 413.719 189.631 413.363 190.298C413.007 190.965 412.535 191.527 411.945 191.983C411.367 192.438 410.706 192.783 409.961 193.017C409.227 193.25 408.448 193.356 407.626 193.334C406.514 193.311 405.535 193.056 404.69 192.566C403.856 192.077 403.211 191.404 402.756 190.548C402.311 189.692 402.111 188.703 402.155 187.579L405.057 187.596C405.035 188.208 405.113 188.753 405.291 189.231C405.469 189.709 405.758 190.087 406.158 190.365C406.569 190.632 407.103 190.771 407.759 190.782C408.304 190.782 408.815 190.693 409.294 190.515C409.772 190.326 410.172 190.048 410.494 189.681C410.828 189.303 411.034 188.825 411.111 188.247ZM430.892 174.954L427.757 193H424.888L428.023 174.954H430.892ZM428.691 170.2C428.713 169.711 428.869 169.289 429.158 168.933C429.447 168.566 429.841 168.377 430.342 168.366C430.864 168.355 431.27 168.527 431.559 168.883C431.848 169.239 431.982 169.661 431.96 170.15C431.937 170.617 431.776 171.029 431.476 171.385C431.176 171.729 430.781 171.907 430.292 171.918C429.78 171.929 429.38 171.768 429.091 171.435C428.813 171.09 428.68 170.679 428.691 170.2ZM441.817 174.954L441.4 177.322H433.194L433.627 174.954H441.817ZM437.047 170.567H439.932L436.88 188.564C436.846 188.853 436.835 189.158 436.846 189.481C436.858 189.803 436.93 190.076 437.063 190.298C437.208 190.52 437.469 190.637 437.847 190.648C438.047 190.648 438.247 190.632 438.448 190.598C438.648 190.554 438.842 190.515 439.031 190.482L438.781 193.017C438.481 193.128 438.17 193.206 437.847 193.25C437.536 193.306 437.219 193.328 436.896 193.317C436.029 193.306 435.379 193.05 434.945 192.55C434.523 192.038 434.25 191.416 434.128 190.682C434.005 189.937 433.978 189.214 434.044 188.513L437.047 170.567ZM455.209 178.723L452.724 193H449.856L452.991 174.954H455.693L455.209 178.723ZM453.892 183.31L452.658 183.276C452.769 182.287 452.975 181.281 453.275 180.258C453.575 179.224 453.997 178.273 454.542 177.406C455.087 176.538 455.782 175.849 456.627 175.337C457.472 174.815 458.495 174.576 459.696 174.62C460.563 174.643 461.269 174.848 461.814 175.237C462.359 175.627 462.776 176.132 463.065 176.755C463.354 177.367 463.538 178.045 463.615 178.79C463.693 179.524 463.693 180.252 463.615 180.975L461.614 193H458.729L460.713 181.108C460.78 180.497 460.775 179.896 460.697 179.307C460.619 178.718 460.408 178.223 460.063 177.823C459.729 177.422 459.19 177.211 458.445 177.189C457.622 177.155 456.938 177.333 456.394 177.722C455.849 178.101 455.404 178.606 455.059 179.24C454.726 179.863 454.47 180.536 454.292 181.258C454.114 181.981 453.981 182.665 453.892 183.31ZM463.565 181.592L461.564 182.209C461.664 181.297 461.881 180.391 462.214 179.49C462.548 178.579 462.993 177.75 463.549 177.005C464.105 176.26 464.783 175.671 465.583 175.237C466.384 174.793 467.307 174.581 468.352 174.604C469.286 174.626 470.042 174.832 470.62 175.221C471.199 175.599 471.632 176.099 471.921 176.722C472.222 177.344 472.411 178.039 472.488 178.807C472.566 179.574 472.561 180.352 472.472 181.142L470.487 193H467.618L469.586 181.092C469.653 180.469 469.647 179.863 469.57 179.274C469.503 178.673 469.297 178.178 468.953 177.789C468.608 177.4 468.052 177.2 467.285 177.189C466.695 177.189 466.184 177.322 465.75 177.589C465.317 177.845 464.95 178.195 464.649 178.64C464.36 179.073 464.127 179.552 463.949 180.074C463.782 180.586 463.654 181.092 463.565 181.592ZM475.657 184.844L475.874 183.143C476.019 182.064 476.285 181.014 476.675 179.991C477.075 178.968 477.603 178.045 478.259 177.222C478.915 176.399 479.705 175.749 480.627 175.271C481.561 174.793 482.64 174.576 483.863 174.62C485.019 174.654 485.981 174.926 486.748 175.438C487.516 175.938 488.111 176.599 488.533 177.422C488.967 178.245 489.25 179.151 489.384 180.141C489.517 181.13 489.534 182.126 489.434 183.126L489.217 184.844C489.072 185.912 488.8 186.962 488.4 187.996C488.01 189.019 487.482 189.942 486.815 190.765C486.159 191.577 485.364 192.222 484.43 192.7C483.507 193.167 482.44 193.378 481.228 193.334C480.06 193.311 479.093 193.044 478.326 192.533C477.57 192.022 476.975 191.354 476.541 190.532C476.119 189.709 475.841 188.803 475.707 187.813C475.574 186.823 475.557 185.834 475.657 184.844ZM478.759 183.126L478.543 184.878C478.487 185.434 478.465 186.051 478.476 186.729C478.487 187.396 478.582 188.035 478.759 188.647C478.937 189.258 479.232 189.77 479.643 190.181C480.066 190.582 480.65 190.798 481.395 190.832C482.24 190.876 482.951 190.721 483.53 190.365C484.119 190.009 484.603 189.536 484.981 188.947C485.37 188.347 485.67 187.691 485.881 186.979C486.092 186.256 486.243 185.545 486.332 184.844L486.548 183.11C486.604 182.554 486.626 181.942 486.615 181.275C486.604 180.608 486.509 179.969 486.332 179.357C486.154 178.734 485.853 178.217 485.431 177.806C485.019 177.394 484.436 177.172 483.68 177.139C482.89 177.105 482.201 177.272 481.611 177.639C481.033 177.995 480.55 178.479 480.16 179.09C479.771 179.702 479.46 180.363 479.226 181.075C479.004 181.786 478.848 182.47 478.759 183.126ZM496.322 190.098L502.41 174.954H505.445L497.423 193H495.421L496.322 190.098ZM495.655 174.954L497.189 190.482L497.072 193H495.255L492.819 174.954H495.655ZM511.583 174.954L508.447 193H505.579L508.714 174.954H511.583ZM509.381 170.2C509.403 169.711 509.559 169.289 509.848 168.933C510.137 168.566 510.532 168.377 511.032 168.366C511.555 168.355 511.961 168.527 512.25 168.883C512.539 169.239 512.672 169.661 512.65 170.15C512.628 170.617 512.467 171.029 512.167 171.385C511.866 171.729 511.472 171.907 510.982 171.918C510.471 171.929 510.071 171.768 509.781 171.435C509.504 171.09 509.37 170.679 509.381 170.2ZM518.271 178.99L515.836 193H512.95L516.086 174.954H518.805L518.271 178.99ZM516.937 183.36L515.886 183.31C516.008 182.365 516.219 181.381 516.52 180.358C516.831 179.324 517.259 178.367 517.804 177.489C518.349 176.611 519.032 175.905 519.855 175.371C520.689 174.826 521.69 174.57 522.857 174.604C523.758 174.637 524.481 174.854 525.026 175.254C525.582 175.654 525.987 176.177 526.243 176.822C526.51 177.456 526.671 178.156 526.727 178.923C526.782 179.679 526.771 180.43 526.693 181.175L524.725 193H521.84L523.825 181.125C523.88 180.547 523.886 179.963 523.841 179.374C523.808 178.773 523.641 178.267 523.341 177.856C523.041 177.433 522.524 177.211 521.79 177.189C521.023 177.167 520.35 177.356 519.772 177.756C519.205 178.156 518.727 178.679 518.338 179.324C517.948 179.957 517.637 180.636 517.404 181.358C517.181 182.07 517.026 182.737 516.937 183.36ZM541.604 174.954H544.206L541.12 193.15C540.942 194.484 540.553 195.691 539.953 196.769C539.352 197.848 538.541 198.687 537.518 199.288C536.495 199.899 535.261 200.183 533.815 200.138C533.181 200.127 532.548 200.022 531.914 199.822C531.291 199.632 530.696 199.366 530.129 199.021C529.562 198.687 529.073 198.293 528.662 197.837L530.013 195.769C530.491 196.313 531.035 196.747 531.647 197.07C532.27 197.403 532.953 197.581 533.698 197.603C534.599 197.637 535.361 197.47 535.983 197.103C536.617 196.736 537.118 196.219 537.484 195.552C537.851 194.896 538.096 194.151 538.218 193.317L540.67 178.773L541.604 174.954ZM529.896 184.844L530.113 183.193C530.235 182.181 530.446 181.164 530.746 180.141C531.058 179.118 531.48 178.184 532.014 177.339C532.559 176.483 533.248 175.804 534.082 175.304C534.927 174.804 535.95 174.576 537.151 174.62C538.196 174.654 539.024 174.943 539.636 175.488C540.259 176.032 540.72 176.727 541.02 177.572C541.321 178.417 541.498 179.307 541.554 180.241C541.621 181.175 541.621 182.053 541.554 182.876L541.254 185.128C541.109 186.017 540.876 186.951 540.553 187.93C540.242 188.897 539.825 189.798 539.302 190.632C538.78 191.466 538.124 192.138 537.334 192.65C536.556 193.15 535.622 193.384 534.532 193.35C533.398 193.317 532.498 193.028 531.83 192.483C531.174 191.938 530.685 191.238 530.363 190.381C530.051 189.525 529.868 188.614 529.812 187.646C529.768 186.668 529.796 185.734 529.896 184.844ZM532.965 183.16L532.781 184.861C532.714 185.439 532.67 186.062 532.648 186.729C532.637 187.396 532.698 188.03 532.831 188.63C532.976 189.231 533.248 189.731 533.648 190.131C534.06 190.52 534.66 190.726 535.45 190.748C536.239 190.771 536.945 190.565 537.568 190.131C538.202 189.698 538.73 189.142 539.152 188.463C539.575 187.785 539.886 187.096 540.086 186.395L540.837 181.625C540.859 181.136 540.809 180.641 540.687 180.141C540.576 179.629 540.392 179.157 540.136 178.723C539.881 178.29 539.553 177.939 539.152 177.672C538.752 177.394 538.279 177.239 537.735 177.205C536.89 177.161 536.178 177.317 535.6 177.672C535.033 178.017 534.571 178.49 534.216 179.09C533.86 179.679 533.582 180.335 533.382 181.058C533.193 181.77 533.054 182.47 532.965 183.16ZM557.265 193H554.38L557.766 173.053C557.91 171.952 558.216 170.94 558.683 170.017C559.15 169.083 559.795 168.344 560.618 167.799C561.44 167.243 562.458 166.976 563.67 166.998C563.992 167.009 564.304 167.043 564.604 167.098C564.915 167.154 565.226 167.221 565.538 167.298L565.137 169.8C564.915 169.745 564.693 169.7 564.47 169.667C564.259 169.622 564.037 169.6 563.803 169.6C563.147 169.6 562.602 169.767 562.169 170.1C561.746 170.434 561.413 170.868 561.168 171.401C560.934 171.924 560.773 172.474 560.684 173.053L557.265 193ZM563.386 174.954L562.953 177.322H554.813L555.23 174.954H563.386ZM564.487 184.844L564.704 183.143C564.848 182.064 565.115 181.014 565.504 179.991C565.905 178.968 566.433 178.045 567.089 177.222C567.745 176.399 568.534 175.749 569.457 175.271C570.391 174.793 571.47 174.576 572.693 174.62C573.849 174.654 574.811 174.926 575.578 175.438C576.345 175.938 576.94 176.599 577.363 177.422C577.796 178.245 578.08 179.151 578.213 180.141C578.347 181.13 578.363 182.126 578.263 183.126L578.047 184.844C577.902 185.912 577.63 186.962 577.229 187.996C576.84 189.019 576.312 189.942 575.645 190.765C574.989 191.577 574.194 192.222 573.26 192.7C572.337 193.167 571.27 193.378 570.058 193.334C568.89 193.311 567.923 193.044 567.156 192.533C566.399 192.022 565.805 191.354 565.371 190.532C564.948 189.709 564.67 188.803 564.537 187.813C564.404 186.823 564.387 185.834 564.487 184.844ZM567.589 183.126L567.372 184.878C567.317 185.434 567.295 186.051 567.306 186.729C567.317 187.396 567.411 188.035 567.589 188.647C567.767 189.258 568.062 189.77 568.473 190.181C568.896 190.582 569.479 190.798 570.224 190.832C571.069 190.876 571.781 190.721 572.359 190.365C572.949 190.009 573.432 189.536 573.81 188.947C574.199 188.347 574.5 187.691 574.711 186.979C574.922 186.256 575.072 185.545 575.161 184.844L575.378 183.11C575.434 182.554 575.456 181.942 575.445 181.275C575.434 180.608 575.339 179.969 575.161 179.357C574.983 178.734 574.683 178.217 574.261 177.806C573.849 177.394 573.265 177.172 572.509 177.139C571.72 177.105 571.03 177.272 570.441 177.639C569.863 177.995 569.379 178.479 568.99 179.09C568.601 179.702 568.29 180.363 568.056 181.075C567.834 181.786 567.678 182.47 567.589 183.126ZM585.769 177.906L583.15 193H580.265L583.4 174.954H586.186L585.769 177.906ZM590.589 174.837L590.272 177.706C590.061 177.661 589.844 177.622 589.621 177.589C589.41 177.556 589.199 177.539 588.988 177.539C588.332 177.528 587.765 177.656 587.286 177.923C586.808 178.189 586.397 178.545 586.052 178.99C585.719 179.435 585.435 179.924 585.202 180.458C584.968 180.991 584.779 181.531 584.635 182.076L583.784 182.576C583.884 181.82 584.04 180.98 584.251 180.057C584.473 179.123 584.79 178.234 585.202 177.389C585.613 176.533 586.152 175.838 586.819 175.304C587.487 174.77 588.321 174.526 589.321 174.57C589.544 174.581 589.755 174.615 589.955 174.67C590.166 174.715 590.378 174.77 590.589 174.837ZM594.858 189.614L601.23 174.954H603.164L602.397 178.073L595.976 193H594.091L594.858 189.614ZM595.275 174.954L595.943 190.148L595.509 193H593.658L592.507 174.954H595.275ZM603.898 189.681L609.486 174.954H612.404L604.999 193H603.048L603.898 189.681ZM603.515 174.954L604.766 189.731L604.432 193H602.697L601.296 177.689L601.58 174.954H603.515ZM621.377 189.914L622.962 180.091C623.017 179.513 622.984 179.007 622.862 178.573C622.751 178.128 622.517 177.778 622.161 177.522C621.817 177.267 621.327 177.139 620.694 177.139C620.115 177.128 619.598 177.244 619.142 177.489C618.687 177.722 618.308 178.051 618.008 178.473C617.719 178.896 617.519 179.385 617.408 179.941L614.556 179.957C614.634 179.146 614.862 178.412 615.24 177.756C615.629 177.089 616.124 176.522 616.724 176.055C617.324 175.577 617.992 175.215 618.725 174.971C619.459 174.715 620.221 174.592 621.01 174.604C622.145 174.615 623.09 174.854 623.846 175.321C624.602 175.777 625.147 176.422 625.48 177.255C625.825 178.078 625.942 179.046 625.83 180.158L624.363 189.064C624.263 189.698 624.224 190.309 624.246 190.899C624.268 191.488 624.296 192.094 624.329 192.716L624.296 193L621.411 193.017C621.3 192.505 621.249 191.988 621.261 191.466C621.272 190.943 621.311 190.426 621.377 189.914ZM623.179 182.059L622.828 184.227L620.994 184.21C620.404 184.21 619.815 184.277 619.226 184.411C618.648 184.544 618.108 184.755 617.608 185.044C617.119 185.322 616.707 185.695 616.374 186.162C616.051 186.618 615.851 187.179 615.773 187.846C615.707 188.391 615.723 188.88 615.823 189.314C615.935 189.737 616.151 190.076 616.474 190.331C616.807 190.576 617.274 190.698 617.875 190.698C618.498 190.698 619.098 190.559 619.676 190.281C620.254 190.003 620.749 189.625 621.161 189.147C621.583 188.669 621.861 188.124 621.994 187.513L622.445 188.914C622.311 189.492 622.083 190.053 621.761 190.598C621.45 191.132 621.066 191.61 620.61 192.033C620.154 192.444 619.643 192.767 619.076 193C618.52 193.245 617.925 193.367 617.291 193.367C616.279 193.367 615.429 193.139 614.739 192.683C614.05 192.227 613.538 191.616 613.205 190.848C612.871 190.07 612.738 189.192 612.805 188.213C612.86 187.168 613.11 186.256 613.555 185.478C614.011 184.7 614.6 184.06 615.323 183.56C616.046 183.048 616.852 182.67 617.741 182.426C618.642 182.17 619.576 182.042 620.543 182.042L623.179 182.059ZM633.603 177.906L630.984 193H628.099L631.234 174.954H634.02L633.603 177.906ZM638.423 174.837L638.106 177.706C637.895 177.661 637.678 177.622 637.455 177.589C637.244 177.556 637.033 177.539 636.822 177.539C636.166 177.528 635.599 177.656 635.12 177.923C634.642 178.189 634.231 178.545 633.886 178.99C633.553 179.435 633.269 179.924 633.036 180.458C632.802 180.991 632.613 181.531 632.469 182.076L631.618 182.576C631.718 181.82 631.874 180.98 632.085 180.057C632.307 179.123 632.624 178.234 633.036 177.389C633.447 176.533 633.986 175.838 634.653 175.304C635.321 174.77 636.154 174.526 637.155 174.57C637.378 174.581 637.589 174.615 637.789 174.67C638 174.715 638.212 174.77 638.423 174.837ZM647.696 189.314L651.499 167.382H654.367L649.914 193H647.312L647.696 189.314ZM638.74 184.844L638.94 183.176C639.073 182.176 639.29 181.169 639.59 180.158C639.902 179.135 640.33 178.201 640.874 177.356C641.419 176.499 642.114 175.821 642.959 175.321C643.804 174.809 644.822 174.576 646.011 174.62C647.057 174.654 647.885 174.948 648.497 175.504C649.119 176.049 649.575 176.744 649.864 177.589C650.164 178.423 650.342 179.307 650.398 180.241C650.465 181.175 650.465 182.053 650.398 182.876L650.098 185.128C649.953 186.017 649.725 186.951 649.414 187.93C649.103 188.897 648.68 189.798 648.146 190.632C647.624 191.466 646.973 192.138 646.195 192.65C645.417 193.15 644.483 193.384 643.393 193.35C642.27 193.317 641.375 193.028 640.708 192.483C640.052 191.927 639.562 191.221 639.24 190.365C638.929 189.509 638.74 188.597 638.673 187.63C638.617 186.651 638.64 185.723 638.74 184.844ZM641.825 183.16L641.625 184.861C641.558 185.439 641.514 186.062 641.492 186.729C641.48 187.396 641.547 188.035 641.692 188.647C641.836 189.247 642.109 189.742 642.509 190.131C642.92 190.52 643.521 190.726 644.31 190.748C645.1 190.771 645.806 190.565 646.428 190.131C647.062 189.698 647.59 189.142 648.013 188.463C648.435 187.785 648.747 187.096 648.947 186.395L649.714 181.625C649.725 181.136 649.675 180.641 649.564 180.141C649.453 179.629 649.264 179.157 648.997 178.723C648.741 178.29 648.413 177.939 648.013 177.672C647.613 177.394 647.14 177.239 646.595 177.205C645.75 177.172 645.039 177.328 644.46 177.672C643.893 178.017 643.426 178.49 643.059 179.09C642.704 179.679 642.426 180.33 642.225 181.042C642.036 181.753 641.903 182.459 641.825 183.16ZM654.801 191.416C654.801 190.871 654.973 190.415 655.318 190.048C655.674 189.681 656.124 189.492 656.669 189.481C657.214 189.47 657.659 189.637 658.003 189.981C658.359 190.326 658.531 190.771 658.52 191.315C658.52 191.86 658.342 192.311 657.987 192.666C657.642 193.022 657.197 193.206 656.652 193.217C656.119 193.228 655.674 193.067 655.318 192.733C654.962 192.4 654.79 191.96 654.801 191.416ZM666.776 167.382L666.393 169.817L665.008 175.604H663.174L664.091 169.8L664.475 167.382H666.776ZM671.146 167.382L670.762 169.817L669.378 175.604H667.543L668.477 169.683L668.844 167.382H671.146ZM686.44 185.178V181.318H720.598V185.178H686.44ZM743.731 168.716L739.528 193H734.641L738.861 168.716H743.731ZM750.969 168.716L750.285 172.636H731.055L731.739 168.716H750.969ZM747.133 184.26L747.183 183.91C747.317 182.632 747.622 181.431 748.101 180.308C748.59 179.174 749.235 178.178 750.035 177.322C750.847 176.455 751.798 175.782 752.887 175.304C753.988 174.815 755.222 174.587 756.59 174.62C757.891 174.643 759.014 174.904 759.959 175.404C760.904 175.905 761.677 176.577 762.277 177.422C762.889 178.267 763.317 179.235 763.562 180.324C763.817 181.414 763.89 182.565 763.778 183.777L763.745 184.144C763.6 185.411 763.278 186.607 762.778 187.73C762.288 188.841 761.638 189.826 760.826 190.682C760.026 191.527 759.075 192.188 757.974 192.666C756.873 193.145 755.65 193.367 754.305 193.334C753.026 193.311 751.909 193.056 750.953 192.566C749.996 192.066 749.218 191.399 748.618 190.565C748.017 189.72 747.595 188.758 747.35 187.68C747.105 186.601 747.033 185.461 747.133 184.26ZM751.87 183.91L751.837 184.277C751.781 184.811 751.764 185.383 751.787 185.995C751.809 186.595 751.903 187.168 752.07 187.713C752.248 188.258 752.537 188.703 752.937 189.047C753.338 189.392 753.888 189.575 754.589 189.598C755.333 189.62 755.973 189.47 756.507 189.147C757.04 188.825 757.479 188.391 757.824 187.846C758.169 187.29 758.441 186.69 758.641 186.045C758.842 185.389 758.975 184.75 759.042 184.127L759.075 183.777C759.12 183.243 759.131 182.67 759.108 182.059C759.097 181.436 759.003 180.852 758.825 180.308C758.647 179.752 758.358 179.296 757.958 178.94C757.557 178.584 757.007 178.395 756.306 178.373C755.561 178.34 754.922 178.495 754.388 178.84C753.855 179.174 753.415 179.618 753.071 180.174C752.726 180.73 752.454 181.336 752.254 181.992C752.065 182.648 751.937 183.288 751.87 183.91ZM772.034 179.073L769.616 193H764.912L768.048 174.954H772.451L772.034 179.073ZM770.65 183.343L769.482 183.377C769.605 182.298 769.849 181.231 770.216 180.174C770.583 179.118 771.084 178.167 771.717 177.322C772.362 176.466 773.146 175.793 774.069 175.304C775.003 174.815 776.087 174.581 777.321 174.604C778.322 174.637 779.145 174.848 779.79 175.237C780.446 175.615 780.946 176.127 781.291 176.772C781.647 177.417 781.875 178.145 781.975 178.957C782.086 179.768 782.097 180.613 782.008 181.492L780.073 193H775.353L777.305 181.442C777.371 180.852 777.355 180.33 777.255 179.874C777.155 179.418 776.932 179.057 776.587 178.79C776.254 178.523 775.765 178.384 775.12 178.373C774.408 178.351 773.791 178.484 773.268 178.773C772.757 179.062 772.323 179.451 771.967 179.941C771.612 180.43 771.328 180.969 771.117 181.559C770.906 182.148 770.75 182.743 770.65 183.343ZM789.196 190.715L796.502 174.954H801.672L791.098 195.735C790.786 196.391 790.431 196.997 790.03 197.553C789.641 198.12 789.196 198.61 788.696 199.021C788.207 199.443 787.645 199.766 787.011 199.988C786.389 200.222 785.688 200.339 784.91 200.339C784.521 200.339 784.143 200.305 783.776 200.238C783.409 200.172 783.042 200.094 782.675 200.005L783.009 196.452C783.131 196.464 783.253 196.475 783.376 196.486C783.487 196.497 783.598 196.502 783.709 196.502C784.265 196.514 784.754 196.447 785.177 196.302C785.61 196.169 785.989 195.947 786.311 195.635C786.633 195.335 786.923 194.94 787.178 194.451L789.196 190.715ZM789.947 174.954L791.515 188.28L791.298 193.133L788.162 193.5L785.077 174.954H789.947Z" fill="white"/>
</svg>
