<svg width="77" height="84" viewBox="0 0 77 84" fill="none" xmlns="http://www.w3.org/2000/svg">
<g filter="url(#filter0_d_179_10)">
<rect x="0.356445" width="72" height="78" rx="12" fill="#FE7702"/>
</g>
<rect x="0.356445" width="72" height="72" rx="12" fill="#0097A7"/>
<g filter="url(#filter1_f_179_10)">
<path d="M33.4415 55.5941C33.4405 56.6346 33.6973 57.6585 34.1879 58.5708H15.5974C14.4734 58.5681 13.3963 58.1116 12.6015 57.301C11.8068 56.4905 11.3591 55.3919 11.3564 54.2456V47.7595C11.3644 44.8947 12.4838 42.1495 14.4701 40.1238C16.4564 38.098 19.1481 36.9564 21.9571 36.9483H40.2932C40.6814 38.2725 41.3143 39.5088 42.1576 40.5907C39.7206 41.0179 37.5098 42.309 35.9151 44.2364C34.3204 46.1638 33.4444 48.6036 33.4415 51.1255V55.5941ZM31.4967 33.7052C29.3544 33.7052 27.2602 33.0573 25.479 31.8435C23.6977 30.6297 22.3094 28.9044 21.4896 26.8858C20.6698 24.8673 20.4553 22.6461 20.8732 20.5033C21.2912 18.3604 22.3228 16.392 23.8376 14.8471C25.3524 13.3022 27.2824 12.2501 29.3836 11.8238C31.4847 11.3976 33.6626 11.6164 35.6418 12.4525C37.621 13.2886 39.3127 14.7045 40.5029 16.5211C41.6931 18.3378 42.3283 20.4735 42.3283 22.6584C42.3283 25.5882 41.1872 28.398 39.1558 30.4697C37.1245 32.5414 34.3694 33.7052 31.4967 33.7052ZM64.3564 55.5941C64.3538 56.3827 64.0454 57.1383 63.4986 57.696C62.9518 58.2536 62.211 58.5681 61.4377 58.5708H39.5401C38.7668 58.5681 38.0259 58.2536 37.4791 57.696C36.9323 57.1383 36.624 56.3827 36.6213 55.5941V51.1255C36.6275 49.1537 37.3983 47.2645 38.7654 45.8702C40.1325 44.4759 41.9849 43.6899 43.9183 43.6836H57.0561C58.9895 43.6899 60.8419 44.4759 62.209 45.8702C63.5762 47.2645 64.3469 49.1537 64.3531 51.1255L64.3564 55.5941ZM57.9465 33.8418C57.9465 35.3461 57.5091 36.8166 56.6897 38.0673C55.8702 39.3181 54.7055 40.2929 53.3428 40.8686C51.9801 41.4443 50.4806 41.5949 49.034 41.3014C47.5873 41.0079 46.2585 40.2836 45.2155 39.2199C44.1726 38.1562 43.4623 36.801 43.1746 35.3256C42.8868 33.8502 43.0345 32.3209 43.5989 30.9312C44.1634 29.5414 45.1192 28.3535 46.3456 27.5178C47.572 26.6821 49.0139 26.236 50.4889 26.236C52.4668 26.236 54.3636 27.0373 55.7622 28.4637C57.1608 29.89 57.9465 31.8246 57.9465 33.8418Z" fill="black"/>
</g>
<path d="M34.1145 53.7623C34.1136 54.7041 34.3458 55.6308 34.7894 56.4565H17.9801C16.9638 56.454 15.9899 56.0408 15.2713 55.3072C14.5527 54.5737 14.1479 53.5794 14.1455 52.5419V46.6716C14.1527 44.0788 15.1648 41.5942 16.9608 39.7608C18.7568 37.9274 21.1906 36.8941 23.7305 36.8868H40.3097C40.6608 38.0853 41.2329 39.2042 41.9955 40.1834C39.792 40.57 37.793 41.7386 36.3511 43.483C34.9092 45.2274 34.1171 47.4356 34.1145 49.718V53.7623ZM32.3561 33.9516C30.419 33.9516 28.5255 33.3653 26.9149 32.2667C25.3043 31.1681 24.049 29.6066 23.3078 27.7797C22.5665 25.9528 22.3725 23.9425 22.7504 22.0031C23.1283 20.0637 24.0611 18.2822 25.4308 16.8839C26.8005 15.4857 28.5456 14.5335 30.4454 14.1477C32.3452 13.7619 34.3144 13.9599 36.104 14.7166C37.8936 15.4734 39.4231 16.7548 40.4993 18.399C41.5755 20.0432 42.1499 21.9762 42.1499 23.9536C42.1499 26.6053 41.118 29.1483 39.2813 31.0233C37.4446 32.8983 34.9535 33.9516 32.3561 33.9516ZM62.0674 53.7623C62.065 54.4761 61.7861 55.16 61.2917 55.6647C60.7973 56.1694 60.1274 56.4541 59.4282 56.4565H39.6288C38.9296 56.4541 38.2597 56.1694 37.7653 55.6647C37.2709 55.16 36.992 54.4761 36.9896 53.7623V49.718C36.9952 47.9334 37.6922 46.2236 38.9283 44.9617C40.1644 43.6998 41.8393 42.9883 43.5875 42.9826H55.4665C57.2147 42.9883 58.8896 43.6998 60.1257 44.9617C61.3618 46.2236 62.0587 47.9334 62.0643 49.718L62.0674 53.7623ZM56.2716 34.0752C56.2716 35.4367 55.8761 36.7676 55.1352 37.8996C54.3942 39.0316 53.3411 39.9139 52.109 40.4349C50.8768 40.9559 49.521 41.0923 48.213 40.8267C46.905 40.561 45.7035 39.9054 44.7604 38.9427C43.8174 37.98 43.1752 36.7535 42.915 35.4182C42.6548 34.0829 42.7883 32.6988 43.2987 31.441C43.8091 30.1831 44.6734 29.108 45.7822 28.3517C46.8911 27.5953 48.1948 27.1915 49.5285 27.1915C51.3169 27.1915 53.032 27.9168 54.2966 29.2077C55.5611 30.4987 56.2716 32.2496 56.2716 34.0752Z" fill="white"/>
<defs>
<filter id="filter0_d_179_10" x="4.76241e-05" y="0" width="76.5983" height="83.0581" filterUnits="userSpaceOnUse" color-interpolation-filters="sRGB">
<feFlood flood-opacity="0" result="BackgroundImageFix"/>
<feColorMatrix in="SourceAlpha" type="matrix" values="0 0 0 0 0 0 0 0 0 0 0 0 0 0 0 0 0 0 127 0" result="hardAlpha"/>
<feMorphology radius="0.919663" operator="erode" in="SourceAlpha" result="effect1_dropShadow_179_10"/>
<feOffset dx="1.94276" dy="2.75899"/>
<feGaussianBlur stdDeviation="1.60941"/>
<feComposite in2="hardAlpha" operator="out"/>
<feColorMatrix type="matrix" values="0 0 0 0 0 0 0 0 0 0 0 0 0 0 0 0 0 0 0.67 0"/>
<feBlend mode="normal" in2="BackgroundImageFix" result="effect1_dropShadow_179_10"/>
<feBlend mode="normal" in="SourceGraphic" in2="effect1_dropShadow_179_10" result="shape"/>
</filter>
<filter id="filter1_f_179_10" x="5.05645" y="5.31157" width="65.6" height="59.5592" filterUnits="userSpaceOnUse" color-interpolation-filters="sRGB">
<feFlood flood-opacity="0" result="BackgroundImageFix"/>
<feBlend mode="normal" in="SourceGraphic" in2="BackgroundImageFix" result="shape"/>
<feGaussianBlur stdDeviation="3.15" result="effect1_foregroundBlur_179_10"/>
</filter>
</defs>
</svg>
