<svg width="77" height="84" viewBox="0 0 77 84" fill="none" xmlns="http://www.w3.org/2000/svg">
<g filter="url(#filter0_d_179_11)">
<rect x="0.356445" y="1" width="72" height="77" rx="12" fill="#FE7702"/>
</g>
<rect x="0.356445" width="72" height="72" rx="12" fill="#0097A7"/>
<g clip-path="url(#clip0_179_11)">
<g filter="url(#filter1_f_179_11)">
<path d="M62.3564 36.24L52.5383 12.3448C47.0689 10.1554 41.2406 9.02149 35.3564 9.00195C29.4723 9.02149 23.644 10.1554 18.1746 12.3448L8.35645 36.24V38.7162C8.35645 41.3431 9.39086 43.8625 11.2321 45.72C13.0734 47.5775 15.5707 48.621 18.1746 48.621C20.7786 48.621 23.2759 47.5775 25.1171 45.72C26.9584 43.8625 27.9928 41.3431 27.9928 38.7162V36.24L20.1383 17.6686L20.5064 16.6781C24.4847 15.186 28.6638 14.3095 32.9019 14.0781V56.0496H24.311C23.66 56.0496 23.0357 56.3105 22.5754 56.7748C22.115 57.2392 21.8564 57.869 21.8564 58.5258C21.8564 59.1825 22.115 59.8123 22.5754 60.2767C23.0357 60.7411 23.66 61.002 24.311 61.002H46.4019C47.0529 61.002 47.6772 60.7411 48.1375 60.2767C48.5978 59.8123 48.8564 59.1825 48.8564 58.5258C48.8564 57.869 48.5978 57.2392 48.1375 56.7748C47.6772 56.3105 47.0529 56.0496 46.4019 56.0496H37.811V14.0781C42.0491 14.3095 46.2282 15.186 50.2064 16.6781L50.5746 17.6686L42.7201 36.24V38.7162C42.7201 41.3431 43.7545 43.8625 45.5958 45.72C47.437 47.5775 49.9343 48.621 52.5383 48.621C55.1422 48.621 57.6395 47.5775 59.4808 45.72C61.322 43.8625 62.3564 41.3431 62.3564 38.7162V36.24ZM18.1746 43.6686C17.3054 43.6765 16.4498 43.4514 15.6951 43.0163C14.9404 42.5813 14.3137 41.9519 13.8792 41.1924H22.4701C22.0355 41.9519 21.4089 42.5813 20.6542 43.0163C19.8995 43.4514 19.0438 43.6765 18.1746 43.6686ZM23.3292 36.24H12.2837L18.1746 22.9924L23.3292 36.24ZM52.5383 22.9924L57.6928 36.24H46.6474L52.5383 22.9924ZM52.5383 43.6686C51.6691 43.6765 50.8134 43.4514 50.0587 43.0163C49.304 42.5813 48.6774 41.9519 48.2428 41.1924H56.8337C56.3991 41.9519 55.7725 42.5813 55.0178 43.0163C54.2631 43.4514 53.4074 43.6765 52.5383 43.6686Z" fill="black"/>
</g>
<path d="M61.3564 36.1924L51.9019 13.2162C46.6351 11.1111 41.0227 10.0207 35.3564 10.002C29.6902 10.0207 24.0778 11.1111 18.811 13.2162L9.35645 36.1924V38.5734C9.35645 41.0993 10.3525 43.5217 12.1256 45.3077C13.8987 47.0938 16.3035 48.0972 18.811 48.0972C21.3185 48.0972 23.7233 47.0938 25.4964 45.3077C27.2694 43.5217 28.2655 41.0993 28.2655 38.5734V36.1924L20.7019 18.3353L21.0564 17.3829C24.8874 15.9482 28.9117 15.1053 32.9928 14.8829V55.24H24.7201C24.0932 55.24 23.492 55.4909 23.0487 55.9374C22.6055 56.3839 22.3564 56.9895 22.3564 57.621C22.3564 58.2525 22.6055 58.8581 23.0487 59.3046C23.492 59.7511 24.0932 60.002 24.7201 60.002H45.9928C46.6197 60.002 47.2209 59.7511 47.6642 59.3046C48.1074 58.8581 48.3564 58.2525 48.3564 57.621C48.3564 56.9895 48.1074 56.3839 47.6642 55.9374C47.2209 55.4909 46.6197 55.24 45.9928 55.24H37.7201V14.8829C41.8012 15.1053 45.8255 15.9482 49.6564 17.3829L50.011 18.3353L42.4474 36.1924V38.5734C42.4474 41.0993 43.4435 43.5217 45.2165 45.3077C46.9896 47.0938 49.3944 48.0972 51.9019 48.0972C54.4094 48.0972 56.8142 47.0938 58.5873 45.3077C60.3603 43.5217 61.3564 41.0993 61.3564 38.5734V36.1924ZM18.811 43.3353C17.974 43.3428 17.15 43.1264 16.4233 42.7081C15.6966 42.2897 15.0931 41.6845 14.6746 40.9543H22.9474C22.5289 41.6845 21.9254 42.2897 21.1987 42.7081C20.472 43.1264 19.648 43.3428 18.811 43.3353ZM23.7746 36.1924H13.1383L18.811 23.4543L23.7746 36.1924ZM51.9019 23.4543L56.8655 36.1924H46.2292L51.9019 23.4543ZM51.9019 43.3353C51.0649 43.3428 50.2409 43.1264 49.5142 42.7081C48.7875 42.2897 48.184 41.6845 47.7655 40.9543H56.0383C55.6198 41.6845 55.0163 42.2897 54.2896 42.7081C53.5629 43.1264 52.7389 43.3428 51.9019 43.3353Z" fill="white"/>
</g>
<defs>
<filter id="filter0_d_179_11" x="4.76241e-05" y="1" width="76.5983" height="82.0581" filterUnits="userSpaceOnUse" color-interpolation-filters="sRGB">
<feFlood flood-opacity="0" result="BackgroundImageFix"/>
<feColorMatrix in="SourceAlpha" type="matrix" values="0 0 0 0 0 0 0 0 0 0 0 0 0 0 0 0 0 0 127 0" result="hardAlpha"/>
<feMorphology radius="0.919663" operator="erode" in="SourceAlpha" result="effect1_dropShadow_179_11"/>
<feOffset dx="1.94276" dy="2.75899"/>
<feGaussianBlur stdDeviation="1.60941"/>
<feComposite in2="hardAlpha" operator="out"/>
<feColorMatrix type="matrix" values="0 0 0 0 0 0 0 0 0 0 0 0 0 0 0 0 0 0 0.67 0"/>
<feBlend mode="normal" in2="BackgroundImageFix" result="effect1_dropShadow_179_11"/>
<feBlend mode="normal" in="SourceGraphic" in2="effect1_dropShadow_179_11" result="shape"/>
</filter>
<filter id="filter1_f_179_11" x="3.75645" y="4.40195" width="63.2" height="61.2" filterUnits="userSpaceOnUse" color-interpolation-filters="sRGB">
<feFlood flood-opacity="0" result="BackgroundImageFix"/>
<feBlend mode="normal" in="SourceGraphic" in2="BackgroundImageFix" result="shape"/>
<feGaussianBlur stdDeviation="2.3" result="effect1_foregroundBlur_179_11"/>
</filter>
<clipPath id="clip0_179_11">
<rect width="60" height="60" fill="white" transform="translate(5.35645 6)"/>
</clipPath>
</defs>
</svg>
