<svg width="534" height="116" viewBox="0 0 534 116" fill="none" xmlns="http://www.w3.org/2000/svg">
<path d="M82.3432 46.6622V55.8199C81.9986 56.2613 81.4549 56.7405 80.7119 57.2573C79.9797 57.7742 79.0214 58.221 77.837 58.5979C76.6526 58.964 75.199 59.147 73.4762 59.147C71.9795 59.147 70.6121 58.8993 69.3738 58.404C68.1356 57.898 67.0696 57.1604 66.1759 56.1913C65.2822 55.2223 64.5931 54.0379 64.1086 52.6381C63.624 51.2383 63.3818 49.6394 63.3818 47.8412V46.2907C63.3818 44.4925 63.6079 42.8936 64.0601 41.4938C64.5231 40.094 65.1799 38.9096 66.0305 37.9406C66.8919 36.9715 67.9202 36.2339 69.1154 35.7278C70.3214 35.2218 71.6673 34.9687 73.1532 34.9687C75.1452 34.9687 76.7818 35.2971 78.0631 35.954C79.3552 36.6108 80.3458 37.5152 81.0349 38.6674C81.7241 39.8087 82.1548 41.1223 82.327 42.6082H77.9985C77.8801 41.7899 77.6432 41.0739 77.2879 40.4601C76.9326 39.8356 76.4265 39.3511 75.7697 39.0065C75.1236 38.6512 74.2838 38.4735 73.2501 38.4735C72.3779 38.4735 71.6081 38.6458 70.9405 38.9904C70.2729 39.3349 69.713 39.8356 69.2608 40.4924C68.8085 41.1492 68.464 41.9622 68.2271 42.9313C68.001 43.9003 67.8879 45.0094 67.8879 46.2584V47.8412C67.8879 49.101 68.0171 50.2208 68.2755 51.2006C68.534 52.1697 68.9054 52.988 69.39 53.6556C69.8853 54.3124 70.4936 54.8131 71.2151 55.1577C71.9472 55.4915 72.7763 55.6584 73.7023 55.6584C74.5422 55.6584 75.2367 55.5884 75.7858 55.4484C76.3457 55.2976 76.7926 55.12 77.1264 54.9154C77.4602 54.7108 77.7186 54.5116 77.9016 54.3178V49.9085H73.2339V46.6622H82.3432ZM96.3843 59.147C95.06 59.147 93.8702 58.9316 92.8149 58.501C91.7597 58.0703 90.8607 57.4727 90.1177 56.7082C89.3855 55.9329 88.8202 55.0338 88.4218 54.0109C88.0342 52.9773 87.8404 51.8682 87.8404 50.6838V50.0378C87.8404 48.6918 88.0342 47.4697 88.4218 46.3714C88.8095 45.2624 89.3586 44.3095 90.0693 43.5127C90.7799 42.7159 91.6305 42.1022 92.6211 41.6715C93.6117 41.2408 94.7046 41.0254 95.8998 41.0254C97.1381 41.0254 98.231 41.2354 99.1785 41.6553C100.126 42.0645 100.917 42.6459 101.553 43.3996C102.188 44.1534 102.667 45.0578 102.99 46.113C103.313 47.1575 103.475 48.315 103.475 49.5855V51.3783H89.7785V48.4388H99.2754V48.1158C99.2539 47.4374 99.1247 46.8183 98.8878 46.2584C98.6509 45.6877 98.2848 45.2355 97.7895 44.9017C97.2942 44.5571 96.6535 44.3849 95.8675 44.3849C95.2322 44.3849 94.6777 44.5248 94.2039 44.8048C93.7409 45.074 93.3533 45.4616 93.0411 45.9677C92.7396 46.463 92.5135 47.0552 92.3627 47.7443C92.212 48.4334 92.1366 49.1979 92.1366 50.0378V50.6838C92.1366 51.416 92.2335 52.0943 92.4273 52.7188C92.6319 53.3434 92.928 53.8871 93.3156 54.3501C93.714 54.8023 94.1878 55.1577 94.7369 55.4161C95.2968 55.6637 95.9321 55.7876 96.6428 55.7876C97.5365 55.7876 98.344 55.6153 99.0654 55.2707C99.7976 54.9154 100.433 54.3932 100.971 53.7041L103.119 55.9329C102.753 56.4713 102.258 56.9881 101.633 57.4834C101.02 57.9787 100.277 58.3825 99.4046 58.6948C98.5324 58.9963 97.5257 59.147 96.3843 59.147ZM116.918 41.3484V44.4172H106.905V41.3484H116.918ZM109.586 37.0522H113.866V53.7848C113.866 54.3017 113.936 54.7001 114.076 54.98C114.216 55.26 114.426 55.4484 114.706 55.5453C114.986 55.6422 115.319 55.6907 115.707 55.6907C115.987 55.6907 116.245 55.6745 116.482 55.6422C116.719 55.6099 116.918 55.5776 117.08 55.5453L117.096 58.7432C116.741 58.8617 116.337 58.9586 115.885 59.0339C115.443 59.1093 114.942 59.147 114.383 59.147C113.424 59.147 112.584 58.9855 111.863 58.6625C111.142 58.3287 110.582 57.7957 110.183 57.0635C109.785 56.3205 109.586 55.3407 109.586 54.124V37.0522ZM145.259 52.7188C145.259 52.2666 145.189 51.8628 145.049 51.5075C144.92 51.1414 144.678 50.813 144.322 50.5223C143.978 50.2208 143.488 49.9301 142.852 49.6501C142.228 49.3594 141.42 49.0579 140.43 48.7457C139.332 48.4011 138.309 48.0135 137.361 47.5828C136.414 47.1521 135.579 46.6514 134.858 46.0807C134.147 45.5101 133.592 44.8532 133.194 44.1103C132.796 43.3566 132.596 42.4844 132.596 41.4938C132.596 40.5247 132.801 39.6418 133.21 38.845C133.63 38.0482 134.222 37.3645 134.987 36.7938C135.751 36.2124 136.65 35.7655 137.684 35.4533C138.729 35.141 139.881 34.9849 141.14 34.9849C142.885 34.9849 144.392 35.3025 145.663 35.9378C146.944 36.5731 147.935 37.4345 148.635 38.522C149.334 39.6095 149.684 40.8316 149.684 42.1883H145.259C145.259 41.4561 145.103 40.8101 144.791 40.2502C144.489 39.6903 144.026 39.2488 143.402 38.9258C142.788 38.6027 142.013 38.4412 141.076 38.4412C140.171 38.4412 139.418 38.5758 138.815 38.845C138.222 39.1142 137.776 39.4803 137.474 39.9433C137.183 40.4063 137.038 40.9231 137.038 41.4938C137.038 41.9245 137.14 42.3121 137.345 42.6567C137.55 42.9905 137.856 43.3081 138.266 43.6096C138.675 43.9003 139.181 44.1749 139.784 44.4333C140.397 44.681 141.108 44.9286 141.916 45.1763C143.208 45.5639 144.338 45.9946 145.307 46.4684C146.287 46.9421 147.1 47.4805 147.746 48.0835C148.403 48.6864 148.893 49.3648 149.216 50.1185C149.55 50.8722 149.717 51.7282 149.717 52.6865C149.717 53.6987 149.518 54.6031 149.119 55.3999C148.721 56.1967 148.15 56.8751 147.407 57.435C146.664 57.9949 145.77 58.4202 144.726 58.7109C143.692 59.0016 142.535 59.147 141.254 59.147C140.112 59.147 138.982 58.9963 137.862 58.6948C136.753 58.3825 135.746 57.9195 134.842 57.3058C133.937 56.6813 133.216 55.8952 132.677 54.9477C132.139 53.9894 131.87 52.8696 131.87 51.5883H136.327C136.327 52.3312 136.446 52.9665 136.683 53.4941C136.93 54.0109 137.275 54.4362 137.716 54.77C138.169 55.0931 138.696 55.3299 139.299 55.4807C139.902 55.6314 140.554 55.7068 141.254 55.7068C142.158 55.7068 142.901 55.583 143.482 55.3353C144.075 55.0769 144.516 54.7216 144.807 54.2694C145.108 53.8171 145.259 53.3003 145.259 52.7188ZM163.403 41.3484V44.4172H153.389V41.3484H163.403ZM156.07 37.0522H160.35V53.7848C160.35 54.3017 160.42 54.7001 160.56 54.98C160.7 55.26 160.91 55.4484 161.19 55.5453C161.47 55.6422 161.804 55.6907 162.191 55.6907C162.471 55.6907 162.73 55.6745 162.966 55.6422C163.203 55.6099 163.403 55.5776 163.564 55.5453L163.58 58.7432C163.225 58.8617 162.821 58.9586 162.369 59.0339C161.927 59.1093 161.427 59.147 160.867 59.147C159.908 59.147 159.069 58.9855 158.347 58.6625C157.626 58.3287 157.066 57.7957 156.668 57.0635C156.269 56.3205 156.07 55.3407 156.07 54.124V37.0522ZM178.187 55.1092V47.0498C178.187 46.4576 178.084 45.9461 177.88 45.5154C177.675 45.0847 177.363 44.7509 176.943 44.5141C176.523 44.2772 175.99 44.1587 175.344 44.1587C174.773 44.1587 174.273 44.2556 173.842 44.4495C173.422 44.6433 173.099 44.9178 172.873 45.2732C172.647 45.6177 172.534 46.0161 172.534 46.4684H168.254C168.254 45.7469 168.426 45.0632 168.771 44.4172C169.115 43.7603 169.605 43.1789 170.24 42.6728C170.886 42.156 171.656 41.7522 172.55 41.4615C173.454 41.1708 174.466 41.0254 175.586 41.0254C176.911 41.0254 178.09 41.2515 179.123 41.7038C180.168 42.1452 180.986 42.8128 181.578 43.7065C182.181 44.6002 182.483 45.7254 182.483 47.0821V54.7054C182.483 55.5776 182.537 56.3259 182.644 56.9504C182.763 57.5642 182.935 58.0972 183.161 58.5494V58.824H178.817C178.612 58.3825 178.456 57.8226 178.348 57.1443C178.24 56.4551 178.187 55.7768 178.187 55.1092ZM178.784 48.1804L178.817 50.7161H176.119C175.452 50.7161 174.865 50.7861 174.359 50.9261C173.853 51.0553 173.438 51.2491 173.115 51.5075C172.792 51.7552 172.55 52.0566 172.388 52.412C172.227 52.7565 172.146 53.1495 172.146 53.591C172.146 54.0217 172.243 54.4093 172.437 54.7539C172.641 55.0984 172.932 55.373 173.309 55.5776C173.697 55.7714 174.149 55.8683 174.666 55.8683C175.419 55.8683 176.076 55.7176 176.636 55.4161C177.196 55.1038 177.632 54.727 177.944 54.2855C178.257 53.844 178.424 53.4241 178.445 53.0257L179.673 54.8669C179.522 55.3084 179.296 55.7768 178.994 56.2721C178.693 56.7674 178.305 57.2304 177.831 57.6611C177.358 58.0918 176.787 58.4471 176.119 58.7271C175.452 59.007 174.676 59.147 173.794 59.147C172.663 59.147 171.651 58.9209 170.757 58.4686C169.863 58.0164 169.158 57.3973 168.641 56.6113C168.124 55.8252 167.866 54.9315 167.866 53.9302C167.866 53.0042 168.038 52.1859 168.383 51.4752C168.727 50.7646 169.239 50.167 169.917 49.6824C170.596 49.1871 171.435 48.8157 172.437 48.568C173.449 48.3096 174.606 48.1804 175.909 48.1804H178.784ZM192.906 44.9178V58.824H188.642V41.3484H192.68L192.906 44.9178ZM198.22 41.2354L198.155 45.2086C197.918 45.1655 197.649 45.1332 197.348 45.1117C197.057 45.0901 196.782 45.0794 196.524 45.0794C195.867 45.0794 195.291 45.1709 194.796 45.3539C194.301 45.5262 193.886 45.7792 193.552 46.113C193.229 46.4468 192.982 46.856 192.809 47.3405C192.637 47.8143 192.54 48.3527 192.519 48.9556L191.598 48.8426C191.598 47.7335 191.711 46.7052 191.937 45.7577C192.163 44.8102 192.492 43.9811 192.922 43.2704C193.353 42.5598 193.891 42.0106 194.537 41.623C195.194 41.2246 195.948 41.0254 196.799 41.0254C197.035 41.0254 197.288 41.047 197.558 41.09C197.838 41.1223 198.058 41.1708 198.22 41.2354ZM211.954 41.3484V44.4172H201.94V41.3484H211.954ZM204.622 37.0522H208.902V53.7848C208.902 54.3017 208.972 54.7001 209.112 54.98C209.252 55.26 209.461 55.4484 209.741 55.5453C210.021 55.6422 210.355 55.6907 210.743 55.6907C211.023 55.6907 211.281 55.6745 211.518 55.6422C211.755 55.6099 211.954 55.5776 212.116 55.5453L212.132 58.7432C211.776 58.8617 211.373 58.9586 210.92 59.0339C210.479 59.1093 209.978 59.147 209.418 59.147C208.46 59.147 207.62 58.9855 206.899 58.6625C206.177 58.3287 205.618 57.7957 205.219 57.0635C204.821 56.3205 204.622 55.3407 204.622 54.124V37.0522ZM224.962 59.147C223.637 59.147 222.447 58.9316 221.392 58.501C220.337 58.0703 219.438 57.4727 218.695 56.7082C217.963 55.9329 217.398 55.0338 216.999 54.0109C216.611 52.9773 216.418 51.8682 216.418 50.6838V50.0378C216.418 48.6918 216.611 47.4697 216.999 46.3714C217.387 45.2624 217.936 44.3095 218.647 43.5127C219.357 42.7159 220.208 42.1022 221.198 41.6715C222.189 41.2408 223.282 41.0254 224.477 41.0254C225.715 41.0254 226.808 41.2354 227.756 41.6553C228.703 42.0645 229.495 42.6459 230.13 43.3996C230.765 44.1534 231.244 45.0578 231.567 46.113C231.89 47.1575 232.052 48.315 232.052 49.5855V51.3783H218.356V48.4388H227.853V48.1158C227.831 47.4374 227.702 46.8183 227.465 46.2584C227.228 45.6877 226.862 45.2355 226.367 44.9017C225.871 44.5571 225.231 44.3849 224.445 44.3849C223.81 44.3849 223.255 44.5248 222.781 44.8048C222.318 45.074 221.931 45.4616 221.618 45.9677C221.317 46.463 221.091 47.0552 220.94 47.7443C220.789 48.4334 220.714 49.1979 220.714 50.0378V50.6838C220.714 51.416 220.811 52.0943 221.005 52.7188C221.209 53.3434 221.505 53.8871 221.893 54.3501C222.291 54.8023 222.765 55.1577 223.314 55.4161C223.874 55.6637 224.509 55.7876 225.22 55.7876C226.114 55.7876 226.921 55.6153 227.643 55.2707C228.375 54.9154 229.01 54.3932 229.549 53.7041L231.697 55.9329C231.331 56.4713 230.835 56.9881 230.211 57.4834C229.597 57.9787 228.854 58.3825 227.982 58.6948C227.11 58.9963 226.103 59.147 224.962 59.147ZM247.708 55.1092V34.0158H252.004V58.824H248.128L247.708 55.1092ZM236.483 50.2962V49.957C236.483 48.6218 236.634 47.4105 236.935 46.323C237.248 45.2247 237.7 44.2826 238.292 43.4965C238.884 42.7105 239.6 42.1022 240.44 41.6715C241.291 41.2408 242.255 41.0254 243.331 41.0254C244.376 41.0254 245.286 41.2354 246.061 41.6553C246.847 42.0752 247.514 42.6728 248.064 43.4481C248.623 44.2233 249.07 45.144 249.404 46.2099C249.738 47.2651 249.98 48.428 250.131 49.6986V50.6192C249.98 51.8574 249.738 52.9934 249.404 54.0271C249.07 55.0608 248.623 55.9652 248.064 56.7405C247.514 57.505 246.847 58.0972 246.061 58.5171C245.275 58.937 244.354 59.147 243.299 59.147C242.233 59.147 241.275 58.9263 240.424 58.4848C239.584 58.0433 238.868 57.4242 238.276 56.6274C237.695 55.8306 237.248 54.8939 236.935 53.8171C236.634 52.7404 236.483 51.5667 236.483 50.2962ZM240.763 49.957V50.2962C240.763 51.0499 240.828 51.7552 240.957 52.412C241.086 53.0688 241.296 53.6502 241.587 54.1563C241.878 54.6516 242.249 55.0392 242.701 55.3192C243.164 55.5991 243.724 55.7391 244.381 55.7391C245.221 55.7391 245.91 55.5561 246.448 55.19C246.998 54.8131 247.423 54.3017 247.724 53.6556C248.026 52.9988 248.22 52.2612 248.306 51.4429V48.9072C248.263 48.2611 248.15 47.6635 247.967 47.1144C247.794 46.5653 247.547 46.0915 247.224 45.6931C246.911 45.2947 246.524 44.9824 246.061 44.7563C245.598 44.5302 245.049 44.4172 244.413 44.4172C243.757 44.4172 243.197 44.5625 242.734 44.8532C242.271 45.1332 241.894 45.5262 241.603 46.0323C241.312 46.5383 241.097 47.1252 240.957 47.7927C240.828 48.4603 240.763 49.1817 240.763 49.957Z" fill="white"/>
<g filter="url(#filter0_ddii_179_9)">
<rect x="7.38916" y="5.06104" width="519" height="99.9254" rx="13.8383" fill="#FE7702"/>
<rect x="7.89526" y="5.56713" width="517.988" height="98.9132" rx="13.3322" stroke="#924705" stroke-width="1.0122"/>
</g>
<g filter="url(#filter1_d_179_9)">
<path d="M45.496 51.6686H47.6053C49.2794 51.6686 49.9155 50.7981 49.9155 49.4924C49.9155 48.1866 49.2794 47.3161 47.6053 47.3161H45.496V51.6686ZM57.4487 49.4924C57.4487 53.8784 54.4019 57.5278 48.4423 57.5278H45.496V65.061H38.0632V41.3565H48.4423C54.4019 41.3565 57.4487 44.7046 57.4487 49.4924ZM74.6718 49.5928C74.6718 48.3875 73.9352 47.5839 72.529 47.5839H69.5827V51.6017H72.529C73.9352 51.6017 74.6718 50.999 74.6718 49.5928ZM62.1499 41.3565H73.1987C79.1583 41.3565 82.2051 44.7715 82.2051 49.1241C82.2051 52.2378 80.464 54.8828 77.0825 55.9877L82.2385 65.061H74.0692L69.6162 56.5569H69.5827V65.061H62.1499V41.3565ZM110.628 53.1083C110.628 60.2398 105.17 65.2954 98.4742 65.2954C91.7445 65.2954 86.2536 60.2398 86.2536 53.1083C86.2536 45.9769 91.7445 40.9547 98.4742 40.9547C105.237 40.9547 110.628 45.9769 110.628 53.1083ZM93.8204 53.1083C93.8204 56.2555 95.4274 58.3648 98.4742 58.3648C101.454 58.3648 103.095 56.2555 103.095 53.1083C103.095 49.8941 101.454 47.8183 98.4742 47.8183C95.4274 47.8183 93.8204 49.8941 93.8204 53.1083ZM114.983 53.1753C114.983 46.1108 119.436 41.1221 126.702 41.1221C132.963 41.1221 137.215 44.872 138.186 50.4633H130.351C129.648 48.8897 128.242 47.9857 126.568 47.9857C124.057 47.9857 122.516 50.0281 122.516 53.1753C122.516 56.3225 124.057 58.3648 126.568 58.3648C128.242 58.3648 129.648 57.4608 130.351 55.8872H138.186C137.215 61.4786 132.963 65.2284 126.702 65.2284C119.436 65.2284 114.983 60.2398 114.983 53.1753ZM159.008 41.3565V47.2826H150.638V50.1955H158.004V55.7868H150.638V59.1349H159.008V65.061H143.205V41.3565H159.008ZM182.467 57.7287C182.467 62.0812 179.153 65.2954 173.427 65.2954C168.004 65.2954 163.751 62.7843 163.417 57.4608H171.318C171.452 59.2019 172.39 59.5032 173.126 59.5032C173.863 59.5032 174.566 59.1684 174.566 58.3314C174.532 55.1172 163.35 56.289 163.484 48.1866C163.484 43.4323 167.501 40.9547 172.557 40.9547C178.282 40.9547 181.965 43.7001 182.166 48.6219H174.164C174.097 47.1822 173.327 46.7469 172.524 46.7469C171.921 46.7469 171.452 47.1487 171.452 47.9522C171.452 50.932 182.467 50.4298 182.467 57.7287ZM205.737 57.7287C205.737 62.0812 202.422 65.2954 196.697 65.2954C191.273 65.2954 187.021 62.7843 186.686 57.4608H194.587C194.721 59.2019 195.659 59.5032 196.395 59.5032C197.132 59.5032 197.835 59.1684 197.835 58.3314C197.802 55.1172 186.619 56.289 186.753 48.1866C186.753 43.4323 190.771 40.9547 195.826 40.9547C201.552 40.9547 205.234 43.7001 205.435 48.6219H197.433C197.366 47.1822 196.596 46.7469 195.793 46.7469C195.19 46.7469 194.721 47.1487 194.721 47.9522C194.721 50.932 205.737 50.4298 205.737 57.7287ZM242.429 53.1083C242.429 60.2398 236.972 65.2954 230.276 65.2954C223.546 65.2954 218.055 60.2398 218.055 53.1083C218.055 45.9769 223.546 40.9547 230.276 40.9547C237.039 40.9547 242.429 45.9769 242.429 53.1083ZM225.622 53.1083C225.622 56.2555 227.229 58.3648 230.276 58.3648C233.255 58.3648 234.896 56.2555 234.896 53.1083C234.896 49.8941 233.255 47.8183 230.276 47.8183C227.229 47.8183 225.622 49.8941 225.622 53.1083ZM258.57 57.6617L263.425 41.3565H271.326L263.358 65.061H253.749L245.78 41.3565H253.682L258.57 57.6617ZM291.137 41.3565V47.2826H282.767V50.1955H290.132V55.7868H282.767V59.1349H291.137V65.061H275.334V41.3565H291.137ZM308.804 49.5928C308.804 48.3875 308.067 47.5839 306.661 47.5839H303.714V51.6017H306.661C308.067 51.6017 308.804 50.999 308.804 49.5928ZM296.282 41.3565H307.33C313.29 41.3565 316.337 44.7715 316.337 49.1241C316.337 52.2378 314.596 54.8828 311.214 55.9877L316.37 65.061H308.201L303.748 56.5569H303.714V65.061H296.282V41.3565ZM332.171 57.6617L337.025 41.3565H344.927L336.958 65.061H327.349L319.381 41.3565H327.282L332.171 57.6617ZM348.934 65.061V41.3565H356.367V65.061H348.934ZM377.871 41.3565V47.2826H369.501V50.1955H376.867V55.7868H369.501V59.1349H377.871V65.061H362.068V41.3565H377.871ZM387.77 65.061L382.346 41.3565H390.348L392.491 56.289L395.705 41.3565H403.807L407.022 56.289L409.164 41.3565H417.166L411.743 65.061H402.502L399.756 51.6017L397.011 65.061H387.77Z" fill="white"/>
</g>
<g filter="url(#filter2_i_179_9)">
<path d="M503.264 52.061C503.264 34.4575 488.993 20.186 471.389 20.186C453.786 20.186 439.514 34.4575 439.514 52.061C439.514 69.6645 453.786 83.936 471.389 83.936C488.993 83.936 503.264 69.6645 503.264 52.061ZM473.19 57.5255H453.327V46.5966H473.19V35.061L489.452 52.061L473.19 69.061V57.5255Z" fill="white"/>
</g>
<defs>
<filter id="filter0_ddii_179_9" x="0.000113964" y="4.47035e-05" width="533.778" height="115.412" filterUnits="userSpaceOnUse" color-interpolation-filters="sRGB">
<feFlood flood-opacity="0" result="BackgroundImageFix"/>
<feColorMatrix in="SourceAlpha" type="matrix" values="0 0 0 0 0 0 0 0 0 0 0 0 0 0 0 0 0 0 127 0" result="hardAlpha"/>
<feOffset dy="3.03659"/>
<feGaussianBlur stdDeviation="3.69452"/>
<feComposite in2="hardAlpha" operator="out"/>
<feColorMatrix type="matrix" values="0 0 0 0 0 0 0 0 0 0 0 0 0 0 0 0 0 0 0.68 0"/>
<feBlend mode="normal" in2="BackgroundImageFix" result="effect1_dropShadow_179_9"/>
<feColorMatrix in="SourceAlpha" type="matrix" values="0 0 0 0 0 0 0 0 0 0 0 0 0 0 0 0 0 0 127 0" result="hardAlpha"/>
<feOffset dx="-2.0244" dy="-1.0122"/>
<feGaussianBlur stdDeviation="2.0244"/>
<feComposite in2="hardAlpha" operator="out"/>
<feColorMatrix type="matrix" values="0 0 0 0 0 0 0 0 0 0 0 0 0 0 0 0 0 0 0.6 0"/>
<feBlend mode="normal" in2="effect1_dropShadow_179_9" result="effect2_dropShadow_179_9"/>
<feBlend mode="normal" in="SourceGraphic" in2="effect2_dropShadow_179_9" result="shape"/>
<feColorMatrix in="SourceAlpha" type="matrix" values="0 0 0 0 0 0 0 0 0 0 0 0 0 0 0 0 0 0 127 0" result="hardAlpha"/>
<feOffset dx="6.07319" dy="-6.07319"/>
<feGaussianBlur stdDeviation="2.0244"/>
<feComposite in2="hardAlpha" operator="arithmetic" k2="-1" k3="1"/>
<feColorMatrix type="matrix" values="0 0 0 0 0 0 0 0 0 0 0 0 0 0 0 0 0 0 0.25 0"/>
<feBlend mode="normal" in2="shape" result="effect3_innerShadow_179_9"/>
<feColorMatrix in="SourceAlpha" type="matrix" values="0 0 0 0 0 0 0 0 0 0 0 0 0 0 0 0 0 0 127 0" result="hardAlpha"/>
<feOffset dx="-4.04879" dy="5.06099"/>
<feGaussianBlur stdDeviation="2.0244"/>
<feComposite in2="hardAlpha" operator="arithmetic" k2="-1" k3="1"/>
<feColorMatrix type="matrix" values="0 0 0 0 1 0 0 0 0 0.999906 0 0 0 0 0.999906 0 0 0 0.25 0"/>
<feBlend mode="normal" in2="effect3_innerShadow_179_9" result="effect4_innerShadow_179_9"/>
</filter>
<filter id="filter1_d_179_9" x="34.063" y="40.9546" width="387.104" height="32.3408" filterUnits="userSpaceOnUse" color-interpolation-filters="sRGB">
<feFlood flood-opacity="0" result="BackgroundImageFix"/>
<feColorMatrix in="SourceAlpha" type="matrix" values="0 0 0 0 0 0 0 0 0 0 0 0 0 0 0 0 0 0 127 0" result="hardAlpha"/>
<feOffset dy="4"/>
<feGaussianBlur stdDeviation="2"/>
<feComposite in2="hardAlpha" operator="out"/>
<feColorMatrix type="matrix" values="0 0 0 0 0 0 0 0 0 0 0 0 0 0 0 0 0 0 1 0"/>
<feBlend mode="normal" in2="BackgroundImageFix" result="effect1_dropShadow_179_9"/>
<feBlend mode="normal" in="SourceGraphic" in2="effect1_dropShadow_179_9" result="shape"/>
</filter>
<filter id="filter2_i_179_9" x="437.389" y="15.961" width="68" height="70.1" filterUnits="userSpaceOnUse" color-interpolation-filters="sRGB">
<feFlood flood-opacity="0" result="BackgroundImageFix"/>
<feBlend mode="normal" in="SourceGraphic" in2="BackgroundImageFix" result="shape"/>
<feColorMatrix in="SourceAlpha" type="matrix" values="0 0 0 0 0 0 0 0 0 0 0 0 0 0 0 0 0 0 127 0" result="hardAlpha"/>
<feOffset dy="-3"/>
<feGaussianBlur stdDeviation="1.05"/>
<feComposite in2="hardAlpha" operator="arithmetic" k2="-1" k3="1"/>
<feColorMatrix type="matrix" values="0 0 0 0 0 0 0 0 0 0 0 0 0 0 0 0 0 0 1 0"/>
<feBlend mode="normal" in2="shape" result="effect1_innerShadow_179_9"/>
</filter>
</defs>
</svg>
