<svg width="285" height="90" viewBox="0 0 285 90" fill="none" xmlns="http://www.w3.org/2000/svg">
<g filter="url(#filter0_i_172_7)">
<path d="M261.14 51.2661C261.938 50.4682 261.938 49.1744 261.14 48.3765L248.137 35.3732C247.339 34.5753 246.045 34.5753 245.247 35.3732C244.449 36.1712 244.449 37.4649 245.247 38.2628L256.806 49.8213L245.247 61.3797C244.449 62.1777 244.449 63.4714 245.247 64.2693C246.045 65.0673 247.339 65.0673 248.137 64.2693L261.14 51.2661ZM222.917 49.8213V51.8646H259.695V49.8213V47.778H222.917V49.8213Z" fill="white"/>
<path d="M17.8527 60.3213V40.2973H24.6036V55.0864H33.643V60.3213H17.8527ZM53.9584 52.4833C53.9584 52.941 53.9012 53.5417 53.8726 53.9994H43.0025C43.4601 55.2009 44.5472 55.8302 46.1491 55.8302C47.5794 55.8302 48.3803 55.4583 49.4101 54.686L52.7856 58.09C51.2695 59.7492 49.0669 60.6073 45.9488 60.6073C40.1991 60.6073 36.4804 57.1461 36.4804 52.4833C36.4804 47.7348 40.2849 44.3879 45.3481 44.3879C49.9822 44.3879 53.9584 47.1913 53.9584 52.4833ZM45.4053 48.7932C44.0609 48.7932 43.1455 49.5656 42.888 50.8814H47.9226C47.6652 49.5656 46.7212 48.7932 45.4053 48.7932ZM64.5904 44.3879C69.9682 44.3879 73.0576 46.705 73.0576 51.9112V60.3213H67.0504V58.2617C66.3067 59.835 64.8192 60.6073 62.6166 60.6073C58.7834 60.6073 56.8096 58.4333 56.8096 55.7444C56.8096 52.7122 59.0981 51.0244 63.961 51.0244H66.5641C66.3639 49.823 65.4485 49.1937 63.6178 49.1937C62.2161 49.1937 60.6428 49.6514 59.613 50.4237L57.5534 46.1615C59.3841 45.0172 62.1589 44.3879 64.5904 44.3879ZM64.5618 56.717C65.4485 56.717 66.2495 56.2593 66.5928 55.2295V54.1425H64.9908C63.6178 54.1425 63.017 54.6002 63.017 55.4583C63.017 56.1735 63.5892 56.717 64.5618 56.717ZM84.0042 46.3617C85.1485 45.0459 86.8934 44.3879 89.0674 44.3879V50.1091C88.4953 50.0232 88.0948 49.9946 87.6371 49.9946C85.692 49.9946 84.3189 50.8814 84.3189 53.3701V60.3213H77.854V44.674H84.0042V46.3617ZM103.772 44.3879C107.377 44.3879 110.18 46.4761 110.18 51.3963V60.3213H103.715V52.5119C103.715 50.5668 102.971 49.823 101.799 49.823C100.483 49.823 99.367 50.6526 99.367 52.9696V60.3213H92.9022V44.674H99.0524V46.2187C100.282 44.9886 101.942 44.3879 103.772 44.3879ZM149.798 60.3213H143.647L143.59 51.1961L139.242 58.5191H136.267L131.919 51.5107V60.3213H125.769V40.2973H131.318L137.84 50.9672L144.191 40.2973H149.74L149.798 60.3213ZM163.131 60.6073C157.839 60.6073 154.034 57.2319 154.034 52.4833C154.034 47.7348 157.839 44.3879 163.131 44.3879C168.451 44.3879 172.227 47.7348 172.227 52.4833C172.227 57.2319 168.451 60.6073 163.131 60.6073ZM163.131 55.5727C164.561 55.5727 165.677 54.5143 165.677 52.4833C165.677 50.4523 164.561 49.4225 163.131 49.4225C161.7 49.4225 160.585 50.4523 160.585 52.4833C160.585 54.5143 161.7 55.5727 163.131 55.5727ZM182.403 46.3617C183.548 45.0459 185.292 44.3879 187.467 44.3879V50.1091C186.894 50.0232 186.494 49.9946 186.036 49.9946C184.091 49.9946 182.718 50.8814 182.718 53.3701V60.3213H176.253V44.674H182.403V46.3617ZM207.81 52.4833C207.81 52.941 207.753 53.5417 207.724 53.9994H196.854C197.312 55.2009 198.399 55.8302 200.001 55.8302C201.431 55.8302 202.232 55.4583 203.262 54.686L206.637 58.09C205.121 59.7492 202.918 60.6073 199.8 60.6073C194.051 60.6073 190.332 57.1461 190.332 52.4833C190.332 47.7348 194.137 44.3879 199.2 44.3879C203.834 44.3879 207.81 47.1913 207.81 52.4833ZM199.257 48.7932C197.913 48.7932 196.997 49.5656 196.74 50.8814H201.774C201.517 49.5656 200.573 48.7932 199.257 48.7932Z" fill="white"/>
</g>
<g filter="url(#filter1_ddii_172_7)">
<rect x="8.99512" y="8.31836" width="269.489" height="73.482" rx="9.24721" fill="#FE7702"/>
<rect x="9.33331" y="8.65655" width="268.813" height="72.8056" rx="8.90901" stroke="#924705" stroke-width="0.676385"/>
</g>
<g filter="url(#filter2_ddii_172_7)">
<rect x="7.48193" y="9.06055" width="271.003" height="72.7471" rx="10.1686" fill="#FE7702"/>
<rect x="7.85383" y="9.43244" width="270.259" height="72.0034" rx="9.79675" stroke="#924705" stroke-width="0.743783"/>
</g>
<g filter="url(#filter3_d_172_7)">
<path d="M36.1738 49.8336H41.4388V53.9668H30.7121V36.5482H36.1738V49.8336ZM50.3414 40.9029V43.0433H55.754V47.1519H50.3414V49.6122H56.492V53.9668H44.8796V36.5482H56.492V40.9029H50.3414ZM71.4421 51.3343H65.6359L64.7748 53.9668H59.0424L65.4145 36.5482H71.7127L78.0602 53.9668H72.3032L71.4421 51.3343ZM70.1136 47.2257L68.539 42.379L66.9644 47.2257H70.1136ZM89.7817 53.9668L86.5096 47.7178H86.485V53.9668H81.0232V36.5482H89.1421C90.5526 36.5482 91.7581 36.8024 92.7586 37.3109C93.7591 37.8029 94.5054 38.4836 94.9975 39.3529C95.5059 40.2058 95.7601 41.1735 95.7601 42.256C95.7601 43.4205 95.4321 44.4538 94.776 45.3559C94.1364 46.258 93.2097 46.9059 91.996 47.2995L95.7847 53.9668H89.7817ZM86.485 44.0766H88.65C89.1749 44.0766 89.5685 43.9618 89.8309 43.7322C90.0934 43.4861 90.2246 43.1089 90.2246 42.6004C90.2246 42.1412 90.0852 41.7804 89.8063 41.5179C89.5439 41.2555 89.1585 41.1243 88.65 41.1243H86.485V44.0766ZM115.932 53.9668H110.471L104.689 45.2083V53.9668H99.2272V36.5482H104.689L110.471 45.4543V36.5482H115.932V53.9668ZM146.961 36.5482V53.9668H141.524V45.2821L138.843 53.9668H134.168L131.486 45.2821V53.9668H126.025V36.5482H132.717L136.555 47.0043L140.294 36.5482H146.961ZM159.636 54.139C157.996 54.139 156.487 53.7536 155.109 52.9827C153.748 52.2118 152.665 51.1457 151.862 49.7844C151.058 48.423 150.656 46.8895 150.656 45.1837C150.656 43.4779 151.058 41.9444 151.862 40.583C152.665 39.2217 153.748 38.1638 155.109 37.4093C156.487 36.6384 157.996 36.253 159.636 36.253C161.276 36.253 162.777 36.6384 164.138 37.4093C165.5 38.1638 166.574 39.2217 167.361 40.583C168.165 41.9444 168.567 43.4779 168.567 45.1837C168.567 46.8895 168.165 48.423 167.361 49.7844C166.574 51.1457 165.491 52.2118 164.114 52.9827C162.752 53.7536 161.26 54.139 159.636 54.139ZM159.636 49.0463C160.718 49.0463 161.555 48.7019 162.145 48.013C162.736 47.3077 163.031 46.3646 163.031 45.1837C163.031 43.9864 162.736 43.0433 162.145 42.3544C161.555 41.6491 160.718 41.2965 159.636 41.2965C158.537 41.2965 157.692 41.6491 157.102 42.3544C156.511 43.0433 156.216 43.9864 156.216 45.1837C156.216 46.3646 156.511 47.3077 157.102 48.013C157.692 48.7019 158.537 49.0463 159.636 49.0463ZM181.018 53.9668L177.746 47.7178H177.721V53.9668H172.259V36.5482H180.378C181.789 36.5482 182.994 36.8024 183.995 37.3109C184.995 37.8029 185.741 38.4836 186.233 39.3529C186.742 40.2058 186.996 41.1735 186.996 42.256C186.996 43.4205 186.668 44.4538 186.012 45.3559C185.372 46.258 184.446 46.9059 183.232 47.2995L187.021 53.9668H181.018ZM177.721 44.0766H179.886C180.411 44.0766 180.804 43.9618 181.067 43.7322C181.329 43.4861 181.46 43.1089 181.46 42.6004C181.46 42.1412 181.321 41.7804 181.042 41.5179C180.78 41.2555 180.394 41.1243 179.886 41.1243H177.721V44.0766ZM195.925 40.9029V43.0433H201.337V47.1519H195.925V49.6122H202.075V53.9668H190.463V36.5482H202.075V40.9029H195.925Z" fill="white"/>
</g>
<g clip-path="url(#clip0_172_7)" filter="url(#filter4_i_172_7)">
<path d="M265.901 45.2243C265.901 32.6625 255.305 22.4785 242.236 22.4785C229.166 22.4785 218.571 32.6625 218.571 45.2243C218.571 57.786 229.166 67.97 242.236 67.97C255.305 67.97 265.901 57.786 265.901 45.2243ZM243.573 49.1236H228.826V41.3249H243.573V33.0932L255.646 45.2243L243.573 57.3553V49.1236Z" fill="white"/>
</g>
<defs>
<filter id="filter0_i_172_7" x="14.481" y="31.6758" width="247.257" height="37.9812" filterUnits="userSpaceOnUse" color-interpolation-filters="sRGB">
<feFlood flood-opacity="0" result="BackgroundImageFix"/>
<feBlend mode="normal" in="SourceGraphic" in2="BackgroundImageFix" result="shape"/>
<feColorMatrix in="SourceAlpha" type="matrix" values="0 0 0 0 0 0 0 0 0 0 0 0 0 0 0 0 0 0 127 0" result="hardAlpha"/>
<feOffset dy="2.81856"/>
<feGaussianBlur stdDeviation="0.845567"/>
<feComposite in2="hardAlpha" operator="arithmetic" k2="-1" k3="1"/>
<feColorMatrix type="matrix" values="0 0 0 0 0 0 0 0 0 0 0 0 0 0 0 0 0 0 0.91 0"/>
<feBlend mode="normal" in2="shape" result="effect1_innerShadow_172_7"/>
</filter>
<filter id="filter1_ddii_172_7" x="0.000221372" y="-0.000151098" width="284.773" height="88.7677" filterUnits="userSpaceOnUse" color-interpolation-filters="sRGB">
<feFlood flood-opacity="0" result="BackgroundImageFix"/>
<feColorMatrix in="SourceAlpha" type="matrix" values="0 0 0 0 0 0 0 0 0 0 0 0 0 0 0 0 0 0 127 0" result="hardAlpha"/>
<feOffset dy="2.02916"/>
<feGaussianBlur stdDeviation="2.46881"/>
<feComposite in2="hardAlpha" operator="out"/>
<feColorMatrix type="matrix" values="0 0 0 0 0 0 0 0 0 0 0 0 0 0 0 0 0 0 0.47 0"/>
<feBlend mode="normal" in2="BackgroundImageFix" result="effect1_dropShadow_172_7"/>
<feColorMatrix in="SourceAlpha" type="matrix" values="0 0 0 0 0 0 0 0 0 0 0 0 0 0 0 0 0 0 127 0" result="hardAlpha"/>
<feMorphology radius="2.20446" operator="dilate" in="SourceAlpha" result="effect2_dropShadow_172_7"/>
<feOffset dx="-1.35277" dy="-0.676385"/>
<feGaussianBlur stdDeviation="2.71883"/>
<feComposite in2="hardAlpha" operator="out"/>
<feColorMatrix type="matrix" values="0 0 0 0 0 0 0 0 0 0 0 0 0 0 0 0 0 0 0.47 0"/>
<feBlend mode="normal" in2="effect1_dropShadow_172_7" result="effect2_dropShadow_172_7"/>
<feBlend mode="normal" in="SourceGraphic" in2="effect2_dropShadow_172_7" result="shape"/>
<feColorMatrix in="SourceAlpha" type="matrix" values="0 0 0 0 0 0 0 0 0 0 0 0 0 0 0 0 0 0 127 0" result="hardAlpha"/>
<feOffset dx="4.05831" dy="-4.05831"/>
<feGaussianBlur stdDeviation="1.35277"/>
<feComposite in2="hardAlpha" operator="arithmetic" k2="-1" k3="1"/>
<feColorMatrix type="matrix" values="0 0 0 0 0 0 0 0 0 0 0 0 0 0 0 0 0 0 0.25 0"/>
<feBlend mode="normal" in2="shape" result="effect3_innerShadow_172_7"/>
<feColorMatrix in="SourceAlpha" type="matrix" values="0 0 0 0 0 0 0 0 0 0 0 0 0 0 0 0 0 0 127 0" result="hardAlpha"/>
<feOffset dx="-2.70554" dy="3.38193"/>
<feGaussianBlur stdDeviation="1.35277"/>
<feComposite in2="hardAlpha" operator="arithmetic" k2="-1" k3="1"/>
<feColorMatrix type="matrix" values="0 0 0 0 1 0 0 0 0 0.999906 0 0 0 0 0.999906 0 0 0 0.25 0"/>
<feBlend mode="normal" in2="effect3_innerShadow_172_7" result="effect4_innerShadow_172_7"/>
</filter>
<filter id="filter2_ddii_172_7" x="2.05232" y="5.34163" width="281.862" height="84.127" filterUnits="userSpaceOnUse" color-interpolation-filters="sRGB">
<feFlood flood-opacity="0" result="BackgroundImageFix"/>
<feColorMatrix in="SourceAlpha" type="matrix" values="0 0 0 0 0 0 0 0 0 0 0 0 0 0 0 0 0 0 127 0" result="hardAlpha"/>
<feOffset dy="2.23135"/>
<feGaussianBlur stdDeviation="2.71481"/>
<feComposite in2="hardAlpha" operator="out"/>
<feColorMatrix type="matrix" values="0 0 0 0 0 0 0 0 0 0 0 0 0 0 0 0 0 0 0.68 0"/>
<feBlend mode="normal" in2="BackgroundImageFix" result="effect1_dropShadow_172_7"/>
<feColorMatrix in="SourceAlpha" type="matrix" values="0 0 0 0 0 0 0 0 0 0 0 0 0 0 0 0 0 0 127 0" result="hardAlpha"/>
<feOffset dx="-1.48757" dy="-0.743783"/>
<feGaussianBlur stdDeviation="1.48757"/>
<feComposite in2="hardAlpha" operator="out"/>
<feColorMatrix type="matrix" values="0 0 0 0 0 0 0 0 0 0 0 0 0 0 0 0 0 0 0.6 0"/>
<feBlend mode="normal" in2="effect1_dropShadow_172_7" result="effect2_dropShadow_172_7"/>
<feBlend mode="normal" in="SourceGraphic" in2="effect2_dropShadow_172_7" result="shape"/>
<feColorMatrix in="SourceAlpha" type="matrix" values="0 0 0 0 0 0 0 0 0 0 0 0 0 0 0 0 0 0 127 0" result="hardAlpha"/>
<feOffset dx="4.4627" dy="-4.4627"/>
<feGaussianBlur stdDeviation="1.48757"/>
<feComposite in2="hardAlpha" operator="arithmetic" k2="-1" k3="1"/>
<feColorMatrix type="matrix" values="0 0 0 0 0 0 0 0 0 0 0 0 0 0 0 0 0 0 0.25 0"/>
<feBlend mode="normal" in2="shape" result="effect3_innerShadow_172_7"/>
<feColorMatrix in="SourceAlpha" type="matrix" values="0 0 0 0 0 0 0 0 0 0 0 0 0 0 0 0 0 0 127 0" result="hardAlpha"/>
<feOffset dx="-2.97513" dy="3.71892"/>
<feGaussianBlur stdDeviation="1.48757"/>
<feComposite in2="hardAlpha" operator="arithmetic" k2="-1" k3="1"/>
<feColorMatrix type="matrix" values="0 0 0 0 1 0 0 0 0 0.999906 0 0 0 0 0.999906 0 0 0 0.25 0"/>
<feBlend mode="normal" in2="effect3_innerShadow_172_7" result="effect4_innerShadow_172_7"/>
</filter>
<filter id="filter3_d_172_7" x="27.7726" y="36.2529" width="177.242" height="23.7643" filterUnits="userSpaceOnUse" color-interpolation-filters="sRGB">
<feFlood flood-opacity="0" result="BackgroundImageFix"/>
<feColorMatrix in="SourceAlpha" type="matrix" values="0 0 0 0 0 0 0 0 0 0 0 0 0 0 0 0 0 0 127 0" result="hardAlpha"/>
<feOffset dy="2.93928"/>
<feGaussianBlur stdDeviation="1.46964"/>
<feComposite in2="hardAlpha" operator="out"/>
<feColorMatrix type="matrix" values="0 0 0 0 0 0 0 0 0 0 0 0 0 0 0 0 0 0 1 0"/>
<feBlend mode="normal" in2="BackgroundImageFix" result="effect1_dropShadow_172_7"/>
<feBlend mode="normal" in="SourceGraphic" in2="effect1_dropShadow_172_7" result="shape"/>
</filter>
<filter id="filter4_i_172_7" x="217.481" y="19.4236" width="50" height="50.5432" filterUnits="userSpaceOnUse" color-interpolation-filters="sRGB">
<feFlood flood-opacity="0" result="BackgroundImageFix"/>
<feBlend mode="normal" in="SourceGraphic" in2="BackgroundImageFix" result="shape"/>
<feColorMatrix in="SourceAlpha" type="matrix" values="0 0 0 0 0 0 0 0 0 0 0 0 0 0 0 0 0 0 127 0" result="hardAlpha"/>
<feOffset dy="-2.20456"/>
<feGaussianBlur stdDeviation="0.771597"/>
<feComposite in2="hardAlpha" operator="arithmetic" k2="-1" k3="1"/>
<feColorMatrix type="matrix" values="0 0 0 0 0 0 0 0 0 0 0 0 0 0 0 0 0 0 1 0"/>
<feBlend mode="normal" in2="shape" result="effect1_innerShadow_172_7"/>
</filter>
<clipPath id="clip0_172_7">
<rect width="49" height="50" fill="white" transform="matrix(0 1 -1 0 267.481 20.9668)"/>
</clipPath>
</defs>
</svg>
