<svg width="277" height="90" viewBox="0 0 277 90" fill="none" xmlns="http://www.w3.org/2000/svg">
<g filter="url(#filter0_i_172_8)">
<path d="M253.248 51.2661C254.046 50.4682 254.046 49.1744 253.248 48.3765L240.245 35.3732C239.447 34.5753 238.153 34.5753 237.355 35.3732C236.557 36.1712 236.557 37.4649 237.355 38.2628L248.914 49.8213L237.355 61.3797C236.557 62.1777 236.557 63.4714 237.355 64.2693C238.153 65.0673 239.447 65.0673 240.245 64.2693L253.248 51.2661ZM215.024 49.8213V51.8646H251.803V49.8213V47.778H215.024V49.8213Z" fill="white"/>
<path d="M9.96011 60.3213V40.2973H16.7111V55.0864H25.7505V60.3213H9.96011ZM46.0658 52.4833C46.0658 52.941 46.0086 53.5417 45.98 53.9994H35.1099C35.5676 55.2009 36.6546 55.8302 38.2565 55.8302C39.6868 55.8302 40.4877 55.4583 41.5175 54.686L44.893 58.09C43.3769 59.7492 41.1743 60.6073 38.0563 60.6073C32.3065 60.6073 28.5878 57.1461 28.5878 52.4833C28.5878 47.7348 32.3923 44.3879 37.4555 44.3879C42.0897 44.3879 46.0658 47.1913 46.0658 52.4833ZM37.5127 48.7932C36.1683 48.7932 35.2529 49.5656 34.9954 50.8814H40.03C39.7726 49.5656 38.8286 48.7932 37.5127 48.7932ZM56.6978 44.3879C62.0756 44.3879 65.1651 46.705 65.1651 51.9112V60.3213H59.1579V58.2617C58.4141 59.835 56.9266 60.6073 54.724 60.6073C50.8908 60.6073 48.917 58.4333 48.917 55.7444C48.917 52.7122 51.2055 51.0244 56.0685 51.0244H58.6716C58.4713 49.823 57.5559 49.1937 55.7252 49.1937C54.3235 49.1937 52.7502 49.6514 51.7204 50.4237L49.6608 46.1615C51.4915 45.0172 54.2663 44.3879 56.6978 44.3879ZM56.6692 56.717C57.5559 56.717 58.3569 56.2593 58.7002 55.2295V54.1425H57.0983C55.7252 54.1425 55.1245 54.6002 55.1245 55.4583C55.1245 56.1735 55.6966 56.717 56.6692 56.717ZM76.1116 46.3617C77.2559 45.0459 79.0008 44.3879 81.1749 44.3879V50.1091C80.6027 50.0232 80.2023 49.9946 79.7446 49.9946C77.7994 49.9946 76.4263 50.8814 76.4263 53.3701V60.3213H69.9614V44.674H76.1116V46.3617ZM95.8797 44.3879C99.4841 44.3879 102.287 46.4761 102.287 51.3963V60.3213H95.8225V52.5119C95.8225 50.5668 95.0788 49.823 93.906 49.823C92.5901 49.823 91.4745 50.6526 91.4745 52.9696V60.3213H85.0096V44.674H91.1598V46.2187C92.3899 44.9886 94.049 44.3879 95.8797 44.3879ZM141.905 60.3213H135.755L135.698 51.1961L131.349 58.5191H128.374L124.026 51.5107V60.3213H117.876V40.2973H123.426L129.948 50.9672L136.298 40.2973H141.848L141.905 60.3213ZM155.238 60.6073C149.946 60.6073 146.141 57.2319 146.141 52.4833C146.141 47.7348 149.946 44.3879 155.238 44.3879C160.559 44.3879 164.335 47.7348 164.335 52.4833C164.335 57.2319 160.559 60.6073 155.238 60.6073ZM155.238 55.5727C156.668 55.5727 157.784 54.5143 157.784 52.4833C157.784 50.4523 156.668 49.4225 155.238 49.4225C153.808 49.4225 152.692 50.4523 152.692 52.4833C152.692 54.5143 153.808 55.5727 155.238 55.5727ZM174.511 46.3617C175.655 45.0459 177.4 44.3879 179.574 44.3879V50.1091C179.002 50.0232 178.601 49.9946 178.144 49.9946C176.198 49.9946 174.825 50.8814 174.825 53.3701V60.3213H168.361V44.674H174.511V46.3617ZM199.917 52.4833C199.917 52.941 199.86 53.5417 199.832 53.9994H188.962C189.419 55.2009 190.506 55.8302 192.108 55.8302C193.538 55.8302 194.339 55.4583 195.369 54.686L198.745 58.09C197.229 59.7492 195.026 60.6073 191.908 60.6073C186.158 60.6073 182.439 57.1461 182.439 52.4833C182.439 47.7348 186.244 44.3879 191.307 44.3879C195.941 44.3879 199.917 47.1913 199.917 52.4833ZM191.364 48.7932C190.02 48.7932 189.105 49.5656 188.847 50.8814H193.882C193.624 49.5656 192.68 48.7932 191.364 48.7932Z" fill="white"/>
</g>
<g filter="url(#filter1_ddii_172_8)">
<rect x="8.99512" y="8.31836" width="261.596" height="73.482" rx="9.24721" fill="#FE7702"/>
<rect x="9.33331" y="8.65655" width="260.919" height="72.8056" rx="8.90901" stroke="#924705" stroke-width="0.676385"/>
</g>
<g filter="url(#filter2_ddii_172_8)">
<rect x="7.52832" y="9.05859" width="263.065" height="72.7471" rx="10.1686" fill="#0097A7"/>
<rect x="7.90021" y="9.43049" width="262.322" height="72.0034" rx="9.79675" stroke="#924705" stroke-width="0.743783"/>
</g>
<g filter="url(#filter3_d_172_8)">
<path d="M88.1183 36.5482V40.8783H81.2788V43.2893H86.1993V47.3979H81.2788V53.9668H75.817V36.5482H88.1183ZM100.178 54.139C98.5382 54.139 97.0292 53.7536 95.6515 52.9827C94.2901 52.2118 93.2076 51.1457 92.4039 49.7844C91.6003 48.423 91.1984 46.8895 91.1984 45.1837C91.1984 43.4779 91.6003 41.9444 92.4039 40.583C93.2076 39.2217 94.2901 38.1638 95.6515 37.4093C97.0292 36.6384 98.5382 36.253 100.178 36.253C101.819 36.253 103.319 36.6384 104.681 37.4093C106.042 38.1638 107.116 39.2217 107.904 40.583C108.707 41.9444 109.109 43.4779 109.109 45.1837C109.109 46.8895 108.707 48.423 107.904 49.7844C107.116 51.1457 106.034 52.2118 104.656 52.9827C103.295 53.7536 101.802 54.139 100.178 54.139ZM100.178 49.0463C101.261 49.0463 102.097 48.7019 102.688 48.013C103.278 47.3077 103.573 46.3646 103.573 45.1837C103.573 43.9864 103.278 43.0433 102.688 42.3544C102.097 41.6491 101.261 41.2965 100.178 41.2965C99.0794 41.2965 98.2347 41.6491 97.6443 42.3544C97.0538 43.0433 96.7586 43.9864 96.7586 45.1837C96.7586 46.3646 97.0538 47.3077 97.6443 48.013C98.2347 48.7019 99.0794 49.0463 100.178 49.0463ZM121.56 53.9668L118.288 47.7178H118.263V53.9668H112.802V36.5482H120.92C122.331 36.5482 123.536 36.8024 124.537 37.3109C125.537 37.8029 126.284 38.4836 126.776 39.3529C127.284 40.2058 127.538 41.1735 127.538 42.256C127.538 43.4205 127.21 44.4538 126.554 45.3559C125.915 46.258 124.988 46.9059 123.774 47.2995L127.563 53.9668H121.56ZM118.263 44.0766H120.428C120.953 44.0766 121.347 43.9618 121.609 43.7322C121.872 43.4861 122.003 43.1089 122.003 42.6004C122.003 42.1412 121.863 41.7804 121.585 41.5179C121.322 41.2555 120.937 41.1243 120.428 41.1243H118.263V44.0766ZM151.942 36.5482V53.9668H146.505V45.2821L143.823 53.9668H139.149L136.467 45.2821V53.9668H131.005V36.5482H137.697L141.535 47.0043L145.275 36.5482H151.942Z" fill="white"/>
</g>
<g filter="url(#filter4_i_172_8)">
<path d="M213.007 45.7197C213.007 32.9016 202.411 22.5098 189.342 22.5098C176.272 22.5098 165.677 32.9016 165.677 45.7197C165.677 58.5378 176.272 68.9297 189.342 68.9297C202.411 68.9297 213.007 58.5378 213.007 45.7197ZM190.679 49.6987H175.932V41.7408H190.679V33.3411L202.752 45.7197L190.679 58.0984V49.6987Z" fill="white"/>
</g>
<defs>
<filter id="filter0_i_172_8" x="6.58838" y="31.6758" width="247.258" height="37.9812" filterUnits="userSpaceOnUse" color-interpolation-filters="sRGB">
<feFlood flood-opacity="0" result="BackgroundImageFix"/>
<feBlend mode="normal" in="SourceGraphic" in2="BackgroundImageFix" result="shape"/>
<feColorMatrix in="SourceAlpha" type="matrix" values="0 0 0 0 0 0 0 0 0 0 0 0 0 0 0 0 0 0 127 0" result="hardAlpha"/>
<feOffset dy="2.81856"/>
<feGaussianBlur stdDeviation="0.845567"/>
<feComposite in2="hardAlpha" operator="arithmetic" k2="-1" k3="1"/>
<feColorMatrix type="matrix" values="0 0 0 0 0 0 0 0 0 0 0 0 0 0 0 0 0 0 0.91 0"/>
<feBlend mode="normal" in2="shape" result="effect1_innerShadow_172_8"/>
</filter>
<filter id="filter1_ddii_172_8" x="0.000221372" y="-0.000151098" width="276.88" height="88.7677" filterUnits="userSpaceOnUse" color-interpolation-filters="sRGB">
<feFlood flood-opacity="0" result="BackgroundImageFix"/>
<feColorMatrix in="SourceAlpha" type="matrix" values="0 0 0 0 0 0 0 0 0 0 0 0 0 0 0 0 0 0 127 0" result="hardAlpha"/>
<feOffset dy="2.02916"/>
<feGaussianBlur stdDeviation="2.46881"/>
<feComposite in2="hardAlpha" operator="out"/>
<feColorMatrix type="matrix" values="0 0 0 0 0 0 0 0 0 0 0 0 0 0 0 0 0 0 0.47 0"/>
<feBlend mode="normal" in2="BackgroundImageFix" result="effect1_dropShadow_172_8"/>
<feColorMatrix in="SourceAlpha" type="matrix" values="0 0 0 0 0 0 0 0 0 0 0 0 0 0 0 0 0 0 127 0" result="hardAlpha"/>
<feMorphology radius="2.20446" operator="dilate" in="SourceAlpha" result="effect2_dropShadow_172_8"/>
<feOffset dx="-1.35277" dy="-0.676385"/>
<feGaussianBlur stdDeviation="2.71883"/>
<feComposite in2="hardAlpha" operator="out"/>
<feColorMatrix type="matrix" values="0 0 0 0 0 0 0 0 0 0 0 0 0 0 0 0 0 0 0.47 0"/>
<feBlend mode="normal" in2="effect1_dropShadow_172_8" result="effect2_dropShadow_172_8"/>
<feBlend mode="normal" in="SourceGraphic" in2="effect2_dropShadow_172_8" result="shape"/>
<feColorMatrix in="SourceAlpha" type="matrix" values="0 0 0 0 0 0 0 0 0 0 0 0 0 0 0 0 0 0 127 0" result="hardAlpha"/>
<feOffset dx="4.05831" dy="-4.05831"/>
<feGaussianBlur stdDeviation="1.35277"/>
<feComposite in2="hardAlpha" operator="arithmetic" k2="-1" k3="1"/>
<feColorMatrix type="matrix" values="0 0 0 0 0 0 0 0 0 0 0 0 0 0 0 0 0 0 0.25 0"/>
<feBlend mode="normal" in2="shape" result="effect3_innerShadow_172_8"/>
<feColorMatrix in="SourceAlpha" type="matrix" values="0 0 0 0 0 0 0 0 0 0 0 0 0 0 0 0 0 0 127 0" result="hardAlpha"/>
<feOffset dx="-2.70554" dy="3.38193"/>
<feGaussianBlur stdDeviation="1.35277"/>
<feComposite in2="hardAlpha" operator="arithmetic" k2="-1" k3="1"/>
<feColorMatrix type="matrix" values="0 0 0 0 1 0 0 0 0 0.999906 0 0 0 0 0.999906 0 0 0 0.25 0"/>
<feBlend mode="normal" in2="effect3_innerShadow_172_8" result="effect4_innerShadow_172_8"/>
</filter>
<filter id="filter2_ddii_172_8" x="2.0987" y="5.33968" width="273.924" height="84.127" filterUnits="userSpaceOnUse" color-interpolation-filters="sRGB">
<feFlood flood-opacity="0" result="BackgroundImageFix"/>
<feColorMatrix in="SourceAlpha" type="matrix" values="0 0 0 0 0 0 0 0 0 0 0 0 0 0 0 0 0 0 127 0" result="hardAlpha"/>
<feOffset dy="2.23135"/>
<feGaussianBlur stdDeviation="2.71481"/>
<feComposite in2="hardAlpha" operator="out"/>
<feColorMatrix type="matrix" values="0 0 0 0 0 0 0 0 0 0 0 0 0 0 0 0 0 0 0.68 0"/>
<feBlend mode="normal" in2="BackgroundImageFix" result="effect1_dropShadow_172_8"/>
<feColorMatrix in="SourceAlpha" type="matrix" values="0 0 0 0 0 0 0 0 0 0 0 0 0 0 0 0 0 0 127 0" result="hardAlpha"/>
<feOffset dx="-1.48757" dy="-0.743783"/>
<feGaussianBlur stdDeviation="1.48757"/>
<feComposite in2="hardAlpha" operator="out"/>
<feColorMatrix type="matrix" values="0 0 0 0 0 0 0 0 0 0 0 0 0 0 0 0 0 0 0.6 0"/>
<feBlend mode="normal" in2="effect1_dropShadow_172_8" result="effect2_dropShadow_172_8"/>
<feBlend mode="normal" in="SourceGraphic" in2="effect2_dropShadow_172_8" result="shape"/>
<feColorMatrix in="SourceAlpha" type="matrix" values="0 0 0 0 0 0 0 0 0 0 0 0 0 0 0 0 0 0 127 0" result="hardAlpha"/>
<feOffset dx="4.4627" dy="-4.4627"/>
<feGaussianBlur stdDeviation="1.48757"/>
<feComposite in2="hardAlpha" operator="arithmetic" k2="-1" k3="1"/>
<feColorMatrix type="matrix" values="0 0 0 0 0 0 0 0 0 0 0 0 0 0 0 0 0 0 0.25 0"/>
<feBlend mode="normal" in2="shape" result="effect3_innerShadow_172_8"/>
<feColorMatrix in="SourceAlpha" type="matrix" values="0 0 0 0 0 0 0 0 0 0 0 0 0 0 0 0 0 0 127 0" result="hardAlpha"/>
<feOffset dx="-2.97513" dy="3.71892"/>
<feGaussianBlur stdDeviation="1.48757"/>
<feComposite in2="hardAlpha" operator="arithmetic" k2="-1" k3="1"/>
<feColorMatrix type="matrix" values="0 0 0 0 1 0 0 0 0 0.999906 0 0 0 0 0.999906 0 0 0 0.25 0"/>
<feBlend mode="normal" in2="effect3_innerShadow_172_8" result="effect4_innerShadow_172_8"/>
</filter>
<filter id="filter3_d_172_8" x="72.8781" y="36.2529" width="82.0036" height="23.7643" filterUnits="userSpaceOnUse" color-interpolation-filters="sRGB">
<feFlood flood-opacity="0" result="BackgroundImageFix"/>
<feColorMatrix in="SourceAlpha" type="matrix" values="0 0 0 0 0 0 0 0 0 0 0 0 0 0 0 0 0 0 127 0" result="hardAlpha"/>
<feOffset dy="2.93928"/>
<feGaussianBlur stdDeviation="1.46964"/>
<feComposite in2="hardAlpha" operator="out"/>
<feColorMatrix type="matrix" values="0 0 0 0 0 0 0 0 0 0 0 0 0 0 0 0 0 0 1 0"/>
<feBlend mode="normal" in2="BackgroundImageFix" result="effect1_dropShadow_172_8"/>
<feBlend mode="normal" in="SourceGraphic" in2="effect1_dropShadow_172_8" result="shape"/>
</filter>
<filter id="filter4_i_172_8" x="164.588" y="19.4236" width="50" height="51.5432" filterUnits="userSpaceOnUse" color-interpolation-filters="sRGB">
<feFlood flood-opacity="0" result="BackgroundImageFix"/>
<feBlend mode="normal" in="SourceGraphic" in2="BackgroundImageFix" result="shape"/>
<feColorMatrix in="SourceAlpha" type="matrix" values="0 0 0 0 0 0 0 0 0 0 0 0 0 0 0 0 0 0 127 0" result="hardAlpha"/>
<feOffset dy="-2.20456"/>
<feGaussianBlur stdDeviation="0.771597"/>
<feComposite in2="hardAlpha" operator="arithmetic" k2="-1" k3="1"/>
<feColorMatrix type="matrix" values="0 0 0 0 0 0 0 0 0 0 0 0 0 0 0 0 0 0 1 0"/>
<feBlend mode="normal" in2="shape" result="effect1_innerShadow_172_8"/>
</filter>
</defs>
</svg>
