<svg width="228" height="98" viewBox="0 0 228 98" fill="none" xmlns="http://www.w3.org/2000/svg">
<g filter="url(#filter0_ddii_202_2)">
<rect x="7.38916" y="5.06104" width="213" height="82" rx="36" fill="#FE7702"/>
<rect x="7.89526" y="5.56713" width="211.988" height="80.9878" rx="35.4939" stroke="#924705" stroke-width="1.0122"/>
</g>
<g filter="url(#filter1_d_202_2)">
<path d="M49.8092 58.2954C46.9745 58.2954 44.6308 57.6369 42.7782 56.32C40.9479 54.9808 39.9547 53.0277 39.7984 50.4608H47.6999C47.8115 51.8224 48.4142 52.5032 49.5079 52.5032C49.9097 52.5032 50.2445 52.4139 50.5123 52.2353C50.8025 52.0345 50.9476 51.7331 50.9476 51.3314C50.9476 50.7733 50.6463 50.3269 50.0436 49.9921C49.4409 49.635 48.5035 49.2332 47.2312 48.7868C45.7134 48.2511 44.4523 47.7266 43.4478 47.2132C42.4657 46.6998 41.6176 45.9521 40.9033 44.97C40.189 43.9878 39.8431 42.7267 39.8654 41.1866C39.8654 39.6465 40.256 38.3407 41.0372 37.2693C41.8408 36.1756 42.9233 35.3497 44.2849 34.7917C45.6688 34.2337 47.22 33.9547 48.9387 33.9547C51.8404 33.9547 54.1395 34.6243 55.8358 35.9636C57.5545 37.3028 58.4585 39.1889 58.5478 41.6219H50.5458C50.5235 40.9522 50.3561 40.4723 50.0436 40.1822C49.7311 39.892 49.3517 39.7469 48.9053 39.7469C48.5928 39.7469 48.3361 39.8585 48.1352 40.0817C47.9343 40.2826 47.8339 40.5728 47.8339 40.9522C47.8339 41.4879 48.124 41.9343 48.7044 42.2915C49.307 42.6263 50.2557 43.0392 51.5503 43.5303C53.0457 44.0883 54.2734 44.624 55.2332 45.1374C56.2153 45.6507 57.0635 46.365 57.7777 47.2801C58.492 48.1953 58.8491 49.3448 58.8491 50.7287C58.8491 52.1795 58.492 53.4853 57.7777 54.646C57.0635 55.7843 56.0256 56.6772 54.664 57.3245C53.3024 57.9718 51.6842 58.2954 49.8092 58.2954ZM71.2371 40.2826V43.1955H78.6029V48.7868H71.2371V52.1349H79.6073V58.061H63.8043V34.3565H79.6073V40.2826H71.2371ZM99.9526 54.4786H92.051L90.8792 58.061H83.0781L91.7497 34.3565H100.321L108.959 58.061H101.124L99.9526 54.4786ZM98.1446 48.8872L96.0018 42.2915L93.859 48.8872H98.1446ZM124.911 58.061L120.458 49.5569H120.424V58.061H112.991V34.3565H124.04C125.96 34.3565 127.6 34.7024 128.962 35.3944C130.323 36.064 131.339 36.9903 132.009 38.1733C132.7 39.334 133.046 40.6509 133.046 42.1241C133.046 43.7088 132.6 45.115 131.707 46.3427C130.837 47.5703 129.576 48.452 127.924 48.9877L133.08 58.061H124.911ZM120.424 44.6017H123.37C124.085 44.6017 124.62 44.4454 124.978 44.1329C125.335 43.7981 125.513 43.2847 125.513 42.5928C125.513 41.9678 125.323 41.4768 124.944 41.1196C124.587 40.7625 124.062 40.5839 123.37 40.5839H120.424V44.6017ZM137.095 46.1753C137.095 43.8316 137.564 41.7446 138.501 39.9143C139.461 38.084 140.823 36.6667 142.586 35.6622C144.349 34.6355 146.425 34.1221 148.813 34.1221C150.867 34.1221 152.697 34.5127 154.304 35.2939C155.934 36.0528 157.251 37.1354 158.255 38.5416C159.282 39.9478 159.963 41.5884 160.297 43.4633H152.463C152.106 42.6821 151.592 42.0794 150.923 41.6553C150.275 41.2089 149.528 40.9857 148.679 40.9857C147.43 40.9857 146.436 41.4544 145.7 42.3919C144.985 43.3294 144.628 44.5905 144.628 46.1753C144.628 47.76 144.985 49.0212 145.7 49.9586C146.436 50.8961 147.43 51.3648 148.679 51.3648C149.528 51.3648 150.275 51.1528 150.923 50.7287C151.592 50.2823 152.106 49.6685 152.463 48.8872H160.297C159.963 50.7622 159.282 52.4027 158.255 53.8089C157.251 55.2151 155.934 56.3089 154.304 57.0901C152.697 57.849 150.867 58.2284 148.813 58.2284C146.425 58.2284 144.349 57.7262 142.586 56.7218C140.823 55.695 139.461 54.2665 138.501 52.4362C137.564 50.6059 137.095 48.5189 137.095 46.1753ZM187.247 34.3565V58.061H179.814V48.8203H172.75V58.061H165.317V34.3565H172.75V42.8941H179.814V34.3565H187.247Z" fill="white"/>
</g>
<defs>
<filter id="filter0_ddii_202_2" x="0.000113964" y="4.47035e-05" width="227.778" height="97.4866" filterUnits="userSpaceOnUse" color-interpolation-filters="sRGB">
<feFlood flood-opacity="0" result="BackgroundImageFix"/>
<feColorMatrix in="SourceAlpha" type="matrix" values="0 0 0 0 0 0 0 0 0 0 0 0 0 0 0 0 0 0 127 0" result="hardAlpha"/>
<feOffset dy="3.03659"/>
<feGaussianBlur stdDeviation="3.69452"/>
<feComposite in2="hardAlpha" operator="out"/>
<feColorMatrix type="matrix" values="0 0 0 0 0 0 0 0 0 0 0 0 0 0 0 0 0 0 0.68 0"/>
<feBlend mode="normal" in2="BackgroundImageFix" result="effect1_dropShadow_202_2"/>
<feColorMatrix in="SourceAlpha" type="matrix" values="0 0 0 0 0 0 0 0 0 0 0 0 0 0 0 0 0 0 127 0" result="hardAlpha"/>
<feOffset dx="-2.0244" dy="-1.0122"/>
<feGaussianBlur stdDeviation="2.0244"/>
<feComposite in2="hardAlpha" operator="out"/>
<feColorMatrix type="matrix" values="0 0 0 0 0 0 0 0 0 0 0 0 0 0 0 0 0 0 0.6 0"/>
<feBlend mode="normal" in2="effect1_dropShadow_202_2" result="effect2_dropShadow_202_2"/>
<feBlend mode="normal" in="SourceGraphic" in2="effect2_dropShadow_202_2" result="shape"/>
<feColorMatrix in="SourceAlpha" type="matrix" values="0 0 0 0 0 0 0 0 0 0 0 0 0 0 0 0 0 0 127 0" result="hardAlpha"/>
<feOffset dx="6.07319" dy="-6.07319"/>
<feGaussianBlur stdDeviation="2.0244"/>
<feComposite in2="hardAlpha" operator="arithmetic" k2="-1" k3="1"/>
<feColorMatrix type="matrix" values="0 0 0 0 0 0 0 0 0 0 0 0 0 0 0 0 0 0 0.25 0"/>
<feBlend mode="normal" in2="shape" result="effect3_innerShadow_202_2"/>
<feColorMatrix in="SourceAlpha" type="matrix" values="0 0 0 0 0 0 0 0 0 0 0 0 0 0 0 0 0 0 127 0" result="hardAlpha"/>
<feOffset dx="-4.04879" dy="5.06099"/>
<feGaussianBlur stdDeviation="2.0244"/>
<feComposite in2="hardAlpha" operator="arithmetic" k2="-1" k3="1"/>
<feColorMatrix type="matrix" values="0 0 0 0 1 0 0 0 0 0.999906 0 0 0 0 0.999906 0 0 0 0.25 0"/>
<feBlend mode="normal" in2="effect3_innerShadow_202_2" result="effect4_innerShadow_202_2"/>
</filter>
<filter id="filter1_d_202_2" x="35.7983" y="33.9546" width="155.449" height="32.3408" filterUnits="userSpaceOnUse" color-interpolation-filters="sRGB">
<feFlood flood-opacity="0" result="BackgroundImageFix"/>
<feColorMatrix in="SourceAlpha" type="matrix" values="0 0 0 0 0 0 0 0 0 0 0 0 0 0 0 0 0 0 127 0" result="hardAlpha"/>
<feOffset dy="4"/>
<feGaussianBlur stdDeviation="2"/>
<feComposite in2="hardAlpha" operator="out"/>
<feColorMatrix type="matrix" values="0 0 0 0 0 0 0 0 0 0 0 0 0 0 0 0 0 0 1 0"/>
<feBlend mode="normal" in2="BackgroundImageFix" result="effect1_dropShadow_202_2"/>
<feBlend mode="normal" in="SourceGraphic" in2="effect1_dropShadow_202_2" result="shape"/>
</filter>
</defs>
</svg>
