<svg width="329" height="73" viewBox="0 0 329 73" fill="none" xmlns="http://www.w3.org/2000/svg">
<g filter="url(#filter0_ddii_251_224)">
<rect x="6.18652" y="5.72119" width="318.207" height="61.9918" rx="8.58" fill="#FE7702"/>
</g>
<g filter="url(#filter1_ddii_251_224)">
<rect x="4.39551" y="6.3501" width="319.995" height="61.3719" rx="8.58" fill="#FE7702"/>
</g>
<g filter="url(#filter2_d_251_224)">
<path d="M30.5828 43.7212L29.8563 41.5003H24.958L24.2316 43.7212H19.3955L24.7712 29.0263H30.0846L35.4396 43.7212H30.5828ZM28.7355 38.0342L27.4072 33.9453L26.0788 38.0342H28.7355ZM37.5242 36.353C37.5242 31.9735 40.2847 28.881 44.7886 28.881C48.6699 28.881 51.3059 31.2056 51.9078 34.6718H47.051C46.6151 33.6963 45.7434 33.1359 44.7056 33.1359C43.1489 33.1359 42.1942 34.4019 42.1942 36.353C42.1942 38.304 43.1489 39.5701 44.7056 39.5701C45.7434 39.5701 46.6151 39.0097 47.051 38.0342H51.9078C51.3059 41.5003 48.6699 43.825 44.7886 43.825C40.2847 43.825 37.5242 40.7324 37.5242 36.353ZM54.1894 32.6792V29.0263H66.5598V32.6792H62.6577V43.7212H58.05V32.6792H54.1894ZM69.2624 43.7212V29.0263H73.8701V43.7212H69.2624ZM84.2949 39.1342L87.3045 29.0263H92.2028L87.2629 43.7212H81.3061L76.3663 29.0263H81.2646L84.2949 39.1342ZM104.837 43.7212L104.11 41.5003H99.2118L98.4854 43.7212H93.6493L99.025 29.0263H104.338L109.693 43.7212H104.837ZM102.989 38.0342L101.661 33.9453L100.333 38.0342H102.989ZM111.363 32.6792V29.0263H123.733V32.6792H119.831V43.7212H115.223V32.6792H111.363ZM136.232 29.0263V32.7H131.044V34.5057H135.61V37.9719H131.044V40.0475H136.232V43.7212H126.436V29.0263H136.232ZM144.402 43.7212V29.0263H149.009V43.7212H144.402ZM162.029 29.0263H166.636V43.7212H162.029L157.151 36.3322V43.7212H152.543V29.0263H157.151L162.029 36.5398V29.0263ZM181.524 39.1757C181.524 41.8739 179.469 43.8665 175.92 43.8665C172.558 43.8665 169.922 42.3098 169.714 39.0097H174.613C174.696 40.089 175.277 40.2758 175.733 40.2758C176.19 40.2758 176.626 40.0682 176.626 39.5493C176.605 37.5568 169.673 38.2832 169.756 33.2604C169.756 30.3131 172.246 28.7772 175.38 28.7772C178.93 28.7772 181.213 30.4791 181.337 33.5302H176.377C176.335 32.6377 175.858 32.3679 175.36 32.3679C174.986 32.3679 174.696 32.617 174.696 33.1151C174.696 34.9623 181.524 34.651 181.524 39.1757ZM184.596 43.7212V29.0263H189.204V43.7212H184.596ZM199.753 28.881C203.655 28.881 206.166 30.915 206.602 34.0491H201.746C201.393 33.4887 200.729 33.1359 199.774 33.1359C197.989 33.1359 196.993 34.4019 196.993 36.353C196.993 38.6361 198.03 39.7776 200.293 39.7776C201.33 39.7776 202.181 39.404 202.866 38.4908H199.193V35.2322H206.685V39.8399C205.668 41.6041 203.593 43.825 199.795 43.825C195.166 43.825 192.323 40.7324 192.323 36.353C192.323 31.9735 195.145 28.881 199.753 28.881ZM218.785 43.7212V37.9927H214.405V43.7212H209.798V29.0263H214.405V34.3189H218.785V29.0263H223.393V43.7212H218.785ZM226.088 32.6792V29.0263H238.459V32.6792H234.557V43.7212H229.949V32.6792H226.088ZM252.515 39.1757C252.515 41.8739 250.46 43.8665 246.911 43.8665C243.548 43.8665 240.912 42.3098 240.705 39.0097H245.603C245.686 40.089 246.267 40.2758 246.724 40.2758C247.18 40.2758 247.616 40.0682 247.616 39.5493C247.596 37.5568 240.663 38.2832 240.746 33.2604C240.746 30.3131 243.237 28.7772 246.371 28.7772C249.92 28.7772 252.203 30.4791 252.328 33.5302H247.367C247.326 32.6377 246.848 32.3679 246.35 32.3679C245.977 32.3679 245.686 32.617 245.686 33.1151C245.686 34.9623 252.515 34.651 252.515 39.1757Z" fill="white"/>
</g>
<g filter="url(#filter3_i_251_224)">
<path d="M307.603 37.2734C307.603 26.4596 298.664 17.6926 287.638 17.6926C276.612 17.6926 267.673 26.4596 267.673 37.2734C267.673 48.0872 276.612 56.8541 287.638 56.8541C298.664 56.8541 307.603 48.0872 307.603 37.2734ZM288.766 40.6302H276.325V33.9166H288.766V26.8303L298.951 37.2734L288.766 47.7164V40.6302Z" fill="white"/>
</g>
<defs>
<filter id="filter0_ddii_251_224" x="0.000164509" y="2.54512e-05" width="328.719" height="72.5046" filterUnits="userSpaceOnUse" color-interpolation-filters="sRGB">
<feFlood flood-opacity="0" result="BackgroundImageFix"/>
<feColorMatrix in="SourceAlpha" type="matrix" values="0 0 0 0 0 0 0 0 0 0 0 0 0 0 0 0 0 0 127 0" result="hardAlpha"/>
<feOffset dy="1.39558"/>
<feGaussianBlur stdDeviation="1.69795"/>
<feComposite in2="hardAlpha" operator="out"/>
<feColorMatrix type="matrix" values="0 0 0 0 0 0 0 0 0 0 0 0 0 0 0 0 0 0 0.47 0"/>
<feBlend mode="normal" in2="BackgroundImageFix" result="effect1_dropShadow_251_224"/>
<feColorMatrix in="SourceAlpha" type="matrix" values="0 0 0 0 0 0 0 0 0 0 0 0 0 0 0 0 0 0 127 0" result="hardAlpha"/>
<feMorphology radius="1.51615" operator="dilate" in="SourceAlpha" result="effect2_dropShadow_251_224"/>
<feOffset dx="-0.930386" dy="-0.465193"/>
<feGaussianBlur stdDeviation="1.86991"/>
<feComposite in2="hardAlpha" operator="out"/>
<feColorMatrix type="matrix" values="0 0 0 0 0 0 0 0 0 0 0 0 0 0 0 0 0 0 0.47 0"/>
<feBlend mode="normal" in2="effect1_dropShadow_251_224" result="effect2_dropShadow_251_224"/>
<feBlend mode="normal" in="SourceGraphic" in2="effect2_dropShadow_251_224" result="shape"/>
<feColorMatrix in="SourceAlpha" type="matrix" values="0 0 0 0 0 0 0 0 0 0 0 0 0 0 0 0 0 0 127 0" result="hardAlpha"/>
<feOffset dx="2.79116" dy="-2.79116"/>
<feGaussianBlur stdDeviation="0.930386"/>
<feComposite in2="hardAlpha" operator="arithmetic" k2="-1" k3="1"/>
<feColorMatrix type="matrix" values="0 0 0 0 0 0 0 0 0 0 0 0 0 0 0 0 0 0 0.25 0"/>
<feBlend mode="normal" in2="shape" result="effect3_innerShadow_251_224"/>
<feColorMatrix in="SourceAlpha" type="matrix" values="0 0 0 0 0 0 0 0 0 0 0 0 0 0 0 0 0 0 127 0" result="hardAlpha"/>
<feOffset dx="-1.86077" dy="2.32597"/>
<feGaussianBlur stdDeviation="0.930386"/>
<feComposite in2="hardAlpha" operator="arithmetic" k2="-1" k3="1"/>
<feColorMatrix type="matrix" values="0 0 0 0 1 0 0 0 0 0.999906 0 0 0 0 0.999906 0 0 0 0.25 0"/>
<feBlend mode="normal" in2="effect3_innerShadow_251_224" result="effect4_innerShadow_251_224"/>
</filter>
<filter id="filter1_ddii_251_224" x="0.661217" y="3.79236" width="327.463" height="69.1985" filterUnits="userSpaceOnUse" color-interpolation-filters="sRGB">
<feFlood flood-opacity="0" result="BackgroundImageFix"/>
<feColorMatrix in="SourceAlpha" type="matrix" values="0 0 0 0 0 0 0 0 0 0 0 0 0 0 0 0 0 0 127 0" result="hardAlpha"/>
<feOffset dy="1.53464"/>
<feGaussianBlur stdDeviation="1.86715"/>
<feComposite in2="hardAlpha" operator="out"/>
<feColorMatrix type="matrix" values="0 0 0 0 0 0 0 0 0 0 0 0 0 0 0 0 0 0 0.68 0"/>
<feBlend mode="normal" in2="BackgroundImageFix" result="effect1_dropShadow_251_224"/>
<feColorMatrix in="SourceAlpha" type="matrix" values="0 0 0 0 0 0 0 0 0 0 0 0 0 0 0 0 0 0 127 0" result="hardAlpha"/>
<feOffset dx="-1.02309" dy="-0.511547"/>
<feGaussianBlur stdDeviation="1.02309"/>
<feComposite in2="hardAlpha" operator="out"/>
<feColorMatrix type="matrix" values="0 0 0 0 0 0 0 0 0 0 0 0 0 0 0 0 0 0 0.6 0"/>
<feBlend mode="normal" in2="effect1_dropShadow_251_224" result="effect2_dropShadow_251_224"/>
<feBlend mode="normal" in="SourceGraphic" in2="effect2_dropShadow_251_224" result="shape"/>
<feColorMatrix in="SourceAlpha" type="matrix" values="0 0 0 0 0 0 0 0 0 0 0 0 0 0 0 0 0 0 127 0" result="hardAlpha"/>
<feOffset dx="3.06928" dy="-3.06928"/>
<feGaussianBlur stdDeviation="1.02309"/>
<feComposite in2="hardAlpha" operator="arithmetic" k2="-1" k3="1"/>
<feColorMatrix type="matrix" values="0 0 0 0 0 0 0 0 0 0 0 0 0 0 0 0 0 0 0.25 0"/>
<feBlend mode="normal" in2="shape" result="effect3_innerShadow_251_224"/>
<feColorMatrix in="SourceAlpha" type="matrix" values="0 0 0 0 0 0 0 0 0 0 0 0 0 0 0 0 0 0 127 0" result="hardAlpha"/>
<feOffset dx="-2.04619" dy="2.55773"/>
<feGaussianBlur stdDeviation="1.02309"/>
<feComposite in2="hardAlpha" operator="arithmetic" k2="-1" k3="1"/>
<feColorMatrix type="matrix" values="0 0 0 0 1 0 0 0 0 0.999906 0 0 0 0 0.999906 0 0 0 0.25 0"/>
<feBlend mode="normal" in2="effect3_innerShadow_251_224" result="effect4_innerShadow_251_224"/>
</filter>
<filter id="filter2_d_251_224" x="16.9158" y="28.7771" width="238.079" height="20.0487" filterUnits="userSpaceOnUse" color-interpolation-filters="sRGB">
<feFlood flood-opacity="0" result="BackgroundImageFix"/>
<feColorMatrix in="SourceAlpha" type="matrix" values="0 0 0 0 0 0 0 0 0 0 0 0 0 0 0 0 0 0 127 0" result="hardAlpha"/>
<feOffset dy="2.47968"/>
<feGaussianBlur stdDeviation="1.23984"/>
<feComposite in2="hardAlpha" operator="out"/>
<feColorMatrix type="matrix" values="0 0 0 0 0 0 0 0 0 0 0 0 0 0 0 0 0 0 1 0"/>
<feBlend mode="normal" in2="BackgroundImageFix" result="effect1_dropShadow_251_224"/>
<feBlend mode="normal" in="SourceGraphic" in2="effect1_dropShadow_251_224" result="shape"/>
</filter>
<filter id="filter3_i_251_224" x="266.757" y="15.0912" width="42.1816" height="43.4838" filterUnits="userSpaceOnUse" color-interpolation-filters="sRGB">
<feFlood flood-opacity="0" result="BackgroundImageFix"/>
<feBlend mode="normal" in="SourceGraphic" in2="BackgroundImageFix" result="shape"/>
<feColorMatrix in="SourceAlpha" type="matrix" values="0 0 0 0 0 0 0 0 0 0 0 0 0 0 0 0 0 0 127 0" result="hardAlpha"/>
<feOffset dy="-1.85985"/>
<feGaussianBlur stdDeviation="0.650947"/>
<feComposite in2="hardAlpha" operator="arithmetic" k2="-1" k3="1"/>
<feColorMatrix type="matrix" values="0 0 0 0 0 0 0 0 0 0 0 0 0 0 0 0 0 0 1 0"/>
<feBlend mode="normal" in2="shape" result="effect1_innerShadow_251_224"/>
</filter>
</defs>
</svg>
