<svg width="309" height="76" viewBox="0 0 309 76" fill="none" xmlns="http://www.w3.org/2000/svg">
<path d="M153.51 38.5477C154.476 37.4376 155.948 36.8825 157.782 36.8825V41.7091C157.299 41.6367 156.961 41.6125 156.575 41.6125C154.934 41.6125 153.776 42.3606 153.776 44.4602V50.3245H148.322V37.1238H153.51V38.5477ZM170.187 36.8825C173.228 36.8825 175.593 38.6442 175.593 42.795V50.3245H170.139V43.7362C170.139 42.0952 169.512 41.4677 168.522 41.4677C167.412 41.4677 166.471 42.1676 166.471 44.1223V50.3245H161.017V37.1238H166.206V38.427C167.243 37.3893 168.643 36.8825 170.187 36.8825ZM209.016 50.3245H203.827L203.779 42.6261L200.111 48.8041H197.601L193.933 42.8916V50.3245H188.744V33.4315H193.426L198.928 42.433L204.286 33.4315H208.968L209.016 50.3245ZM220.264 50.5658C215.8 50.5658 212.59 47.7181 212.59 43.7121C212.59 39.706 215.8 36.8825 220.264 36.8825C224.753 36.8825 227.938 39.706 227.938 43.7121C227.938 47.7181 224.753 50.5658 220.264 50.5658ZM220.264 46.3184C221.471 46.3184 222.412 45.4255 222.412 43.7121C222.412 41.9987 221.471 41.1299 220.264 41.1299C219.058 41.1299 218.116 41.9987 218.116 43.7121C218.116 45.4255 219.058 46.3184 220.264 46.3184ZM236.523 38.5477C237.489 37.4376 238.961 36.8825 240.795 36.8825V41.7091C240.312 41.6367 239.974 41.6125 239.588 41.6125C237.947 41.6125 236.789 42.3606 236.789 44.4602V50.3245H231.335V37.1238H236.523V38.5477ZM257.957 43.7121C257.957 44.0982 257.909 44.605 257.885 44.9911H248.715C249.101 46.0047 250.018 46.5356 251.369 46.5356C252.576 46.5356 253.251 46.2219 254.12 45.5703L256.968 48.4421C255.689 49.8418 253.831 50.5658 251.2 50.5658C246.35 50.5658 243.212 47.6457 243.212 43.7121C243.212 39.706 246.422 36.8825 250.693 36.8825C254.603 36.8825 257.957 39.2475 257.957 43.7121ZM250.742 40.599C249.607 40.599 248.835 41.2505 248.618 42.3606H252.865C252.648 41.2505 251.852 40.599 250.742 40.599Z" fill="white"/>
<g filter="url(#filter0_ddii_252_229)">
<rect x="7.58887" y="7.01782" width="290.955" height="61.992" rx="7.80127" fill="#FE7702"/>
<rect x="7.87418" y="7.30313" width="290.384" height="61.4214" rx="7.51596" stroke="#024148" stroke-width="0.570623"/>
</g>
<g filter="url(#filter1_ddii_252_229)">
<rect x="5.95117" y="7.64673" width="298.146" height="61.3721" rx="8.57863" fill="#0097A7"/>
<rect x="6.26491" y="7.96047" width="297.519" height="60.7446" rx="8.26488" stroke="#024148" stroke-width="0.627482"/>
</g>
<g filter="url(#filter2_d_252_229)">
<path d="M26.5738 37.6496C26.5738 36.1967 26.8644 34.9029 27.4456 33.7683C28.0406 32.6337 28.8846 31.755 29.9778 31.1324C31.0709 30.4958 32.3577 30.1776 33.8383 30.1776C35.1113 30.1776 36.2459 30.4197 37.2422 30.904C38.2523 31.3745 39.0687 32.0456 39.6914 32.9173C40.3279 33.7891 40.7499 34.8061 40.9574 35.9684H36.1006C35.8792 35.4841 35.561 35.1105 35.1459 34.8476C34.7446 34.5709 34.2811 34.4325 33.7553 34.4325C32.9804 34.4325 32.3646 34.7231 31.908 35.3042C31.4652 35.8854 31.2438 36.6672 31.2438 37.6496C31.2438 38.632 31.4652 39.4138 31.908 39.995C32.3646 40.5761 32.9804 40.8667 33.7553 40.8667C34.2811 40.8667 34.7446 40.7353 35.1459 40.4724C35.561 40.1956 35.8792 39.8151 36.1006 39.3308H40.9574C40.7499 40.4931 40.3279 41.5101 39.6914 42.3819C39.0687 43.2536 38.2523 43.9316 37.2422 44.4159C36.2459 44.8864 35.1113 45.1216 33.8383 45.1216C32.3577 45.1216 31.0709 44.8103 29.9778 44.1876C28.8846 43.5511 28.0406 42.6655 27.4456 41.5309C26.8644 40.3963 26.5738 39.1025 26.5738 37.6496ZM48.677 41.5309H53.1187V45.0178H44.0693V30.3229H48.677V41.5309ZM60.6293 33.9966V35.8024H65.1956V39.2685H60.6293V41.3441H65.8182V45.0178H56.0216V30.3229H65.8182V33.9966H60.6293ZM78.4306 42.797H73.5323L72.8059 45.0178H67.9698L73.3455 30.3229H78.6589L84.0139 45.0178H79.1571L78.4306 42.797ZM77.3098 39.3308L75.9815 35.242L74.6531 39.3308H77.3098ZM93.9026 45.0178L91.1421 39.7459H91.1214V45.0178H86.5136V30.3229H93.363C94.5529 30.3229 95.57 30.5374 96.414 30.9663C97.2581 31.3814 97.8877 31.9557 98.3028 32.689C98.7317 33.4085 98.9462 34.2249 98.9462 35.1382C98.9462 36.1206 98.6695 36.9923 98.116 37.7534C97.5763 38.5144 96.7945 39.061 95.7706 39.3931L98.967 45.0178H93.9026ZM91.1214 36.6741H92.9478C93.3906 36.6741 93.7227 36.5772 93.9441 36.3835C94.1655 36.176 94.2762 35.8577 94.2762 35.4288C94.2762 35.0413 94.1586 34.7369 93.9234 34.5155C93.702 34.2941 93.3768 34.1834 92.9478 34.1834H91.1214V36.6741ZM114.24 45.0178L111.479 39.7459H111.459V45.0178H106.851V30.3229H113.7C114.89 30.3229 115.907 30.5374 116.751 30.9663C117.595 31.3814 118.225 31.9557 118.64 32.689C119.069 33.4085 119.283 34.2249 119.283 35.1382C119.283 36.1206 119.007 36.9923 118.453 37.7534C117.914 38.5144 117.132 39.061 116.108 39.3931L119.304 45.0178H114.24ZM111.459 36.6741H113.285C113.728 36.6741 114.06 36.5772 114.281 36.3835C114.503 36.176 114.613 35.8577 114.613 35.4288C114.613 35.0413 114.496 34.7369 114.261 34.5155C114.039 34.2941 113.714 34.1834 113.285 34.1834H111.459V36.6741ZM126.816 33.9966V35.8024H131.382V39.2685H126.816V41.3441H132.005V45.0178H122.208V30.3229H132.005V33.9966H126.816ZM140.944 45.1631C139.186 45.1631 137.733 44.7549 136.585 43.9385C135.45 43.1083 134.835 41.8976 134.738 40.3063H139.636C139.705 41.1504 140.079 41.5724 140.757 41.5724C141.006 41.5724 141.213 41.5171 141.379 41.4064C141.559 41.2818 141.649 41.095 141.649 40.846C141.649 40.5 141.462 40.2233 141.089 40.0157C140.715 39.7943 140.134 39.5453 139.345 39.2685C138.405 38.9364 137.623 38.6113 137 38.293C136.391 37.9748 135.865 37.5112 135.423 36.9024C134.98 36.2936 134.765 35.5118 134.779 34.557C134.779 33.6023 135.021 32.7928 135.506 32.1286C136.004 31.4506 136.675 30.9386 137.519 30.5927C138.377 30.2468 139.339 30.0738 140.404 30.0738C142.203 30.0738 143.628 30.4889 144.68 31.3192C145.745 32.1494 146.305 33.3186 146.361 34.8268H141.4C141.386 34.4117 141.283 34.1142 141.089 33.9344C140.895 33.7545 140.66 33.6645 140.383 33.6645C140.189 33.6645 140.03 33.7337 139.906 33.8721C139.781 33.9966 139.719 34.1765 139.719 34.4117C139.719 34.7438 139.899 35.0206 140.259 35.242C140.632 35.4495 141.22 35.7055 142.023 36.0099C142.95 36.3558 143.711 36.6879 144.306 37.0062C144.915 37.3244 145.441 37.7672 145.883 38.3345C146.326 38.9019 146.548 39.6145 146.548 40.4724C146.548 41.3718 146.326 42.1812 145.883 42.9008C145.441 43.6064 144.797 44.1599 143.953 44.5612C143.109 44.9625 142.106 45.1631 140.944 45.1631ZM161.637 35.3665C161.637 36.2936 161.422 37.1376 160.993 37.8987C160.565 38.6459 159.928 39.2409 159.084 39.6836C158.254 40.1264 157.244 40.3478 156.054 40.3478H154.227V45.0178H149.619V30.3229H156.054C157.852 30.3229 159.229 30.7795 160.184 31.6928C161.153 32.606 161.637 33.8306 161.637 35.3665ZM155.535 36.7156C156.49 36.7156 156.967 36.2659 156.967 35.3665C156.967 34.4671 156.49 34.0174 155.535 34.0174H154.227V36.7156H155.535ZM171.712 45.1631C170.328 45.1631 169.055 44.8379 167.893 44.1876C166.744 43.5373 165.831 42.6379 165.153 41.4894C164.475 40.3409 164.136 39.0471 164.136 37.6081C164.136 36.169 164.475 34.8753 165.153 33.7268C165.831 32.5783 166.744 31.6858 167.893 31.0493C169.055 30.399 170.328 30.0738 171.712 30.0738C173.096 30.0738 174.362 30.399 175.51 31.0493C176.659 31.6858 177.565 32.5783 178.229 33.7268C178.907 34.8753 179.246 36.169 179.246 37.6081C179.246 39.0471 178.907 40.3409 178.229 41.4894C177.565 42.6379 176.652 43.5373 175.489 44.1876C174.341 44.8379 173.082 45.1631 171.712 45.1631ZM171.712 40.8667C172.625 40.8667 173.331 40.5761 173.829 39.995C174.327 39.4 174.576 38.6044 174.576 37.6081C174.576 36.598 174.327 35.8024 173.829 35.2212C173.331 34.6262 172.625 34.3287 171.712 34.3287C170.785 34.3287 170.072 34.6262 169.574 35.2212C169.076 35.8024 168.827 36.598 168.827 37.6081C168.827 38.6044 169.076 39.4 169.574 39.995C170.072 40.5761 170.785 40.8667 171.712 40.8667ZM196.454 45.0178H191.847L186.969 37.6288V45.0178H182.361V30.3229H186.969L191.847 37.8364V30.3229H196.454V45.0178ZM205.738 45.1631C203.981 45.1631 202.528 44.7549 201.38 43.9385C200.245 43.1083 199.629 41.8976 199.532 40.3063H204.431C204.5 41.1504 204.873 41.5724 205.551 41.5724C205.801 41.5724 206.008 41.5171 206.174 41.4064C206.354 41.2818 206.444 41.095 206.444 40.846C206.444 40.5 206.257 40.2233 205.884 40.0157C205.51 39.7943 204.929 39.5453 204.14 39.2685C203.199 38.9364 202.417 38.6113 201.795 38.293C201.186 37.9748 200.66 37.5112 200.217 36.9024C199.774 36.2936 199.56 35.5118 199.574 34.557C199.574 33.6023 199.816 32.7928 200.3 32.1286C200.798 31.4506 201.47 30.9386 202.314 30.5927C203.171 30.2468 204.133 30.0738 205.199 30.0738C206.997 30.0738 208.423 30.4889 209.474 31.3192C210.54 32.1494 211.1 33.3186 211.155 34.8268H206.195C206.181 34.4117 206.077 34.1142 205.884 33.9344C205.69 33.7545 205.455 33.6645 205.178 33.6645C204.984 33.6645 204.825 33.7337 204.7 33.8721C204.576 33.9966 204.514 34.1765 204.514 34.4117C204.514 34.7438 204.694 35.0206 205.053 35.242C205.427 35.4495 206.015 35.7055 206.818 36.0099C207.745 36.3558 208.506 36.6879 209.101 37.0062C209.709 37.3244 210.235 37.7672 210.678 38.3345C211.121 38.9019 211.342 39.6145 211.342 40.4724C211.342 41.3718 211.121 42.1812 210.678 42.9008C210.235 43.6064 209.592 44.1599 208.748 44.5612C207.904 44.9625 206.901 45.1631 205.738 45.1631ZM219.022 33.9966V35.8024H223.588V39.2685H219.022V41.3441H224.211V45.0178H214.414V30.3229H224.211V33.9966H219.022ZM233.149 45.1631C231.392 45.1631 229.939 44.7549 228.791 43.9385C227.656 43.1083 227.04 41.8976 226.943 40.3063H231.842C231.911 41.1504 232.285 41.5724 232.963 41.5724C233.212 41.5724 233.419 41.5171 233.585 41.4064C233.765 41.2818 233.855 41.095 233.855 40.846C233.855 40.5 233.668 40.2233 233.295 40.0157C232.921 39.7943 232.34 39.5453 231.551 39.2685C230.61 38.9364 229.828 38.6113 229.206 38.293C228.597 37.9748 228.071 37.5112 227.628 36.9024C227.186 36.2936 226.971 35.5118 226.985 34.557C226.985 33.6023 227.227 32.7928 227.711 32.1286C228.21 31.4506 228.881 30.9386 229.725 30.5927C230.583 30.2468 231.544 30.0738 232.61 30.0738C234.409 30.0738 235.834 30.4889 236.885 31.3192C237.951 32.1494 238.511 33.3186 238.567 34.8268H233.606C233.592 34.4117 233.488 34.1142 233.295 33.9344C233.101 33.7545 232.866 33.6645 232.589 33.6645C232.395 33.6645 232.236 33.7337 232.112 33.8721C231.987 33.9966 231.925 34.1765 231.925 34.4117C231.925 34.7438 232.105 35.0206 232.464 35.242C232.838 35.4495 233.426 35.7055 234.229 36.0099C235.156 36.3558 235.917 36.6879 236.512 37.0062C237.121 37.3244 237.646 37.7672 238.089 38.3345C238.532 38.9019 238.753 39.6145 238.753 40.4724C238.753 41.3718 238.532 42.1812 238.089 42.9008C237.646 43.6064 237.003 44.1599 236.159 44.5612C235.315 44.9625 234.312 45.1631 233.149 45.1631Z" fill="white"/>
</g>
<g filter="url(#filter3_i_252_229)">
<path d="M287.158 38.57C287.158 27.7562 278.219 18.9893 267.194 18.9893C256.168 18.9893 247.229 27.7562 247.229 38.57C247.229 49.3838 256.168 58.1507 267.194 58.1507C278.219 58.1507 287.158 49.3838 287.158 38.57ZM268.322 41.9268H255.88V35.2132H268.322V28.1269L278.507 38.57L268.322 49.0131V41.9268Z" fill="white"/>
</g>
<defs>
<filter id="filter0_ddii_252_229" x="0.000451446" y="2.93851e-05" width="303.849" height="74.8872" filterUnits="userSpaceOnUse" color-interpolation-filters="sRGB">
<feFlood flood-opacity="0" result="BackgroundImageFix"/>
<feColorMatrix in="SourceAlpha" type="matrix" values="0 0 0 0 0 0 0 0 0 0 0 0 0 0 0 0 0 0 127 0" result="hardAlpha"/>
<feOffset dy="1.71187"/>
<feGaussianBlur stdDeviation="2.08277"/>
<feComposite in2="hardAlpha" operator="out"/>
<feColorMatrix type="matrix" values="0 0 0 0 0 0 0 0 0 0 0 0 0 0 0 0 0 0 0.47 0"/>
<feBlend mode="normal" in2="BackgroundImageFix" result="effect1_dropShadow_252_229"/>
<feColorMatrix in="SourceAlpha" type="matrix" values="0 0 0 0 0 0 0 0 0 0 0 0 0 0 0 0 0 0 127 0" result="hardAlpha"/>
<feMorphology radius="1.85976" operator="dilate" in="SourceAlpha" result="effect2_dropShadow_252_229"/>
<feOffset dx="-1.14125" dy="-0.570623"/>
<feGaussianBlur stdDeviation="2.2937"/>
<feComposite in2="hardAlpha" operator="out"/>
<feColorMatrix type="matrix" values="0 0 0 0 0 0 0 0 0 0 0 0 0 0 0 0 0 0 0.47 0"/>
<feBlend mode="normal" in2="effect1_dropShadow_252_229" result="effect2_dropShadow_252_229"/>
<feBlend mode="normal" in="SourceGraphic" in2="effect2_dropShadow_252_229" result="shape"/>
<feColorMatrix in="SourceAlpha" type="matrix" values="0 0 0 0 0 0 0 0 0 0 0 0 0 0 0 0 0 0 127 0" result="hardAlpha"/>
<feOffset dx="3.42374" dy="-3.42374"/>
<feGaussianBlur stdDeviation="1.14125"/>
<feComposite in2="hardAlpha" operator="arithmetic" k2="-1" k3="1"/>
<feColorMatrix type="matrix" values="0 0 0 0 0 0 0 0 0 0 0 0 0 0 0 0 0 0 0.25 0"/>
<feBlend mode="normal" in2="shape" result="effect3_innerShadow_252_229"/>
<feColorMatrix in="SourceAlpha" type="matrix" values="0 0 0 0 0 0 0 0 0 0 0 0 0 0 0 0 0 0 127 0" result="hardAlpha"/>
<feOffset dx="-2.28249" dy="2.85311"/>
<feGaussianBlur stdDeviation="1.14125"/>
<feComposite in2="hardAlpha" operator="arithmetic" k2="-1" k3="1"/>
<feColorMatrix type="matrix" values="0 0 0 0 1 0 0 0 0 0.999906 0 0 0 0 0.999906 0 0 0 0.25 0"/>
<feBlend mode="normal" in2="effect3_innerShadow_252_229" result="effect4_innerShadow_252_229"/>
</filter>
<filter id="filter1_ddii_252_229" x="1.37055" y="4.50932" width="307.308" height="70.9725" filterUnits="userSpaceOnUse" color-interpolation-filters="sRGB">
<feFlood flood-opacity="0" result="BackgroundImageFix"/>
<feColorMatrix in="SourceAlpha" type="matrix" values="0 0 0 0 0 0 0 0 0 0 0 0 0 0 0 0 0 0 127 0" result="hardAlpha"/>
<feOffset dy="1.88245"/>
<feGaussianBlur stdDeviation="2.29031"/>
<feComposite in2="hardAlpha" operator="out"/>
<feColorMatrix type="matrix" values="0 0 0 0 0 0 0 0 0 0 0 0 0 0 0 0 0 0 0.68 0"/>
<feBlend mode="normal" in2="BackgroundImageFix" result="effect1_dropShadow_252_229"/>
<feColorMatrix in="SourceAlpha" type="matrix" values="0 0 0 0 0 0 0 0 0 0 0 0 0 0 0 0 0 0 127 0" result="hardAlpha"/>
<feOffset dx="-1.25496" dy="-0.627482"/>
<feGaussianBlur stdDeviation="1.25496"/>
<feComposite in2="hardAlpha" operator="out"/>
<feColorMatrix type="matrix" values="0 0 0 0 0 0 0 0 0 0 0 0 0 0 0 0 0 0 0.6 0"/>
<feBlend mode="normal" in2="effect1_dropShadow_252_229" result="effect2_dropShadow_252_229"/>
<feBlend mode="normal" in="SourceGraphic" in2="effect2_dropShadow_252_229" result="shape"/>
<feColorMatrix in="SourceAlpha" type="matrix" values="0 0 0 0 0 0 0 0 0 0 0 0 0 0 0 0 0 0 127 0" result="hardAlpha"/>
<feOffset dx="3.76489" dy="-3.76489"/>
<feGaussianBlur stdDeviation="1.25496"/>
<feComposite in2="hardAlpha" operator="arithmetic" k2="-1" k3="1"/>
<feColorMatrix type="matrix" values="0 0 0 0 0 0 0 0 0 0 0 0 0 0 0 0 0 0 0.25 0"/>
<feBlend mode="normal" in2="shape" result="effect3_innerShadow_252_229"/>
<feColorMatrix in="SourceAlpha" type="matrix" values="0 0 0 0 0 0 0 0 0 0 0 0 0 0 0 0 0 0 127 0" result="hardAlpha"/>
<feOffset dx="-2.50993" dy="3.13741"/>
<feGaussianBlur stdDeviation="1.25496"/>
<feComposite in2="hardAlpha" operator="arithmetic" k2="-1" k3="1"/>
<feColorMatrix type="matrix" values="0 0 0 0 1 0 0 0 0 0.999906 0 0 0 0 0.999906 0 0 0 0.25 0"/>
<feBlend mode="normal" in2="effect3_innerShadow_252_229" result="effect4_innerShadow_252_229"/>
</filter>
<filter id="filter2_d_252_229" x="24.0945" y="30.0737" width="217.138" height="20.0487" filterUnits="userSpaceOnUse" color-interpolation-filters="sRGB">
<feFlood flood-opacity="0" result="BackgroundImageFix"/>
<feColorMatrix in="SourceAlpha" type="matrix" values="0 0 0 0 0 0 0 0 0 0 0 0 0 0 0 0 0 0 127 0" result="hardAlpha"/>
<feOffset dy="2.47968"/>
<feGaussianBlur stdDeviation="1.23984"/>
<feComposite in2="hardAlpha" operator="out"/>
<feColorMatrix type="matrix" values="0 0 0 0 0 0 0 0 0 0 0 0 0 0 0 0 0 0 1 0"/>
<feBlend mode="normal" in2="BackgroundImageFix" result="effect1_dropShadow_252_229"/>
<feBlend mode="normal" in="SourceGraphic" in2="effect1_dropShadow_252_229" result="shape"/>
</filter>
<filter id="filter3_i_252_229" x="246.312" y="16.3878" width="42.1816" height="43.4838" filterUnits="userSpaceOnUse" color-interpolation-filters="sRGB">
<feFlood flood-opacity="0" result="BackgroundImageFix"/>
<feBlend mode="normal" in="SourceGraphic" in2="BackgroundImageFix" result="shape"/>
<feColorMatrix in="SourceAlpha" type="matrix" values="0 0 0 0 0 0 0 0 0 0 0 0 0 0 0 0 0 0 127 0" result="hardAlpha"/>
<feOffset dy="-1.85985"/>
<feGaussianBlur stdDeviation="0.650947"/>
<feComposite in2="hardAlpha" operator="arithmetic" k2="-1" k3="1"/>
<feColorMatrix type="matrix" values="0 0 0 0 0 0 0 0 0 0 0 0 0 0 0 0 0 0 1 0"/>
<feBlend mode="normal" in2="shape" result="effect1_innerShadow_252_229"/>
</filter>
</defs>
</svg>
