<svg width="326" height="73" viewBox="0 0 326 73" fill="none" xmlns="http://www.w3.org/2000/svg">
<g filter="url(#filter0_ddii_256_230)">
<rect x="6.18555" y="5.72119" width="315.224" height="61.9918" rx="8.58" fill="#FE7702"/>
</g>
<g filter="url(#filter1_ddii_256_230)">
<rect x="4.41016" y="6.3501" width="316.995" height="61.3719" rx="8.58" fill="#FE7702"/>
</g>
<g filter="url(#filter2_d_256_230)">
<path d="M25.4633 28.881C29.3654 28.881 31.8768 30.915 32.3126 34.0491H27.4558C27.103 33.4887 26.4388 33.1359 25.4841 33.1359C23.6991 33.1359 22.7028 34.4019 22.7028 36.353C22.7028 38.6361 23.7406 39.7776 26.003 39.7776C27.0407 39.7776 27.8917 39.404 28.5766 38.4908H24.9029V35.2322H32.3957V39.8399C31.3786 41.6041 29.3031 43.825 25.5048 43.825C20.8763 43.825 18.0328 40.7324 18.0328 36.353C18.0328 31.9735 20.8556 28.881 25.4633 28.881ZM45.3047 29.0263V32.7H40.1158V34.5057H44.682V37.9719H40.1158V40.0475H45.3047V43.7212H35.508V29.0263H45.3047ZM57.9793 29.0263H62.5871V43.7212H57.9793L53.1018 36.3322V43.7212H48.494V29.0263H53.1018L57.9793 36.5398V29.0263ZM75.9183 29.0263V32.7H70.7294V34.5057H75.2956V37.9719H70.7294V40.0475H75.9183V43.7212H66.1217V29.0263H75.9183ZM86.8703 34.1321C86.8703 33.3849 86.4136 32.8868 85.5419 32.8868H83.7154V35.3775H85.5419C86.4136 35.3775 86.8703 35.0039 86.8703 34.1321ZM79.1077 29.0263H85.957C89.6515 29.0263 91.5403 31.1433 91.5403 33.8415C91.5403 35.7718 90.461 37.4115 88.3647 38.0964L91.561 43.7212H86.4967L83.7362 38.4493H83.7154V43.7212H79.1077V29.0263ZM104.615 43.7212L103.888 41.5003H98.9899L98.2634 43.7212H93.4274L98.8031 29.0263H104.116L109.471 43.7212H104.615ZM102.767 38.0342L101.439 33.9453L100.111 38.0342H102.767ZM111.141 32.6792V29.0263H123.511V32.6792H119.609V43.7212H115.001V32.6792H111.141ZM136.01 29.0263V32.7H130.822V34.5057H135.388V37.9719H130.822V40.0475H136.01V43.7212H126.214V29.0263H136.01ZM144.18 43.7212V29.0263H148.787V43.7212H144.18ZM161.807 29.0263H166.414V43.7212H161.807L156.929 36.3322V43.7212H152.321V29.0263H156.929L161.807 36.5398V29.0263ZM181.302 39.1757C181.302 41.8739 179.247 43.8665 175.698 43.8665C172.336 43.8665 169.7 42.3098 169.492 39.0097H174.391C174.474 40.089 175.055 40.2758 175.511 40.2758C175.968 40.2758 176.404 40.0682 176.404 39.5493C176.383 37.5568 169.451 38.2832 169.534 33.2604C169.534 30.3131 172.024 28.7772 175.159 28.7772C178.708 28.7772 180.991 30.4791 181.115 33.5302H176.155C176.113 32.6377 175.636 32.3679 175.138 32.3679C174.764 32.3679 174.474 32.617 174.474 33.1151C174.474 34.9623 181.302 34.651 181.302 39.1757ZM184.374 43.7212V29.0263H188.982V43.7212H184.374ZM199.531 28.881C203.433 28.881 205.945 30.915 206.38 34.0491H201.524C201.171 33.4887 200.507 33.1359 199.552 33.1359C197.767 33.1359 196.771 34.4019 196.771 36.353C196.771 38.6361 197.808 39.7776 200.071 39.7776C201.109 39.7776 201.959 39.404 202.644 38.4908H198.971V35.2322H206.463V39.8399C205.446 41.6041 203.371 43.825 199.573 43.825C194.944 43.825 192.101 40.7324 192.101 36.353C192.101 31.9735 194.923 28.881 199.531 28.881ZM218.563 43.7212V37.9927H214.184V43.7212H209.576V29.0263H214.184V34.3189H218.563V29.0263H223.171V43.7212H218.563ZM225.866 32.6792V29.0263H238.237V32.6792H234.335V43.7212H229.727V32.6792H225.866ZM252.293 39.1757C252.293 41.8739 250.238 43.8665 246.689 43.8665C243.326 43.8665 240.69 42.3098 240.483 39.0097H245.381C245.464 40.089 246.045 40.2758 246.502 40.2758C246.959 40.2758 247.394 40.0682 247.394 39.5493C247.374 37.5568 240.441 38.2832 240.524 33.2604C240.524 30.3131 243.015 28.7772 246.149 28.7772C249.698 28.7772 251.981 30.4791 252.106 33.5302H247.145C247.104 32.6377 246.626 32.3679 246.128 32.3679C245.755 32.3679 245.464 32.617 245.464 33.1151C245.464 34.9623 252.293 34.651 252.293 39.1757Z" fill="white"/>
</g>
<g clip-path="url(#clip0_256_230)" filter="url(#filter3_i_256_230)">
<path d="M307.258 37.2734C307.258 26.4596 298.319 17.6926 287.293 17.6926C276.267 17.6926 267.328 26.4596 267.328 37.2734C267.328 48.0872 276.267 56.8541 287.293 56.8541C298.319 56.8541 307.258 48.0872 307.258 37.2734ZM288.421 40.6302H275.98V33.9166H288.421V26.8303L298.606 37.2734L288.421 47.7164V40.6302Z" fill="white"/>
</g>
<defs>
<filter id="filter0_ddii_256_230" x="-0.000812054" y="2.54512e-05" width="325.737" height="72.5046" filterUnits="userSpaceOnUse" color-interpolation-filters="sRGB">
<feFlood flood-opacity="0" result="BackgroundImageFix"/>
<feColorMatrix in="SourceAlpha" type="matrix" values="0 0 0 0 0 0 0 0 0 0 0 0 0 0 0 0 0 0 127 0" result="hardAlpha"/>
<feOffset dy="1.39558"/>
<feGaussianBlur stdDeviation="1.69795"/>
<feComposite in2="hardAlpha" operator="out"/>
<feColorMatrix type="matrix" values="0 0 0 0 0 0 0 0 0 0 0 0 0 0 0 0 0 0 0.47 0"/>
<feBlend mode="normal" in2="BackgroundImageFix" result="effect1_dropShadow_256_230"/>
<feColorMatrix in="SourceAlpha" type="matrix" values="0 0 0 0 0 0 0 0 0 0 0 0 0 0 0 0 0 0 127 0" result="hardAlpha"/>
<feMorphology radius="1.51615" operator="dilate" in="SourceAlpha" result="effect2_dropShadow_256_230"/>
<feOffset dx="-0.930386" dy="-0.465193"/>
<feGaussianBlur stdDeviation="1.86991"/>
<feComposite in2="hardAlpha" operator="out"/>
<feColorMatrix type="matrix" values="0 0 0 0 0 0 0 0 0 0 0 0 0 0 0 0 0 0 0.47 0"/>
<feBlend mode="normal" in2="effect1_dropShadow_256_230" result="effect2_dropShadow_256_230"/>
<feBlend mode="normal" in="SourceGraphic" in2="effect2_dropShadow_256_230" result="shape"/>
<feColorMatrix in="SourceAlpha" type="matrix" values="0 0 0 0 0 0 0 0 0 0 0 0 0 0 0 0 0 0 127 0" result="hardAlpha"/>
<feOffset dx="2.79116" dy="-2.79116"/>
<feGaussianBlur stdDeviation="0.930386"/>
<feComposite in2="hardAlpha" operator="arithmetic" k2="-1" k3="1"/>
<feColorMatrix type="matrix" values="0 0 0 0 0 0 0 0 0 0 0 0 0 0 0 0 0 0 0.25 0"/>
<feBlend mode="normal" in2="shape" result="effect3_innerShadow_256_230"/>
<feColorMatrix in="SourceAlpha" type="matrix" values="0 0 0 0 0 0 0 0 0 0 0 0 0 0 0 0 0 0 127 0" result="hardAlpha"/>
<feOffset dx="-1.86077" dy="2.32597"/>
<feGaussianBlur stdDeviation="0.930386"/>
<feComposite in2="hardAlpha" operator="arithmetic" k2="-1" k3="1"/>
<feColorMatrix type="matrix" values="0 0 0 0 1 0 0 0 0 0.999906 0 0 0 0 0.999906 0 0 0 0.25 0"/>
<feBlend mode="normal" in2="effect3_innerShadow_256_230" result="effect4_innerShadow_256_230"/>
</filter>
<filter id="filter1_ddii_256_230" x="0.675865" y="3.79236" width="324.463" height="69.1985" filterUnits="userSpaceOnUse" color-interpolation-filters="sRGB">
<feFlood flood-opacity="0" result="BackgroundImageFix"/>
<feColorMatrix in="SourceAlpha" type="matrix" values="0 0 0 0 0 0 0 0 0 0 0 0 0 0 0 0 0 0 127 0" result="hardAlpha"/>
<feOffset dy="1.53464"/>
<feGaussianBlur stdDeviation="1.86715"/>
<feComposite in2="hardAlpha" operator="out"/>
<feColorMatrix type="matrix" values="0 0 0 0 0 0 0 0 0 0 0 0 0 0 0 0 0 0 0.68 0"/>
<feBlend mode="normal" in2="BackgroundImageFix" result="effect1_dropShadow_256_230"/>
<feColorMatrix in="SourceAlpha" type="matrix" values="0 0 0 0 0 0 0 0 0 0 0 0 0 0 0 0 0 0 127 0" result="hardAlpha"/>
<feOffset dx="-1.02309" dy="-0.511547"/>
<feGaussianBlur stdDeviation="1.02309"/>
<feComposite in2="hardAlpha" operator="out"/>
<feColorMatrix type="matrix" values="0 0 0 0 0 0 0 0 0 0 0 0 0 0 0 0 0 0 0.6 0"/>
<feBlend mode="normal" in2="effect1_dropShadow_256_230" result="effect2_dropShadow_256_230"/>
<feBlend mode="normal" in="SourceGraphic" in2="effect2_dropShadow_256_230" result="shape"/>
<feColorMatrix in="SourceAlpha" type="matrix" values="0 0 0 0 0 0 0 0 0 0 0 0 0 0 0 0 0 0 127 0" result="hardAlpha"/>
<feOffset dx="3.06928" dy="-3.06928"/>
<feGaussianBlur stdDeviation="1.02309"/>
<feComposite in2="hardAlpha" operator="arithmetic" k2="-1" k3="1"/>
<feColorMatrix type="matrix" values="0 0 0 0 0 0 0 0 0 0 0 0 0 0 0 0 0 0 0.25 0"/>
<feBlend mode="normal" in2="shape" result="effect3_innerShadow_256_230"/>
<feColorMatrix in="SourceAlpha" type="matrix" values="0 0 0 0 0 0 0 0 0 0 0 0 0 0 0 0 0 0 127 0" result="hardAlpha"/>
<feOffset dx="-2.04619" dy="2.55773"/>
<feGaussianBlur stdDeviation="1.02309"/>
<feComposite in2="hardAlpha" operator="arithmetic" k2="-1" k3="1"/>
<feColorMatrix type="matrix" values="0 0 0 0 1 0 0 0 0 0.999906 0 0 0 0 0.999906 0 0 0 0.25 0"/>
<feBlend mode="normal" in2="effect3_innerShadow_256_230" result="effect4_innerShadow_256_230"/>
</filter>
<filter id="filter2_d_256_230" x="15.5535" y="28.7771" width="239.219" height="20.0487" filterUnits="userSpaceOnUse" color-interpolation-filters="sRGB">
<feFlood flood-opacity="0" result="BackgroundImageFix"/>
<feColorMatrix in="SourceAlpha" type="matrix" values="0 0 0 0 0 0 0 0 0 0 0 0 0 0 0 0 0 0 127 0" result="hardAlpha"/>
<feOffset dy="2.47968"/>
<feGaussianBlur stdDeviation="1.23984"/>
<feComposite in2="hardAlpha" operator="out"/>
<feColorMatrix type="matrix" values="0 0 0 0 0 0 0 0 0 0 0 0 0 0 0 0 0 0 1 0"/>
<feBlend mode="normal" in2="BackgroundImageFix" result="effect1_dropShadow_256_230"/>
<feBlend mode="normal" in="SourceGraphic" in2="effect1_dropShadow_256_230" result="shape"/>
</filter>
<filter id="filter3_i_256_230" x="266.412" y="15.0912" width="42.1816" height="43.4838" filterUnits="userSpaceOnUse" color-interpolation-filters="sRGB">
<feFlood flood-opacity="0" result="BackgroundImageFix"/>
<feBlend mode="normal" in="SourceGraphic" in2="BackgroundImageFix" result="shape"/>
<feColorMatrix in="SourceAlpha" type="matrix" values="0 0 0 0 0 0 0 0 0 0 0 0 0 0 0 0 0 0 127 0" result="hardAlpha"/>
<feOffset dy="-1.85985"/>
<feGaussianBlur stdDeviation="0.650947"/>
<feComposite in2="hardAlpha" operator="arithmetic" k2="-1" k3="1"/>
<feColorMatrix type="matrix" values="0 0 0 0 0 0 0 0 0 0 0 0 0 0 0 0 0 0 1 0"/>
<feBlend mode="normal" in2="shape" result="effect1_innerShadow_256_230"/>
</filter>
<clipPath id="clip0_256_230">
<rect width="42.1818" height="42.1818" fill="white" transform="matrix(0 1 -1 0 308.594 16.3931)"/>
</clipPath>
</defs>
</svg>
