<svg width="34" height="34" viewBox="0 0 34 34" fill="none" xmlns="http://www.w3.org/2000/svg">
<path d="M17.5181 0.894531V8.44784C19.472 8.39737 21.3574 8.07278 23.135 7.50487C21.7585 4.91397 19.8354 2.65987 17.5181 0.894531Z" fill="#FE7702"/>
<path d="M24.6162 8.10581C25.7839 10.65 26.4628 13.4635 26.5356 16.4289H33.9731C33.843 12.1959 32.169 8.35284 29.4899 5.44531C27.9997 6.53225 26.3651 7.43272 24.6162 8.10581Z" fill="#FE7702"/>
<path d="M24.1474 7.14903C25.7916 6.52481 27.3296 5.68916 28.7364 4.68084C25.9324 1.9975 22.2137 0.265094 18.0928 0C20.604 1.89816 22.6806 4.33712 24.1474 7.14903Z" fill="#FE7702"/>
<path d="M26.5359 17.4922C26.4546 20.8104 25.6137 23.9384 24.1782 26.7115C25.8533 27.3139 27.4279 28.1246 28.8777 29.1064C31.9111 26.1356 33.8332 22.0392 33.9734 17.4927L26.5359 17.4922Z" fill="#FE7702"/>
<path d="M25.4735 17.4922H17.5181V25.4742C19.4752 25.5226 21.3664 25.8312 23.1573 26.3736C24.5646 23.7105 25.3901 20.6946 25.4735 17.4922Z" fill="#FE7702"/>
<path d="M16.4555 17.4922H8.5C8.58288 20.694 9.40897 23.7105 10.8157 26.3742C12.6066 25.8317 14.4983 25.5226 16.4549 25.4748L16.4555 17.4922Z" fill="#FE7702"/>
<path d="M17.5181 33.0274C19.5602 31.4714 21.2968 29.5376 22.6228 27.3265C20.9962 26.8543 19.2855 26.5828 17.5181 26.5371V33.0274Z" fill="#FE7702"/>
<path d="M17.5181 16.4299H25.4735C25.3997 13.5898 24.742 10.8964 23.612 8.46484C21.6868 9.0965 19.6415 9.45775 17.5181 9.51034V16.4299Z" fill="#FE7702"/>
<path d="M16.4555 9.51034C14.3321 9.45775 12.2862 9.0965 10.3615 8.46484C9.23153 10.8964 8.57384 13.5898 8.5 16.4299H16.4555V9.51034Z" fill="#FE7702"/>
<path d="M9.82624 7.14903C11.293 4.33712 13.3697 1.89763 15.8809 0C11.76 0.265094 8.04124 1.9975 5.2373 4.68138C6.64352 5.68969 8.18255 6.52534 9.82624 7.14903Z" fill="#FE7702"/>
<path d="M16.4554 33.0274V26.5371C14.6879 26.5828 12.9767 26.8548 11.3506 27.3265C12.6766 29.5376 14.4132 31.4724 16.4554 33.0274Z" fill="#FE7702"/>
<path d="M23.6586 27.6582C22.2333 30.0977 20.3378 32.2264 18.0933 33.9216C21.8949 33.6773 25.3544 32.1839 28.0691 29.8464C26.7048 28.9486 25.2274 28.2075 23.6586 27.6582Z" fill="#FE7702"/>
<path d="M10.3148 27.6562C8.74604 28.2056 7.26863 28.9467 5.90332 29.8445C8.61801 32.182 12.078 33.6758 15.8797 33.9202C13.6357 32.225 11.7402 30.0963 10.3148 27.6562Z" fill="#FE7702"/>
<path d="M7.4375 17.4922H0C0.14025 22.0392 2.06231 26.1356 5.09575 29.1058C6.54553 28.1241 8.11962 27.3134 9.79519 26.711C8.36028 23.9384 7.51931 20.8104 7.4375 17.4922Z" fill="#FE7702"/>
<path d="M16.4553 0.894531C14.138 2.65934 12.2148 4.91397 10.8384 7.50434C12.6165 8.07225 14.5019 8.39738 16.4553 8.44731V0.894531Z" fill="#FE7702"/>
<path d="M7.4375 16.4289C7.51081 13.4635 8.18922 10.65 9.35691 8.10581C7.60803 7.43219 5.97338 6.53225 4.48322 5.44531C1.80412 8.35284 0.130156 12.1959 0 16.4289H7.4375Z" fill="#FE7702"/>
</svg>
