<svg width="9473" height="5235" viewBox="0 0 9473 5235" fill="none" xmlns="http://www.w3.org/2000/svg">
<path d="M380.247 2009.89H179.579V1866.09H380.247C408.367 1866.09 431.586 1862.05 449.906 1853.95C468.226 1845.43 481.647 1834.14 490.168 1820.08C499.115 1805.6 503.588 1789.19 503.588 1770.87C503.588 1750.85 499.115 1732.32 490.168 1715.27C481.647 1698.23 468.226 1684.6 449.906 1674.37C431.586 1663.72 408.367 1658.4 380.247 1658.4H247.96V2258.48H63.9071V1513.97H380.247C444.155 1513.97 498.902 1525.04 544.489 1547.2C590.502 1569.35 625.651 1599.6 649.935 1637.95C674.646 1676.29 687.002 1720.17 687.002 1769.59C687.002 1805.38 679.972 1838.19 665.912 1868.01C652.279 1897.41 632.042 1922.76 605.201 1944.06C578.786 1965.36 546.619 1981.77 508.701 1993.27C471.209 2004.35 428.391 2009.89 380.247 2009.89ZM768.189 1513.97H1079.42C1125.43 1513.97 1166.97 1518.87 1204.04 1528.66C1241.1 1538.04 1272.63 1552.1 1298.62 1570.84C1325.03 1589.59 1345.27 1613.02 1359.33 1641.14C1373.39 1668.83 1380.42 1701 1380.42 1737.64C1380.42 1781.1 1373.18 1817.31 1358.69 1846.28C1344.21 1875.25 1324.18 1898.9 1298.62 1917.22C1273.06 1935.54 1243.45 1950.88 1209.79 1963.23L1148.44 1999.02H883.861L882.583 1855.23H1080.7C1106.26 1855.23 1127.56 1851.4 1144.6 1843.73C1161.64 1835.63 1174.43 1824.13 1182.95 1809.22C1191.47 1794.31 1195.73 1776.62 1195.73 1756.17C1195.73 1735.3 1191.25 1717.62 1182.31 1703.13C1173.36 1688.65 1160.15 1677.57 1142.69 1669.9C1125.64 1662.23 1104.55 1658.4 1079.42 1658.4H952.881V2258.48H768.189V1513.97ZM1209.79 2258.48L1031.49 1930L1227.04 1928.08L1408.54 2250.82V2258.48H1209.79ZM2147.33 1871.21V1901.88C2147.33 1958.55 2138.81 2009.46 2121.77 2054.62C2105.15 2099.78 2081.51 2138.34 2050.83 2170.29C2020.16 2202.25 1983.52 2226.74 1940.91 2243.79C1898.73 2260.4 1852.08 2268.71 1800.95 2268.71C1749.83 2268.71 1702.96 2260.4 1660.36 2243.79C1618.18 2226.74 1581.54 2202.25 1550.44 2170.29C1519.34 2138.34 1495.26 2099.78 1478.22 2054.62C1461.18 2009.46 1452.66 1958.55 1452.66 1901.88V1871.21C1452.66 1814.12 1460.97 1763.2 1477.58 1718.47C1494.63 1673.31 1518.48 1634.75 1549.16 1602.8C1580.26 1570.42 1616.9 1545.92 1659.08 1529.3C1701.68 1512.26 1748.55 1503.74 1799.68 1503.74C1850.8 1503.74 1897.45 1512.26 1939.63 1529.3C1982.24 1545.92 2019.09 1570.42 2050.19 1602.8C2081.29 1634.75 2105.15 1673.31 2121.77 1718.47C2138.81 1763.2 2147.33 1814.12 2147.33 1871.21ZM1962.64 1901.88V1869.93C1962.64 1834.14 1958.8 1802.61 1951.14 1775.35C1943.89 1747.65 1933.24 1724.43 1919.18 1705.69C1905.55 1686.52 1888.51 1672.03 1868.06 1662.23C1848.03 1652.01 1825.24 1646.89 1799.68 1646.89C1773.69 1646.89 1750.47 1652.01 1730.02 1662.23C1709.99 1672.03 1693.16 1686.52 1679.53 1705.69C1665.9 1724.43 1655.46 1747.65 1648.22 1775.35C1641.4 1802.61 1637.99 1834.14 1637.99 1869.93V1901.88C1637.99 1937.24 1641.4 1968.77 1648.22 1996.47C1655.46 2024.16 1666.11 2047.8 1680.17 2067.4C1694.23 2086.57 1711.27 2101.27 1731.3 2111.5C1751.75 2121.3 1774.97 2126.2 1800.95 2126.2C1826.52 2126.2 1849.31 2121.3 1869.33 2111.5C1889.36 2101.27 1906.19 2086.57 1919.82 2067.4C1933.88 2047.8 1944.53 2024.16 1951.77 1996.47C1959.02 1968.77 1962.64 1937.24 1962.64 1901.88ZM2550.61 1945.34H2342.91L2341.63 1824.55H2525.69C2551.25 1824.55 2572.34 1821.57 2588.95 1815.61C2605.57 1809.22 2617.93 1800.06 2626.02 1788.13C2634.12 1776.2 2638.16 1761.29 2638.16 1743.39C2638.16 1722.94 2634.12 1706.54 2626.02 1694.18C2618.35 1681.4 2606.21 1672.24 2589.59 1666.7C2573.4 1661.17 2552.95 1658.4 2528.24 1658.4H2411.29V2258.48H2227.24V1513.97H2513.54C2562.11 1513.97 2605.36 1518.23 2643.28 1526.75C2681.62 1534.84 2714.21 1547.41 2741.05 1564.45C2767.89 1581.49 2788.34 1603.01 2802.4 1629C2816.46 1654.56 2823.49 1684.6 2823.49 1719.11C2823.49 1749.36 2816.25 1778.12 2801.77 1805.38C2787.71 1832.65 2764.49 1854.59 2732.11 1871.21C2700.15 1887.82 2656.91 1896.13 2602.37 1896.13L2550.61 1945.34ZM2542.3 2258.48H2297.54L2362.08 2114.69H2542.3C2569.57 2114.69 2591.51 2111.07 2608.13 2103.83C2624.74 2096.16 2636.88 2086.15 2644.55 2073.79C2652.22 2061.01 2656.06 2047.38 2656.06 2032.89C2656.06 2015 2652.44 1999.66 2645.19 1986.88C2638.38 1973.67 2627.09 1963.45 2611.32 1956.2C2595.98 1948.96 2575.75 1945.34 2550.61 1945.34H2389.56L2390.2 1824.55H2584.48L2627.3 1873.76C2680.13 1870.36 2722.09 1877.38 2753.2 1894.85C2784.3 1911.89 2806.45 1934.26 2819.66 1961.96C2833.29 1989.22 2840.11 2016.92 2840.11 2045.03C2840.11 2081.67 2833.72 2113.42 2820.94 2140.26C2808.16 2167.1 2789.2 2189.25 2764.06 2206.72C2738.92 2224.19 2707.82 2237.18 2670.76 2245.7C2633.69 2254.22 2590.87 2258.48 2542.3 2258.48ZM3244.67 1707.6L3046.56 2258.48H2860.59L3154.56 1513.97H3281.09L3244.67 1707.6ZM3440.22 2258.48L3238.28 1707.6L3201.21 1513.97H3329.66L3625.55 2258.48H3440.22ZM3436.39 1981.77V2112.78H3024.83V1981.77H3436.39ZM4002.63 1513.97V2258.48H3817.3V1513.97H4002.63ZM4244.84 1513.97V1658.4H3580.21V1513.97H4244.84ZM4851.98 2114.69V2258.48H4423.8V2114.69H4851.98ZM4488.99 1513.97V2258.48H4304.94V1513.97H4488.99ZM4797.02 1801.55V1945.34H4423.8V1801.55H4797.02ZM4852.62 1513.97V1658.4H4423.8V1513.97H4852.62ZM5941.68 1513.97V2258.48H5756.34V1513.97H5941.68ZM6183.88 1513.97V1658.4H5519.25V1513.97H6183.88ZM6243.34 1513.97H6554.57C6600.58 1513.97 6642.12 1518.87 6679.19 1528.66C6716.26 1538.04 6747.78 1552.1 6773.77 1570.84C6800.19 1589.59 6820.42 1613.02 6834.48 1641.14C6848.54 1668.83 6855.57 1701 6855.57 1737.64C6855.57 1781.1 6848.33 1817.31 6833.84 1846.28C6819.36 1875.25 6799.33 1898.9 6773.77 1917.22C6748.21 1935.54 6718.6 1950.88 6684.94 1963.23L6623.59 1999.02H6359.01L6357.74 1855.23H6555.85C6581.41 1855.23 6602.71 1851.4 6619.76 1843.73C6636.8 1835.63 6649.58 1824.13 6658.1 1809.22C6666.62 1794.31 6670.88 1776.62 6670.88 1756.17C6670.88 1735.3 6666.41 1717.62 6657.46 1703.13C6648.51 1688.65 6635.31 1677.57 6617.84 1669.9C6600.8 1662.23 6579.71 1658.4 6554.57 1658.4H6428.03V2258.48H6243.34V1513.97ZM6684.94 2258.48L6506.64 1930L6702.2 1928.08L6883.69 2250.82V2258.48H6684.94ZM7389.22 1513.97H7573.91V1998.38C7573.91 2056.32 7560.71 2105.53 7534.29 2146.01C7508.3 2186.48 7471.88 2217.16 7425.01 2238.03C7378.57 2258.48 7324.04 2268.71 7261.41 2268.71C7199.63 2268.71 7145.1 2258.48 7097.81 2238.03C7050.94 2217.16 7014.3 2186.48 6987.89 2146.01C6961.47 2105.53 6948.26 2056.32 6948.26 1998.38V1513.97H7132.32V1998.38C7132.32 2027.78 7137.43 2052.06 7147.65 2071.24C7157.88 2089.98 7172.58 2103.83 7191.75 2112.78C7210.92 2121.3 7234.14 2125.56 7261.41 2125.56C7289.1 2125.56 7312.32 2121.3 7331.07 2112.78C7349.81 2103.83 7364.09 2089.98 7373.89 2071.24C7384.11 2052.06 7389.22 2027.78 7389.22 1998.38V1513.97ZM8088.39 2059.09C8088.39 2047.16 8086.05 2036.3 8081.36 2026.5C8076.68 2016.28 8068.79 2007.12 8057.72 1999.02C8047.07 1990.93 8032.58 1983.26 8014.26 1976.01C7995.94 1968.77 7973.15 1961.96 7945.88 1955.56C7899.01 1944.49 7858.33 1932.34 7823.82 1919.14C7789.73 1905.5 7761.4 1889.95 7738.82 1872.49C7716.67 1854.59 7700.05 1833.29 7688.97 1808.58C7677.9 1783.87 7672.36 1754.9 7672.36 1721.66C7672.36 1689.71 7679.39 1660.31 7693.45 1633.47C7707.51 1606.63 7727.32 1583.63 7752.88 1564.45C7778.44 1545.28 7808.69 1530.37 7843.63 1519.72C7878.56 1509.07 7916.7 1503.74 7958.02 1503.74C8018.09 1503.74 8071.14 1513.11 8117.15 1531.86C8163.59 1550.61 8199.8 1577.23 8225.79 1611.74C8251.78 1645.83 8264.78 1686.94 8264.78 1735.08H8080.72C8080.72 1717.19 8075.82 1700.79 8066.03 1685.88C8056.65 1670.96 8043.02 1659.04 8025.12 1650.09C8007.23 1640.72 7985.08 1636.03 7958.66 1636.03C7933.1 1636.03 7912.01 1640.08 7895.39 1648.17C7878.78 1655.84 7866.42 1665.85 7858.33 1678.21C7850.66 1690.14 7846.82 1702.49 7846.82 1715.27C7846.82 1725.92 7849.17 1735.72 7853.85 1744.67C7858.97 1753.62 7866.85 1761.93 7877.5 1769.59C7888.58 1776.84 7902.85 1783.87 7920.32 1790.68C7938.21 1797.07 7959.73 1803.47 7984.86 1809.86C8031.73 1820.08 8072.42 1832.22 8106.93 1846.28C8141.86 1859.92 8170.83 1876.32 8193.84 1895.49C8217.27 1914.66 8234.74 1937.46 8246.24 1963.87C8257.75 1989.86 8263.5 2019.9 8263.5 2053.98C8263.5 2088.07 8256.47 2118.53 8242.41 2145.37C8228.78 2171.78 8208.96 2194.15 8182.98 2212.47C8157.41 2230.79 8126.52 2244.85 8090.31 2254.65C8054.52 2264.02 8014.47 2268.71 7970.16 2268.71C7930.54 2268.71 7891.56 2264.02 7853.21 2254.65C7814.87 2245.28 7780.15 2230.79 7749.05 2211.19C7717.94 2191.17 7693.02 2165.61 7674.27 2134.5C7655.95 2103.4 7646.79 2066.12 7646.79 2022.67H7831.49C7831.49 2043.12 7834.47 2060.59 7840.43 2075.07C7846.82 2089.56 7856.2 2101.49 7868.55 2110.86C7881.33 2119.81 7896.88 2126.41 7915.2 2130.67C7933.95 2134.93 7955.47 2137.06 7979.75 2137.06C8007.02 2137.06 8028.53 2133.23 8044.3 2125.56C8060.49 2117.46 8071.78 2107.45 8078.17 2095.52C8084.98 2083.59 8088.39 2071.45 8088.39 2059.09ZM8729.41 1513.97V2258.48H8544.08V1513.97H8729.41ZM8971.62 1513.97V1658.4H8306.98V1513.97H8971.62Z" fill="#FE7702"/>
<path d="M4925.5 2169.65C4925.5 2142.39 4934.87 2119.59 4953.62 2101.27C4972.79 2082.95 4998.14 2073.79 5029.67 2073.79C5061.2 2073.79 5086.33 2082.95 5105.08 2101.27C5124.25 2119.59 5133.84 2142.39 5133.84 2169.65C5133.84 2196.92 5124.25 2219.71 5105.08 2238.03C5086.33 2256.35 5061.2 2265.51 5029.67 2265.51C4998.14 2265.51 4972.79 2256.35 4953.62 2238.03C4934.87 2219.71 4925.5 2196.92 4925.5 2169.65ZM9048.33 2169.65C9048.33 2142.39 9057.7 2119.59 9076.45 2101.27C9095.62 2082.95 9120.97 2073.79 9152.5 2073.79C9184.02 2073.79 9209.16 2082.95 9227.91 2101.27C9247.08 2119.59 9256.67 2142.39 9256.67 2169.65C9256.67 2196.92 9247.08 2219.71 9227.91 2238.03C9209.16 2256.35 9184.02 2265.51 9152.5 2265.51C9120.97 2265.51 9095.62 2256.35 9076.45 2238.03C9057.7 2219.71 9048.33 2196.92 9048.33 2169.65Z" fill="#0097A7"/>
<path d="M1802.09 1446.13C1717.55 1446.13 1649.42 1431.62 1597.69 1402.6C1549.74 1373.58 1525.77 1336.99 1525.77 1292.83C1525.77 1256.24 1542.8 1219.01 1576.87 1181.16C1605.89 1152.14 1655.1 1121.86 1724.49 1090.32C1803.98 1057.51 1874.64 1041.11 1936.46 1041.11C1976.84 1041.11 2010.9 1048.68 2038.66 1063.82C2043.71 1065.08 2046.23 1067.61 2046.23 1071.39C2046.23 1075.18 2043.08 1077.07 2036.77 1077.07C2030.46 1077.07 2025.41 1076.44 2021.63 1075.18C2005.23 1071.39 1985.67 1069.5 1962.96 1069.5C1901.13 1069.5 1833 1084.64 1758.56 1114.92C1689.16 1143.94 1641.85 1173.59 1616.61 1203.87C1588.86 1235.42 1574.98 1263.81 1574.98 1289.04C1574.98 1321.85 1594.53 1347.08 1633.65 1364.74C1674.02 1383.67 1728.28 1393.13 1796.41 1393.13C1819.12 1393.13 1842.46 1391.87 1866.44 1389.35C1891.67 1388.09 1916.91 1384.93 1942.14 1379.89C2041.82 1364.74 2120.68 1333.83 2178.72 1287.15C2232.97 1244.25 2260.1 1194.41 2260.1 1137.63C2260.1 1083.38 2235.49 1034.8 2186.29 991.903C2176.19 1042.37 2161.05 1088.43 2140.86 1130.06C2121.94 1170.44 2097.96 1207.03 2068.94 1239.83C2004.6 1311.75 1925.11 1351.5 1830.48 1359.07C1826.69 1359.07 1824.17 1356.54 1822.91 1351.5C1822.91 1347.71 1825.43 1345.19 1830.48 1343.93C1925.11 1336.36 2002.7 1296.61 2063.27 1224.69C2120.04 1159.08 2154.74 1076.44 2167.36 976.762C2150.96 962.883 2132.03 949.635 2110.58 937.018C2048.76 904.213 2003.97 873.932 1976.21 846.173C1932.05 804.536 1909.97 757.852 1909.97 706.121C1909.97 635.465 1954.76 568.593 2044.34 505.506C1982.52 441.158 1908.07 408.984 1821.01 408.984C1771.81 408.984 1721.34 420.34 1669.61 443.051C1631.76 460.715 1600.84 489.735 1576.87 530.11C1554.16 570.485 1542.8 612.123 1542.8 655.021C1542.8 690.35 1550.37 720.631 1565.51 745.866C1595.8 791.288 1639.96 813.999 1698 813.999C1752.25 813.999 1792.63 793.812 1819.12 753.436C1821.65 750.913 1824.17 749.651 1826.69 749.651C1830.48 750.913 1832.37 753.436 1832.37 757.221C1832.37 773.624 1814.08 790.657 1777.48 808.322C1747.2 820.939 1720.08 827.248 1696.1 827.248C1631.76 827.248 1583.18 802.644 1550.37 753.436C1532.71 725.678 1523.88 694.135 1523.88 658.807C1523.88 613.384 1536.49 568.593 1561.73 524.432C1588.23 480.272 1622.29 448.728 1663.93 429.803C1720.71 404.568 1777.48 391.951 1834.26 391.951C1931.42 391.951 2010.9 424.125 2072.73 488.473C2168.62 429.172 2255.05 395.736 2332.02 388.165C2337.06 386.904 2341.48 386.273 2345.26 386.273C2350.31 386.273 2355.36 386.273 2360.4 386.273C2441.15 386.273 2485.95 415.293 2494.78 473.332C2497.3 475.856 2497.3 480.272 2494.78 486.58L2492.89 496.043C2492.89 499.829 2494.15 500.459 2496.67 497.936L2525.06 480.903H2528.85C2542.72 480.903 2549.66 487.211 2549.66 499.829C2549.66 514.969 2542.72 531.372 2528.85 549.036C2469.54 612.123 2433.58 643.666 2420.97 643.666C2417.18 643.666 2415.29 641.142 2415.29 636.095C2415.29 623.478 2427.28 593.827 2451.25 547.143C2461.34 526.956 2466.39 510.553 2466.39 497.936C2466.39 455.037 2432.95 435.48 2366.08 439.266L2328.23 441.158C2286.59 442.42 2246.85 450.621 2209 465.762C2171.14 479.641 2134.55 497.305 2099.23 518.754C2166.1 608.337 2199.53 720 2199.53 853.744C2199.53 882.764 2197.64 911.783 2193.86 940.803C2292.27 998.843 2341.48 1064.45 2341.48 1137.63C2341.48 1204.5 2298.58 1268.22 2212.78 1328.79C2130.77 1384.3 2039.92 1419.63 1940.25 1434.77C1891.04 1442.34 1844.99 1446.13 1802.09 1446.13ZM2174.93 878.348C2174.93 742.081 2140.86 628.525 2072.73 537.68C2003.33 590.673 1968.64 648.082 1968.64 709.907C1968.64 749.02 1983.15 784.349 2012.17 815.892C2041.19 847.435 2082.82 878.348 2137.08 908.629L2174.93 929.448V878.348ZM1976.25 1720.55C1929.57 1720.55 1891.72 1707.3 1862.7 1680.81C1837.46 1655.57 1824.84 1625.92 1824.84 1591.86C1824.84 1556.53 1837.46 1526.25 1862.7 1501.01C1866.48 1495.96 1870.9 1493.44 1875.94 1493.44C1880.99 1493.44 1883.51 1495.96 1883.51 1501.01C1883.51 1504.8 1880.99 1509.21 1875.94 1514.26C1858.28 1531.92 1849.45 1555.9 1849.45 1586.18C1849.45 1615.2 1858.91 1640.43 1877.84 1661.88C1898.02 1685.85 1927.67 1697.84 1966.79 1697.84C2023.57 1697.84 2080.98 1674.5 2139.01 1627.82C2197.05 1582.39 2249.42 1520.57 2296.1 1442.34C2351.62 1348.97 2404.61 1254.34 2455.08 1158.45C2474 1119.34 2504.92 1059.41 2547.82 978.655C2541.51 976.132 2535.2 974.239 2528.89 972.977C2522.58 971.716 2516.27 970.454 2509.96 969.192C2475.9 966.669 2449.4 969.823 2430.47 978.655C2403.98 992.534 2393.25 1012.72 2398.3 1039.22V1043C2398.3 1050.57 2394.52 1054.36 2386.94 1054.36C2380.64 1054.36 2377.48 1046.16 2377.48 1029.76C2377.48 1000.74 2390.73 978.655 2417.23 963.514C2443.72 947.112 2477.16 940.172 2517.53 942.696C2525.1 943.958 2532.67 945.219 2540.24 946.481C2547.82 946.481 2555.39 947.743 2562.96 950.266C2626.04 851.851 2690.39 802.644 2756 802.644C2785.02 802.644 2799.53 815.261 2799.53 840.496C2799.53 858.16 2795.75 866.992 2788.17 866.992C2783.13 866.992 2781.87 863.838 2784.39 857.529V846.173C2784.39 827.248 2774.93 817.785 2756 817.785C2715.63 817.785 2667.05 868.254 2610.27 969.192C2648.12 990.642 2677.77 1018.4 2699.22 1052.47C2721.93 1087.79 2733.29 1125.65 2733.29 1166.02C2733.29 1222.8 2712.47 1267.59 2670.83 1300.4C2692.28 1295.35 2713.73 1288.41 2735.18 1279.58C2756.63 1269.48 2779.34 1258.13 2803.32 1245.51C2824.77 1232.89 2843.69 1220.28 2860.09 1207.66C2876.5 1195.04 2891.01 1182.42 2903.62 1169.81C2909.93 1166.02 2913.72 1164.13 2914.98 1164.13C2920.03 1164.13 2922.55 1166.65 2922.55 1171.7C2922.55 1179.27 2918.76 1186.21 2911.19 1192.52C2889.74 1212.71 2866.4 1230.37 2841.17 1245.51C2817.19 1260.65 2792.59 1274.53 2767.36 1287.15C2710.58 1314.91 2658.22 1328.79 2610.27 1328.79C2547.18 1328.79 2501.13 1300.4 2472.11 1243.62C2449.4 1289.04 2423.53 1338.25 2394.52 1391.24C2364.23 1445.5 2332.69 1495.33 2299.89 1540.76C2265.82 1587.44 2231.12 1624.03 2195.79 1650.53C2133.97 1697.21 2060.79 1720.55 1976.25 1720.55ZM2574.31 1294.72C2603.33 1294.72 2628.57 1282.73 2650.02 1258.76C2672.73 1234.79 2684.08 1205.14 2684.08 1169.81C2684.08 1143.31 2677.77 1117.45 2665.16 1092.21C2648.75 1055.62 2624.15 1025.34 2591.34 1001.37L2504.29 1181.16L2481.57 1228.48C2503.02 1272.64 2533.94 1294.72 2574.31 1294.72ZM2966.17 1342.03C2892.99 1342.03 2856.4 1301.66 2856.4 1220.91C2856.4 1193.15 2866.49 1158.45 2886.68 1116.81C2906.87 1073.92 2931.47 1038.59 2960.49 1010.83C2995.82 978.024 3027.99 961.622 3057.01 961.622C3096.13 961.622 3115.68 981.179 3115.68 1020.29C3115.68 1045.53 3105.59 1070.76 3085.4 1096C3047.55 1141.42 2994.56 1172.33 2926.42 1188.73C2925.16 1197.57 2923.9 1205.77 2922.64 1213.34C2922.64 1219.65 2922.64 1225.95 2922.64 1232.26C2922.64 1285.26 2947.24 1311.75 2996.45 1311.75C3035.56 1311.75 3084.77 1295.35 3144.07 1262.54C3169.31 1248.67 3192.02 1234.16 3212.2 1219.01C3232.39 1203.87 3249.43 1189.36 3263.31 1175.48C3278.45 1157.82 3286.02 1156.56 3286.02 1171.7C3286.02 1178.01 3283.49 1183.69 3278.45 1188.73C3264.57 1205.14 3246.27 1222.17 3223.56 1239.83C3202.11 1256.24 3175.61 1272.64 3144.07 1289.04C3077.2 1324.37 3017.9 1342.03 2966.17 1342.03ZM2933.99 1167.91C2995.82 1147.73 3038.09 1117.45 3060.8 1077.07C3075.94 1051.84 3083.51 1030.39 3083.51 1012.72C3083.51 998.843 3079.09 991.903 3070.26 991.903C3060.17 991.903 3046.29 1001.37 3028.62 1020.29C3010.96 1037.96 2993.29 1060.04 2975.63 1086.53C2959.23 1113.03 2945.35 1140.16 2933.99 1167.91ZM3325.64 1338.25C3256.25 1338.25 3221.55 1300.4 3221.55 1224.69C3221.55 1175.48 3246.15 1121.86 3295.36 1063.82C3348.35 1000.74 3399.45 969.192 3448.66 969.192C3489.04 969.192 3509.22 987.487 3509.22 1024.08C3509.22 1036.69 3504.81 1052.47 3495.98 1071.39C3490.93 1080.22 3486.51 1087.79 3482.73 1094.1C3478.94 1099.15 3475.79 1104.2 3473.26 1109.24C3469.48 1113.03 3466.33 1114.92 3463.8 1114.92C3456.23 1114.92 3454.97 1108.61 3460.02 1096C3468.85 1082.12 3473.26 1069.5 3473.26 1058.14C3473.26 1043 3464.43 1035.43 3446.77 1035.43C3424.06 1035.43 3400.08 1044.9 3374.85 1063.82C3343.31 1087.79 3318.07 1116.81 3299.15 1150.88C3280.22 1183.69 3270.76 1213.97 3270.76 1241.73C3270.76 1287.15 3294.73 1309.86 3342.68 1309.86C3365.39 1309.86 3395.67 1302.92 3433.52 1289.04C3482.73 1267.59 3533.83 1229.74 3586.82 1175.48C3595.65 1166.65 3601.96 1162.24 3605.75 1162.24C3609.53 1163.5 3611.42 1166.65 3611.42 1171.7C3611.42 1175.48 3609.53 1180.53 3605.75 1186.84C3511.12 1287.78 3417.75 1338.25 3325.64 1338.25ZM3790.01 851.851C3778.65 851.851 3767.93 847.435 3757.83 838.603C3749 828.509 3744.59 817.785 3744.59 806.429C3744.59 791.288 3751.53 778.671 3765.4 768.577C3775.5 759.745 3786.85 755.329 3799.47 755.329C3828.49 755.329 3843 767.946 3843 793.181C3843 832.294 3825.34 851.851 3790.01 851.851ZM3663.2 1325C3590.02 1323.74 3557.22 1273.27 3564.79 1173.59C3566.05 1130.69 3589.39 1075.81 3634.82 1008.94C3642.39 995.058 3658.79 988.118 3684.02 988.118C3702.95 988.118 3712.41 993.796 3712.41 1005.15L3710.52 1014.61L3663.2 1096C3644.28 1131.32 3634.18 1158.45 3632.92 1177.38C3631.66 1183.69 3630.4 1190.63 3629.14 1198.2C3629.14 1204.5 3629.14 1210.81 3629.14 1217.12C3629.14 1268.85 3647.43 1294.72 3684.02 1294.72C3734.49 1294.72 3797.58 1254.97 3873.28 1175.48C3880.85 1166.65 3887.16 1162.24 3892.21 1162.24C3895.99 1163.5 3897.89 1166.65 3897.89 1171.7C3897.89 1175.48 3895.99 1180.53 3892.21 1186.84C3803.89 1281.47 3727.55 1327.52 3663.2 1325ZM3850.38 1326.89C3821.36 1326.89 3806.85 1307.97 3806.85 1270.11C3806.85 1239.83 3818.2 1207.03 3840.92 1171.7C3893.91 1092.21 3951.32 1038.59 4013.14 1010.83C4039.64 998.212 4065.5 991.903 4090.74 991.903C4103.36 991.903 4117.23 995.688 4132.38 1003.26C4147.52 1009.57 4155.09 1019.03 4155.09 1031.65C4155.09 1037.96 4150.67 1041.74 4141.84 1043C4136.79 1044.27 4133.01 1045.53 4130.48 1046.79C4129.22 1048.05 4127.96 1049.31 4126.7 1050.57C4097.68 1104.83 4083.17 1155.3 4083.17 1201.98C4083.17 1261.28 4106.51 1290.93 4153.19 1290.93C4202.4 1290.93 4263.6 1252.45 4336.78 1175.48C4343.08 1167.91 4348.13 1164.13 4351.92 1164.13C4355.7 1164.13 4357.59 1166.65 4357.59 1171.7C4357.59 1176.75 4355.7 1182.42 4351.92 1188.73C4267.38 1279.58 4193.57 1325 4130.48 1325C4100.2 1325 4075.6 1311.75 4056.67 1285.26C4036.48 1257.5 4025.76 1224.06 4024.5 1184.95C3992.95 1226.59 3961.41 1261.28 3929.87 1289.04C3897.06 1314.28 3870.57 1326.89 3850.38 1326.89ZM3890.12 1270.11C3904 1270.11 3922.3 1260.65 3945.01 1241.73C3965.2 1224.06 3982.23 1207.03 3996.11 1190.63C4009.99 1172.96 4020.08 1155.3 4026.39 1137.63C4028.91 1116.18 4032.7 1097.26 4037.75 1080.86C4044.05 1063.19 4050.36 1047.42 4056.67 1033.54C3991.06 1032.28 3934.91 1077.7 3888.23 1169.81C3874.35 1195.04 3867.41 1217.75 3867.41 1237.94C3867.41 1259.39 3874.98 1270.11 3890.12 1270.11ZM4391.04 1325C4331.74 1322.48 4302.09 1287.15 4302.09 1219.01C4302.09 1201.35 4303.98 1179.9 4307.77 1154.67C4312.81 1129.43 4319.75 1100.41 4328.58 1067.61C4341.2 1024.71 4358.87 977.393 4381.58 925.662C4404.29 872.67 4432.68 815.261 4466.74 753.436C4553.8 591.935 4628.25 511.184 4690.07 511.184C4724.14 511.184 4741.17 531.372 4741.17 571.747C4741.17 589.411 4737.39 608.968 4729.81 630.418C4694.49 742.712 4589.13 873.931 4413.75 1024.08C4377.16 1090.95 4358.87 1157.19 4358.87 1222.8C4358.87 1273.27 4375.27 1298.5 4408.07 1298.5C4429.52 1298.5 4456.02 1289.04 4487.56 1270.11C4505.23 1260.02 4523.52 1247.4 4542.45 1232.26C4561.37 1215.86 4580.93 1196.93 4601.12 1175.48C4608.69 1166.65 4615 1162.24 4620.04 1162.24C4625.09 1163.5 4627.61 1166.65 4627.61 1171.7C4627.61 1176.75 4625.09 1181.79 4620.04 1186.84C4531.72 1281.47 4455.39 1327.52 4391.04 1325ZM4428.89 986.225C4454.13 960.991 4478.73 934.495 4502.7 906.736C4527.94 878.978 4552.54 849.328 4576.51 817.785C4604.27 781.194 4627.61 747.128 4646.54 715.584C4666.73 684.041 4681.87 654.391 4691.96 626.632C4700.8 603.921 4705.21 584.995 4705.21 569.855C4705.21 549.667 4698.27 539.573 4684.39 539.573C4662.94 539.573 4638.97 562.915 4612.47 609.599C4577.15 668.9 4544.34 730.094 4514.06 793.181C4483.78 856.267 4455.39 920.616 4428.89 986.225ZM4803.88 851.851C4792.52 851.851 4781.8 847.435 4771.7 838.603C4762.87 828.509 4758.46 817.785 4758.46 806.429C4758.46 791.288 4765.39 778.671 4779.27 768.577C4789.37 759.745 4800.72 755.329 4813.34 755.329C4842.36 755.329 4856.87 767.946 4856.87 793.181C4856.87 832.294 4839.21 851.851 4803.88 851.851ZM4677.07 1325C4603.89 1323.74 4571.09 1273.27 4578.66 1173.59C4579.92 1130.69 4603.26 1075.81 4648.68 1008.94C4656.25 995.058 4672.66 988.118 4697.89 988.118C4716.82 988.118 4726.28 993.796 4726.28 1005.15L4724.39 1014.61L4677.07 1096C4658.15 1131.32 4648.05 1158.45 4646.79 1177.38C4645.53 1183.69 4644.27 1190.63 4643.01 1198.2C4643.01 1204.5 4643.01 1210.81 4643.01 1217.12C4643.01 1268.85 4661.3 1294.72 4697.89 1294.72C4748.36 1294.72 4811.45 1254.97 4887.15 1175.48C4894.72 1166.65 4901.03 1162.24 4906.08 1162.24C4909.86 1163.5 4911.76 1166.65 4911.76 1171.7C4911.76 1175.48 4909.86 1180.53 4906.08 1186.84C4817.76 1281.47 4741.42 1327.52 4677.07 1325ZM4667.42 1906.03C4601.81 1906.03 4549.45 1892.15 4510.33 1864.39C4468.7 1835.37 4447.88 1796.26 4447.88 1747.05C4447.88 1695.32 4468.7 1644.85 4510.33 1595.64C4535.57 1567.88 4567.11 1541.39 4604.96 1516.15C4641.55 1490.92 4684.45 1467.58 4733.66 1446.13C4794.22 1420.89 4860.46 1396.29 4932.38 1372.31C5004.3 1349.6 5081.27 1328.15 5163.28 1307.97C5163.28 1280.21 5158.86 1257.5 5150.03 1239.83C5137.41 1215.86 5117.86 1203.87 5091.36 1203.87C5080 1203.87 5071.8 1204.5 5066.76 1205.77C5050.35 1214.6 5025.75 1224.06 4992.94 1234.16C4991.68 1234.16 4989.79 1234.79 4987.27 1236.05C4986.01 1236.05 4984.74 1236.05 4983.48 1236.05C4964.56 1236.05 4955.09 1228.48 4955.09 1213.34C4955.09 1184.32 4991.68 1164.13 5064.86 1152.77C5082.53 1143.94 5097.67 1135.11 5110.29 1126.28C5124.16 1117.45 5135.52 1108.61 5144.35 1099.78C5170.85 1074.55 5184.1 1049.94 5184.1 1025.97C5184.1 994.427 5165.8 978.655 5129.21 978.655C5093.88 978.655 5056.03 996.95 5015.66 1033.54L4924.81 1130.06C4875.6 1181.79 4845.95 1207.66 4835.86 1207.66C4830.81 1207.66 4828.29 1206.4 4828.29 1203.87C4828.29 1198.83 4833.34 1191.26 4843.43 1181.16C4858.57 1163.5 4878.76 1140.79 4903.99 1113.03C4929.23 1084.01 4959.51 1049.94 4994.84 1010.83C5046.57 957.837 5097.04 931.34 5146.24 931.34C5172.74 931.34 5193.56 938.911 5208.7 954.051C5225.1 969.192 5233.3 987.487 5233.3 1008.94C5233.3 1043 5214.38 1076.44 5176.53 1109.24L5115.96 1158.45C5136.15 1157.19 5157.6 1165.39 5180.31 1183.06C5213.12 1208.29 5230.78 1244.88 5233.3 1292.83C5274.94 1287.78 5303.96 1285.89 5320.36 1287.15C5378.4 1294.72 5407.42 1314.28 5407.42 1345.82C5407.42 1367.27 5395.44 1388.09 5371.46 1408.27C5370.2 1412.06 5367.05 1413.95 5362 1413.95C5358.22 1413.95 5356.32 1412.06 5356.32 1408.27C5356.32 1403.23 5358.22 1400.07 5362 1398.81C5377.14 1381.15 5384.71 1366.64 5384.71 1355.28C5384.71 1330.05 5359.48 1317.43 5309.01 1317.43C5300.18 1317.43 5288.82 1318.06 5274.94 1319.32C5262.32 1320.58 5247.81 1322.48 5231.41 1325C5217.53 1483.98 5159.49 1618.35 5057.29 1728.12C4950.05 1846.73 4820.09 1906.03 4667.42 1906.03ZM4701.48 1875.75C4836.49 1875.75 4947.52 1818.97 5034.58 1705.41C5114.07 1603.21 5156.97 1480.82 5163.28 1338.25C5047.2 1367.27 4970.86 1388.09 4934.27 1400.7C4906.52 1409.54 4876.87 1420.26 4845.32 1432.88C4815.04 1445.5 4782.24 1460.64 4746.91 1478.3C4590.45 1551.48 4512.23 1636.65 4512.23 1733.8C4512.23 1777.96 4529.89 1812.66 4565.22 1837.89C4600.55 1863.13 4645.97 1875.75 4701.48 1875.75ZM5615.33 851.851C5603.97 851.851 5593.25 847.435 5583.15 838.603C5574.32 828.509 5569.9 817.785 5569.9 806.429C5569.9 791.288 5576.84 778.671 5590.72 768.577C5600.82 759.745 5612.17 755.329 5624.79 755.329C5653.81 755.329 5668.32 767.946 5668.32 793.181C5668.32 832.294 5650.66 851.851 5615.33 851.851ZM5488.52 1325C5415.34 1323.74 5382.54 1273.27 5390.11 1173.59C5391.37 1130.69 5414.71 1075.81 5460.13 1008.94C5467.7 995.058 5484.11 988.118 5509.34 988.118C5528.27 988.118 5537.73 993.796 5537.73 1005.15L5535.84 1014.61L5488.52 1096C5469.6 1131.32 5459.5 1158.45 5458.24 1177.38C5456.98 1183.69 5455.72 1190.63 5454.46 1198.2C5454.46 1204.5 5454.46 1210.81 5454.46 1217.12C5454.46 1268.85 5472.75 1294.72 5509.34 1294.72C5559.81 1294.72 5622.9 1254.97 5698.6 1175.48C5706.17 1166.65 5712.48 1162.24 5717.53 1162.24C5721.31 1163.5 5723.21 1166.65 5723.21 1171.7C5723.21 1175.48 5721.31 1180.53 5717.53 1186.84C5629.21 1281.47 5552.87 1327.52 5488.52 1325ZM5647.31 1326.89C5638.48 1326.89 5630.91 1323.11 5624.6 1315.54C5618.29 1307.97 5615.77 1301.66 5617.03 1296.61L5673.81 1166.02C5706.61 1089.06 5723.01 1042.37 5723.01 1025.97C5726.8 1020.92 5739.42 1013.35 5760.86 1003.26C5765.91 1000.74 5770.33 998.843 5774.11 997.581C5777.9 996.319 5781.68 995.688 5785.47 995.688C5794.3 995.688 5798.72 1001.37 5798.72 1012.72C5789.88 1037.96 5776.64 1070.76 5758.97 1111.14C5742.57 1150.25 5721.12 1197.57 5694.62 1253.08L5897.13 1035.43C5914.8 1016.51 5928.04 1007.04 5936.88 1007.04C5943.18 1007.04 5946.34 1010.83 5946.34 1018.4C5946.34 1020.92 5945.71 1024.08 5944.45 1027.86C5944.45 1030.39 5943.82 1033.54 5942.55 1037.33C5916.06 1129.43 5902.81 1192.52 5902.81 1226.59C5902.81 1269.48 5917.32 1290.93 5946.34 1290.93C5972.84 1290.93 6004.38 1276.42 6040.97 1247.4C6047.28 1242.36 6056.74 1233.52 6069.36 1220.91C6083.24 1208.29 6099.64 1191.89 6118.57 1171.7C6123.61 1166.65 6128.66 1164.13 6133.71 1164.13C6137.49 1164.13 6139.38 1166.65 6139.38 1171.7C6140.65 1174.22 6139.38 1178.64 6135.6 1184.95C6056.11 1273.27 5985.45 1317.43 5923.63 1317.43C5868.11 1317.43 5840.35 1273.9 5840.35 1186.84C5840.35 1176.75 5840.35 1166.65 5840.35 1156.56C5841.62 1146.47 5842.88 1135.74 5844.14 1124.38L5755.19 1209.55C5745.09 1218.38 5735 1227.85 5724.91 1237.94C5716.07 1248.03 5707.87 1258.13 5700.3 1268.22L5662.45 1315.54C5658.66 1323.11 5653.62 1326.89 5647.31 1326.89ZM5693.17 1957.13C5635.14 1957.13 5588.45 1941.99 5553.12 1911.7C5517.79 1882.68 5500.13 1844.83 5500.13 1798.15C5500.13 1745.16 5527.89 1689.01 5583.4 1629.71C5643.97 1565.36 5732.29 1507.32 5848.37 1455.59C5964.45 1403.86 6115.85 1354.02 6302.59 1306.07L6332.87 1158.45L6304.48 1186.84C6284.3 1207.03 6267.26 1224.06 6253.38 1237.94C6240.77 1250.56 6229.41 1260.02 6219.32 1266.33C6180.2 1295.35 6147.4 1309.86 6120.9 1309.86C6085.57 1309.86 6067.91 1287.15 6067.91 1241.73C6067.91 1176.12 6117.12 1105.46 6215.53 1029.76C6296.28 966.669 6376.4 935.125 6455.89 935.125C6518.98 935.125 6550.52 953.421 6550.52 990.011C6550.52 1006.41 6541.69 1026.6 6524.02 1050.57C6520.24 1054.36 6517.08 1056.25 6514.56 1056.25C6509.51 1056.25 6506.99 1053.73 6506.99 1048.68C6506.99 1046.16 6508.25 1043.63 6510.78 1041.11C6523.39 1027.23 6529.7 1013.98 6529.7 1001.37C6529.7 976.132 6501.94 963.514 6446.43 963.514C6374.51 963.514 6301.96 998.212 6228.78 1067.61C6161.91 1131.96 6128.47 1184.95 6128.47 1226.59C6128.47 1242.99 6136.67 1251.19 6153.08 1251.19C6165.69 1251.19 6180.2 1246.77 6196.61 1237.94C6242.03 1217.75 6280.51 1189.36 6312.05 1152.77C6324.67 1136.37 6335.4 1111.77 6344.23 1078.96C6350.54 1052.47 6354.32 1029.76 6355.58 1010.83C6359.37 995.688 6373.88 988.118 6399.11 988.118C6421.82 988.118 6433.18 993.796 6433.18 1005.15C6433.18 1025.34 6428.13 1059.41 6418.04 1107.35C6407.94 1154.04 6394.07 1214.6 6376.4 1289.04C6385.23 1286.52 6393.44 1285.26 6401.01 1285.26C6408.58 1285.26 6416.15 1285.26 6423.72 1285.26C6428.76 1285.26 6433.81 1285.26 6438.86 1285.26C6443.9 1285.26 6448.95 1285.89 6454 1287.15C6513.3 1294.72 6542.95 1314.28 6542.95 1345.82C6542.95 1367.27 6530.96 1388.09 6506.99 1408.27C6505.73 1412.06 6502.57 1413.95 6497.53 1413.95C6492.48 1413.95 6489.96 1412.06 6489.96 1408.27C6489.96 1403.23 6491.85 1400.07 6495.64 1398.81C6512.04 1382.41 6520.24 1367.9 6520.24 1355.28C6520.24 1330.05 6494.37 1317.43 6442.64 1317.43C6433.81 1317.43 6423.09 1318.06 6410.47 1319.32C6397.85 1320.58 6383.34 1322.48 6366.94 1325C6318.99 1502.9 6242.03 1644.85 6136.04 1750.83C6076.74 1811.4 6009.24 1859.97 5933.53 1896.56C5849 1936.94 5768.88 1957.13 5693.17 1957.13ZM5734.81 1921.17C5839.54 1921.17 5943.63 1876.38 6047.09 1786.79C6168.22 1678.28 6250.86 1529.4 6295.02 1340.14C6252.12 1351.5 6214.27 1361.59 6181.46 1370.42C6149.92 1380.52 6122.79 1389.35 6100.08 1396.92C6053.4 1410.8 6009.87 1425.31 5969.49 1440.45C5929.12 1455.59 5891.9 1470.73 5857.83 1485.87C5760.68 1530.03 5686.87 1581.76 5636.4 1641.06C5592.24 1692.79 5570.16 1743.89 5570.16 1794.36C5570.16 1833.48 5585.3 1864.39 5615.58 1887.1C5645.86 1909.81 5685.6 1921.17 5734.81 1921.17ZM7338.03 851.851C7326.68 851.851 7315.95 847.435 7305.86 838.603C7297.03 828.509 7292.61 817.785 7292.61 806.429C7292.61 791.288 7299.55 778.671 7313.43 768.577C7323.52 759.745 7334.88 755.329 7347.5 755.329C7376.52 755.329 7391.03 767.946 7391.03 793.181C7391.03 832.294 7373.36 851.851 7338.03 851.851ZM7211.23 1325C7138.05 1323.74 7105.24 1273.27 7112.81 1173.59C7114.08 1130.69 7137.42 1075.81 7182.84 1008.94C7190.41 995.058 7206.81 988.118 7232.05 988.118C7250.97 988.118 7260.44 993.796 7260.44 1005.15L7258.54 1014.61L7211.23 1096C7192.3 1131.32 7182.21 1158.45 7180.95 1177.38C7179.69 1183.69 7178.42 1190.63 7177.16 1198.2C7177.16 1204.5 7177.16 1210.81 7177.16 1217.12C7177.16 1268.85 7195.46 1294.72 7232.05 1294.72C7282.52 1294.72 7345.6 1254.97 7421.31 1175.48C7428.88 1166.65 7435.19 1162.24 7440.23 1162.24C7444.02 1163.5 7445.91 1166.65 7445.91 1171.7C7445.91 1175.48 7444.02 1180.53 7440.23 1186.84C7351.91 1281.47 7275.58 1327.52 7211.23 1325ZM7370.01 1326.89C7361.18 1326.89 7353.61 1323.11 7347.3 1315.54C7340.99 1307.97 7338.47 1301.66 7339.73 1296.61L7396.51 1166.02C7429.32 1089.06 7445.72 1042.37 7445.72 1025.97C7449.5 1020.92 7462.12 1013.35 7483.57 1003.26C7488.62 1000.74 7493.03 998.843 7496.82 997.581C7500.6 996.319 7504.39 995.688 7508.17 995.688C7517.01 995.688 7521.42 1001.37 7521.42 1012.72C7512.59 1037.96 7499.34 1070.76 7481.68 1111.14C7465.27 1150.25 7443.83 1197.57 7417.33 1253.08L7619.84 1035.43C7637.5 1016.51 7650.75 1007.04 7659.58 1007.04C7665.89 1007.04 7669.04 1010.83 7669.04 1018.4C7669.04 1020.92 7668.41 1024.08 7667.15 1027.86C7667.15 1030.39 7666.52 1033.54 7665.26 1037.33C7638.76 1129.43 7625.51 1192.52 7625.51 1226.59C7625.51 1269.48 7640.02 1290.93 7669.04 1290.93C7695.54 1290.93 7727.08 1276.42 7763.67 1247.4C7769.98 1242.36 7779.45 1233.52 7792.06 1220.91C7805.94 1208.29 7822.34 1191.89 7841.27 1171.7C7846.32 1166.65 7851.36 1164.13 7856.41 1164.13C7860.2 1164.13 7862.09 1166.65 7862.09 1171.7C7863.35 1174.22 7862.09 1178.64 7858.3 1184.95C7778.81 1273.27 7708.16 1317.43 7646.33 1317.43C7590.82 1317.43 7563.06 1273.9 7563.06 1186.84C7563.06 1176.75 7563.06 1166.65 7563.06 1156.56C7564.32 1146.47 7565.58 1135.74 7566.84 1124.38L7477.89 1209.55C7467.8 1218.38 7457.7 1227.85 7447.61 1237.94C7438.78 1248.03 7430.58 1258.13 7423.01 1268.22L7385.15 1315.54C7381.37 1323.11 7376.32 1326.89 7370.01 1326.89Z" fill="#0097A7"/>
<path d="M485.283 2973.95H640.433C636.934 3021.39 623.13 3063 599.021 3098.77C574.912 3134.55 541.277 3162.55 498.115 3182.77C455.341 3202.6 404.208 3212.51 344.714 3212.51C297.275 3212.51 254.89 3204.93 217.561 3189.76C180.231 3174.6 148.346 3152.82 121.904 3124.44C95.8511 3095.66 75.8254 3061.06 61.8269 3020.62C48.2172 2980.18 41.4124 2934.49 41.4124 2883.55V2843.88C41.4124 2792.94 48.606 2747.25 62.9934 2706.81C77.3808 2665.99 97.7954 2631.38 124.237 2602.99C150.679 2574.22 182.37 2552.25 219.31 2537.08C256.64 2521.53 298.441 2513.75 344.714 2513.75C406.152 2513.75 457.869 2524.25 499.865 2545.25C542.249 2566.25 575.107 2595.22 598.438 2632.16C622.157 2668.71 636.35 2710.31 641.017 2756.98H486.449C484.505 2733.65 478.672 2712.84 468.951 2694.57C459.23 2676.29 444.259 2661.9 424.039 2651.4C404.208 2640.9 377.766 2635.66 344.714 2635.66C320.217 2635.66 298.636 2640.13 279.971 2649.07C261.306 2657.63 245.752 2670.65 233.309 2688.15C220.866 2705.26 211.534 2726.84 205.312 2752.89C199.09 2778.56 195.98 2808.69 195.98 2843.3V2883.55C195.98 2917.76 198.702 2947.9 204.145 2973.95C209.978 2999.62 218.922 3021.2 230.976 3038.7C243.03 3056.19 258.39 3069.42 277.054 3078.36C296.108 3087.3 318.661 3091.77 344.714 3091.77C375.433 3091.77 400.708 3087.5 420.54 3078.94C440.371 3070.39 455.536 3057.36 466.035 3039.86C476.923 3021.98 483.339 3000.01 485.283 2973.95ZM1315.3 2848.55V2878.88C1315.3 2930.6 1307.72 2977.06 1292.56 3018.28C1277.78 3059.11 1256.59 3094.11 1228.98 3123.27C1201.37 3152.05 1168.51 3174.21 1130.41 3189.76C1092.3 3204.93 1050.11 3212.51 1003.84 3212.51C957.562 3212.51 915.372 3204.93 877.265 3189.76C839.158 3174.21 806.106 3152.05 778.109 3123.27C750.112 3094.11 728.531 3059.11 713.366 3018.28C698.201 2977.06 690.618 2930.6 690.618 2878.88V2848.55C690.618 2796.83 698.201 2750.56 713.366 2709.73C728.531 2668.51 749.917 2633.32 777.526 2604.16C805.134 2575 837.992 2552.83 876.099 2537.67C914.206 2522.11 956.396 2514.33 1002.67 2514.33C1048.94 2514.33 1091.13 2522.11 1129.24 2537.67C1167.35 2552.83 1200.2 2575 1227.81 2604.16C1255.81 2633.32 1277.39 2668.51 1292.56 2709.73C1307.72 2750.56 1315.3 2796.83 1315.3 2848.55ZM1160.74 2878.88V2847.38C1160.74 2813.55 1157.04 2783.61 1149.65 2757.56C1142.65 2731.12 1132.35 2708.95 1118.74 2691.07C1105.52 2673.18 1088.99 2659.57 1069.16 2650.24C1049.72 2640.52 1027.56 2635.66 1002.67 2635.66C977.783 2635.66 955.424 2640.52 935.593 2650.24C916.15 2659.57 899.624 2673.18 886.014 2691.07C872.794 2708.95 862.683 2731.12 855.684 2757.56C848.685 2783.61 845.185 2813.55 845.185 2847.38V2878.88C845.185 2912.71 848.685 2942.85 855.684 2969.29C862.683 2995.34 872.988 3017.5 886.598 3035.78C900.596 3054.06 917.317 3068.05 936.759 3077.78C956.59 3087.11 978.949 3091.77 1003.84 3091.77C1028.72 3091.77 1050.89 3087.11 1070.33 3077.78C1089.77 3068.05 1106.1 3054.06 1119.32 3035.78C1132.93 3017.5 1143.24 2995.34 1150.24 2969.29C1157.24 2942.85 1160.74 2912.71 1160.74 2878.88ZM1993.67 2523.67V3203.18H1839.11L1551.55 2752.31V3203.18H1396.98V2523.67H1551.55L1839.11 2974.54V2523.67H1993.67ZM2478.4 3023.53C2478.4 3011.48 2476.06 3000.59 2471.4 2990.87C2467.12 2981.15 2459.92 2972.4 2449.81 2964.62C2439.7 2956.84 2425.71 2949.46 2407.82 2942.46C2390.32 2935.46 2368.35 2928.85 2341.91 2922.63C2300.3 2912.52 2263.95 2901.43 2232.84 2889.38C2201.73 2877.32 2175.68 2863.13 2154.68 2846.8C2134.07 2830.47 2118.52 2811.22 2108.02 2789.06C2097.91 2766.5 2092.85 2740.26 2092.85 2710.31C2092.85 2681.54 2099.07 2655.29 2111.52 2631.57C2124.35 2607.46 2142.24 2586.66 2165.18 2569.16C2188.51 2551.66 2215.92 2538.25 2247.42 2528.92C2279.3 2519.2 2314.11 2514.33 2351.83 2514.33C2406.65 2514.33 2454.68 2523.08 2495.89 2540.58C2537.5 2558.08 2569.77 2582.58 2592.72 2614.07C2615.66 2645.18 2627.13 2682.12 2627.13 2724.9H2472.56C2472.56 2707.01 2467.9 2690.87 2458.56 2676.48C2449.62 2661.71 2436.21 2649.85 2418.32 2640.9C2400.43 2631.96 2378.27 2627.49 2351.83 2627.49C2326.55 2627.49 2305.55 2631.38 2288.83 2639.16C2272.5 2646.54 2260.25 2656.26 2252.09 2668.32C2244.31 2679.98 2240.42 2692.43 2240.42 2705.65C2240.42 2716.54 2242.75 2726.45 2247.42 2735.4C2252.47 2743.95 2260.25 2751.92 2270.75 2759.31C2281.64 2766.31 2295.83 2773.11 2313.33 2779.72C2330.83 2785.95 2352.02 2792.36 2376.91 2798.97C2418.12 2808.3 2454.29 2819.39 2485.39 2832.22C2516.89 2844.66 2542.94 2859.63 2563.55 2877.13C2584.55 2894.63 2600.3 2915.04 2610.8 2938.37C2621.3 2961.7 2626.55 2988.73 2626.55 3019.45C2626.55 3049.78 2620.32 3077 2607.88 3101.11C2595.44 3124.83 2577.36 3145.05 2553.64 3161.77C2530.31 3178.1 2502.31 3190.74 2469.65 3199.68C2437.37 3208.23 2401.21 3212.51 2361.16 3212.51C2325.38 3212.51 2290.19 3208.23 2255.59 3199.68C2220.98 3191.13 2189.68 3177.9 2161.68 3160.02C2133.68 3141.74 2111.32 3118.61 2094.6 3090.61C2077.88 3062.61 2069.52 3029.17 2069.52 2990.29H2224.67C2224.67 3009.73 2227.78 3026.45 2234 3040.45C2240.61 3054.45 2249.95 3065.92 2262 3074.86C2274.44 3083.41 2289.61 3089.83 2307.5 3094.11C2325.38 3098 2345.6 3099.94 2368.16 3099.94C2394.6 3099.94 2415.99 3096.25 2432.32 3088.86C2448.65 3081.47 2460.31 3071.94 2467.31 3060.28C2474.7 3048.61 2478.4 3036.36 2478.4 3023.53ZM3201.68 3081.86V3203.18H2812.05V3081.86H3201.68ZM2863.96 2523.67V3203.18H2709.39V2523.67H2863.96ZM3151.51 2791.39V2912.71H2812.05V2791.39H3151.51ZM3201.68 2523.67V2645.57H2812.05V2523.67H3201.68ZM3262.36 2523.67H3538.25C3579.85 2523.67 3617.38 2528.14 3650.82 2537.08C3684.65 2545.64 3713.23 2558.66 3736.56 2576.16C3760.28 2593.27 3778.36 2614.66 3790.81 2640.32C3803.25 2665.6 3809.47 2694.95 3809.47 2728.4C3809.47 2766.5 3802.86 2798.78 3789.64 2825.22C3776.42 2851.66 3757.95 2873.44 3734.23 2890.55C3710.51 2907.27 3682.71 2921.07 3650.82 2931.96L3600.66 2960.54H3362.1L3360.93 2838.63H3540C3565.27 2838.63 3586.47 2834.75 3603.57 2826.97C3620.68 2819.19 3633.52 2808.11 3642.07 2793.72C3650.63 2779.33 3654.9 2762.42 3654.9 2742.98C3654.9 2722.76 3650.43 2705.45 3641.49 2691.07C3632.93 2676.29 3619.91 2665.01 3602.41 2657.24C3585.3 2649.46 3563.91 2645.57 3538.25 2645.57H3417.51V3203.18H3262.36V2523.67ZM3670.07 3203.18L3504.42 2902.79L3667.73 2901.63L3836.3 3196.18V3203.18H3670.07ZM4171.71 3024.12L4336.19 2523.67H4498.92L4246.36 3203.18H4133.21L4171.71 3024.12ZM3993.81 2523.67L4155.37 3022.37L4196.2 3203.18H4081.88L3830.49 2523.67H3993.81ZM4827.33 2681.73L4634.85 3203.18H4478.53L4749.75 2523.67H4854.74L4827.33 2681.73ZM5010.47 3203.18L4815.66 2681.15L4788.25 2523.67H4894.4L5166.21 3203.18H5010.47ZM5004.06 2950.62V3063.19H4622.02V2950.62H5004.06ZM5502.2 2523.67V3203.18H5347.63V2523.67H5502.2ZM5726.17 2523.67V2645.57H5127.74V2523.67H5726.17ZM6389.96 2848.55V2878.88C6389.96 2930.6 6382.38 2977.06 6367.21 3018.28C6352.44 3059.11 6331.24 3094.11 6303.64 3123.27C6276.03 3152.05 6243.17 3174.21 6205.06 3189.76C6166.96 3204.93 6124.77 3212.51 6078.49 3212.51C6032.22 3212.51 5990.03 3204.93 5951.92 3189.76C5913.82 3174.21 5880.76 3152.05 5852.77 3123.27C5824.77 3094.11 5803.19 3059.11 5788.02 3018.28C5772.86 2977.06 5765.28 2930.6 5765.28 2878.88V2848.55C5765.28 2796.83 5772.86 2750.56 5788.02 2709.73C5803.19 2668.51 5824.58 2633.32 5852.18 2604.16C5879.79 2575 5912.65 2552.83 5950.76 2537.67C5988.86 2522.11 6031.05 2514.33 6077.33 2514.33C6123.6 2514.33 6165.79 2522.11 6203.9 2537.67C6242 2552.83 6274.86 2575 6302.47 2604.16C6330.47 2633.32 6352.05 2668.51 6367.21 2709.73C6382.38 2750.56 6389.96 2796.83 6389.96 2848.55ZM6235.39 2878.88V2847.38C6235.39 2813.55 6231.7 2783.61 6224.31 2757.56C6217.31 2731.12 6207.01 2708.95 6193.4 2691.07C6180.18 2673.18 6163.65 2659.57 6143.82 2650.24C6124.38 2640.52 6102.21 2635.66 6077.33 2635.66C6052.44 2635.66 6030.08 2640.52 6010.25 2650.24C5990.81 2659.57 5974.28 2673.18 5960.67 2691.07C5947.45 2708.95 5937.34 2731.12 5930.34 2757.56C5923.34 2783.61 5919.84 2813.55 5919.84 2847.38V2878.88C5919.84 2912.71 5923.34 2942.85 5930.34 2969.29C5937.34 2995.34 5947.65 3017.5 5961.26 3035.78C5975.25 3054.06 5991.97 3068.05 6011.42 3077.78C6031.25 3087.11 6053.61 3091.77 6078.49 3091.77C6103.38 3091.77 6125.54 3087.11 6144.99 3077.78C6164.43 3068.05 6180.76 3054.06 6193.98 3035.78C6207.59 3017.5 6217.9 2995.34 6224.89 2969.29C6231.89 2942.85 6235.39 2912.71 6235.39 2878.88ZM6471.06 2523.67H6746.95C6788.55 2523.67 6826.08 2528.14 6859.52 2537.08C6893.35 2545.64 6921.93 2558.66 6945.26 2576.16C6968.98 2593.27 6987.06 2614.66 6999.5 2640.32C7011.95 2665.6 7018.17 2694.95 7018.17 2728.4C7018.17 2766.5 7011.56 2798.78 6998.34 2825.22C6985.12 2851.66 6966.65 2873.44 6942.93 2890.55C6919.21 2907.27 6891.4 2921.07 6859.52 2931.96L6809.36 2960.54H6570.8L6569.63 2838.63H6748.7C6773.97 2838.63 6795.16 2834.75 6812.27 2826.97C6829.38 2819.19 6842.22 2808.11 6850.77 2793.72C6859.32 2779.33 6863.6 2762.42 6863.6 2742.98C6863.6 2722.76 6859.13 2705.45 6850.19 2691.07C6841.63 2676.29 6828.61 2665.01 6811.11 2657.24C6794 2649.46 6772.61 2645.57 6746.95 2645.57H6626.21V3203.18H6471.06V2523.67ZM6878.77 3203.18L6713.12 2902.79L6876.43 2901.63L7045 3196.18V3203.18H6878.77ZM7491.23 3023.53C7491.23 3011.48 7488.89 3000.59 7484.23 2990.87C7479.95 2981.15 7472.76 2972.4 7462.65 2964.62C7452.54 2956.84 7438.54 2949.46 7420.65 2942.46C7403.15 2935.46 7381.18 2928.85 7354.74 2922.63C7313.13 2912.52 7276.78 2901.43 7245.67 2889.38C7214.56 2877.32 7188.51 2863.13 7167.51 2846.8C7146.9 2830.47 7131.35 2811.22 7120.85 2789.06C7110.74 2766.5 7105.68 2740.26 7105.68 2710.31C7105.68 2681.54 7111.9 2655.29 7124.35 2631.57C7137.18 2607.46 7155.07 2586.66 7178.01 2569.16C7201.34 2551.66 7228.75 2538.25 7260.25 2528.92C7292.14 2519.2 7326.94 2514.33 7364.66 2514.33C7419.48 2514.33 7467.51 2523.08 7508.72 2540.58C7550.33 2558.08 7582.61 2582.58 7605.55 2614.07C7628.49 2645.18 7639.96 2682.12 7639.96 2724.9H7485.39C7485.39 2707.01 7480.73 2690.87 7471.39 2676.48C7462.45 2661.71 7449.04 2649.85 7431.15 2640.9C7413.26 2631.96 7391.1 2627.49 7364.66 2627.49C7339.38 2627.49 7318.38 2631.38 7301.66 2639.16C7285.33 2646.54 7273.08 2656.26 7264.92 2668.32C7257.14 2679.98 7253.25 2692.43 7253.25 2705.65C7253.25 2716.54 7255.58 2726.45 7260.25 2735.4C7265.31 2743.95 7273.08 2751.92 7283.58 2759.31C7294.47 2766.31 7308.66 2773.11 7326.16 2779.72C7343.66 2785.95 7364.85 2792.36 7389.74 2798.97C7430.95 2808.3 7467.12 2819.39 7498.23 2832.22C7529.72 2844.66 7555.77 2859.63 7576.38 2877.13C7597.38 2894.63 7613.13 2915.04 7623.63 2938.37C7634.13 2961.7 7639.38 2988.73 7639.38 3019.45C7639.38 3049.78 7633.16 3077 7620.71 3101.11C7608.27 3124.83 7590.19 3145.05 7566.47 3161.77C7543.14 3178.1 7515.14 3190.74 7482.48 3199.68C7450.2 3208.23 7414.04 3212.51 7373.99 3212.51C7338.21 3212.51 7303.02 3208.23 7268.42 3199.68C7233.81 3191.13 7202.51 3177.9 7174.51 3160.02C7146.51 3141.74 7124.15 3118.61 7107.43 3090.61C7090.71 3062.61 7082.35 3029.17 7082.35 2990.29H7237.5C7237.5 3009.73 7240.61 3026.45 7246.83 3040.45C7253.45 3054.45 7262.78 3065.92 7274.83 3074.86C7287.28 3083.41 7302.44 3089.83 7320.33 3094.11C7338.21 3098 7358.43 3099.94 7380.99 3099.94C7407.43 3099.94 7428.82 3096.25 7445.15 3088.86C7461.48 3081.47 7473.14 3071.94 7480.14 3060.28C7487.53 3048.61 7491.23 3036.36 7491.23 3023.53ZM8211.01 2808.3V2930.21H7828.96V2808.3H8211.01ZM7876.79 2523.67V3203.18H7722.23V2523.67H7876.79ZM8319.5 2523.67V3203.18H8165.51V2523.67H8319.5ZM8587.83 2523.67V3203.18H8433.26V2523.67H8587.83ZM8987.39 2969.87H8801.33V2847.97H8987.39C9015.39 2847.97 9038.33 2843.88 9056.22 2835.72C9074.1 2827.55 9087.32 2816.47 9095.88 2802.47C9104.43 2788.08 9108.71 2771.95 9108.71 2754.06C9108.71 2734.62 9104.43 2716.73 9095.88 2700.4C9087.32 2684.07 9074.1 2670.85 9056.22 2660.74C9038.33 2650.63 9015.39 2645.57 8987.39 2645.57H8856.74V3203.18H8702.17V2523.67H8987.39C9044.94 2523.67 9094.13 2533.58 9134.96 2553.41C9176.18 2573.25 9207.67 2600.46 9229.45 2635.07C9251.61 2669.29 9262.7 2708.56 9262.7 2752.89C9262.7 2785.56 9256.47 2815.3 9244.03 2842.13C9231.59 2868.58 9213.51 2891.32 9189.79 2910.38C9166.07 2929.43 9137.1 2944.21 9102.88 2954.71C9069.05 2964.82 9030.55 2969.87 8987.39 2969.87Z" fill="#0097A7"/>
<path d="M0 3505.29H9298.56V4046.6C9298.56 4369.48 9036.82 4631.22 8713.94 4631.22H584.619C261.743 4631.22 0 4369.48 0 4046.6V3505.29Z" fill="#FE7702"/>
<path d="M487.562 3841.05V4078.34H661.518C672.778 4078.34 679.815 4076.65 682.63 4073.27C686.007 4069.9 687.696 4062.86 687.696 4052.16V3867.23C687.696 3855.97 686.007 3848.93 682.63 3846.12C679.815 3842.74 672.778 3841.05 661.518 3841.05H487.562ZM487.562 4128.16V4316.48H350.761V3791.23H756.941C801.416 3791.23 823.653 3813.47 823.653 3857.94V4061.45C823.653 4105.93 801.416 4128.16 756.941 4128.16H715.563L834.631 4316.48H692.763L579.607 4128.16H487.562ZM1088.84 4266.65H1361.59V4316.48H947.813V3791.23H1350.62V3841.05H1088.84V4022.61H1315.99V4072.43H1088.84V4266.65ZM1598.32 4162.79H1799.3L1698.81 3873.98L1598.32 4162.79ZM1852.5 4316.48L1816.19 4212.61H1580.58L1544.27 4316.48H1411.69L1612.67 3791.23H1784.94L1986.76 4316.48H1852.5ZM2209.45 4266.65H2462.78V4316.48H2072.65V3791.23H2209.45V4266.65ZM2922.88 4266.65H3195.63V4316.48H2781.85V3791.23H3184.66V3841.05H2922.88V4022.61H3150.03V4072.43H2922.88V4266.65ZM3602.94 4240.48V4102.83C3602.94 4092.13 3601.25 4085.1 3597.87 4081.72C3595.05 4078.34 3588.02 4076.65 3576.76 4076.65H3348.76C3304.28 4076.65 3282.05 4054.42 3282.05 4009.94V3857.94C3282.05 3813.47 3304.28 3791.23 3348.76 3791.23H3669.65C3714.12 3791.23 3736.36 3813.47 3736.36 3857.94V3951.67H3600.4V3867.23C3600.4 3855.97 3598.71 3848.93 3595.34 3846.12C3591.96 3842.74 3584.92 3841.05 3574.23 3841.05H3445.02C3433.76 3841.05 3426.45 3842.74 3423.07 3846.12C3420.25 3848.93 3418.85 3855.97 3418.85 3867.23V4000.65C3418.85 4011.91 3420.25 4019.23 3423.07 4022.61C3426.45 4025.42 3433.76 4026.83 3445.02 4026.83H3672.18C3716.66 4026.83 3738.89 4049.07 3738.89 4093.54V4249.76C3738.89 4294.24 3716.66 4316.48 3672.18 4316.48H3351.29C3306.82 4316.48 3284.58 4294.24 3284.58 4249.76V4156.03H3420.54V4240.48C3420.54 4251.74 3421.94 4259.05 3424.76 4262.43C3428.14 4265.25 3435.45 4266.65 3446.71 4266.65H3576.76C3588.02 4266.65 3595.05 4265.25 3597.87 4262.43C3601.25 4259.05 3602.94 4251.74 3602.94 4240.48ZM4279.3 3791.23V3841.05H4107.03V4316.48H3971.07V3841.05H3800.49V3791.23H4279.3ZM4489.57 4162.79H4690.55L4590.06 3873.98L4489.57 4162.79ZM4743.75 4316.48L4707.44 4212.61H4471.84L4435.52 4316.48H4302.95L4503.93 3791.23H4676.19L4878.02 4316.48H4743.75ZM5380.21 3791.23V3841.05H5207.95V4316.48H5071.99V3841.05H4901.41V3791.23H5380.21ZM5597.24 4266.65H5870V4316.48H5456.22V3791.23H5859.02V3841.05H5597.24V4022.61H5824.4V4072.43H5597.24V4266.65ZM6509.03 4240.48V4102.83C6509.03 4092.13 6507.34 4085.1 6503.97 4081.72C6501.15 4078.34 6494.11 4076.65 6482.85 4076.65H6254.85C6210.38 4076.65 6188.14 4054.42 6188.14 4009.94V3857.94C6188.14 3813.47 6210.38 3791.23 6254.85 3791.23H6575.74C6620.22 3791.23 6642.46 3813.47 6642.46 3857.94V3951.67H6506.5V3867.23C6506.5 3855.97 6504.81 3848.93 6501.43 3846.12C6498.06 3842.74 6491.02 3841.05 6480.32 3841.05H6351.12C6339.86 3841.05 6332.54 3842.74 6329.16 3846.12C6326.35 3848.93 6324.94 3855.97 6324.94 3867.23V4000.65C6324.94 4011.91 6326.35 4019.23 6329.16 4022.61C6332.54 4025.42 6339.86 4026.83 6351.12 4026.83H6578.28C6622.75 4026.83 6644.99 4049.07 6644.99 4093.54V4249.76C6644.99 4294.24 6622.75 4316.48 6578.28 4316.48H6257.39C6212.91 4316.48 6190.68 4294.24 6190.68 4249.76V4156.03H6326.63V4240.48C6326.63 4251.74 6328.04 4259.05 6330.85 4262.43C6334.23 4265.25 6341.55 4266.65 6352.81 4266.65H6482.85C6494.11 4266.65 6501.15 4265.25 6503.97 4262.43C6507.34 4259.05 6509.03 4251.74 6509.03 4240.48ZM6903.35 4162.79H7104.32L7003.83 3873.98L6903.35 4162.79ZM7157.52 4316.48L7121.21 4212.61H6885.61L6849.3 4316.48H6716.72L6917.7 3791.23H7089.97L7291.79 4316.48H7157.52ZM7514.48 4266.65H7767.81V4316.48H7377.68V3791.23H7514.48V4266.65ZM7996.18 4266.65H8268.93V4316.48H7855.15V3791.23H8257.96V3841.05H7996.18V4022.61H8223.33V4072.43H7996.18V4266.65ZM8676.24 4240.48V4102.83C8676.24 4092.13 8674.55 4085.1 8671.17 4081.72C8668.35 4078.34 8661.32 4076.65 8650.06 4076.65H8422.06C8377.58 4076.65 8355.34 4054.42 8355.34 4009.94V3857.94C8355.34 3813.47 8377.58 3791.23 8422.06 3791.23H8742.95C8787.42 3791.23 8809.66 3813.47 8809.66 3857.94V3951.67H8673.7V3867.23C8673.7 3855.97 8672.01 3848.93 8668.64 3846.12C8665.26 3842.74 8658.22 3841.05 8647.52 3841.05H8518.32C8507.06 3841.05 8499.75 3842.74 8496.37 3846.12C8493.55 3848.93 8492.15 3855.97 8492.15 3867.23V4000.65C8492.15 4011.91 8493.55 4019.23 8496.37 4022.61C8499.75 4025.42 8507.06 4026.83 8518.32 4026.83H8745.48C8789.95 4026.83 8812.19 4049.07 8812.19 4093.54V4249.76C8812.19 4294.24 8789.95 4316.48 8745.48 4316.48H8424.59C8380.11 4316.48 8357.88 4294.24 8357.88 4249.76V4156.03H8493.83V4240.48C8493.83 4251.74 8495.24 4259.05 8498.06 4262.43C8501.43 4265.25 8508.75 4266.65 8520.01 4266.65H8650.06C8661.32 4266.65 8668.35 4265.25 8671.17 4262.43C8674.55 4259.05 8676.24 4251.74 8676.24 4240.48Z" fill="white"/>
<path d="M79.3517 5136.82C65.1546 5136.82 51.549 5134.96 38.535 5131.24C25.521 5127.35 15.0422 5122.37 7.09855 5116.28L21.0421 5085.35C28.6477 5090.76 37.6054 5095.24 47.9152 5098.79C58.3941 5102.17 68.9574 5103.86 79.6052 5103.86C87.7178 5103.86 94.2248 5103.1 99.1262 5101.58C104.197 5099.89 107.915 5097.6 110.281 5094.73C112.647 5091.86 113.83 5088.56 113.83 5084.84C113.83 5080.11 111.971 5076.39 108.253 5073.69C104.535 5070.82 99.6333 5068.53 93.5488 5066.84C87.4643 5064.99 80.7038 5063.29 73.2672 5061.77C65.9996 5060.08 58.6476 5058.06 51.211 5055.69C43.9434 5053.32 37.2674 5050.28 31.1829 5046.56C25.0985 5042.84 20.1126 5037.94 16.2253 5031.86C12.507 5025.77 10.6478 5018 10.6478 5008.53C10.6478 4998.39 13.352 4989.18 18.7605 4980.9C24.3379 4972.45 32.6195 4965.77 43.6054 4960.87C54.7603 4955.8 68.7039 4953.27 85.4362 4953.27C96.591 4953.27 107.577 4954.62 118.394 4957.32C129.211 4959.86 138.76 4963.75 147.041 4968.99L134.365 5000.17C126.084 4995.44 117.802 4991.97 109.521 4989.77C101.239 4987.41 93.1263 4986.22 85.1826 4986.22C77.239 4986.22 70.732 4987.15 65.6616 4989.01C60.5912 4990.87 56.9574 4993.32 54.7603 4996.37C52.5631 4999.24 51.4645 5002.62 51.4645 5006.51C51.4645 5011.07 53.3237 5014.79 57.0419 5017.66C60.7602 5020.37 65.6616 5022.56 71.7461 5024.25C77.8306 5025.94 84.5066 5027.63 91.7742 5029.32C99.2107 5031.01 106.563 5032.96 113.83 5035.15C121.267 5037.35 128.027 5040.31 134.112 5044.03C140.196 5047.75 145.098 5052.65 148.816 5058.73C152.703 5064.82 154.647 5072.51 154.647 5081.8C154.647 5091.77 151.858 5100.9 146.281 5109.18C140.703 5117.46 132.337 5124.14 121.182 5129.21C110.197 5134.28 96.253 5136.82 79.3517 5136.82ZM235.696 5135.8C219.64 5135.8 207.133 5131.75 198.175 5123.63C189.217 5115.35 184.739 5103.1 184.739 5086.87V4967.21H224.288V5086.37C224.288 5092.11 225.809 5096.59 228.851 5099.8C231.893 5102.84 236.034 5104.37 241.274 5104.37C247.527 5104.37 252.851 5102.68 257.245 5099.29L267.893 5127.18C263.837 5130.06 258.935 5132.25 253.189 5133.77C247.612 5135.13 241.781 5135.8 235.696 5135.8ZM163.697 5030.84V5000.42H258.259V5030.84H163.697ZM290.094 5133.77V4997.38H327.868V5035.91L322.544 5024.76C326.601 5015.13 333.108 5007.86 342.065 5002.96C351.023 4997.89 361.925 4995.35 374.77 4995.35V5031.86C373.079 5031.69 371.558 5031.6 370.206 5031.6C368.854 5031.44 367.417 5031.35 365.896 5031.35C355.08 5031.35 346.291 5034.48 339.53 5040.73C332.939 5046.82 329.643 5056.37 329.643 5069.38V5133.77H290.094ZM456.825 5135.8C445.501 5135.8 435.36 5133.6 426.402 5129.21C417.614 5124.82 410.769 5118.14 405.867 5109.18C400.966 5100.06 398.515 5088.48 398.515 5074.45V4997.38H438.064V5068.62C438.064 5079.94 440.43 5088.31 445.163 5093.72C450.064 5098.96 456.909 5101.58 465.698 5101.58C471.782 5101.58 477.191 5100.31 481.923 5097.77C486.656 5095.07 490.374 5091.01 493.078 5085.6C495.782 5080.03 497.134 5073.1 497.134 5064.82V4997.38H536.683V5133.77H499.163V5096.25L506.008 5107.15C501.444 5116.62 494.684 5123.8 485.726 5128.7C476.937 5133.44 467.304 5135.8 456.825 5135.8ZM639.238 5135.8C624.534 5135.8 611.435 5132.84 599.943 5126.93C588.45 5120.84 579.407 5112.48 572.816 5101.83C566.393 5091.18 563.182 5079.1 563.182 5065.58C563.182 5051.89 566.393 5039.8 572.816 5029.32C579.407 5018.68 588.45 5010.39 599.943 5004.48C611.435 4998.39 624.534 4995.35 639.238 4995.35C653.604 4995.35 666.111 4998.39 676.759 5004.48C687.407 5010.39 695.266 5018.93 700.336 5030.08L669.661 5046.56C666.111 5040.14 661.632 5035.41 656.224 5032.37C650.985 5029.32 645.238 5027.8 638.985 5027.8C632.224 5027.8 626.14 5029.32 620.731 5032.37C615.323 5035.41 611.013 5039.72 607.802 5045.3C604.759 5050.87 603.238 5057.63 603.238 5065.58C603.238 5073.52 604.759 5080.28 607.802 5085.86C611.013 5091.44 615.323 5095.75 620.731 5098.79C626.14 5101.83 632.224 5103.35 638.985 5103.35C645.238 5103.35 650.985 5101.91 656.224 5099.04C661.632 5096 666.111 5091.18 669.661 5084.59L700.336 5101.32C695.266 5112.31 687.407 5120.84 676.759 5126.93C666.111 5132.84 653.604 5135.8 639.238 5135.8ZM780.863 5135.8C764.806 5135.8 752.299 5131.75 743.342 5123.63C734.384 5115.35 729.905 5103.1 729.905 5086.87V4967.21H769.454V5086.37C769.454 5092.11 770.975 5096.59 774.018 5099.8C777.06 5102.84 781.201 5104.37 786.44 5104.37C792.694 5104.37 798.017 5102.68 802.412 5099.29L813.06 5127.18C809.003 5130.06 804.102 5132.25 798.355 5133.77C792.778 5135.13 786.947 5135.8 780.863 5135.8ZM708.863 5030.84V5000.42H803.426V5030.84H708.863ZM892.809 5135.8C881.486 5135.8 871.345 5133.6 862.387 5129.21C853.598 5124.82 846.753 5118.14 841.852 5109.18C836.951 5100.06 834.5 5088.48 834.5 5074.45V4997.38H874.049V5068.62C874.049 5079.94 876.415 5088.31 881.148 5093.72C886.049 5098.96 892.894 5101.58 901.683 5101.58C907.767 5101.58 913.176 5100.31 917.908 5097.77C922.64 5095.07 926.359 5091.01 929.063 5085.6C931.767 5080.03 933.119 5073.1 933.119 5064.82V4997.38H972.668V5133.77H935.147V5096.25L941.992 5107.15C937.429 5116.62 930.668 5123.8 921.711 5128.7C912.922 5133.44 903.288 5135.8 892.809 5135.8ZM1009.31 5133.77V4997.38H1047.08V5035.91L1041.76 5024.76C1045.81 5015.13 1052.32 5007.86 1061.28 5002.96C1070.24 4997.89 1081.14 4995.35 1093.98 4995.35V5031.86C1092.29 5031.69 1090.77 5031.6 1089.42 5031.6C1088.07 5031.44 1086.63 5031.35 1085.11 5031.35C1074.29 5031.35 1065.5 5034.48 1058.74 5040.73C1052.15 5046.82 1048.86 5056.37 1048.86 5069.38V5133.77H1009.31ZM1184.2 5135.8C1168.65 5135.8 1154.96 5132.76 1143.13 5126.67C1131.47 5120.59 1122.42 5112.31 1116 5101.83C1109.58 5091.18 1106.37 5079.1 1106.37 5065.58C1106.37 5051.89 1109.49 5039.8 1115.75 5029.32C1122.17 5018.68 1130.88 5010.39 1141.86 5004.48C1152.85 4998.39 1165.27 4995.35 1179.13 4995.35C1192.48 4995.35 1204.48 4998.22 1215.13 5003.97C1225.94 5009.55 1234.48 5017.66 1240.73 5028.31C1246.99 5038.79 1250.11 5051.38 1250.11 5066.08C1250.11 5067.6 1250.03 5069.38 1249.86 5071.41C1249.69 5073.27 1249.52 5075.04 1249.35 5076.73H1138.57V5053.66H1228.56L1213.35 5060.51C1213.35 5053.41 1211.92 5047.24 1209.04 5042C1206.17 5036.76 1202.2 5032.7 1197.13 5029.83C1192.06 5026.79 1186.14 5025.27 1179.38 5025.27C1172.62 5025.27 1166.62 5026.79 1161.38 5029.83C1156.31 5032.7 1152.34 5036.84 1149.47 5042.25C1146.59 5047.49 1145.16 5053.75 1145.16 5061.01V5067.1C1145.16 5074.53 1146.76 5081.13 1149.97 5086.87C1153.35 5092.45 1158 5096.76 1163.92 5099.8C1170 5102.68 1177.1 5104.11 1185.21 5104.11C1192.48 5104.11 1198.82 5103.01 1204.23 5100.82C1209.8 5098.62 1214.87 5095.32 1219.44 5090.93L1240.48 5113.75C1234.23 5120.84 1226.37 5126.34 1216.9 5130.22C1207.44 5133.94 1196.54 5135.8 1184.2 5135.8ZM1335.01 5135.8C1322.16 5135.8 1310.58 5132.93 1300.28 5127.18C1289.97 5121.27 1281.77 5113.07 1275.68 5102.59C1269.77 5092.11 1266.81 5079.77 1266.81 5065.58C1266.81 5051.21 1269.77 5038.79 1275.68 5028.31C1281.77 5017.83 1289.97 5009.72 1300.28 5003.97C1310.58 4998.22 1322.16 4995.35 1335.01 4995.35C1346.5 4995.35 1356.56 4997.89 1365.18 5002.96C1373.8 5008.03 1380.47 5015.72 1385.2 5026.03C1389.94 5036.34 1392.3 5049.52 1392.3 5065.58C1392.3 5081.46 1390.02 5094.65 1385.46 5105.13C1380.89 5115.44 1374.3 5123.13 1365.68 5128.2C1357.23 5133.27 1347.01 5135.8 1335.01 5135.8ZM1341.85 5103.35C1348.27 5103.35 1354.11 5101.83 1359.35 5098.79C1364.58 5095.75 1368.73 5091.44 1371.77 5085.86C1374.98 5080.11 1376.58 5073.35 1376.58 5065.58C1376.58 5057.63 1374.98 5050.87 1371.77 5045.3C1368.73 5039.72 1364.58 5035.41 1359.35 5032.37C1354.11 5029.32 1348.27 5027.8 1341.85 5027.8C1335.26 5027.8 1329.35 5029.32 1324.11 5032.37C1318.87 5035.41 1314.64 5039.72 1311.43 5045.3C1308.39 5050.87 1306.87 5057.63 1306.87 5065.58C1306.87 5073.35 1308.39 5080.11 1311.43 5085.86C1314.64 5091.44 1318.87 5095.75 1324.11 5098.79C1329.35 5101.83 1335.26 5103.35 1341.85 5103.35ZM1377.6 5133.77V5105.89L1378.36 5065.32L1375.82 5025.01V4945.66H1415.37V5133.77H1377.6ZM1528.59 5133.77V4994.34C1528.59 4978.96 1533.15 4966.7 1542.28 4957.58C1551.41 4948.28 1564.42 4943.63 1581.32 4943.63C1587.07 4943.63 1592.56 4944.23 1597.8 4945.41C1603.21 4946.59 1607.77 4948.45 1611.49 4950.99L1601.1 4979.63C1598.9 4978.11 1596.45 4976.93 1593.75 4976.08C1591.04 4975.24 1588.17 4974.82 1585.13 4974.82C1579.38 4974.82 1574.9 4976.51 1571.69 4979.89C1568.65 4983.1 1567.13 4988 1567.13 4994.59V5007.27L1568.14 5024.25V5133.77H1528.59ZM1507.55 5030.84V5000.42H1602.11V5030.84H1507.55ZM1684.98 5135.8C1670.45 5135.8 1657.52 5132.76 1646.19 5126.67C1635.04 5120.59 1626.17 5112.31 1619.58 5101.83C1613.15 5091.18 1609.94 5079.1 1609.94 5065.58C1609.94 5051.89 1613.15 5039.8 1619.58 5029.32C1626.17 5018.68 1635.04 5010.39 1646.19 5004.48C1657.52 4998.39 1670.45 4995.35 1684.98 4995.35C1699.35 4995.35 1712.19 4998.39 1723.52 5004.48C1734.84 5010.39 1743.72 5018.59 1750.14 5029.07C1756.56 5039.55 1759.77 5051.72 1759.77 5065.58C1759.77 5079.1 1756.56 5091.18 1750.14 5101.83C1743.72 5112.31 1734.84 5120.59 1723.52 5126.67C1712.19 5132.76 1699.35 5135.8 1684.98 5135.8ZM1684.98 5103.35C1691.57 5103.35 1697.49 5101.83 1702.73 5098.79C1707.97 5095.75 1712.11 5091.44 1715.15 5085.86C1718.19 5080.11 1719.72 5073.35 1719.72 5065.58C1719.72 5057.63 1718.19 5050.87 1715.15 5045.3C1712.11 5039.72 1707.97 5035.41 1702.73 5032.37C1697.49 5029.32 1691.57 5027.8 1684.98 5027.8C1678.39 5027.8 1672.48 5029.32 1667.24 5032.37C1662 5035.41 1657.77 5039.72 1654.56 5045.3C1651.52 5050.87 1650 5057.63 1650 5065.58C1650 5073.35 1651.52 5080.11 1654.56 5085.86C1657.77 5091.44 1662 5095.75 1667.24 5098.79C1672.48 5101.83 1678.39 5103.35 1684.98 5103.35ZM1786.21 5133.77V4997.38H1823.98V5035.91L1818.66 5024.76C1822.71 5015.13 1829.22 5007.86 1838.18 5002.96C1847.14 4997.89 1858.04 4995.35 1870.88 4995.35V5031.86C1869.19 5031.69 1867.67 5031.6 1866.32 5031.6C1864.97 5031.44 1863.53 5031.35 1862.01 5031.35C1851.19 5031.35 1842.4 5034.48 1835.64 5040.73C1829.05 5046.82 1825.76 5056.37 1825.76 5069.38V5133.77H1786.21ZM2022.96 5135.8C2006.9 5135.8 1994.4 5131.75 1985.44 5123.63C1976.48 5115.35 1972 5103.1 1972 5086.87V4967.21H2011.55V5086.37C2011.55 5092.11 2013.07 5096.59 2016.12 5099.8C2019.16 5102.84 2023.3 5104.37 2028.54 5104.37C2034.79 5104.37 2040.12 5102.68 2044.51 5099.29L2055.16 5127.18C2051.1 5130.06 2046.2 5132.25 2040.45 5133.77C2034.88 5135.13 2029.05 5135.8 2022.96 5135.8ZM1950.96 5030.84V5000.42H2045.52V5030.84H1950.96ZM2160.26 4995.35C2171.08 4995.35 2180.71 4997.55 2189.16 5001.94C2197.78 5006.17 2204.54 5012.76 2209.44 5021.72C2214.34 5030.51 2216.79 5041.83 2216.79 5055.69V5133.77H2177.25V5061.77C2177.25 5050.79 2174.79 5042.68 2169.89 5037.44C2165.16 5032.2 2158.4 5029.58 2149.61 5029.58C2143.36 5029.58 2137.7 5030.93 2132.63 5033.63C2127.72 5036.17 2123.84 5040.14 2120.96 5045.55C2118.26 5050.96 2116.91 5057.89 2116.91 5066.34V5133.77H2077.36V4945.66H2116.91V5035.15L2108.03 5023.75C2112.94 5014.62 2119.95 5007.61 2129.08 5002.7C2138.2 4997.8 2148.6 4995.35 2160.26 4995.35ZM2321.32 5135.8C2305.77 5135.8 2292.08 5132.76 2280.25 5126.67C2268.59 5120.59 2259.55 5112.31 2253.13 5101.83C2246.7 5091.18 2243.49 5079.1 2243.49 5065.58C2243.49 5051.89 2246.62 5039.8 2252.87 5029.32C2259.3 5018.68 2268 5010.39 2278.99 5004.48C2289.97 4998.39 2302.39 4995.35 2316.25 4995.35C2329.61 4995.35 2341.61 4998.22 2352.25 5003.97C2363.07 5009.55 2371.61 5017.66 2377.86 5028.31C2384.11 5038.79 2387.24 5051.38 2387.24 5066.08C2387.24 5067.6 2387.15 5069.38 2386.99 5071.41C2386.82 5073.27 2386.65 5075.04 2386.48 5076.73H2275.69V5053.66H2365.69L2350.48 5060.51C2350.48 5053.41 2349.04 5047.24 2346.17 5042C2343.3 5036.76 2339.32 5032.7 2334.25 5029.83C2329.18 5026.79 2323.27 5025.27 2316.51 5025.27C2309.75 5025.27 2303.75 5026.79 2298.51 5029.83C2293.44 5032.7 2289.46 5036.84 2286.59 5042.25C2283.72 5047.49 2282.28 5053.75 2282.28 5061.01V5067.1C2282.28 5074.53 2283.89 5081.13 2287.1 5086.87C2290.48 5092.45 2295.13 5096.76 2301.04 5099.8C2307.13 5102.68 2314.23 5104.11 2322.34 5104.11C2329.61 5104.11 2335.94 5103.01 2341.35 5100.82C2346.93 5098.62 2352 5095.32 2356.56 5090.93L2377.61 5113.75C2371.35 5120.84 2363.49 5126.34 2354.03 5130.22C2344.56 5133.94 2333.66 5135.8 2321.32 5135.8ZM2573.08 5136.82C2559.39 5136.82 2546.63 5134.62 2534.8 5130.22C2523.14 5125.66 2513 5119.24 2504.38 5110.96C2495.76 5102.68 2489 5092.96 2484.1 5081.8C2479.37 5070.65 2477 5058.39 2477 5045.04C2477 5031.69 2479.37 5019.44 2484.1 5008.28C2489 4997.13 2495.76 4987.41 2504.38 4979.13C2513.17 4970.84 2523.39 4964.51 2535.06 4960.11C2546.72 4955.55 2559.48 4953.27 2573.34 4953.27C2588.72 4953.27 2602.58 4955.97 2614.92 4961.38C2627.42 4966.62 2637.9 4974.39 2646.35 4984.7L2619.99 5009.04C2613.9 5002.11 2607.14 4996.96 2599.7 4993.58C2592.27 4990.03 2584.16 4988.25 2575.37 4988.25C2567.08 4988.25 2559.48 4989.61 2552.55 4992.31C2545.62 4995.01 2539.62 4998.9 2534.55 5003.97C2529.48 5009.04 2525.51 5015.04 2522.63 5021.97C2519.93 5028.9 2518.58 5036.59 2518.58 5045.04C2518.58 5053.49 2519.93 5061.18 2522.63 5068.11C2525.51 5075.04 2529.48 5081.04 2534.55 5086.11C2539.62 5091.18 2545.62 5095.07 2552.55 5097.77C2559.48 5100.48 2567.08 5101.83 2575.37 5101.83C2584.16 5101.83 2592.27 5100.14 2599.7 5096.76C2607.14 5093.21 2613.9 5087.89 2619.99 5080.79L2646.35 5105.13C2637.9 5115.44 2627.42 5123.29 2614.92 5128.7C2602.58 5134.11 2588.63 5136.82 2573.08 5136.82ZM2731.5 5135.8C2716.96 5135.8 2704.03 5132.76 2692.71 5126.67C2681.55 5120.59 2672.68 5112.31 2666.09 5101.83C2659.66 5091.18 2656.45 5079.1 2656.45 5065.58C2656.45 5051.89 2659.66 5039.8 2666.09 5029.32C2672.68 5018.68 2681.55 5010.39 2692.71 5004.48C2704.03 4998.39 2716.96 4995.35 2731.5 4995.35C2745.86 4995.35 2758.71 4998.39 2770.03 5004.48C2781.35 5010.39 2790.23 5018.59 2796.65 5029.07C2803.07 5039.55 2806.28 5051.72 2806.28 5065.58C2806.28 5079.1 2803.07 5091.18 2796.65 5101.83C2790.23 5112.31 2781.35 5120.59 2770.03 5126.67C2758.71 5132.76 2745.86 5135.8 2731.5 5135.8ZM2731.5 5103.35C2738.09 5103.35 2744 5101.83 2749.24 5098.79C2754.48 5095.75 2758.62 5091.44 2761.66 5085.86C2764.71 5080.11 2766.23 5073.35 2766.23 5065.58C2766.23 5057.63 2764.71 5050.87 2761.66 5045.3C2758.62 5039.72 2754.48 5035.41 2749.24 5032.37C2744 5029.32 2738.09 5027.8 2731.5 5027.8C2724.9 5027.8 2718.99 5029.32 2713.75 5032.37C2708.51 5035.41 2704.28 5039.72 2701.07 5045.3C2698.03 5050.87 2696.51 5057.63 2696.51 5065.58C2696.51 5073.35 2698.03 5080.11 2701.07 5085.86C2704.28 5091.44 2708.51 5095.75 2713.75 5098.79C2718.99 5101.83 2724.9 5103.35 2731.5 5103.35ZM2890.27 5135.8C2878.94 5135.8 2868.8 5133.6 2859.85 5129.21C2851.06 5124.82 2844.21 5118.14 2839.31 5109.18C2834.41 5100.06 2831.96 5088.48 2831.96 5074.45V4997.38H2871.51V5068.62C2871.51 5079.94 2873.87 5088.31 2878.61 5093.72C2883.51 5098.96 2890.35 5101.58 2899.14 5101.58C2905.23 5101.58 2910.63 5100.31 2915.37 5097.77C2920.1 5095.07 2923.82 5091.01 2926.52 5085.6C2929.23 5080.03 2930.58 5073.1 2930.58 5064.82V4997.38H2970.13V5133.77H2932.61V5096.25L2939.45 5107.15C2934.89 5116.62 2928.13 5123.8 2919.17 5128.7C2910.38 5133.44 2900.75 5135.8 2890.27 5135.8ZM3006.77 5133.77V4997.38H3044.54V5035.91L3039.22 5024.76C3043.27 5015.13 3049.78 5007.86 3058.74 5002.96C3067.7 4997.89 3078.6 4995.35 3091.44 4995.35V5031.86C3089.75 5031.69 3088.23 5031.6 3086.88 5031.6C3085.53 5031.44 3084.09 5031.35 3082.57 5031.35C3071.75 5031.35 3062.96 5034.48 3056.2 5040.73C3049.61 5046.82 3046.31 5056.37 3046.31 5069.38V5133.77H3006.77ZM3175.44 5135.8C3159.38 5135.8 3146.87 5131.75 3137.91 5123.63C3128.96 5115.35 3124.48 5103.1 3124.48 5086.87V4967.21H3164.03V5086.37C3164.03 5092.11 3165.55 5096.59 3168.59 5099.8C3171.63 5102.84 3175.77 5104.37 3181.01 5104.37C3187.27 5104.37 3192.59 5102.68 3196.98 5099.29L3207.63 5127.18C3203.58 5130.06 3198.68 5132.25 3192.93 5133.77C3187.35 5135.13 3181.52 5135.8 3175.44 5135.8ZM3103.44 5030.84V5000.42H3198V5030.84H3103.44ZM3225.46 5172.82L3242.2 5111.97L3247.77 5134.79C3240.51 5134.79 3234.51 5132.67 3229.77 5128.45C3225.21 5124.22 3222.93 5118.39 3222.93 5110.96C3222.93 5103.52 3225.3 5097.6 3230.03 5093.21C3234.76 5088.82 3240.59 5086.62 3247.52 5086.62C3254.62 5086.62 3260.45 5088.9 3265.01 5093.46C3269.58 5097.86 3271.86 5103.69 3271.86 5110.96C3271.86 5113.15 3271.69 5115.35 3271.35 5117.55C3271.01 5119.58 3270.34 5122.11 3269.32 5125.15C3268.48 5128.03 3267.04 5131.75 3265.01 5136.31L3250.56 5172.82H3225.46ZM3373.25 5133.77V4956.31H3459.95C3482.26 4956.31 3498.99 4960.53 3510.15 4968.99C3521.47 4977.44 3527.13 4988.59 3527.13 5002.45C3527.13 5011.75 3524.85 5019.86 3520.29 5026.79C3515.72 5033.55 3509.47 5038.79 3501.53 5042.51C3493.58 5046.22 3484.46 5048.08 3474.15 5048.08L3478.96 5037.69C3490.12 5037.69 3500.01 5039.55 3508.63 5043.27C3517.25 5046.82 3523.92 5052.14 3528.65 5059.24C3533.56 5066.34 3536.01 5075.04 3536.01 5085.35C3536.01 5100.56 3530.01 5112.48 3518.01 5121.1C3506.01 5129.55 3488.34 5133.77 3465.02 5133.77H3373.25ZM3414.06 5102.84H3461.98C3472.63 5102.84 3480.65 5101.15 3486.06 5097.77C3491.64 5094.22 3494.43 5088.65 3494.43 5081.04C3494.43 5073.6 3491.64 5068.11 3486.06 5064.56C3480.65 5060.84 3472.63 5058.99 3461.98 5058.99H3411.02V5029.07H3454.88C3464.85 5029.07 3472.46 5027.38 3477.7 5024C3483.11 5020.45 3485.81 5015.13 3485.81 5008.03C3485.81 5001.1 3483.11 4995.94 3477.7 4992.56C3472.46 4989.01 3464.85 4987.24 3454.88 4987.24H3414.06V5102.84ZM3621.86 5135.8C3610.54 5135.8 3600.4 5133.6 3591.44 5129.21C3582.65 5124.82 3575.8 5118.14 3570.9 5109.18C3566 5100.06 3563.55 5088.48 3563.55 5074.45V4997.38H3603.1V5068.62C3603.1 5079.94 3605.47 5088.31 3610.2 5093.72C3615.1 5098.96 3621.94 5101.58 3630.73 5101.58C3636.82 5101.58 3642.23 5100.31 3646.96 5097.77C3651.69 5095.07 3655.41 5091.01 3658.11 5085.6C3660.82 5080.03 3662.17 5073.1 3662.17 5064.82V4997.38H3701.72V5133.77H3664.2V5096.25L3671.04 5107.15C3666.48 5116.62 3659.72 5123.8 3650.76 5128.7C3641.97 5133.44 3632.34 5135.8 3621.86 5135.8ZM3738.36 5133.77V4997.38H3777.91V5133.77H3738.36ZM3758.13 4978.37C3750.87 4978.37 3744.95 4976.25 3740.39 4972.03C3735.82 4967.8 3733.54 4962.56 3733.54 4956.31C3733.54 4950.06 3735.82 4944.82 3740.39 4940.59C3744.95 4936.37 3750.87 4934.25 3758.13 4934.25C3765.4 4934.25 3771.32 4936.28 3775.88 4940.34C3780.44 4944.23 3782.72 4949.3 3782.72 4955.55C3782.72 4962.14 3780.44 4967.63 3775.88 4972.03C3771.49 4976.25 3765.57 4978.37 3758.13 4978.37ZM3814.61 5133.77V4945.66H3854.16V5133.77H3814.61ZM3956.79 5135.8C3940.74 5135.8 3928.23 5131.75 3919.27 5123.63C3910.31 5115.35 3905.83 5103.1 3905.83 5086.87V4967.21H3945.38V5086.37C3945.38 5092.11 3946.9 5096.59 3949.95 5099.8C3952.99 5102.84 3957.13 5104.37 3962.37 5104.37C3968.62 5104.37 3973.95 5102.68 3978.34 5099.29L3988.99 5127.18C3984.93 5130.06 3980.03 5132.25 3974.28 5133.77C3968.71 5135.13 3962.88 5135.8 3956.79 5135.8ZM3884.79 5030.84V5000.42H3979.35V5030.84H3884.79ZM4087.8 5133.77V4994.34C4087.8 4978.96 4092.37 4966.7 4101.49 4957.58C4110.62 4948.28 4123.63 4943.63 4140.54 4943.63C4146.28 4943.63 4151.78 4944.23 4157.01 4945.41C4162.42 4946.59 4166.99 4948.45 4170.7 4950.99L4160.31 4979.63C4158.11 4978.11 4155.66 4976.93 4152.96 4976.08C4150.25 4975.24 4147.38 4974.82 4144.34 4974.82C4138.59 4974.82 4134.11 4976.51 4130.9 4979.89C4127.86 4983.1 4126.34 4988 4126.34 4994.59V5007.27L4127.35 5024.25V5133.77H4087.8ZM4066.76 5030.84V5000.42H4161.32V5030.84H4066.76ZM4244.2 5135.8C4229.66 5135.8 4216.73 5132.76 4205.41 5126.67C4194.25 5120.59 4185.38 5112.31 4178.79 5101.83C4172.37 5091.18 4169.15 5079.1 4169.15 5065.58C4169.15 5051.89 4172.37 5039.8 4178.79 5029.32C4185.38 5018.68 4194.25 5010.39 4205.41 5004.48C4216.73 4998.39 4229.66 4995.35 4244.2 4995.35C4258.56 4995.35 4271.41 4998.39 4282.73 5004.48C4294.05 5010.39 4302.93 5018.59 4309.35 5029.07C4315.77 5039.55 4318.98 5051.72 4318.98 5065.58C4318.98 5079.1 4315.77 5091.18 4309.35 5101.83C4302.93 5112.31 4294.05 5120.59 4282.73 5126.67C4271.41 5132.76 4258.56 5135.8 4244.2 5135.8ZM4244.2 5103.35C4250.79 5103.35 4256.7 5101.83 4261.94 5098.79C4267.18 5095.75 4271.32 5091.44 4274.36 5085.86C4277.41 5080.11 4278.93 5073.35 4278.93 5065.58C4278.93 5057.63 4277.41 5050.87 4274.36 5045.3C4271.32 5039.72 4267.18 5035.41 4261.94 5032.37C4256.7 5029.32 4250.79 5027.8 4244.2 5027.8C4237.6 5027.8 4231.69 5029.32 4226.45 5032.37C4221.21 5035.41 4216.98 5039.72 4213.77 5045.3C4210.73 5050.87 4209.21 5057.63 4209.21 5065.58C4209.21 5073.35 4210.73 5080.11 4213.77 5085.86C4216.98 5091.44 4221.21 5095.75 4226.45 5098.79C4231.69 5101.83 4237.6 5103.35 4244.2 5103.35ZM4345.42 5133.77V4997.38H4383.19V5035.91L4377.87 5024.76C4381.93 5015.13 4388.43 5007.86 4397.39 5002.96C4406.35 4997.89 4417.25 4995.35 4430.1 4995.35V5031.86C4428.4 5031.69 4426.88 5031.6 4425.53 5031.6C4424.18 5031.44 4422.74 5031.35 4421.22 5031.35C4410.41 5031.35 4401.62 5034.48 4394.86 5040.73C4388.26 5046.82 4384.97 5056.37 4384.97 5069.38V5133.77H4345.42ZM4582.17 5135.8C4566.12 5135.8 4553.61 5131.75 4544.65 5123.63C4535.69 5115.35 4531.22 5103.1 4531.22 5086.87V4967.21H4570.76V5086.37C4570.76 5092.11 4572.29 5096.59 4575.33 5099.8C4578.37 5102.84 4582.51 5104.37 4587.75 5104.37C4594 5104.37 4599.33 5102.68 4603.72 5099.29L4614.37 5127.18C4610.31 5130.06 4605.41 5132.25 4599.67 5133.77C4594.09 5135.13 4588.26 5135.8 4582.17 5135.8ZM4510.17 5030.84V5000.42H4604.74V5030.84H4510.17ZM4719.47 4995.35C4730.29 4995.35 4739.92 4997.55 4748.37 5001.94C4756.99 5006.17 4763.75 5012.76 4768.66 5021.72C4773.56 5030.51 4776.01 5041.83 4776.01 5055.69V5133.77H4736.46V5061.77C4736.46 5050.79 4734.01 5042.68 4729.11 5037.44C4724.37 5032.2 4717.61 5029.58 4708.82 5029.58C4702.57 5029.58 4696.91 5030.93 4691.84 5033.63C4686.94 5036.17 4683.05 5040.14 4680.18 5045.55C4677.47 5050.96 4676.12 5057.89 4676.12 5066.34V5133.77H4636.57V4945.66H4676.12V5035.15L4667.25 5023.75C4672.15 5014.62 4679.16 5007.61 4688.29 5002.7C4697.42 4997.8 4707.81 4995.35 4719.47 4995.35ZM4880.54 5135.8C4864.99 5135.8 4851.3 5132.76 4839.47 5126.67C4827.8 5120.59 4818.76 5112.31 4812.34 5101.83C4805.92 5091.18 4802.71 5079.1 4802.71 5065.58C4802.71 5051.89 4805.83 5039.8 4812.09 5029.32C4818.51 5018.68 4827.21 5010.39 4838.2 5004.48C4849.18 4998.39 4861.61 4995.35 4875.47 4995.35C4888.82 4995.35 4900.82 4998.22 4911.47 5003.97C4922.28 5009.55 4930.82 5017.66 4937.07 5028.31C4943.32 5038.79 4946.45 5051.38 4946.45 5066.08C4946.45 5067.6 4946.37 5069.38 4946.2 5071.41C4946.03 5073.27 4945.86 5075.04 4945.69 5076.73H4834.9V5053.66H4924.9L4909.69 5060.51C4909.69 5053.41 4908.25 5047.24 4905.38 5042C4902.51 5036.76 4898.54 5032.7 4893.47 5029.83C4888.4 5026.79 4882.48 5025.27 4875.72 5025.27C4868.96 5025.27 4862.96 5026.79 4857.72 5029.83C4852.65 5032.7 4848.68 5036.84 4845.8 5042.25C4842.93 5047.49 4841.49 5053.75 4841.49 5061.01V5067.1C4841.49 5074.53 4843.1 5081.13 4846.31 5086.87C4849.69 5092.45 4854.34 5096.76 4860.25 5099.8C4866.34 5102.68 4873.44 5104.11 4881.55 5104.11C4888.82 5104.11 4895.16 5103.01 4900.56 5100.82C4906.14 5098.62 4911.21 5095.32 4915.78 5090.93L4936.82 5113.75C4930.56 5120.84 4922.71 5126.34 4913.24 5130.22C4903.78 5133.94 4892.87 5135.8 4880.54 5135.8ZM5112.27 5135.8C5096.72 5135.8 5083.03 5132.76 5071.2 5126.67C5059.54 5120.59 5050.5 5112.31 5044.07 5101.83C5037.65 5091.18 5034.44 5079.1 5034.44 5065.58C5034.44 5051.89 5037.57 5039.8 5043.82 5029.32C5050.24 5018.68 5058.95 5010.39 5069.93 5004.48C5080.92 4998.39 5093.34 4995.35 5107.2 4995.35C5120.55 4995.35 5132.55 4998.22 5143.2 5003.97C5154.02 5009.55 5162.55 5017.66 5168.8 5028.31C5175.06 5038.79 5178.18 5051.38 5178.18 5066.08C5178.18 5067.6 5178.1 5069.38 5177.93 5071.41C5177.76 5073.27 5177.59 5075.04 5177.42 5076.73H5066.64V5053.66H5156.64L5141.42 5060.51C5141.42 5053.41 5139.99 5047.24 5137.11 5042C5134.24 5036.76 5130.27 5032.7 5125.2 5029.83C5120.13 5026.79 5114.21 5025.27 5107.45 5025.27C5100.69 5025.27 5094.69 5026.79 5089.45 5029.83C5084.38 5032.7 5080.41 5036.84 5077.54 5042.25C5074.66 5047.49 5073.23 5053.75 5073.23 5061.01V5067.1C5073.23 5074.53 5074.83 5081.13 5078.04 5086.87C5081.42 5092.45 5086.07 5096.76 5091.99 5099.8C5098.07 5102.68 5105.17 5104.11 5113.28 5104.11C5120.55 5104.11 5126.89 5103.01 5132.3 5100.82C5137.87 5098.62 5142.95 5095.32 5147.51 5090.93L5168.55 5113.75C5162.3 5120.84 5154.44 5126.34 5144.97 5130.22C5135.51 5133.94 5124.61 5135.8 5112.27 5135.8ZM5250.4 5135.8C5238.74 5135.8 5227.5 5134.45 5216.68 5131.75C5206.04 5128.87 5197.59 5125.32 5191.33 5121.1L5204.51 5092.7C5210.77 5096.59 5218.12 5099.8 5226.57 5102.34C5235.19 5104.7 5243.64 5105.89 5251.92 5105.89C5261.05 5105.89 5267.47 5104.79 5271.19 5102.59C5275.08 5100.39 5277.02 5097.35 5277.02 5093.46C5277.02 5090.25 5275.5 5087.89 5272.46 5086.37C5269.58 5084.68 5265.7 5083.41 5260.8 5082.56C5255.89 5081.72 5250.49 5080.87 5244.57 5080.03C5238.82 5079.18 5232.99 5078.08 5227.08 5076.73C5221.16 5075.21 5215.75 5073.01 5210.85 5070.14C5205.95 5067.27 5201.98 5063.38 5198.94 5058.48C5196.06 5053.58 5194.63 5047.24 5194.63 5039.46C5194.63 5030.84 5197.08 5023.24 5201.98 5016.65C5207.05 5010.06 5214.32 5004.9 5223.78 5001.18C5233.25 4997.3 5244.57 4995.35 5257.75 4995.35C5267.05 4995.35 5276.51 4996.37 5286.15 4998.39C5295.78 5000.42 5303.81 5003.38 5310.23 5007.27L5297.05 5035.41C5290.46 5031.52 5283.78 5028.9 5277.02 5027.55C5270.43 5026.03 5264.01 5025.27 5257.75 5025.27C5248.97 5025.27 5242.54 5026.45 5238.49 5028.82C5234.43 5031.18 5232.4 5034.22 5232.4 5037.94C5232.4 5041.32 5233.84 5043.86 5236.71 5045.55C5239.75 5047.24 5243.73 5048.59 5248.63 5049.6C5253.53 5050.62 5258.85 5051.55 5264.6 5052.39C5270.51 5053.07 5276.43 5054.17 5282.35 5055.69C5288.26 5057.21 5293.58 5059.41 5298.32 5062.28C5303.22 5064.99 5307.19 5068.79 5310.23 5073.69C5313.27 5078.42 5314.8 5084.68 5314.8 5092.45C5314.8 5100.9 5312.26 5108.42 5307.19 5115.01C5302.12 5121.44 5294.77 5126.51 5285.13 5130.22C5275.67 5133.94 5264.09 5135.8 5250.4 5135.8ZM5394.97 5135.8C5378.92 5135.8 5366.41 5131.75 5357.45 5123.63C5348.49 5115.35 5344.01 5103.1 5344.01 5086.87V4967.21H5383.56V5086.37C5383.56 5092.11 5385.08 5096.59 5388.13 5099.8C5391.17 5102.84 5395.31 5104.37 5400.55 5104.37C5406.8 5104.37 5412.13 5102.68 5416.52 5099.29L5427.17 5127.18C5423.11 5130.06 5418.21 5132.25 5412.46 5133.77C5406.89 5135.13 5401.06 5135.8 5394.97 5135.8ZM5322.97 5030.84V5000.42H5417.53V5030.84H5322.97ZM5533.03 5133.77V5107.15L5530.5 5101.32V5053.66C5530.5 5045.21 5527.88 5038.62 5522.64 5033.89C5517.57 5029.15 5509.71 5026.79 5499.06 5026.79C5491.79 5026.79 5484.61 5027.97 5477.51 5030.34C5470.58 5032.53 5464.66 5035.58 5459.76 5039.46L5445.57 5011.83C5453 5006.59 5461.96 5002.53 5472.44 4999.66C5482.92 4996.79 5493.57 4995.35 5504.38 4995.35C5525.17 4995.35 5541.31 5000.25 5552.81 5010.06C5564.3 5019.86 5570.04 5035.15 5570.04 5055.94V5133.77H5533.03ZM5491.45 5135.8C5480.81 5135.8 5471.68 5134.03 5464.07 5130.48C5456.47 5126.76 5450.64 5121.77 5446.58 5115.52C5442.52 5109.27 5440.5 5102.25 5440.5 5094.48C5440.5 5086.37 5442.44 5079.27 5446.33 5073.18C5450.38 5067.1 5456.72 5062.37 5465.34 5058.99C5473.96 5055.44 5485.2 5053.66 5499.06 5053.66H5535.31V5076.73H5503.37C5494.07 5076.73 5487.65 5078.25 5484.1 5081.29C5480.72 5084.34 5479.03 5088.14 5479.03 5092.7C5479.03 5097.77 5480.97 5101.83 5484.86 5104.87C5488.92 5107.75 5494.41 5109.18 5501.34 5109.18C5507.93 5109.18 5513.85 5107.66 5519.09 5104.62C5524.33 5101.41 5528.13 5096.76 5530.5 5090.68L5536.58 5108.93C5533.71 5117.72 5528.47 5124.39 5520.86 5128.96C5513.26 5133.52 5503.45 5135.8 5491.45 5135.8ZM5661.61 5135.8C5645.56 5135.8 5633.05 5131.75 5624.09 5123.63C5615.13 5115.35 5610.66 5103.1 5610.66 5086.87V4967.21H5650.2V5086.37C5650.2 5092.11 5651.73 5096.59 5654.77 5099.8C5657.81 5102.84 5661.95 5104.37 5667.19 5104.37C5673.44 5104.37 5678.77 5102.68 5683.16 5099.29L5693.81 5127.18C5689.75 5130.06 5684.85 5132.25 5679.11 5133.77C5673.53 5135.13 5667.7 5135.8 5661.61 5135.8ZM5589.61 5030.84V5000.42H5684.18V5030.84H5589.61ZM5779.49 5135.8C5763.94 5135.8 5750.25 5132.76 5738.42 5126.67C5726.76 5120.59 5717.72 5112.31 5711.29 5101.83C5704.87 5091.18 5701.66 5079.1 5701.66 5065.58C5701.66 5051.89 5704.79 5039.8 5711.04 5029.32C5717.46 5018.68 5726.17 5010.39 5737.15 5004.48C5748.14 4998.39 5760.56 4995.35 5774.42 4995.35C5787.77 4995.35 5799.77 4998.22 5810.42 5003.97C5821.24 5009.55 5829.77 5017.66 5836.03 5028.31C5842.28 5038.79 5845.41 5051.38 5845.41 5066.08C5845.41 5067.6 5845.32 5069.38 5845.15 5071.41C5844.98 5073.27 5844.82 5075.04 5844.65 5076.73H5733.86V5053.66H5823.86L5808.65 5060.51C5808.65 5053.41 5807.21 5047.24 5804.34 5042C5801.46 5036.76 5797.49 5032.7 5792.42 5029.83C5787.35 5026.79 5781.44 5025.27 5774.67 5025.27C5767.91 5025.27 5761.91 5026.79 5756.67 5029.83C5751.6 5032.7 5747.63 5036.84 5744.76 5042.25C5741.89 5047.49 5740.45 5053.75 5740.45 5061.01V5067.1C5740.45 5074.53 5742.06 5081.13 5745.27 5086.87C5748.65 5092.45 5753.29 5096.76 5759.21 5099.8C5765.29 5102.68 5772.39 5104.11 5780.51 5104.11C5787.77 5104.11 5794.11 5103.01 5799.52 5100.82C5805.1 5098.62 5810.17 5095.32 5814.73 5090.93L5835.77 5113.75C5829.52 5120.84 5821.66 5126.34 5812.2 5130.22C5802.73 5133.94 5791.83 5135.8 5779.49 5135.8ZM5886.69 5135.8C5879.93 5135.8 5874.1 5133.52 5869.2 5128.96C5864.47 5124.22 5862.1 5118.22 5862.1 5110.96C5862.1 5103.69 5864.47 5097.86 5869.2 5093.46C5874.1 5088.9 5879.93 5086.62 5886.69 5086.62C5893.62 5086.62 5899.46 5088.9 5904.19 5093.46C5908.92 5097.86 5911.29 5103.69 5911.29 5110.96C5911.29 5118.22 5908.92 5124.22 5904.19 5128.96C5899.46 5133.52 5893.62 5135.8 5886.69 5135.8ZM6012.67 5133.77V4956.31H6089.49C6105.38 4956.31 6119.07 4958.93 6130.56 4964.17C6142.05 4969.24 6150.93 4976.59 6157.18 4986.22C6163.43 4995.86 6166.56 5007.35 6166.56 5020.7C6166.56 5033.89 6163.43 5045.3 6157.18 5054.93C6150.93 5064.56 6142.05 5072 6130.56 5077.24C6119.07 5082.31 6105.38 5084.84 6089.49 5084.84H6035.49L6053.74 5066.34V5133.77H6012.67ZM6053.74 5070.9L6035.49 5051.38H6087.21C6099.89 5051.38 6109.35 5048.68 6115.6 5043.27C6121.86 5037.86 6124.98 5030.34 6124.98 5020.7C6124.98 5010.9 6121.86 5003.3 6115.6 4997.89C6109.35 4992.48 6099.89 4989.77 6087.21 4989.77H6035.49L6053.74 4970.25V5070.9ZM6192.85 5133.77V4997.38H6230.62V5035.91L6225.3 5024.76C6229.35 5015.13 6235.86 5007.86 6244.82 5002.96C6253.77 4997.89 6264.68 4995.35 6277.52 4995.35V5031.86C6275.83 5031.69 6274.31 5031.6 6272.96 5031.6C6271.61 5031.44 6270.17 5031.35 6268.65 5031.35C6257.83 5031.35 6249.04 5034.48 6242.28 5040.73C6235.69 5046.82 6232.39 5056.37 6232.39 5069.38V5133.77H6192.85ZM6364.95 5135.8C6350.41 5135.8 6337.48 5132.76 6326.16 5126.67C6315 5120.59 6306.13 5112.31 6299.54 5101.83C6293.12 5091.18 6289.91 5079.1 6289.91 5065.58C6289.91 5051.89 6293.12 5039.8 6299.54 5029.32C6306.13 5018.68 6315 5010.39 6326.16 5004.48C6337.48 4998.39 6350.41 4995.35 6364.95 4995.35C6379.31 4995.35 6392.16 4998.39 6403.48 5004.48C6414.81 5010.39 6423.68 5018.59 6430.1 5029.07C6436.53 5039.55 6439.74 5051.72 6439.74 5065.58C6439.74 5079.1 6436.53 5091.18 6430.1 5101.83C6423.68 5112.31 6414.81 5120.59 6403.48 5126.67C6392.16 5132.76 6379.31 5135.8 6364.95 5135.8ZM6364.95 5103.35C6371.54 5103.35 6377.45 5101.83 6382.69 5098.79C6387.93 5095.75 6392.07 5091.44 6395.12 5085.86C6398.16 5080.11 6399.68 5073.35 6399.68 5065.58C6399.68 5057.63 6398.16 5050.87 6395.12 5045.3C6392.07 5039.72 6387.93 5035.41 6382.69 5032.37C6377.45 5029.32 6371.54 5027.8 6364.95 5027.8C6358.36 5027.8 6352.44 5029.32 6347.2 5032.37C6341.96 5035.41 6337.74 5039.72 6334.53 5045.3C6331.48 5050.87 6329.96 5057.63 6329.96 5065.58C6329.96 5073.35 6331.48 5080.11 6334.53 5085.86C6337.74 5091.44 6341.96 5095.75 6347.2 5098.79C6352.44 5101.83 6358.36 5103.35 6364.95 5103.35ZM6499.47 5133.77L6442.18 4997.38H6482.99L6530.65 5114.76H6510.37L6559.81 4997.38H6597.84L6540.29 5133.77H6499.47ZM6677.95 5135.8C6662.4 5135.8 6648.71 5132.76 6636.88 5126.67C6625.22 5120.59 6616.18 5112.31 6609.75 5101.83C6603.33 5091.18 6600.12 5079.1 6600.12 5065.58C6600.12 5051.89 6603.25 5039.8 6609.5 5029.32C6615.92 5018.68 6624.63 5010.39 6635.61 5004.48C6646.6 4998.39 6659.02 4995.35 6672.88 4995.35C6686.23 4995.35 6698.23 4998.22 6708.88 5003.97C6719.7 5009.55 6728.23 5017.66 6734.49 5028.31C6740.74 5038.79 6743.87 5051.38 6743.87 5066.08C6743.87 5067.6 6743.78 5069.38 6743.61 5071.41C6743.44 5073.27 6743.28 5075.04 6743.11 5076.73H6632.32V5053.66H6722.32L6707.11 5060.51C6707.11 5053.41 6705.67 5047.24 6702.8 5042C6699.92 5036.76 6695.95 5032.7 6690.88 5029.83C6685.81 5026.79 6679.9 5025.27 6673.13 5025.27C6666.37 5025.27 6660.37 5026.79 6655.13 5029.83C6650.06 5032.7 6646.09 5036.84 6643.22 5042.25C6640.35 5047.49 6638.91 5053.75 6638.91 5061.01V5067.1C6638.91 5074.53 6640.52 5081.13 6643.73 5086.87C6647.11 5092.45 6651.75 5096.76 6657.67 5099.8C6663.75 5102.68 6670.85 5104.11 6678.97 5104.11C6686.23 5104.11 6692.57 5103.01 6697.98 5100.82C6703.56 5098.62 6708.63 5095.32 6713.19 5090.93L6734.23 5113.75C6727.98 5120.84 6720.12 5126.34 6710.66 5130.22C6701.19 5133.94 6690.29 5135.8 6677.95 5135.8ZM6853.1 4995.35C6863.92 4995.35 6873.55 4997.55 6882 5001.94C6890.62 5006.17 6897.38 5012.76 6902.28 5021.72C6907.18 5030.51 6909.63 5041.83 6909.63 5055.69V5133.77H6870.08V5061.77C6870.08 5050.79 6867.63 5042.68 6862.73 5037.44C6858 5032.2 6851.24 5029.58 6842.45 5029.58C6836.2 5029.58 6830.53 5030.93 6825.46 5033.63C6820.56 5036.17 6816.68 5040.14 6813.8 5045.55C6811.1 5050.96 6809.75 5057.89 6809.75 5066.34V5133.77H6770.2V4997.38H6807.97V5035.15L6800.87 5023.75C6805.77 5014.62 6812.79 5007.61 6821.92 5002.7C6831.04 4997.8 6841.44 4995.35 6853.1 4995.35ZM7097.9 5135.8C7085.9 5135.8 7075.59 5133.27 7066.97 5128.2C7058.35 5123.13 7051.76 5115.44 7047.2 5105.13C7042.63 5094.65 7040.35 5081.46 7040.35 5065.58C7040.35 5049.52 7042.72 5036.34 7047.45 5026.03C7052.35 5015.72 7059.11 5008.03 7067.73 5002.96C7076.35 4997.89 7086.41 4995.35 7097.9 4995.35C7110.74 4995.35 7122.24 4998.22 7132.38 5003.97C7142.69 5009.72 7150.8 5017.83 7156.72 5028.31C7162.8 5038.79 7165.84 5051.21 7165.84 5065.58C7165.84 5079.77 7162.8 5092.11 7156.72 5102.59C7150.8 5113.07 7142.69 5121.27 7132.38 5127.18C7122.24 5132.93 7110.74 5135.8 7097.9 5135.8ZM7017.28 5133.77V4945.66H7056.83V5025.01L7054.29 5065.32L7055.05 5105.89V5133.77H7017.28ZM7091.05 5103.35C7097.65 5103.35 7103.48 5101.83 7108.55 5098.79C7113.79 5095.75 7117.93 5091.44 7120.97 5085.86C7124.18 5080.11 7125.79 5073.35 7125.79 5065.58C7125.79 5057.63 7124.18 5050.87 7120.97 5045.3C7117.93 5039.72 7113.79 5035.41 7108.55 5032.37C7103.48 5029.32 7097.65 5027.8 7091.05 5027.8C7084.46 5027.8 7078.55 5029.32 7073.31 5032.37C7068.07 5035.41 7063.93 5039.72 7060.89 5045.3C7057.84 5050.87 7056.32 5057.63 7056.32 5065.58C7056.32 5073.35 7057.84 5080.11 7060.89 5085.86C7063.93 5091.44 7068.07 5095.75 7073.31 5098.79C7078.55 5101.83 7084.46 5103.35 7091.05 5103.35ZM7205.84 5184.98C7198.74 5184.98 7191.73 5183.89 7184.8 5181.69C7177.87 5179.49 7172.21 5176.45 7167.82 5172.56L7182.27 5144.42C7185.31 5147.13 7188.77 5149.24 7192.66 5150.76C7196.72 5152.28 7200.69 5153.04 7204.58 5153.04C7210.15 5153.04 7214.55 5151.69 7217.76 5148.98C7221.14 5146.45 7224.18 5142.14 7226.89 5136.06L7233.98 5119.32L7237.03 5115.01L7285.96 4997.38H7323.98L7262.38 5142.14C7257.98 5153.13 7252.91 5161.75 7247.17 5168C7241.59 5174.25 7235.34 5178.65 7228.41 5181.18C7221.65 5183.72 7214.12 5184.98 7205.84 5184.98ZM7229.17 5139.1L7168.32 4997.38H7209.14L7256.29 5111.46L7229.17 5139.1Z" fill="#2A2A2A"/>
<path d="M7475.34 5136.82C7460.47 5136.82 7447.45 5134.62 7436.3 5130.22C7425.14 5125.66 7416.44 5119.32 7410.19 5111.21C7403.93 5102.93 7400.81 5093.29 7400.81 5082.31C7400.81 5071.32 7403.85 5062.03 7409.93 5054.42C7416.19 5046.65 7424.89 5040.82 7436.05 5036.93C7447.2 5032.87 7460.3 5030.84 7475.34 5030.84C7490.55 5030.84 7503.73 5032.87 7514.89 5036.93C7526.21 5040.82 7534.92 5046.65 7541 5054.42C7547.26 5062.03 7550.38 5071.32 7550.38 5082.31C7550.38 5093.29 7547.26 5102.93 7541 5111.21C7534.75 5119.32 7525.96 5125.66 7514.64 5130.22C7503.48 5134.62 7490.38 5136.82 7475.34 5136.82ZM7475.34 5106.65C7485.65 5106.65 7493.76 5104.37 7499.68 5099.8C7505.76 5095.24 7508.81 5088.98 7508.81 5081.04C7508.81 5073.1 7505.76 5066.93 7499.68 5062.53C7493.76 5057.97 7485.65 5055.69 7475.34 5055.69C7465.2 5055.69 7457.17 5057.97 7451.26 5062.53C7445.34 5066.93 7442.38 5073.1 7442.38 5081.04C7442.38 5088.98 7445.34 5095.24 7451.26 5099.8C7457.17 5104.37 7465.2 5106.65 7475.34 5106.65ZM7475.34 5051.63C7461.65 5051.63 7449.65 5049.77 7439.34 5046.06C7429.2 5042.34 7421.26 5036.93 7415.51 5029.83C7409.93 5022.56 7407.14 5013.94 7407.14 5003.97C7407.14 4993.49 7410.02 4984.53 7415.76 4977.1C7421.51 4969.49 7429.54 4963.66 7439.85 4959.61C7450.16 4955.38 7461.99 4953.27 7475.34 4953.27C7489.03 4953.27 7500.95 4955.38 7511.09 4959.61C7521.4 4963.66 7529.42 4969.49 7535.17 4977.1C7541.09 4984.53 7544.04 4993.49 7544.04 5003.97C7544.04 5013.94 7541.17 5022.56 7535.42 5029.83C7529.85 5036.93 7521.9 5042.34 7511.59 5046.06C7501.28 5049.77 7489.2 5051.63 7475.34 5051.63ZM7475.34 5027.55C7483.96 5027.55 7490.72 5025.61 7495.62 5021.72C7500.69 5017.83 7503.23 5012.51 7503.23 5005.75C7503.23 4998.65 7500.61 4993.15 7495.37 4989.27C7490.3 4985.38 7483.62 4983.44 7475.34 4983.44C7467.23 4983.44 7460.64 4985.38 7455.57 4989.27C7450.5 4993.15 7447.96 4998.65 7447.96 5005.75C7447.96 5012.51 7450.41 5017.83 7455.31 5021.72C7460.21 5025.61 7466.89 5027.55 7475.34 5027.55ZM7626.73 5136.82C7614.39 5136.82 7602.14 5135.21 7589.97 5132C7577.8 5128.62 7567.49 5123.89 7559.04 5117.8L7575.01 5086.37C7581.77 5091.27 7589.63 5095.15 7598.59 5098.03C7607.55 5100.9 7616.59 5102.34 7625.72 5102.34C7636.03 5102.34 7644.14 5100.31 7650.06 5096.25C7655.97 5092.2 7658.93 5086.62 7658.93 5079.52C7658.93 5072.76 7656.31 5067.44 7651.07 5063.55C7645.83 5059.66 7637.38 5057.72 7625.72 5057.72H7606.96V5030.59L7656.39 4974.56L7660.96 4989.27H7567.92V4956.31H7692.14V4982.93L7642.96 5038.96L7622.17 5027.04H7634.08C7655.89 5027.04 7672.37 5031.94 7683.52 5041.75C7694.67 5051.55 7700.25 5064.14 7700.25 5079.52C7700.25 5089.49 7697.63 5098.87 7692.39 5107.66C7687.15 5116.28 7679.13 5123.29 7668.31 5128.7C7657.49 5134.11 7643.63 5136.82 7626.73 5136.82ZM7775.53 5136.82C7763.19 5136.82 7750.93 5135.21 7738.77 5132C7726.6 5128.62 7716.29 5123.89 7707.84 5117.8L7723.81 5086.37C7730.57 5091.27 7738.43 5095.15 7747.38 5098.03C7756.34 5100.9 7765.38 5102.34 7774.51 5102.34C7784.82 5102.34 7792.93 5100.31 7798.85 5096.25C7804.76 5092.2 7807.72 5086.62 7807.72 5079.52C7807.72 5072.76 7805.1 5067.44 7799.86 5063.55C7794.62 5059.66 7786.17 5057.72 7774.51 5057.72H7755.75V5030.59L7805.19 4974.56L7809.75 4989.27H7716.71V4956.31H7840.93V4982.93L7791.75 5038.96L7770.96 5027.04H7782.88C7804.68 5027.04 7821.16 5031.94 7832.31 5041.75C7843.47 5051.55 7849.05 5064.14 7849.05 5079.52C7849.05 5089.49 7846.43 5098.87 7841.19 5107.66C7835.95 5116.28 7827.92 5123.29 7817.1 5128.7C7806.29 5134.11 7792.43 5136.82 7775.53 5136.82ZM7879.16 5133.77V4956.31H7955.98C7971.87 4956.31 7985.56 4958.93 7997.05 4964.17C8008.54 4969.24 8017.42 4976.59 8023.67 4986.22C8029.92 4995.86 8033.05 5007.35 8033.05 5020.7C8033.05 5033.89 8029.92 5045.3 8023.67 5054.93C8017.42 5064.56 8008.54 5072 7997.05 5077.24C7985.56 5082.31 7971.87 5084.84 7955.98 5084.84H7901.98L7920.23 5066.34V5133.77H7879.16ZM7920.23 5070.9L7901.98 5051.38H7953.7C7966.37 5051.38 7975.84 5048.68 7982.09 5043.27C7988.35 5037.86 7991.47 5030.34 7991.47 5020.7C7991.47 5010.9 7988.35 5003.3 7982.09 4997.89C7975.84 4992.48 7966.37 4989.77 7953.7 4989.77H7901.98L7920.23 4970.25V5070.9ZM8062.37 5133.77V4956.31H8139.19C8155.08 4956.31 8168.77 4958.93 8180.26 4964.17C8191.75 4969.24 8200.62 4976.59 8206.88 4986.22C8213.13 4995.86 8216.26 5007.35 8216.26 5020.7C8216.26 5033.89 8213.13 5045.3 8206.88 5054.93C8200.62 5064.39 8191.75 5071.66 8180.26 5076.73C8168.77 5081.8 8155.08 5084.34 8139.19 5084.34H8085.19L8103.44 5066.34V5133.77H8062.37ZM8175.19 5133.77L8130.82 5069.38H8174.68L8219.55 5133.77H8175.19ZM8103.44 5070.9L8085.19 5051.63H8136.91C8149.58 5051.63 8159.05 5048.93 8165.3 5043.52C8171.55 5037.94 8174.68 5030.34 8174.68 5020.7C8174.68 5010.9 8171.55 5003.3 8165.3 4997.89C8159.05 4992.48 8149.58 4989.77 8136.91 4989.77H8085.19L8103.44 4970.25V5070.9ZM8334.99 5136.82C8320.97 5136.82 8307.95 5134.53 8295.95 5129.97C8284.12 5125.41 8273.81 5118.98 8265.02 5110.7C8256.4 5102.42 8249.64 5092.7 8244.74 5081.55C8240.01 5070.39 8237.64 5058.22 8237.64 5045.04C8237.64 5031.86 8240.01 5019.69 8244.74 5008.53C8249.64 4997.38 8256.49 4987.66 8265.28 4979.38C8274.07 4971.1 8284.38 4964.68 8296.21 4960.11C8308.04 4955.55 8320.88 4953.27 8334.74 4953.27C8348.77 4953.27 8361.61 4955.55 8373.28 4960.11C8385.11 4964.68 8395.33 4971.1 8403.95 4979.38C8412.74 4987.66 8419.59 4997.38 8424.49 5008.53C8429.39 5019.52 8431.84 5031.69 8431.84 5045.04C8431.84 5058.22 8429.39 5070.48 8424.49 5081.8C8419.59 5092.96 8412.74 5102.68 8403.95 5110.96C8395.33 5119.07 8385.11 5125.41 8373.28 5129.97C8361.61 5134.53 8348.85 5136.82 8334.99 5136.82ZM8334.74 5101.83C8342.68 5101.83 8349.95 5100.48 8356.54 5097.77C8363.3 5095.07 8369.22 5091.18 8374.29 5086.11C8379.36 5081.04 8383.25 5075.04 8385.95 5068.11C8388.83 5061.18 8390.26 5053.49 8390.26 5045.04C8390.26 5036.59 8388.83 5028.9 8385.95 5021.97C8383.25 5015.04 8379.36 5009.04 8374.29 5003.97C8369.39 4998.9 8363.56 4995.01 8356.8 4992.31C8350.04 4989.61 8342.68 4988.25 8334.74 4988.25C8326.8 4988.25 8319.45 4989.61 8312.68 4992.31C8306.09 4995.01 8300.26 4998.9 8295.19 5003.97C8290.12 5009.04 8286.15 5015.04 8283.28 5021.97C8280.57 5028.9 8279.22 5036.59 8279.22 5045.04C8279.22 5053.32 8280.57 5061.01 8283.28 5068.11C8286.15 5075.04 8290.04 5081.04 8294.94 5086.11C8300.01 5091.18 8305.92 5095.07 8312.68 5097.77C8319.45 5100.48 8326.8 5101.83 8334.74 5101.83ZM8462.71 5133.77V4956.31H8549.41C8571.72 4956.31 8588.45 4960.53 8599.61 4968.99C8610.93 4977.44 8616.59 4988.59 8616.59 5002.45C8616.59 5011.75 8614.31 5019.86 8609.75 5026.79C8605.18 5033.55 8598.93 5038.79 8590.99 5042.51C8583.04 5046.22 8573.92 5048.08 8563.61 5048.08L8568.42 5037.69C8579.58 5037.69 8589.47 5039.55 8598.08 5043.27C8606.7 5046.82 8613.38 5052.14 8618.11 5059.24C8623.01 5066.34 8625.46 5075.04 8625.46 5085.35C8625.46 5100.56 8619.46 5112.48 8607.47 5121.1C8595.47 5129.55 8577.8 5133.77 8554.48 5133.77H8462.71ZM8503.52 5102.84H8551.44C8562.08 5102.84 8570.11 5101.15 8575.52 5097.77C8581.1 5094.22 8583.89 5088.65 8583.89 5081.04C8583.89 5073.6 8581.1 5068.11 8575.52 5064.56C8570.11 5060.84 8562.08 5058.99 8551.44 5058.99H8500.48V5029.07H8544.34C8554.31 5029.07 8561.92 5027.38 8567.16 5024C8572.56 5020.45 8575.27 5015.13 8575.27 5008.03C8575.27 5001.1 8572.56 4995.94 8567.16 4992.56C8561.92 4989.01 8554.31 4987.24 8544.34 4987.24H8503.52V5102.84ZM8633.23 5133.77L8712.33 4956.31H8752.9L8832.25 5133.77H8789.15L8724.25 4977.1H8740.47L8675.32 5133.77H8633.23ZM8672.78 5095.75L8683.69 5064.56H8774.95L8786.11 5095.75H8672.78ZM8850.66 5133.77V4956.31H8891.73V5133.77H8850.66ZM8933.85 5133.77V4956.31H9014.47C9033.73 4956.31 9050.72 4960.03 9065.42 4967.46C9080.13 4974.73 9091.62 4984.96 9099.9 4998.14C9108.18 5011.32 9112.32 5026.96 9112.32 5045.04C9112.32 5062.96 9108.18 5078.59 9099.9 5091.94C9091.62 5105.13 9080.13 5115.44 9065.42 5122.87C9050.72 5130.14 9033.73 5133.77 9014.47 5133.77H8933.85ZM8974.92 5100.06H9012.44C9024.27 5100.06 9034.49 5097.86 9043.11 5093.46C9051.9 5088.9 9058.66 5082.48 9063.39 5074.2C9068.3 5065.91 9070.75 5056.2 9070.75 5045.04C9070.75 5033.72 9068.3 5024 9063.39 5015.89C9058.66 5007.61 9051.9 5001.27 9043.11 4996.87C9034.49 4992.31 9024.27 4990.03 9012.44 4990.03H8974.92V5100.06ZM9187.41 4953.01C9198.06 4953.01 9207.52 4955.38 9215.8 4960.11C9224.25 4964.68 9230.76 4971.1 9235.32 4979.38C9240.06 4987.66 9242.42 4997.13 9242.42 5007.77C9242.42 5018.25 9240.06 5027.72 9235.32 5036.17C9230.76 5044.45 9224.25 5050.96 9215.8 5055.69C9207.52 5060.25 9198.06 5062.53 9187.41 5062.53C9176.76 5062.53 9167.21 5060.25 9158.76 5055.69C9150.48 5050.96 9143.97 5044.45 9139.24 5036.17C9134.51 5027.72 9132.14 5018.25 9132.14 5007.77C9132.14 4997.13 9134.51 4987.66 9139.24 4979.38C9143.97 4971.1 9150.48 4964.68 9158.76 4960.11C9167.21 4955.38 9176.76 4953.01 9187.41 4953.01ZM9187.41 5048.34C9199.58 5048.34 9209.3 5044.62 9216.56 5037.18C9223.83 5029.75 9227.46 5019.94 9227.46 5007.77C9227.46 4995.61 9223.83 4985.8 9216.56 4978.37C9209.3 4970.93 9199.58 4967.21 9187.41 4967.21C9175.24 4967.21 9165.52 4970.93 9158.25 4978.37C9150.99 4985.8 9147.35 4995.61 9147.35 5007.77C9147.35 5019.94 9150.99 5029.75 9158.25 5037.18C9165.52 5044.62 9175.24 5048.34 9187.41 5048.34ZM9212 4997.63C9212 5001.18 9211.07 5004.31 9209.21 5007.01C9207.52 5009.72 9205.15 5011.75 9202.11 5013.1L9215.04 5033.89H9194.25L9184.11 5015.13H9182.59V5033.89H9164.34V4980.14H9192.48C9198.39 4980.14 9203.13 4981.75 9206.68 4984.96C9210.23 4988.17 9212 4992.39 9212 4997.63ZM9182.34 5002.7H9189.44C9192.14 5002.7 9193.49 5001.44 9193.49 4998.9C9193.49 4996.53 9192.14 4995.35 9189.44 4995.35H9182.34V5002.7Z" fill="#0097A7"/>
</svg>
