<svg width="100" height="100" viewBox="0 0 100 100" fill="none" xmlns="http://www.w3.org/2000/svg">
<path d="M49.9987 0C22.4289 0 0 22.4294 0 49.9992C0 77.5702 22.4291 100 49.9987 100C77.5704 100 100 77.5704 100 49.9992C99.9998 22.4296 77.5704 0 49.9987 0ZM49.9987 84.6743C30.8783 84.6743 15.3241 69.1201 15.3241 49.9996C15.3241 30.8799 30.8781 15.3257 49.9987 15.3257C69.1192 15.3257 84.6755 30.8799 84.6755 49.9996C84.6755 69.1203 69.1192 84.6743 49.9987 84.6743Z" fill="#FE7702"/>
<path d="M49.9987 42.3379C46.9777 42.3379 44.5494 44.7867 44.5494 47.81V72.1117C44.5494 75.1351 46.9777 77.5848 49.9987 77.5848C53.0221 77.5848 55.4482 75.1349 55.4482 72.1117V47.81C55.448 44.7867 53.0221 42.3379 49.9987 42.3379Z" fill="#FE7702"/>
<path d="M49.9987 22.0869C45.9148 22.0869 42.6081 25.3947 42.6081 29.4753C42.6081 33.5562 45.9146 36.864 49.9987 36.864C54.0785 36.864 57.385 33.5562 57.385 29.4753C57.3848 25.3947 54.0785 22.0869 49.9987 22.0869Z" fill="#FE7702"/>
</svg>
