<svg width="44" height="44" viewBox="0 0 44 44" fill="none" xmlns="http://www.w3.org/2000/svg">
<circle cx="22" cy="22" r="21" stroke="#FE7702" stroke-width="2"/>
<path d="M23.8281 10.25L23.3125 26.0469H19.5625L19.0312 10.25H23.8281ZM18.9062 30.9375C18.9062 30.2708 19.1354 29.7188 19.5938 29.2812C20.0625 28.8333 20.6771 28.6094 21.4375 28.6094C22.2083 28.6094 22.8229 28.8333 23.2812 29.2812C23.7396 29.7188 23.9688 30.2708 23.9688 30.9375C23.9688 31.5833 23.7396 32.1302 23.2812 32.5781C22.8229 33.026 22.2083 33.25 21.4375 33.25C20.6771 33.25 20.0625 33.026 19.5938 32.5781C19.1354 32.1302 18.9062 31.5833 18.9062 30.9375Z" fill="#FE7702"/>
</svg>
