<svg width="339" height="110" viewBox="0 0 339 110" fill="none" xmlns="http://www.w3.org/2000/svg">
<g filter="url(#filter0_i_298_765)">
<path d="M309.595 62.6686C310.57 61.6931 310.57 60.1116 309.595 59.1361L293.698 43.2395C292.723 42.264 291.141 42.264 290.166 43.2395C289.19 44.215 289.19 45.7966 290.166 46.7721L304.296 60.9023L290.166 75.0326C289.19 76.0081 289.19 77.5897 290.166 78.5652C291.141 79.5406 292.723 79.5406 293.698 78.5652L309.595 62.6686ZM262.866 60.9023V63.4002H307.828V60.9023V58.4044H262.866V60.9023Z" fill="white"/>
<path d="M12.175 73.4023V48.9229H20.428V67.0027H31.4787V73.4023H12.175ZM56.3144 63.8204C56.3144 64.3799 56.2445 65.1143 56.2095 65.6738H42.9207C43.4802 67.1426 44.8091 67.912 46.7674 67.912C48.516 67.912 49.4951 67.4573 50.7541 66.5131L54.8806 70.6746C53.0272 72.7029 50.3344 73.752 46.5226 73.752C39.4935 73.752 34.9474 69.5206 34.9474 63.8204C34.9474 58.0153 39.5985 53.9237 45.7882 53.9237C51.4535 53.9237 56.3144 57.3508 56.3144 63.8204ZM45.8582 59.3092C44.2146 59.3092 43.0955 60.2534 42.7808 61.8621H48.9356C48.6209 60.2534 47.4668 59.3092 45.8582 59.3092ZM69.312 53.9237C75.8864 53.9237 79.6633 56.7563 79.6633 63.121V73.4023H72.3194V70.8845C71.4102 72.8078 69.5917 73.752 66.899 73.752C62.2129 73.752 59.8 71.0943 59.8 67.8071C59.8 64.1002 62.5976 62.0369 68.5426 62.0369H71.7249C71.4801 60.5681 70.3611 59.7988 68.123 59.7988C66.4094 59.7988 64.486 60.3583 63.2271 61.3025L60.7092 56.0919C62.9473 54.6931 66.3395 53.9237 69.312 53.9237ZM69.277 68.9961C70.3611 68.9961 71.3403 68.4365 71.7599 67.1776V65.8487H69.8016C68.123 65.8487 67.3886 66.4082 67.3886 67.4573C67.3886 68.3316 68.088 68.9961 69.277 68.9961ZM93.0455 56.3367C94.4443 54.7281 96.5776 53.9237 99.2353 53.9237V60.9178C98.5359 60.8129 98.0463 60.778 97.4868 60.778C95.1088 60.778 93.4302 61.8621 93.4302 64.9045V73.4023H85.5268V54.2734H93.0455V56.3367ZM117.212 53.9237C121.618 53.9237 125.046 56.4766 125.046 62.4915V73.4023H117.142V63.8554C117.142 61.4774 116.233 60.5681 114.799 60.5681C113.19 60.5681 111.827 61.5823 111.827 64.4149V73.4023H103.923V54.2734H111.442V56.1618C112.946 54.6581 114.974 53.9237 117.212 53.9237ZM173.478 73.4023H165.959L165.89 62.2467L160.574 71.1992H156.937L151.622 62.6314V73.4023H144.103V48.9229H150.887L158.86 61.967L166.624 48.9229H173.408L173.478 73.4023ZM189.778 73.752C183.308 73.752 178.657 69.6255 178.657 63.8204C178.657 58.0153 183.308 53.9237 189.778 53.9237C196.282 53.9237 200.899 58.0153 200.899 63.8204C200.899 69.6255 196.282 73.752 189.778 73.752ZM189.778 67.5972C191.527 67.5972 192.89 66.3033 192.89 63.8204C192.89 61.3375 191.527 60.0786 189.778 60.0786C188.029 60.0786 186.666 61.3375 186.666 63.8204C186.666 66.3033 188.029 67.5972 189.778 67.5972ZM213.339 56.3367C214.738 54.7281 216.871 53.9237 219.529 53.9237V60.9178C218.829 60.8129 218.34 60.778 217.78 60.778C215.402 60.778 213.724 61.8621 213.724 64.9045V73.4023H205.82V54.2734H213.339V56.3367ZM244.399 63.8204C244.399 64.3799 244.329 65.1143 244.294 65.6738H231.005C231.565 67.1426 232.893 67.912 234.852 67.912C236.6 67.912 237.579 67.4573 238.838 66.5131L242.965 70.6746C241.112 72.7029 238.419 73.752 234.607 73.752C227.578 73.752 223.032 69.5206 223.032 63.8204C223.032 58.0153 227.683 53.9237 233.873 53.9237C239.538 53.9237 244.399 57.3508 244.399 63.8204ZM233.943 59.3092C232.299 59.3092 231.18 60.2534 230.865 61.8621H237.02C236.705 60.2534 235.551 59.3092 233.943 59.3092Z" fill="white"/>
</g>
<g filter="url(#filter1_ddii_298_765)">
<rect x="10.9961" y="10.1694" width="319.802" height="89.832" rx="11.3048" fill="#FE7702"/>
<rect x="11.4095" y="10.5829" width="318.975" height="89.0052" rx="10.8913" stroke="#924705" stroke-width="0.826884"/>
</g>
<g filter="url(#filter2_ddii_298_765)">
<rect x="9.19971" y="11.0737" width="321.599" height="88.9337" rx="12.4312" fill="#FE7702"/>
<rect x="9.65435" y="11.5284" width="320.689" height="88.0245" rx="11.9766" stroke="#924705" stroke-width="0.909278"/>
</g>
<g filter="url(#filter3_i_298_765)">
<path d="M315.162 53.925C315.162 38.5178 302.426 26.0269 286.716 26.0269C271.007 26.0269 258.271 38.5178 258.271 53.925C258.271 69.3321 271.007 81.8231 286.716 81.8231C302.426 81.8231 315.162 69.3321 315.162 53.925ZM288.324 58.7076H270.598V49.1423H288.324V39.046L302.835 53.925L288.324 68.8039V58.7076Z" fill="white"/>
</g>
<g filter="url(#filter4_d_298_765)">
<path d="M32.5575 44.8712H39.2346V61.1126H45.671V66.1655H32.5575V44.8712ZM64.0737 44.8712V50.1948H56.5545V52.8115H63.1714V57.8343H56.5545V60.842H64.0737V66.1655H49.8775V44.8712H64.0737ZM83.4029 66.1655L82.3502 62.9473H75.2521L74.1994 66.1655H67.1916L74.9814 44.8712H82.6811L90.4408 66.1655H83.4029ZM80.7261 57.9245L78.8012 51.9994L76.8762 57.9245H80.7261ZM105.312 52.2701C105.312 51.1873 104.65 50.4655 103.387 50.4655H100.74V54.0747H103.387C104.65 54.0747 105.312 53.5333 105.312 52.2701ZM94.0632 44.8712H103.989C109.342 44.8712 112.079 47.9391 112.079 51.849C112.079 54.6462 110.515 57.0222 107.477 58.0147L112.109 66.1655H104.77L100.77 58.526H100.74V66.1655H94.0632V44.8712ZM130.063 44.8712H136.74V66.1655H130.063L122.995 55.4582V66.1655H116.318V44.8712H122.995L130.063 55.759V44.8712ZM149.078 66.1655V44.8712H157.259L161.951 57.6538L166.522 44.8712H174.673V66.1655H168.026V55.5485L164.748 66.1655H159.033L155.755 55.5485V66.1655H149.078ZM201.085 55.4281C201.085 61.8345 196.183 66.3761 190.168 66.3761C184.122 66.3761 179.19 61.8345 179.19 55.4281C179.19 49.0218 184.122 44.5103 190.168 44.5103C196.243 44.5103 201.085 49.0218 201.085 55.4281ZM185.987 55.4281C185.987 58.2554 187.431 60.1502 190.168 60.1502C192.844 60.1502 194.318 58.2554 194.318 55.4281C194.318 52.5408 192.844 50.676 190.168 50.676C187.431 50.676 185.987 52.5408 185.987 55.4281ZM216.848 52.2701C216.848 51.1873 216.187 50.4655 214.923 50.4655H212.277V54.0747H214.923C216.187 54.0747 216.848 53.5333 216.848 52.2701ZM205.6 44.8712H215.525C220.878 44.8712 223.615 47.9391 223.615 51.849C223.615 54.6462 222.051 57.0222 219.014 58.0147L223.646 66.1655H216.307L212.307 58.526H212.277V66.1655H205.6V44.8712ZM242.05 44.8712V50.1948H234.531V52.8115H241.148V57.8343H234.531V60.842H242.05V66.1655H227.854V44.8712H242.05Z" fill="white"/>
</g>
<defs>
<filter id="filter0_i_298_765" x="8.05273" y="38.7197" width="302.273" height="46.4322" filterUnits="userSpaceOnUse" color-interpolation-filters="sRGB">
<feFlood flood-opacity="0" result="BackgroundImageFix"/>
<feBlend mode="normal" in="SourceGraphic" in2="BackgroundImageFix" result="shape"/>
<feColorMatrix in="SourceAlpha" type="matrix" values="0 0 0 0 0 0 0 0 0 0 0 0 0 0 0 0 0 0 127 0" result="hardAlpha"/>
<feOffset dy="3.4457"/>
<feGaussianBlur stdDeviation="1.03371"/>
<feComposite in2="hardAlpha" operator="arithmetic" k2="-1" k3="1"/>
<feColorMatrix type="matrix" values="0 0 0 0 0 0 0 0 0 0 0 0 0 0 0 0 0 0 0.91 0"/>
<feBlend mode="normal" in2="shape" result="effect1_innerShadow_298_765"/>
</filter>
<filter id="filter1_ddii_298_765" x="-0.000209093" y="1.50204e-05" width="338.487" height="108.518" filterUnits="userSpaceOnUse" color-interpolation-filters="sRGB">
<feFlood flood-opacity="0" result="BackgroundImageFix"/>
<feColorMatrix in="SourceAlpha" type="matrix" values="0 0 0 0 0 0 0 0 0 0 0 0 0 0 0 0 0 0 127 0" result="hardAlpha"/>
<feOffset dy="2.48065"/>
<feGaussianBlur stdDeviation="3.01813"/>
<feComposite in2="hardAlpha" operator="out"/>
<feColorMatrix type="matrix" values="0 0 0 0 0 0 0 0 0 0 0 0 0 0 0 0 0 0 0.47 0"/>
<feBlend mode="normal" in2="BackgroundImageFix" result="effect1_dropShadow_298_765"/>
<feColorMatrix in="SourceAlpha" type="matrix" values="0 0 0 0 0 0 0 0 0 0 0 0 0 0 0 0 0 0 127 0" result="hardAlpha"/>
<feMorphology radius="2.69496" operator="dilate" in="SourceAlpha" result="effect2_dropShadow_298_765"/>
<feOffset dx="-1.65377" dy="-0.826884"/>
<feGaussianBlur stdDeviation="3.32379"/>
<feComposite in2="hardAlpha" operator="out"/>
<feColorMatrix type="matrix" values="0 0 0 0 0 0 0 0 0 0 0 0 0 0 0 0 0 0 0.47 0"/>
<feBlend mode="normal" in2="effect1_dropShadow_298_765" result="effect2_dropShadow_298_765"/>
<feBlend mode="normal" in="SourceGraphic" in2="effect2_dropShadow_298_765" result="shape"/>
<feColorMatrix in="SourceAlpha" type="matrix" values="0 0 0 0 0 0 0 0 0 0 0 0 0 0 0 0 0 0 127 0" result="hardAlpha"/>
<feOffset dx="4.96131" dy="-4.96131"/>
<feGaussianBlur stdDeviation="1.65377"/>
<feComposite in2="hardAlpha" operator="arithmetic" k2="-1" k3="1"/>
<feColorMatrix type="matrix" values="0 0 0 0 0 0 0 0 0 0 0 0 0 0 0 0 0 0 0.25 0"/>
<feBlend mode="normal" in2="shape" result="effect3_innerShadow_298_765"/>
<feColorMatrix in="SourceAlpha" type="matrix" values="0 0 0 0 0 0 0 0 0 0 0 0 0 0 0 0 0 0 127 0" result="hardAlpha"/>
<feOffset dx="-3.30754" dy="4.13442"/>
<feGaussianBlur stdDeviation="1.65377"/>
<feComposite in2="hardAlpha" operator="arithmetic" k2="-1" k3="1"/>
<feColorMatrix type="matrix" values="0 0 0 0 1 0 0 0 0 0.999906 0 0 0 0 0.999906 0 0 0 0.25 0"/>
<feBlend mode="normal" in2="effect3_innerShadow_298_765" result="effect4_innerShadow_298_765"/>
</filter>
<filter id="filter2_ddii_298_765" x="2.56197" y="6.52734" width="334.874" height="102.846" filterUnits="userSpaceOnUse" color-interpolation-filters="sRGB">
<feFlood flood-opacity="0" result="BackgroundImageFix"/>
<feColorMatrix in="SourceAlpha" type="matrix" values="0 0 0 0 0 0 0 0 0 0 0 0 0 0 0 0 0 0 127 0" result="hardAlpha"/>
<feOffset dy="2.72784"/>
<feGaussianBlur stdDeviation="3.31887"/>
<feComposite in2="hardAlpha" operator="out"/>
<feColorMatrix type="matrix" values="0 0 0 0 0 0 0 0 0 0 0 0 0 0 0 0 0 0 0.68 0"/>
<feBlend mode="normal" in2="BackgroundImageFix" result="effect1_dropShadow_298_765"/>
<feColorMatrix in="SourceAlpha" type="matrix" values="0 0 0 0 0 0 0 0 0 0 0 0 0 0 0 0 0 0 127 0" result="hardAlpha"/>
<feOffset dx="-1.81856" dy="-0.909278"/>
<feGaussianBlur stdDeviation="1.81856"/>
<feComposite in2="hardAlpha" operator="out"/>
<feColorMatrix type="matrix" values="0 0 0 0 0 0 0 0 0 0 0 0 0 0 0 0 0 0 0.6 0"/>
<feBlend mode="normal" in2="effect1_dropShadow_298_765" result="effect2_dropShadow_298_765"/>
<feBlend mode="normal" in="SourceGraphic" in2="effect2_dropShadow_298_765" result="shape"/>
<feColorMatrix in="SourceAlpha" type="matrix" values="0 0 0 0 0 0 0 0 0 0 0 0 0 0 0 0 0 0 127 0" result="hardAlpha"/>
<feOffset dx="5.45567" dy="-5.45567"/>
<feGaussianBlur stdDeviation="1.81856"/>
<feComposite in2="hardAlpha" operator="arithmetic" k2="-1" k3="1"/>
<feColorMatrix type="matrix" values="0 0 0 0 0 0 0 0 0 0 0 0 0 0 0 0 0 0 0.25 0"/>
<feBlend mode="normal" in2="shape" result="effect3_innerShadow_298_765"/>
<feColorMatrix in="SourceAlpha" type="matrix" values="0 0 0 0 0 0 0 0 0 0 0 0 0 0 0 0 0 0 127 0" result="hardAlpha"/>
<feOffset dx="-3.63711" dy="4.54639"/>
<feGaussianBlur stdDeviation="1.81856"/>
<feComposite in2="hardAlpha" operator="arithmetic" k2="-1" k3="1"/>
<feColorMatrix type="matrix" values="0 0 0 0 1 0 0 0 0 0.999906 0 0 0 0 0.999906 0 0 0 0.25 0"/>
<feBlend mode="normal" in2="effect3_innerShadow_298_765" result="effect4_innerShadow_298_765"/>
</filter>
<filter id="filter3_i_298_765" x="256.96" y="21.7148" width="60.0996" height="62.5504" filterUnits="userSpaceOnUse" color-interpolation-filters="sRGB">
<feFlood flood-opacity="0" result="BackgroundImageFix"/>
<feBlend mode="normal" in="SourceGraphic" in2="BackgroundImageFix" result="shape"/>
<feColorMatrix in="SourceAlpha" type="matrix" values="0 0 0 0 0 0 0 0 0 0 0 0 0 0 0 0 0 0 127 0" result="hardAlpha"/>
<feOffset dy="-3.5011"/>
<feGaussianBlur stdDeviation="1.22539"/>
<feComposite in2="hardAlpha" operator="arithmetic" k2="-1" k3="1"/>
<feColorMatrix type="matrix" values="0 0 0 0 0 0 0 0 0 0 0 0 0 0 0 0 0 0 1 0"/>
<feBlend mode="normal" in2="shape" result="effect1_innerShadow_298_765"/>
</filter>
<filter id="filter4_d_298_765" x="28.9643" y="44.5103" width="216.679" height="29.0523" filterUnits="userSpaceOnUse" color-interpolation-filters="sRGB">
<feFlood flood-opacity="0" result="BackgroundImageFix"/>
<feColorMatrix in="SourceAlpha" type="matrix" values="0 0 0 0 0 0 0 0 0 0 0 0 0 0 0 0 0 0 127 0" result="hardAlpha"/>
<feOffset dy="3.59328"/>
<feGaussianBlur stdDeviation="1.79664"/>
<feComposite in2="hardAlpha" operator="out"/>
<feColorMatrix type="matrix" values="0 0 0 0 0 0 0 0 0 0 0 0 0 0 0 0 0 0 1 0"/>
<feBlend mode="normal" in2="BackgroundImageFix" result="effect1_dropShadow_298_765"/>
<feBlend mode="normal" in="SourceGraphic" in2="effect1_dropShadow_298_765" result="shape"/>
</filter>
</defs>
</svg>
