<svg width="32" height="32" viewBox="0 0 32 32" fill="none" xmlns="http://www.w3.org/2000/svg">
<g clip-path="url(#clip0_45_795)">
<path d="M15.7545 0.000976562C9.22909 0.000976562 3.93848 5.29159 3.93848 11.817C3.93848 14.3865 4.78086 16.7442 6.18105 18.6752C6.20616 18.7215 6.2101 18.7731 6.23866 18.8175L14.116 30.6335C14.4813 31.1814 15.0967 31.5103 15.7545 31.5103C16.4122 31.5103 17.0276 31.1814 17.393 30.6335L25.2703 18.8175C25.2993 18.7731 25.3028 18.7215 25.3279 18.6752C26.7281 16.7442 27.5705 14.3865 27.5705 11.817C27.5705 5.29159 22.2799 0.000976562 15.7545 0.000976562ZM15.7545 15.7556C13.5793 15.7556 11.8158 13.9921 11.8158 11.817C11.8158 9.64185 13.5793 7.87831 15.7545 7.87831C17.9296 7.87831 19.6931 9.64185 19.6931 11.817C19.6931 13.9921 17.9296 15.7556 15.7545 15.7556Z" fill="#FE7702"/>
</g>
<defs>
<clipPath id="clip0_45_795">
<rect width="31.5093" height="31.5093" fill="white"/>
</clipPath>
</defs>
</svg>
