<svg width="32" height="32" viewBox="0 0 32 32" fill="none" xmlns="http://www.w3.org/2000/svg">
<path d="M24.5603 14.9028C23.9153 14.9028 23.4052 14.3062 23.4052 13.5904C23.4052 12.9597 22.8502 11.6473 21.9201 10.5054C21.0051 9.39749 20 8.74981 19.16 8.74981C18.5149 8.74981 18.0049 8.15326 18.0049 7.43741C18.0049 6.72155 18.5299 6.125 19.16 6.125C20.6601 6.125 22.2352 7.04539 23.6153 8.69868C24.9053 10.2497 25.7304 12.1757 25.7304 13.5733C25.7304 14.3062 25.2054 14.9028 24.5603 14.9028Z" fill="#FE7702"/>
<path d="M29.9753 14.9137C29.3303 14.9137 28.8202 14.3172 28.8202 13.6013C28.8202 7.55059 24.485 2.64186 19.1746 2.64186C18.5296 2.64186 18.0195 2.04531 18.0195 1.32945C18.0195 0.613592 18.5296 0 19.1596 0C25.76 0 31.1304 6.10183 31.1304 13.6013C31.1304 14.3172 30.6054 14.9137 29.9753 14.9137Z" fill="#FE7702"/>
<path d="M15.8149 20.811L10.9095 26.3845C10.3695 25.8391 9.84448 25.2766 9.33444 24.6971C7.78934 22.9245 6.39425 21.0667 5.14917 19.1236C3.91909 17.1806 2.92902 15.2375 2.20898 13.3115C1.48893 11.3685 1.12891 9.51068 1.12891 7.73808C1.12891 6.57907 1.30892 5.4712 1.66894 4.44854C2.02897 3.40885 2.599 2.45437 3.39406 1.60216C4.35412 0.528371 5.40419 0 6.51426 0C6.93429 0 7.35432 0.102265 7.72934 0.306796C8.11937 0.511327 8.46439 0.818123 8.73441 1.26127L12.2146 6.83474C12.4847 7.26084 12.6797 7.65286 12.8147 8.02783C12.9497 8.38576 13.0247 8.74369 13.0247 9.06753C13.0247 9.47659 12.9197 9.88565 12.7097 10.2777C12.5147 10.6697 12.2296 11.0787 11.8696 11.4878L10.7295 12.8343C10.5645 13.0218 10.4895 13.2434 10.4895 13.5161C10.4895 13.6524 10.5045 13.7717 10.5345 13.9081C10.5795 14.0444 10.6245 14.1467 10.6545 14.249C10.9246 14.8114 11.3896 15.5443 12.0496 16.4306C12.7247 17.3169 13.4447 18.2203 14.2248 19.1236C14.7648 19.7202 15.2898 20.2997 15.8149 20.811Z" fill="#FE7702"/>
<path d="M28.9664 25.7446C28.9664 26.2218 28.8914 26.7161 28.7413 27.1934C28.6963 27.3297 28.6513 27.4661 28.5913 27.6024C28.3363 28.216 28.0063 28.7955 27.5713 29.3409C26.8362 30.2613 26.0262 30.926 25.1111 31.3521C25.0961 31.3521 25.0811 31.3692 25.0661 31.3692C24.181 31.7782 23.221 31.9998 22.1859 31.9998C20.6558 31.9998 19.0207 31.5908 17.2956 30.7556C15.5705 29.9204 13.8454 28.7955 12.1353 27.3808C11.5502 26.8866 10.9652 26.3923 10.4102 25.8639L15.3155 20.2904C15.7355 20.6484 16.1105 20.9211 16.4255 21.1086C16.5005 21.1426 16.5905 21.1938 16.6956 21.2449C16.8156 21.296 16.9356 21.3131 17.0706 21.3131C17.3256 21.3131 17.5206 21.2108 17.6856 21.0233L18.8257 19.745C19.2007 19.3189 19.5607 18.9951 19.9058 18.7905C20.2508 18.5519 20.5958 18.4326 20.9708 18.4326C21.2559 18.4326 21.5559 18.5008 21.8859 18.6542C22.2159 18.8076 22.5609 19.0292 22.936 19.3189L27.9013 23.3243C28.2913 23.6311 28.5613 23.989 28.7263 24.4151C28.8764 24.8412 28.9664 25.2674 28.9664 25.7446Z" fill="#FE7702"/>
</svg>
