<svg width="267" height="94" viewBox="0 0 267 94" fill="none" xmlns="http://www.w3.org/2000/svg">
<g filter="url(#filter0_d_267_6)">
<rect x="4.29883" y="42.7817" width="249" height="46" rx="7.6987" fill="#FE7702"/>
</g>
<g filter="url(#filter1_d_267_6)">
<rect x="4.29883" y="5.78174" width="249" height="74" rx="7.6987" fill="#0097A7"/>
</g>
<g filter="url(#filter2_d_267_6)">
<rect x="4.29883" y="5.78174" width="249" height="74" rx="7.6987" fill="#0097A7"/>
</g>
<g filter="url(#filter3_d_267_6)">
<path d="M67.6823 34.0791V33.7399C67.6823 32.0684 67.8519 30.5462 68.191 29.1734C68.5383 27.7926 69.0026 26.5813 69.584 25.5396C70.1654 24.4979 70.8114 23.6339 71.522 22.9475C72.2407 22.253 72.9756 21.7564 73.7266 21.4576L74.4897 23.4683C74.0375 23.7994 73.5974 24.2516 73.1694 24.8249C72.7495 25.3902 72.3699 26.0887 72.0308 26.9204C71.6916 27.7522 71.4211 28.7293 71.2192 29.8517C71.0254 30.9742 70.9285 32.2622 70.9285 33.7157V34.1033C70.9285 35.5568 71.0254 36.8448 71.2192 37.9673C71.4211 39.0897 71.6916 40.0668 72.0308 40.8985C72.3699 41.7303 72.7495 42.4288 73.1694 42.994C73.5974 43.5674 74.0375 44.0196 74.4897 44.3507L73.7266 46.3614C72.9756 46.0545 72.2407 45.5579 71.522 44.8715C70.8114 44.1851 70.1654 43.3211 69.584 42.2794C69.0026 41.2377 68.5383 40.0305 68.191 38.6577C67.8519 37.2768 67.6823 35.7506 67.6823 34.0791ZM88.3224 36.0534C88.3224 37.1759 88.0559 38.1166 87.523 38.8757C86.9981 39.6348 86.2713 40.2041 85.3427 40.5836C84.4221 40.9631 83.3723 41.1529 82.1934 41.1529C81.0225 41.1529 79.9687 40.9631 79.0319 40.5836C78.1033 40.2041 77.3685 39.6348 76.8274 38.8757C76.2864 38.1166 76.0159 37.1759 76.0159 36.0534C76.0159 35.2863 76.1693 34.5999 76.4762 33.9943C76.7911 33.3806 77.2271 32.8597 77.7843 32.4317C78.3415 32.0038 78.9916 31.6767 79.7345 31.4506C80.4855 31.2245 81.297 31.1115 82.1691 31.1115C83.3481 31.1115 84.4019 31.3133 85.3306 31.7171C86.2592 32.1128 86.99 32.678 87.523 33.4129C88.0559 34.1477 88.3224 35.0279 88.3224 36.0534ZM84.2162 35.7264C84.2162 35.2419 84.1314 34.8341 83.9618 34.503C83.7922 34.1639 83.554 33.9055 83.2472 33.7278C82.9403 33.5501 82.581 33.4613 82.1691 33.4613C81.7654 33.4613 81.406 33.5501 81.0911 33.7278C80.7842 33.9055 80.542 34.1639 80.3643 34.503C80.1948 34.8341 80.11 35.2419 80.11 35.7264C80.11 36.1948 80.1988 36.6026 80.3764 36.9498C80.5541 37.2889 80.7964 37.5514 81.1032 37.7371C81.4181 37.9148 81.7815 38.0036 82.1934 38.0036C82.6052 38.0036 82.9605 37.9148 83.2593 37.7371C83.5661 37.5514 83.8003 37.2889 83.9618 36.9498C84.1314 36.6026 84.2162 36.1948 84.2162 35.7264ZM87.959 27.9864C87.959 28.9069 87.7127 29.7145 87.2201 30.4089C86.7356 31.0953 86.0573 31.6323 85.1852 32.0199C84.3212 32.3994 83.3239 32.5892 82.1934 32.5892C81.0709 32.5892 80.0696 32.3994 79.1894 32.0199C78.3173 31.6323 77.6309 31.0953 77.1302 30.4089C76.6377 29.7145 76.3914 28.9069 76.3914 27.9864C76.3914 26.9043 76.6377 25.9958 77.1302 25.261C77.6309 24.5262 78.3173 23.969 79.1894 23.5894C80.0615 23.2099 81.0548 23.0202 82.1691 23.0202C83.2997 23.0202 84.301 23.2099 85.1731 23.5894C86.0452 23.969 86.7276 24.5262 87.2201 25.261C87.7127 25.9958 87.959 26.9043 87.959 27.9864ZM83.877 28.2044C83.877 27.7845 83.8124 27.4251 83.6832 27.1264C83.554 26.8195 83.3643 26.5853 83.1139 26.4238C82.8636 26.2542 82.5487 26.1695 82.1691 26.1695C81.8058 26.1695 81.4989 26.2502 81.2486 26.4117C80.9982 26.5732 80.8085 26.8074 80.6793 27.1143C80.5501 27.413 80.4855 27.7764 80.4855 28.2044C80.4855 28.6243 80.5501 28.9917 80.6793 29.3067C80.8085 29.6216 80.9982 29.8679 81.2486 30.0455C81.507 30.2232 81.8219 30.312 82.1934 30.312C82.5729 30.312 82.8838 30.2232 83.126 30.0455C83.3764 29.8679 83.5621 29.6216 83.6832 29.3067C83.8124 28.9917 83.877 28.6243 83.877 28.2044ZM94.185 30.3847H96.1714C96.6802 30.3847 97.096 30.2959 97.4191 30.1182C97.7501 29.9325 97.9964 29.6741 98.1579 29.343C98.3194 29.0038 98.4002 28.6041 98.4002 28.1438C98.4002 27.7885 98.3235 27.4615 98.17 27.1627C98.0247 26.8639 97.7986 26.6257 97.4917 26.4481C97.1849 26.2623 96.7932 26.1695 96.3168 26.1695C95.9938 26.1695 95.6789 26.2381 95.372 26.3754C95.0651 26.5046 94.8108 26.6903 94.6089 26.9326C94.4151 27.1748 94.3182 27.4696 94.3182 27.8168H90.2241C90.2241 26.8155 90.4986 25.9595 91.0478 25.2489C91.6049 24.5302 92.3357 23.9811 93.2402 23.6016C94.1527 23.214 95.1338 23.0202 96.1836 23.0202C97.4352 23.0202 98.5334 23.214 99.4782 23.6016C100.423 23.9811 101.158 24.5464 101.683 25.2973C102.216 26.0403 102.482 26.9608 102.482 28.059C102.482 28.6647 102.341 29.234 102.058 29.7669C101.776 30.2999 101.38 30.7683 100.871 31.172C100.362 31.5758 99.7649 31.8947 99.0785 32.1289C98.4002 32.355 97.6573 32.4681 96.8498 32.4681H94.185V30.3847ZM94.185 33.425V31.39H96.8498C97.7299 31.39 98.5334 31.491 99.2602 31.6929C99.9869 31.8867 100.613 32.1774 101.138 32.565C101.663 32.9526 102.066 33.4331 102.349 34.0064C102.632 34.5717 102.773 35.2217 102.773 35.9565C102.773 36.7802 102.607 37.515 102.276 38.1611C101.945 38.8071 101.481 39.3521 100.883 39.7963C100.286 40.2404 99.5872 40.5796 98.7878 40.8137C97.9883 41.0398 97.1203 41.1529 96.1836 41.1529C95.4487 41.1529 94.7139 41.056 93.979 40.8622C93.2442 40.6603 92.574 40.3535 91.9683 39.9416C91.3627 39.5217 90.8741 38.9888 90.5027 38.3427C90.1393 37.6887 89.9576 36.9094 89.9576 36.005H94.0517C94.0517 36.3764 94.1527 36.7156 94.3545 37.0225C94.5645 37.3212 94.8431 37.5595 95.1903 37.7371C95.5375 37.9148 95.913 38.0036 96.3168 38.0036C96.8175 38.0036 97.2414 37.9107 97.5886 37.725C97.9439 37.5312 98.2145 37.2728 98.4002 36.9498C98.5859 36.6268 98.6788 36.2674 98.6788 35.8718C98.6788 35.2742 98.5778 34.7978 98.376 34.4425C98.1822 34.0871 97.8955 33.8287 97.516 33.6672C97.1445 33.5057 96.6963 33.425 96.1714 33.425H94.185ZM108.575 30.3847H110.561C111.07 30.3847 111.486 30.2959 111.809 30.1182C112.14 29.9325 112.386 29.6741 112.548 29.343C112.709 29.0038 112.79 28.6041 112.79 28.1438C112.79 27.7885 112.713 27.4615 112.56 27.1627C112.415 26.8639 112.188 26.6257 111.882 26.4481C111.575 26.2623 111.183 26.1695 110.707 26.1695C110.384 26.1695 110.069 26.2381 109.762 26.3754C109.455 26.5046 109.201 26.6903 108.999 26.9326C108.805 27.1748 108.708 27.4696 108.708 27.8168H104.614C104.614 26.8155 104.889 25.9595 105.438 25.2489C105.995 24.5302 106.726 23.9811 107.63 23.6016C108.543 23.214 109.524 23.0202 110.573 23.0202C111.825 23.0202 112.923 23.214 113.868 23.6016C114.813 23.9811 115.548 24.5464 116.073 25.2973C116.606 26.0403 116.872 26.9608 116.872 28.059C116.872 28.6647 116.731 29.234 116.448 29.7669C116.166 30.2999 115.77 30.7683 115.261 31.172C114.752 31.5758 114.155 31.8947 113.468 32.1289C112.79 32.355 112.047 32.4681 111.24 32.4681H108.575V30.3847ZM108.575 33.425V31.39H111.24C112.12 31.39 112.923 31.491 113.65 31.6929C114.377 31.8867 115.003 32.1774 115.528 32.565C116.052 32.9526 116.456 33.4331 116.739 34.0064C117.021 34.5717 117.163 35.2217 117.163 35.9565C117.163 36.7802 116.997 37.515 116.666 38.1611C116.335 38.8071 115.871 39.3521 115.273 39.7963C114.676 40.2404 113.977 40.5796 113.178 40.8137C112.378 41.0398 111.51 41.1529 110.573 41.1529C109.839 41.1529 109.104 41.056 108.369 40.8622C107.634 40.6603 106.964 40.3535 106.358 39.9416C105.753 39.5217 105.264 38.9888 104.893 38.3427C104.529 37.6887 104.348 36.9094 104.348 36.005H108.442C108.442 36.3764 108.543 36.7156 108.744 37.0225C108.954 37.3212 109.233 37.5595 109.58 37.7371C109.927 37.9148 110.303 38.0036 110.707 38.0036C111.207 38.0036 111.631 37.9107 111.979 37.725C112.334 37.5312 112.604 37.2728 112.79 36.9498C112.976 36.6268 113.069 36.2674 113.069 35.8718C113.069 35.2742 112.968 34.7978 112.766 34.4425C112.572 34.0871 112.285 33.8287 111.906 33.6672C111.534 33.5057 111.086 33.425 110.561 33.425H108.575ZM125.739 33.7399V34.0791C125.739 35.6699 125.557 37.1476 125.194 38.5123C124.838 39.877 124.358 41.0923 123.752 42.1583C123.146 43.2242 122.468 44.1124 121.717 44.8231C120.974 45.5417 120.211 46.0545 119.428 46.3614L118.641 44.3507C119.093 44.0196 119.529 43.5674 119.949 42.994C120.377 42.4288 120.76 41.7303 121.099 40.8985C121.439 40.0668 121.705 39.0897 121.899 37.9673C122.101 36.8448 122.202 35.5568 122.202 34.1033V33.7157C122.202 32.2622 122.101 30.9742 121.899 29.8517C121.705 28.7293 121.439 27.7522 121.099 26.9204C120.76 26.0887 120.377 25.3902 119.949 24.8249C119.529 24.2516 119.093 23.7994 118.641 23.4683L119.428 21.4576C120.211 21.7564 120.974 22.2651 121.717 22.9838C122.468 23.7025 123.146 24.5948 123.752 25.6607C124.358 26.7266 124.838 27.942 125.194 29.3067C125.557 30.6714 125.739 32.1491 125.739 33.7399ZM141.461 34.927H137.076V31.6444H141.461C142.058 31.6444 142.543 31.5435 142.914 31.3416C143.286 31.1397 143.556 30.8611 143.726 30.5058C143.904 30.1424 143.992 29.7346 143.992 29.2824C143.992 28.7979 143.904 28.3498 143.726 27.9379C143.556 27.5261 143.286 27.195 142.914 26.9447C142.543 26.6863 142.058 26.5571 141.461 26.5571H138.675V40.9106H134.423V23.2745H141.461C142.874 23.2745 144.089 23.5329 145.107 24.0497C146.132 24.5665 146.92 25.2772 147.469 26.1816C148.018 27.0779 148.292 28.1035 148.292 29.2582C148.292 30.3968 148.018 31.39 147.469 32.2379C146.92 33.0858 146.132 33.748 145.107 34.2244C144.089 34.6928 142.874 34.927 141.461 34.927ZM150.582 23.2745H157.522C158.879 23.2745 160.058 23.4764 161.059 23.8802C162.061 24.2839 162.832 24.8815 163.373 25.6728C163.922 26.4642 164.196 27.4413 164.196 28.6041C164.196 29.6135 164.039 30.4574 163.724 31.1357C163.409 31.814 162.969 32.3752 162.404 32.8193C161.847 33.2554 161.197 33.6147 160.454 33.8974L159.061 34.6847H153.234L153.21 31.4022H157.522C158.063 31.4022 158.512 31.3053 158.867 31.1115C159.222 30.9176 159.489 30.6431 159.666 30.2878C159.852 29.9244 159.945 29.4924 159.945 28.9917C159.945 28.483 159.852 28.0469 159.666 27.6836C159.481 27.3202 159.206 27.0416 158.843 26.8478C158.487 26.654 158.047 26.5571 157.522 26.5571H154.833V40.9106H150.582V23.2745ZM160.236 40.9106L156.335 33.1101L160.841 33.0858L164.79 40.729V40.9106H160.236ZM181.687 31.7413V32.456C181.687 33.8045 181.497 35.0158 181.118 36.0898C180.747 37.1557 180.218 38.0682 179.531 38.8273C178.845 39.5782 178.033 40.1556 177.097 40.5594C176.16 40.9551 175.126 41.1529 173.996 41.1529C172.857 41.1529 171.815 40.9551 170.871 40.5594C169.934 40.1556 169.118 39.5782 168.424 38.8273C167.737 38.0682 167.204 37.1557 166.825 36.0898C166.453 35.0158 166.268 33.8045 166.268 32.456V31.7413C166.268 30.3928 166.453 29.1815 166.825 28.1075C167.204 27.0335 167.733 26.121 168.412 25.37C169.098 24.611 169.91 24.0336 170.846 23.6379C171.791 23.2341 172.833 23.0323 173.971 23.0323C175.102 23.0323 176.136 23.2341 177.072 23.6379C178.017 24.0336 178.833 24.611 179.519 25.37C180.205 26.121 180.738 27.0335 181.118 28.1075C181.497 29.1815 181.687 30.3928 181.687 31.7413ZM177.375 32.456V31.7171C177.375 30.845 177.298 30.0778 177.145 29.4157C177 28.7454 176.782 28.1842 176.491 27.732C176.2 27.2798 175.841 26.9406 175.413 26.7145C174.993 26.4804 174.512 26.3633 173.971 26.3633C173.406 26.3633 172.914 26.4804 172.494 26.7145C172.074 26.9406 171.723 27.2798 171.44 27.732C171.157 28.1842 170.943 28.7454 170.798 29.4157C170.661 30.0778 170.592 30.845 170.592 31.7171V32.456C170.592 33.32 170.661 34.0871 170.798 34.7574C170.943 35.4195 171.157 35.9808 171.44 36.441C171.731 36.9013 172.086 37.2486 172.506 37.4827C172.934 37.7169 173.43 37.834 173.996 37.834C174.537 37.834 175.017 37.7169 175.437 37.4827C175.857 37.2486 176.208 36.9013 176.491 36.441C176.782 35.9808 177 35.4195 177.145 34.7574C177.298 34.0871 177.375 33.32 177.375 32.456ZM191.087 33.4129H186.544L186.52 30.6269H190.203C190.865 30.6269 191.394 30.5543 191.789 30.4089C192.185 30.2555 192.472 30.0334 192.649 29.7427C192.835 29.452 192.928 29.0886 192.928 28.6526C192.928 28.1519 192.835 27.7482 192.649 27.4413C192.464 27.1344 192.169 26.9124 191.765 26.7751C191.369 26.6297 190.857 26.5571 190.227 26.5571H188.143V40.9106H183.892V23.2745H190.227C191.317 23.2745 192.29 23.3755 193.146 23.5773C194.002 23.7711 194.729 24.0699 195.326 24.4737C195.932 24.8774 196.392 25.3862 196.707 25.9999C197.022 26.6055 197.179 27.3202 197.179 28.1438C197.179 28.8625 197.026 29.5368 196.719 30.1667C196.412 30.7965 195.9 31.3093 195.181 31.705C194.47 32.0926 193.497 32.2945 192.262 32.3106L191.087 33.4129ZM190.917 40.9106H185.515L186.968 37.6402H190.917C191.499 37.6402 191.963 37.5514 192.31 37.3737C192.665 37.188 192.92 36.9457 193.073 36.647C193.235 36.3401 193.315 36.001 193.315 35.6295C193.315 35.1773 193.239 34.7856 193.085 34.4546C192.94 34.1235 192.706 33.8691 192.383 33.6915C192.06 33.5057 191.628 33.4129 191.087 33.4129H187.513L187.538 30.6269H191.814L192.807 31.7413C193.986 31.6929 194.918 31.8584 195.605 32.2379C196.299 32.6175 196.796 33.1181 197.095 33.7399C197.393 34.3617 197.543 35.0117 197.543 35.6901C197.543 36.8448 197.292 37.8098 196.792 38.585C196.299 39.3602 195.56 39.9416 194.575 40.3292C193.59 40.7168 192.371 40.9106 190.917 40.9106ZM207.378 26.981L203.078 40.9106H198.512L204.992 23.2745H207.887L207.378 26.981ZM210.939 40.9106L206.627 26.981L206.07 23.2745H209.001L215.518 40.9106H210.939ZM210.77 34.3334V37.616H201.722V34.3334H210.77ZM221.332 23.2745V40.9106H217.093V23.2745H221.332ZM230.053 40.9106H226.141L226.165 37.6402H230.053C230.861 37.6402 231.543 37.4464 232.1 37.0588C232.666 36.6712 233.094 36.0938 233.384 35.3267C233.683 34.5515 233.833 33.5986 233.833 32.4681V31.705C233.833 30.8571 233.748 30.1142 233.578 29.4762C233.417 28.8302 233.174 28.2932 232.851 27.8652C232.528 27.4292 232.125 27.1021 231.64 26.8841C231.164 26.6661 230.615 26.5571 229.993 26.5571H226.068V23.2745H229.993C231.188 23.2745 232.282 23.4804 233.275 23.8923C234.277 24.296 235.141 24.8774 235.867 25.6365C236.602 26.3875 237.168 27.2798 237.563 28.3134C237.967 29.339 238.169 30.4776 238.169 31.7292V32.4681C238.169 33.7116 237.967 34.8502 237.563 35.8839C237.168 36.9175 236.606 37.8098 235.88 38.5608C235.153 39.3118 234.293 39.8932 233.3 40.305C232.314 40.7088 231.232 40.9106 230.053 40.9106ZM228.576 23.2745V40.9106H224.324V23.2745H228.576Z" fill="white"/>
</g>
<g filter="url(#filter4_d_267_6)">
<path d="M149.088 49.9978V52.2736L142.21 68.4067H137.709L144.6 53.2851H135.813V49.9978H149.088ZM164.109 49.9978V52.2736L157.231 68.4067H152.73L159.62 53.2851H150.833V49.9978H164.109ZM175.931 49.7322H176.613V53.0828H176.386C175.568 53.0828 174.801 53.1966 174.085 53.4241C173.377 53.6517 172.753 53.9973 172.213 54.4609C171.682 54.9161 171.265 55.4935 170.962 56.1931C170.667 56.8927 170.519 57.7145 170.519 58.6586V61.8827C170.519 62.4727 170.57 62.9869 170.671 63.4252C170.772 63.8635 170.924 64.2259 171.126 64.5125C171.328 64.7991 171.577 65.0141 171.872 65.1573C172.175 65.3006 172.525 65.3723 172.921 65.3723C173.25 65.3723 173.554 65.2964 173.832 65.1447C174.11 64.993 174.35 64.778 174.552 64.4999C174.763 64.2217 174.923 63.8972 175.033 63.5263C175.142 63.1555 175.197 62.7509 175.197 62.3126C175.197 61.8405 175.138 61.4149 175.02 61.0356C174.902 60.6563 174.734 60.3359 174.515 60.0746C174.304 59.8049 174.047 59.6026 173.743 59.4678C173.448 59.3245 173.124 59.2528 172.77 59.2528C172.23 59.2528 171.771 59.375 171.392 59.6195C171.021 59.8555 170.738 60.1589 170.544 60.5298C170.359 60.9007 170.266 61.2758 170.266 61.6551L169.242 60.6183C169.225 60.1126 169.322 59.59 169.533 59.0505C169.744 58.5111 170.06 58.0095 170.481 57.5459C170.903 57.0823 171.429 56.7073 172.062 56.4207C172.694 56.1341 173.427 55.9908 174.262 55.9908C175.105 55.9908 175.846 56.1509 176.487 56.4712C177.136 56.7915 177.68 57.2383 178.118 57.8115C178.565 58.3846 178.902 59.0547 179.129 59.8218C179.357 60.5888 179.471 61.4191 179.471 62.3126C179.471 63.2145 179.311 64.0531 178.99 64.8286C178.678 65.5957 178.236 66.2658 177.663 66.8389C177.09 67.4121 176.411 67.8589 175.627 68.1792C174.843 68.4995 173.979 68.6596 173.035 68.6596C172.066 68.6596 171.168 68.4952 170.342 68.1665C169.525 67.8294 168.808 67.3447 168.193 66.7125C167.586 66.0719 167.11 65.2922 166.764 64.3735C166.427 63.4547 166.258 62.4137 166.258 61.2505V59.6953C166.258 58.1191 166.515 56.7157 167.03 55.485C167.552 54.2544 168.26 53.2134 169.154 52.3621C170.056 51.5023 171.088 50.8491 172.251 50.4023C173.415 49.9556 174.641 49.7322 175.931 49.7322ZM194.201 65.1194V68.4067H181.355V65.6252L187.272 59.4045C187.794 58.8061 188.216 58.2708 188.536 57.7988C188.857 57.3184 189.088 56.8843 189.232 56.4965C189.383 56.1088 189.459 55.759 189.459 55.4471C189.459 54.9161 189.379 54.4736 189.219 54.1195C189.067 53.7571 188.84 53.4832 188.536 53.2977C188.241 53.1123 187.875 53.0196 187.436 53.0196C186.998 53.0196 186.614 53.146 186.286 53.3989C185.957 53.6517 185.7 53.9973 185.514 54.4356C185.337 54.8739 185.249 55.367 185.249 55.9149H180.975C180.975 54.7854 181.249 53.7529 181.797 52.8173C182.354 51.8816 183.125 51.1357 184.111 50.5794C185.097 50.0146 186.239 49.7322 187.537 49.7322C188.894 49.7322 190.032 49.943 190.951 50.3644C191.87 50.7859 192.561 51.397 193.025 52.1977C193.497 52.9901 193.733 53.9467 193.733 55.0678C193.733 55.7084 193.632 56.3237 193.429 56.9138C193.227 57.5038 192.936 58.0896 192.557 58.6712C192.178 59.2444 191.714 59.8344 191.166 60.4413C190.627 61.0482 190.011 61.693 189.32 62.3758L186.943 65.1194H194.201ZM209.221 65.1194V68.4067H196.375V65.6252L202.292 59.4045C202.815 58.8061 203.236 58.2708 203.557 57.7988C203.877 57.3184 204.109 56.8843 204.252 56.4965C204.404 56.1088 204.48 55.759 204.48 55.4471C204.48 54.9161 204.4 54.4736 204.239 54.1195C204.088 53.7571 203.86 53.4832 203.557 53.2977C203.262 53.1123 202.895 53.0196 202.457 53.0196C202.018 53.0196 201.635 53.146 201.306 53.3989C200.977 53.6517 200.72 53.9973 200.535 54.4356C200.358 54.8739 200.269 55.367 200.269 55.9149H195.996C195.996 54.7854 196.27 53.7529 196.818 52.8173C197.374 51.8816 198.145 51.1357 199.131 50.5794C200.118 50.0146 201.26 49.7322 202.558 49.7322C203.915 49.7322 205.053 49.943 205.972 50.3644C206.89 50.7859 207.582 51.397 208.045 52.1977C208.517 52.9901 208.753 53.9467 208.753 55.0678C208.753 55.7084 208.652 56.3237 208.45 56.9138C208.247 57.5038 207.957 58.0896 207.577 58.6712C207.198 59.2444 206.734 59.8344 206.187 60.4413C205.647 61.0482 205.032 61.693 204.341 62.3758L201.964 65.1194H209.221ZM224.507 61.2126V64.4999H211.257L211.004 61.8953L218.4 49.9978H221.763L218.109 55.9781L215.075 61.2126H224.507ZM222.648 49.9978V68.4067H218.388V49.9978H222.648ZM230.298 57.4195H232.371C232.902 57.4195 233.336 57.3268 233.674 57.1413C234.019 56.9475 234.276 56.6778 234.445 56.3322C234.613 55.9781 234.698 55.5609 234.698 55.0805C234.698 54.7096 234.618 54.3682 234.458 54.0563C234.306 53.7445 234.07 53.4958 233.749 53.3104C233.429 53.1165 233.02 53.0196 232.523 53.0196C232.186 53.0196 231.857 53.0912 231.537 53.2345C231.217 53.3694 230.951 53.5632 230.74 53.8161C230.538 54.069 230.437 54.3766 230.437 54.7391H226.163C226.163 53.6939 226.45 52.8004 227.023 52.0586C227.605 51.3085 228.368 50.7353 229.312 50.3391C230.264 49.9345 231.288 49.7322 232.384 49.7322C233.69 49.7322 234.837 49.9345 235.823 50.3391C236.809 50.7353 237.576 51.3253 238.124 52.1092C238.68 52.8847 238.959 53.8456 238.959 54.9919C238.959 55.6241 238.811 56.2184 238.516 56.7747C238.221 57.331 237.808 57.8199 237.277 58.2413C236.746 58.6628 236.122 58.9957 235.406 59.2402C234.698 59.4762 233.922 59.5942 233.079 59.5942H230.298V57.4195ZM230.298 60.593V58.4689H233.079C233.998 58.4689 234.837 58.5743 235.595 58.785C236.354 58.9873 237.007 59.2907 237.555 59.6953C238.103 60.0999 238.525 60.6015 238.82 61.1999C239.115 61.79 239.262 62.4685 239.262 63.2355C239.262 64.0953 239.089 64.8623 238.744 65.5367C238.398 66.211 237.913 66.7799 237.29 67.2435C236.666 67.7071 235.937 68.0611 235.102 68.3056C234.268 68.5416 233.362 68.6596 232.384 68.6596C231.617 68.6596 230.85 68.5585 230.083 68.3562C229.316 68.1454 228.616 67.8251 227.984 67.3953C227.352 66.9569 226.842 66.4006 226.454 65.7263C226.075 65.0436 225.885 64.2302 225.885 63.2861H230.159C230.159 63.6738 230.264 64.0279 230.475 64.3482C230.694 64.66 230.985 64.9087 231.347 65.0941C231.71 65.2796 232.102 65.3723 232.523 65.3723C233.046 65.3723 233.488 65.2754 233.851 65.0815C234.222 64.8792 234.504 64.6095 234.698 64.2723C234.892 63.9351 234.989 63.56 234.989 63.147C234.989 62.5233 234.883 62.026 234.672 61.6551C234.47 61.2842 234.171 61.0145 233.775 60.8459C233.387 60.6773 232.919 60.593 232.371 60.593H230.298Z" fill="white"/>
</g>
<g clip-path="url(#clip0_267_6)">
<g filter="url(#filter5_d_267_6)">
<path d="M52.6536 39.565C51.7929 39.565 51.1123 38.8644 51.1123 38.0237C51.1123 37.2831 50.3717 35.7418 49.1306 34.4007C47.9096 33.0996 46.5685 32.3389 45.4475 32.3389C44.5868 32.3389 43.9062 31.6383 43.9062 30.7976C43.9062 29.9569 44.6068 29.2563 45.4475 29.2563C47.4492 29.2563 49.551 30.3373 51.3925 32.2789C53.114 34.1004 54.2149 36.3623 54.2149 38.0037C54.2149 38.8644 53.5143 39.565 52.6536 39.565Z" fill="white"/>
<path d="M59.8792 39.5777C59.0184 39.5777 58.3379 38.8771 58.3379 38.0364C58.3379 30.9304 52.553 25.1656 45.4671 25.1656C44.6064 25.1656 43.9258 24.465 43.9258 23.6243C43.9258 22.7836 44.6064 22.063 45.4471 22.063C54.2544 22.063 61.4205 29.229 61.4205 38.0364C61.4205 38.8771 60.7199 39.5777 59.8792 39.5777Z" fill="white"/>
<path d="M40.9831 46.5035L34.4377 53.049C33.7171 52.4084 33.0165 51.7479 32.3359 51.0673C30.2742 48.9856 28.4126 46.8037 26.7512 44.5218C25.1098 42.2399 23.7887 39.958 22.8279 37.6961C21.8671 35.4142 21.3867 33.2324 21.3867 31.1506C21.3867 29.7895 21.6269 28.4884 22.1073 27.2874C22.5877 26.0663 23.3484 24.9454 24.4093 23.9446C25.6903 22.6835 27.0915 22.063 28.5727 22.063C29.1332 22.063 29.6937 22.1831 30.1941 22.4233C30.7145 22.6635 31.1749 23.0238 31.5352 23.5442L36.1791 30.0897C36.5394 30.5901 36.7996 31.0505 36.9798 31.4909C37.1599 31.9112 37.26 32.3316 37.26 32.7119C37.26 33.1923 37.1199 33.6727 36.8397 34.1331C36.5795 34.5935 36.1991 35.0739 35.7187 35.5543L34.1975 37.1356C33.9773 37.3558 33.8772 37.616 33.8772 37.9363C33.8772 38.0964 33.8972 38.2365 33.9372 38.3967C33.9973 38.5568 34.0573 38.6769 34.0974 38.797C34.4577 39.4576 35.0782 40.3183 35.9589 41.3592C36.8597 42.4 37.8205 43.4609 38.8614 44.5218C39.582 45.2224 40.2826 45.903 40.9831 46.5035Z" fill="white"/>
<path d="M58.5332 52.2967C58.5332 52.8571 58.4331 53.4376 58.2329 53.9981C58.1729 54.1582 58.1128 54.3184 58.0328 54.4785C57.6925 55.1991 57.2521 55.8797 56.6716 56.5202C55.6908 57.6011 54.6099 58.3818 53.3889 58.8822C53.3689 58.8822 53.3489 58.9022 53.3288 58.9022C52.1478 59.3826 50.8668 59.6428 49.4856 59.6428C47.4439 59.6428 45.2621 59.1624 42.9601 58.1816C40.6582 57.2008 38.3563 55.8797 36.0744 54.2183C35.2937 53.6378 34.5131 53.0573 33.7725 52.4368L40.3179 45.8913C40.8784 46.3117 41.3788 46.6319 41.7992 46.8521C41.8993 46.8921 42.0194 46.9522 42.1595 47.0122C42.3196 47.0723 42.4797 47.0923 42.6599 47.0923C43.0002 47.0923 43.2604 46.9722 43.4806 46.752L45.0019 45.2508C45.5023 44.7503 45.9827 44.37 46.4431 44.1298C46.9034 43.8496 47.3638 43.7095 47.8643 43.7095C48.2446 43.7095 48.6449 43.7895 49.0853 43.9697C49.5256 44.1498 49.986 44.4101 50.4865 44.7503L57.112 49.4543C57.6324 49.8146 57.9927 50.2349 58.2129 50.7354C58.4131 51.2358 58.5332 51.7362 58.5332 52.2967Z" fill="white"/>
</g>
</g>
<path d="M231.401 1.53955L229.57 5.80955H239.333L236.108 1.53955H231.401Z" fill="#9D4900"/>
<path d="M257.281 28.9123L253.5 30.9866L253.478 19.9745L257.271 23.6029L257.281 28.9123Z" fill="#9D4900"/>
<g filter="url(#filter6_d_267_6)">
<path d="M239.233 5.80955L253.677 20.9793L257.264 24.6875V7.04213C257.264 4.08033 254.873 1.6736 251.912 1.65316L235.447 1.53955L239.233 5.80955Z" fill="#FE7702"/>
</g>
<defs>
<filter id="filter0_d_267_6" x="3.94243" y="42.7817" width="253.598" height="51.0581" filterUnits="userSpaceOnUse" color-interpolation-filters="sRGB">
<feFlood flood-opacity="0" result="BackgroundImageFix"/>
<feColorMatrix in="SourceAlpha" type="matrix" values="0 0 0 0 0 0 0 0 0 0 0 0 0 0 0 0 0 0 127 0" result="hardAlpha"/>
<feMorphology radius="0.919663" operator="erode" in="SourceAlpha" result="effect1_dropShadow_267_6"/>
<feOffset dx="1.94276" dy="2.75899"/>
<feGaussianBlur stdDeviation="1.60941"/>
<feComposite in2="hardAlpha" operator="out"/>
<feColorMatrix type="matrix" values="0 0 0 0 0 0 0 0 0 0 0 0 0 0 0 0 0 0 0.67 0"/>
<feBlend mode="normal" in2="BackgroundImageFix" result="effect1_dropShadow_267_6"/>
<feBlend mode="normal" in="SourceGraphic" in2="effect1_dropShadow_267_6" result="shape"/>
</filter>
<filter id="filter1_d_267_6" x="3.4826" y="4.86207" width="254.518" height="79.518" filterUnits="userSpaceOnUse" color-interpolation-filters="sRGB">
<feFlood flood-opacity="0" result="BackgroundImageFix"/>
<feColorMatrix in="SourceAlpha" type="matrix" values="0 0 0 0 0 0 0 0 0 0 0 0 0 0 0 0 0 0 127 0" result="hardAlpha"/>
<feOffset dx="1.94276" dy="1.83933"/>
<feGaussianBlur stdDeviation="1.3795"/>
<feComposite in2="hardAlpha" operator="out"/>
<feColorMatrix type="matrix" values="0 0 0 0 0 0 0 0 0 0 0 0 0 0 0 0 0 0 0.49 0"/>
<feBlend mode="normal" in2="BackgroundImageFix" result="effect1_dropShadow_267_6"/>
<feBlend mode="normal" in="SourceGraphic" in2="effect1_dropShadow_267_6" result="shape"/>
</filter>
<filter id="filter2_d_267_6" x="9.7394e-05" y="4.86207" width="254.518" height="79.518" filterUnits="userSpaceOnUse" color-interpolation-filters="sRGB">
<feFlood flood-opacity="0" result="BackgroundImageFix"/>
<feColorMatrix in="SourceAlpha" type="matrix" values="0 0 0 0 0 0 0 0 0 0 0 0 0 0 0 0 0 0 127 0" result="hardAlpha"/>
<feOffset dx="-1.53974" dy="1.83933"/>
<feGaussianBlur stdDeviation="1.3795"/>
<feComposite in2="hardAlpha" operator="out"/>
<feColorMatrix type="matrix" values="0 0 0 0 0 0 0 0 0 0 0 0 0 0 0 0 0 0 0.49 0"/>
<feBlend mode="normal" in2="BackgroundImageFix" result="effect1_dropShadow_267_6"/>
<feBlend mode="normal" in="SourceGraphic" in2="effect1_dropShadow_267_6" result="shape"/>
</filter>
<filter id="filter3_d_267_6" x="64.6031" y="21.4575" width="176.645" height="31.0628" filterUnits="userSpaceOnUse" color-interpolation-filters="sRGB">
<feFlood flood-opacity="0" result="BackgroundImageFix"/>
<feColorMatrix in="SourceAlpha" type="matrix" values="0 0 0 0 0 0 0 0 0 0 0 0 0 0 0 0 0 0 127 0" result="hardAlpha"/>
<feOffset dy="3.07948"/>
<feGaussianBlur stdDeviation="1.53974"/>
<feComposite in2="hardAlpha" operator="out"/>
<feColorMatrix type="matrix" values="0 0 0 0 0 0 0 0 0 0 0 0 0 0 0 0 0 0 0.63 0"/>
<feBlend mode="normal" in2="BackgroundImageFix" result="effect1_dropShadow_267_6"/>
<feBlend mode="normal" in="SourceGraphic" in2="effect1_dropShadow_267_6" result="shape"/>
</filter>
<filter id="filter4_d_267_6" x="132.16" y="49.7324" width="110.754" height="26.2321" filterUnits="userSpaceOnUse" color-interpolation-filters="sRGB">
<feFlood flood-opacity="0" result="BackgroundImageFix"/>
<feColorMatrix in="SourceAlpha" type="matrix" values="0 0 0 0 0 0 0 0 0 0 0 0 0 0 0 0 0 0 127 0" result="hardAlpha"/>
<feOffset dy="3.65244"/>
<feGaussianBlur stdDeviation="1.82622"/>
<feComposite in2="hardAlpha" operator="out"/>
<feColorMatrix type="matrix" values="0 0 0 0 0 0 0 0 0 0 0 0 0 0 0 0 0 0 0.63 0"/>
<feBlend mode="normal" in2="BackgroundImageFix" result="effect1_dropShadow_267_6"/>
<feBlend mode="normal" in="SourceGraphic" in2="effect1_dropShadow_267_6" result="shape"/>
</filter>
<filter id="filter5_d_267_6" x="18.3072" y="20.5232" width="46.1931" height="43.739" filterUnits="userSpaceOnUse" color-interpolation-filters="sRGB">
<feFlood flood-opacity="0" result="BackgroundImageFix"/>
<feColorMatrix in="SourceAlpha" type="matrix" values="0 0 0 0 0 0 0 0 0 0 0 0 0 0 0 0 0 0 127 0" result="hardAlpha"/>
<feOffset dy="1.53974"/>
<feGaussianBlur stdDeviation="1.53974"/>
<feComposite in2="hardAlpha" operator="out"/>
<feColorMatrix type="matrix" values="0 0 0 0 0 0 0 0 0 0 0 0 0 0 0 0 0 0 0.63 0"/>
<feBlend mode="normal" in2="BackgroundImageFix" result="effect1_dropShadow_267_6"/>
<feBlend mode="normal" in="SourceGraphic" in2="effect1_dropShadow_267_6" result="shape"/>
</filter>
<filter id="filter6_d_267_6" x="226.209" y="-0.000189781" width="40.2933" height="41.6248" filterUnits="userSpaceOnUse" color-interpolation-filters="sRGB">
<feFlood flood-opacity="0" result="BackgroundImageFix"/>
<feColorMatrix in="SourceAlpha" type="matrix" values="0 0 0 0 0 0 0 0 0 0 0 0 0 0 0 0 0 0 127 0" result="hardAlpha"/>
<feOffset dy="7.6987"/>
<feGaussianBlur stdDeviation="4.61922"/>
<feComposite in2="hardAlpha" operator="out"/>
<feColorMatrix type="matrix" values="0 0 0 0 0 0 0 0 0 0 0 0 0 0 0 0 0 0 0.33 0"/>
<feBlend mode="normal" in2="BackgroundImageFix" result="effect1_dropShadow_267_6"/>
<feBlend mode="normal" in="SourceGraphic" in2="effect1_dropShadow_267_6" result="shape"/>
</filter>
<clipPath id="clip0_267_6">
<rect width="47.8225" height="47.8225" fill="white" transform="translate(17.2988 16.8208)"/>
</clipPath>
</defs>
</svg>
