<svg width="440" height="86" viewBox="0 0 440 86" fill="none" xmlns="http://www.w3.org/2000/svg">
<path d="M0 15L440 25.3103V86H0L0 15Z" fill="#0097A7"/>
<path d="M440 0L-2.09808e-05 39.9596V86H440V0Z" fill="#0097A7" fill-opacity="0.17"/>
<path d="M45.134 42.8448L47.8244 35.7457H48.754L47.8244 38.591L44.9509 46H44.0213L45.134 42.8448ZM44.6692 35.7457L44.8171 42.8308L44.6833 46H43.817L43.4367 35.7457H44.6692ZM49.6766 42.6899L51.9655 35.7457H53.2543L49.6696 46H48.7611L49.6766 42.6899ZM48.8667 35.7457L49.2963 42.9294L49.409 46H48.5357L48.0427 38.4713L48.0075 35.7457H48.8667ZM55.9306 35.1823L54.0502 46H52.8318L54.7122 35.1823H55.9306ZM54.515 41.9293L54.0713 41.9082C54.1229 41.5091 54.2122 41.0935 54.3389 40.6616C54.4704 40.2249 54.6511 39.8211 54.8812 39.4502C55.1113 39.0746 55.4 38.7741 55.7475 38.5488C56.0996 38.3234 56.5222 38.2201 57.0152 38.2389C57.3955 38.2483 57.7007 38.3375 57.9307 38.5065C58.1655 38.6755 58.3369 38.8962 58.4449 39.1685C58.5575 39.4361 58.6256 39.7319 58.6491 40.0559C58.6726 40.3752 58.6679 40.6921 58.635 41.0067L57.804 46H56.5856L57.4237 40.9856C57.4471 40.7414 57.4495 40.4949 57.4307 40.2461C57.4166 39.9925 57.3462 39.7789 57.2194 39.6052C57.0926 39.4268 56.8743 39.3329 56.5644 39.3235C56.2405 39.3141 55.9564 39.3939 55.7123 39.5629C55.4728 39.7319 55.2709 39.9526 55.1066 40.2249C54.9423 40.4926 54.8108 40.779 54.7122 41.0842C54.6183 41.3846 54.5526 41.6664 54.515 41.9293ZM62.3325 46.1409C61.8395 46.1315 61.4286 46.0329 61.1 45.8451C60.7713 45.6573 60.5154 45.4037 60.3323 45.0844C60.1492 44.7652 60.0271 44.4036 59.9661 43.9999C59.9097 43.5961 59.905 43.1759 59.952 42.7392L60.0576 41.88C60.114 41.4292 60.2196 40.9856 60.3746 40.5489C60.5295 40.1123 60.7384 39.7179 61.0014 39.3657C61.2643 39.0089 61.5883 38.7272 61.9733 38.5206C62.3583 38.314 62.809 38.2201 63.3255 38.2389C63.8373 38.253 64.2434 38.368 64.5439 38.584C64.8444 38.7999 65.065 39.0817 65.2059 39.4291C65.3468 39.7765 65.4266 40.1592 65.4454 40.5771C65.4688 40.9949 65.4547 41.4128 65.4031 41.8307L65.2975 42.5561H60.6704L60.8605 41.4926L64.227 41.4997L64.2551 41.3095C64.2927 41.0231 64.2997 40.7297 64.2763 40.4292C64.2528 40.124 64.1636 39.8658 64.0086 39.6545C63.8537 39.4385 63.6002 39.3211 63.248 39.3023C62.8865 39.2836 62.586 39.3516 62.3465 39.5066C62.1118 39.6615 61.9216 39.8704 61.7761 40.1334C61.6305 40.3963 61.5178 40.6827 61.438 40.9926C61.3629 41.2978 61.3089 41.5936 61.276 41.88L61.1704 42.7462C61.1422 43.0045 61.1328 43.2698 61.1422 43.5421C61.1516 43.8097 61.1962 44.0585 61.276 44.2886C61.3606 44.5187 61.4944 44.7065 61.6775 44.852C61.8653 44.9929 62.1235 45.068 62.4522 45.0774C62.8184 45.0868 63.1471 45.0117 63.4382 44.852C63.734 44.6924 64.0039 44.4811 64.2481 44.2182L64.8397 45.014C64.6378 45.2722 64.403 45.4859 64.1354 45.6549C63.8725 45.8239 63.5884 45.9484 63.2832 46.0282C62.978 46.108 62.6611 46.1456 62.3325 46.1409ZM68.4033 40.0841L67.3751 46H66.1567L67.4807 38.3797H68.6287L68.4033 40.0841ZM67.8399 41.9293L67.3962 41.9082C67.4478 41.5091 67.5371 41.0935 67.6638 40.6616C67.7953 40.2249 67.9761 39.8211 68.2061 39.4502C68.4362 39.0793 68.7249 38.7812 69.0724 38.5558C69.4245 38.3257 69.8471 38.2177 70.3401 38.2318C70.7204 38.2459 71.0256 38.3375 71.2556 38.5065C71.4904 38.6755 71.6618 38.8962 71.7698 39.1685C71.8824 39.4361 71.9505 39.7319 71.974 40.0559C71.9975 40.3752 71.9928 40.6921 71.9599 41.0067L71.1289 46H69.9105L70.7486 40.9856C70.772 40.7414 70.7744 40.4949 70.7556 40.2461C70.7415 39.9925 70.6711 39.7789 70.5443 39.6052C70.4175 39.4268 70.1992 39.3329 69.8893 39.3235C69.5654 39.3141 69.2813 39.3939 69.0372 39.5629C68.7977 39.7319 68.5958 39.9526 68.4315 40.2249C68.2672 40.4926 68.1357 40.779 68.0371 41.0842C67.9432 41.3846 67.8775 41.6664 67.8399 41.9293ZM80.0802 44.6971L80.7493 40.5489C80.7728 40.3048 80.7587 40.0911 80.707 39.908C80.6601 39.7202 80.5615 39.5723 80.4112 39.4643C80.2657 39.3563 80.0591 39.3023 79.7915 39.3023C79.5473 39.2976 79.329 39.3469 79.1365 39.4502C78.944 39.5488 78.7844 39.6873 78.6576 39.8658C78.5355 40.0442 78.451 40.2508 78.404 40.4855L77.1997 40.4926C77.2326 40.1498 77.3288 39.8399 77.4885 39.5629C77.6528 39.2812 77.8617 39.0418 78.1153 38.8446C78.3688 38.6427 78.6505 38.4901 78.9604 38.3868C79.2703 38.2788 79.5919 38.2271 79.9253 38.2318C80.4042 38.2365 80.8033 38.3375 81.1225 38.5347C81.4418 38.7272 81.6719 38.9995 81.8127 39.3516C81.9583 39.6991 82.0076 40.1076 81.9606 40.5771L81.3409 44.3379C81.2986 44.6055 81.2822 44.8638 81.2916 45.1126C81.301 45.3615 81.3127 45.6173 81.3268 45.8803L81.3127 46L80.0943 46.007C80.0474 45.7911 80.0262 45.5727 80.0309 45.3521C80.0356 45.1314 80.052 44.9131 80.0802 44.6971ZM80.8408 41.3799L80.6929 42.2955L79.9182 42.2885C79.6694 42.2885 79.4205 42.3166 79.1717 42.373C78.9276 42.4293 78.6998 42.5185 78.4886 42.6406C78.282 42.758 78.1082 42.9153 77.9674 43.1125C77.8312 43.305 77.7467 43.5421 77.7139 43.8238C77.6857 44.0538 77.6927 44.2604 77.735 44.4435C77.7819 44.622 77.8735 44.7652 78.0096 44.8732C78.1505 44.9765 78.3477 45.0281 78.6012 45.0281C78.8642 45.0281 79.1177 44.9694 79.3619 44.852C79.606 44.7347 79.8149 44.575 79.9887 44.3731C80.1671 44.1712 80.2845 43.9412 80.3408 43.6829L80.531 44.2745C80.4746 44.5187 80.3784 44.7558 80.2422 44.9858C80.1107 45.2112 79.9488 45.4131 79.7563 45.5915C79.5637 45.7652 79.3478 45.9014 79.1083 46C78.8736 46.1033 78.6224 46.1549 78.3547 46.1549C77.9275 46.1549 77.5683 46.0587 77.2772 45.8662C76.9861 45.6737 76.7701 45.4155 76.6293 45.0915C76.4884 44.7628 76.4321 44.3919 76.4602 43.9787C76.4837 43.5374 76.5894 43.1524 76.7772 42.8237C76.9697 42.4951 77.2185 42.2251 77.5237 42.0138C77.8289 41.7978 78.1693 41.6382 78.5449 41.5349C78.9252 41.4269 79.3196 41.3729 79.7281 41.3729L80.8408 41.3799ZM85.1651 40.0841L84.1368 46H82.9185L84.2425 38.3797H85.3905L85.1651 40.0841ZM84.6017 41.9293L84.158 41.9082C84.2096 41.5091 84.2988 41.0935 84.4256 40.6616C84.5571 40.2249 84.7378 39.8211 84.9679 39.4502C85.198 39.0793 85.4867 38.7812 85.8342 38.5558C86.1863 38.3257 86.6089 38.2177 87.1019 38.2318C87.4822 38.2459 87.7873 38.3375 88.0174 38.5065C88.2522 38.6755 88.4235 38.8962 88.5315 39.1685C88.6442 39.4361 88.7123 39.7319 88.7358 40.0559C88.7592 40.3752 88.7546 40.6921 88.7217 41.0067L87.8906 46H86.6722L87.5103 40.9856C87.5338 40.7414 87.5362 40.4949 87.5174 40.2461C87.5033 39.9925 87.4329 39.7789 87.3061 39.6052C87.1793 39.4268 86.961 39.3329 86.6511 39.3235C86.3271 39.3141 86.0431 39.3939 85.7989 39.5629C85.5595 39.7319 85.3576 39.9526 85.1933 40.2249C85.0289 40.4926 84.8975 40.779 84.7989 41.0842C84.705 41.3846 84.6392 41.6664 84.6017 41.9293ZM95.7152 46.1409C95.2222 46.1315 94.8113 46.0329 94.4827 45.8451C94.154 45.6573 93.8981 45.4037 93.715 45.0844C93.5319 44.7652 93.4098 44.4036 93.3488 43.9999C93.2924 43.5961 93.2877 43.1759 93.3347 42.7392L93.4403 41.88C93.4967 41.4292 93.6023 40.9856 93.7573 40.5489C93.9122 40.1123 94.1211 39.7179 94.3841 39.3657C94.647 39.0089 94.971 38.7272 95.356 38.5206C95.741 38.314 96.1917 38.2201 96.7082 38.2389C97.22 38.253 97.6261 38.368 97.9266 38.584C98.2271 38.7999 98.4477 39.0817 98.5886 39.4291C98.7295 39.7765 98.8093 40.1592 98.8281 40.5771C98.8515 40.9949 98.8374 41.4128 98.7858 41.8307L98.6802 42.5561H94.0531L94.2432 41.4926L97.6097 41.4997L97.6378 41.3095C97.6754 41.0231 97.6824 40.7297 97.659 40.4292C97.6355 40.124 97.5463 39.8658 97.3913 39.6545C97.2364 39.4385 96.9829 39.3211 96.6307 39.3023C96.2692 39.2836 95.9687 39.3516 95.7292 39.5066C95.4945 39.6615 95.3043 39.8704 95.1588 40.1334C95.0132 40.3963 94.9005 40.6827 94.8207 40.9926C94.7456 41.2978 94.6916 41.5936 94.6587 41.88L94.5531 42.7462C94.5249 43.0045 94.5155 43.2698 94.5249 43.5421C94.5343 43.8097 94.5789 44.0585 94.6587 44.2886C94.7433 44.5187 94.8771 44.7065 95.0602 44.852C95.248 44.9929 95.5062 45.068 95.8349 45.0774C96.2011 45.0868 96.5298 45.0117 96.8209 44.852C97.1167 44.6924 97.3866 44.4811 97.6308 44.2182L98.2224 45.014C98.0205 45.2722 97.7857 45.4859 97.5181 45.6549C97.2552 45.8239 96.9711 45.9484 96.6659 46.0282C96.3607 46.108 96.0438 46.1456 95.7152 46.1409ZM103.483 43.9928C103.516 43.7581 103.474 43.5609 103.357 43.4012C103.244 43.2369 103.094 43.0984 102.906 42.9857C102.723 42.873 102.542 42.7721 102.364 42.6829C102.119 42.5608 101.882 42.434 101.652 42.3025C101.427 42.1711 101.225 42.0208 101.047 41.8518C100.868 41.6828 100.73 41.4856 100.631 41.2602C100.532 41.0349 100.492 40.7672 100.511 40.4573C100.53 40.1193 100.612 39.8118 100.758 39.5347C100.903 39.2577 101.096 39.023 101.335 38.8305C101.575 38.6333 101.845 38.483 102.145 38.3797C102.446 38.2764 102.76 38.2295 103.089 38.2389C103.544 38.2483 103.934 38.3539 104.258 38.5558C104.587 38.753 104.833 39.0253 104.998 39.3728C105.167 39.7155 105.242 40.1099 105.223 40.5559L104.019 40.5489C104.028 40.3329 103.997 40.1334 103.927 39.9503C103.861 39.7625 103.753 39.6122 103.603 39.4995C103.453 39.3822 103.258 39.3211 103.018 39.3164C102.793 39.3164 102.587 39.361 102.399 39.4502C102.211 39.5394 102.056 39.6662 101.934 39.8305C101.817 39.9949 101.741 40.1897 101.709 40.4151C101.685 40.5794 101.699 40.7226 101.751 40.8447C101.807 40.9621 101.887 41.0654 101.99 41.1546C102.094 41.2438 102.209 41.3236 102.335 41.394C102.467 41.4598 102.596 41.5232 102.723 41.5842C103.061 41.7485 103.385 41.9269 103.695 42.1194C104.004 42.3119 104.253 42.549 104.441 42.8308C104.634 43.1078 104.718 43.4623 104.695 43.8942C104.671 44.2557 104.584 44.5774 104.434 44.8591C104.284 45.1408 104.084 45.3779 103.835 45.5704C103.591 45.7629 103.312 45.9084 102.997 46.007C102.687 46.1056 102.359 46.1502 102.011 46.1409C101.542 46.1315 101.129 46.0235 100.772 45.8169C100.42 45.6103 100.147 45.3262 99.9549 44.9647C99.7671 44.6032 99.6826 44.1853 99.7014 43.7111L100.927 43.7181C100.917 43.9764 100.95 44.2064 101.025 44.4083C101.101 44.6102 101.223 44.7699 101.392 44.8872C101.565 44.9999 101.791 45.0586 102.068 45.0633C102.298 45.0633 102.514 45.0258 102.716 44.9506C102.918 44.8708 103.087 44.7534 103.223 44.5985C103.364 44.4389 103.45 44.237 103.483 43.9928ZM109.956 38.3797L109.78 39.3798H106.315L106.498 38.3797H109.956ZM107.941 36.5275H109.16L107.871 44.1266C107.857 44.2487 107.852 44.3778 107.857 44.514C107.862 44.6501 107.892 44.7652 107.948 44.8591C108.009 44.953 108.12 45.0023 108.279 45.007C108.364 45.007 108.448 44.9999 108.533 44.9858C108.617 44.9671 108.7 44.9506 108.779 44.9365L108.674 46.007C108.547 46.054 108.416 46.0869 108.279 46.1056C108.148 46.1291 108.014 46.1385 107.878 46.1338C107.512 46.1291 107.237 46.0211 107.054 45.8098C106.876 45.5939 106.761 45.3309 106.709 45.0211C106.657 44.7065 106.646 44.4013 106.674 44.1055L107.941 36.5275ZM113.928 44.6971L114.597 40.5489C114.62 40.3048 114.606 40.0911 114.555 39.908C114.508 39.7202 114.409 39.5723 114.259 39.4643C114.113 39.3563 113.907 39.3023 113.639 39.3023C113.395 39.2976 113.177 39.3469 112.984 39.4502C112.792 39.5488 112.632 39.6873 112.505 39.8658C112.383 40.0442 112.299 40.2508 112.252 40.4855L111.047 40.4926C111.08 40.1498 111.176 39.8399 111.336 39.5629C111.5 39.2812 111.709 39.0418 111.963 38.8446C112.216 38.6427 112.498 38.4901 112.808 38.3868C113.118 38.2788 113.439 38.2271 113.773 38.2318C114.252 38.2365 114.651 38.3375 114.97 38.5347C115.289 38.7272 115.519 38.9995 115.66 39.3516C115.806 39.6991 115.855 40.1076 115.808 40.5771L115.188 44.3379C115.146 44.6055 115.13 44.8638 115.139 45.1126C115.148 45.3615 115.16 45.6173 115.174 45.8803L115.16 46L113.942 46.007C113.895 45.7911 113.874 45.5727 113.878 45.3521C113.883 45.1314 113.9 44.9131 113.928 44.6971ZM114.688 41.3799L114.54 42.2955L113.766 42.2885C113.517 42.2885 113.268 42.3166 113.019 42.373C112.775 42.4293 112.547 42.5185 112.336 42.6406C112.129 42.758 111.956 42.9153 111.815 43.1125C111.679 43.305 111.594 43.5421 111.561 43.8238C111.533 44.0538 111.54 44.2604 111.582 44.4435C111.629 44.622 111.721 44.7652 111.857 44.8732C111.998 44.9765 112.195 45.0281 112.449 45.0281C112.712 45.0281 112.965 44.9694 113.209 44.852C113.454 44.7347 113.662 44.575 113.836 44.3731C114.015 44.1712 114.132 43.9412 114.188 43.6829L114.378 44.2745C114.322 44.5187 114.226 44.7558 114.09 44.9858C113.958 45.2112 113.796 45.4131 113.604 45.5915C113.411 45.7652 113.195 45.9014 112.956 46C112.721 46.1033 112.47 46.1549 112.202 46.1549C111.775 46.1549 111.416 46.0587 111.125 45.8662C110.834 45.6737 110.618 45.4155 110.477 45.0915C110.336 44.7628 110.28 44.3919 110.308 43.9787C110.331 43.5374 110.437 43.1524 110.625 42.8237C110.817 42.4951 111.066 42.2251 111.371 42.0138C111.676 41.7978 112.017 41.6382 112.392 41.5349C112.773 41.4269 113.167 41.3729 113.576 41.3729L114.688 41.3799ZM120.801 38.3797L120.625 39.3798H117.16L117.343 38.3797H120.801ZM118.787 36.5275H120.006L118.717 44.1266C118.703 44.2487 118.698 44.3778 118.703 44.514C118.707 44.6501 118.738 44.7652 118.794 44.8591C118.855 44.953 118.966 45.0023 119.125 45.007C119.21 45.007 119.294 44.9999 119.379 44.9858C119.463 44.9671 119.546 44.9506 119.625 44.9365L119.52 46.007C119.393 46.054 119.261 46.0869 119.125 46.1056C118.994 46.1291 118.86 46.1385 118.724 46.1338C118.358 46.1291 118.083 46.0211 117.9 45.8098C117.721 45.5939 117.606 45.3309 117.555 45.0211C117.503 44.7065 117.491 44.4013 117.52 44.1055L118.787 36.5275ZM123.647 46.1409C123.154 46.1315 122.743 46.0329 122.414 45.8451C122.086 45.6573 121.83 45.4037 121.647 45.0844C121.463 44.7652 121.341 44.4036 121.28 43.9999C121.224 43.5961 121.219 43.1759 121.266 42.7392L121.372 41.88C121.428 41.4292 121.534 40.9856 121.689 40.5489C121.844 40.1123 122.053 39.7179 122.316 39.3657C122.579 39.0089 122.903 38.7272 123.288 38.5206C123.673 38.314 124.123 38.2201 124.64 38.2389C125.152 38.253 125.558 38.368 125.858 38.584C126.159 38.7999 126.379 39.0817 126.52 39.4291C126.661 39.7765 126.741 40.1592 126.76 40.5771C126.783 40.9949 126.769 41.4128 126.717 41.8307L126.612 42.5561H121.985L122.175 41.4926L125.541 41.4997L125.569 41.3095C125.607 41.0231 125.614 40.7297 125.591 40.4292C125.567 40.124 125.478 39.8658 125.323 39.6545C125.168 39.4385 124.914 39.3211 124.562 39.3023C124.201 39.2836 123.9 39.3516 123.661 39.5066C123.426 39.6615 123.236 39.8704 123.09 40.1334C122.945 40.3963 122.832 40.6827 122.752 40.9926C122.677 41.2978 122.623 41.5936 122.59 41.88L122.485 42.7462C122.457 43.0045 122.447 43.2698 122.457 43.5421C122.466 43.8097 122.511 44.0585 122.59 44.2886C122.675 44.5187 122.809 44.7065 122.992 44.852C123.18 44.9929 123.438 45.068 123.766 45.0774C124.133 45.0868 124.461 45.0117 124.752 44.852C125.048 44.6924 125.318 44.4811 125.562 44.2182L126.154 45.014C125.952 45.2722 125.717 45.4859 125.45 45.6549C125.187 45.8239 124.903 45.9484 124.598 46.0282C124.292 46.108 123.975 46.1456 123.647 46.1409ZM134.697 43.9928C134.73 43.7581 134.687 43.5609 134.57 43.4012C134.457 43.2369 134.307 43.0984 134.119 42.9857C133.936 42.873 133.755 42.7721 133.577 42.6829C133.333 42.5608 133.096 42.434 132.866 42.3025C132.64 42.1711 132.438 42.0208 132.26 41.8518C132.082 41.6828 131.943 41.4856 131.845 41.2602C131.746 41.0349 131.706 40.7672 131.725 40.4573C131.744 40.1193 131.826 39.8118 131.971 39.5347C132.117 39.2577 132.309 39.023 132.549 38.8305C132.788 38.6333 133.058 38.483 133.359 38.3797C133.659 38.2764 133.974 38.2295 134.302 38.2389C134.758 38.2483 135.148 38.3539 135.472 38.5558C135.8 38.753 136.047 39.0253 136.211 39.3728C136.38 39.7155 136.455 40.1099 136.436 40.5559L135.232 40.5489C135.241 40.3329 135.211 40.1334 135.141 39.9503C135.075 39.7625 134.967 39.6122 134.817 39.4995C134.666 39.3822 134.471 39.3211 134.232 39.3164C134.007 39.3164 133.8 39.361 133.612 39.4502C133.424 39.5394 133.27 39.6662 133.147 39.8305C133.03 39.9949 132.955 40.1897 132.922 40.4151C132.899 40.5794 132.913 40.7226 132.964 40.8447C133.021 40.9621 133.1 41.0654 133.204 41.1546C133.307 41.2438 133.422 41.3236 133.549 41.394C133.68 41.4598 133.809 41.5232 133.936 41.5842C134.274 41.7485 134.598 41.9269 134.908 42.1194C135.218 42.3119 135.467 42.549 135.655 42.8308C135.847 43.1078 135.932 43.4623 135.908 43.8942C135.885 44.2557 135.798 44.5774 135.648 44.8591C135.497 45.1408 135.298 45.3779 135.049 45.5704C134.805 45.7629 134.525 45.9084 134.211 46.007C133.901 46.1056 133.572 46.1502 133.225 46.1409C132.755 46.1315 132.342 46.0235 131.985 45.8169C131.633 45.6103 131.361 45.3262 131.168 44.9647C130.981 44.6032 130.896 44.1853 130.915 43.7111L132.14 43.7181C132.131 43.9764 132.164 44.2064 132.239 44.4083C132.314 44.6102 132.436 44.7699 132.605 44.8872C132.779 44.9999 133.004 45.0586 133.281 45.0633C133.511 45.0633 133.727 45.0258 133.929 44.9506C134.131 44.8708 134.3 44.7534 134.436 44.5985C134.577 44.4389 134.664 44.237 134.697 43.9928ZM141.169 38.3797L140.993 39.3798H137.528L137.711 38.3797H141.169ZM139.155 36.5275H140.373L139.084 44.1266C139.07 44.2487 139.066 44.3778 139.07 44.514C139.075 44.6501 139.106 44.7652 139.162 44.8591C139.223 44.953 139.333 45.0023 139.493 45.007C139.577 45.007 139.662 44.9999 139.747 44.9858C139.831 44.9671 139.913 44.9506 139.993 44.9365L139.887 46.007C139.761 46.054 139.629 46.0869 139.493 46.1056C139.362 46.1291 139.228 46.1385 139.092 46.1338C138.725 46.1291 138.451 46.0211 138.268 45.8098C138.089 45.5939 137.974 45.3309 137.922 45.0211C137.871 44.7065 137.859 44.4013 137.887 44.1055L139.155 36.5275ZM145.141 44.6971L145.81 40.5489C145.834 40.3048 145.82 40.0911 145.768 39.908C145.721 39.7202 145.623 39.5723 145.472 39.4643C145.327 39.3563 145.12 39.3023 144.853 39.3023C144.608 39.2976 144.39 39.3469 144.198 39.4502C144.005 39.5488 143.845 39.6873 143.719 39.8658C143.597 40.0442 143.512 40.2508 143.465 40.4855L142.261 40.4926C142.294 40.1498 142.39 39.8399 142.55 39.5629C142.714 39.2812 142.923 39.0418 143.176 38.8446C143.43 38.6427 143.712 38.4901 144.021 38.3868C144.331 38.2788 144.653 38.2271 144.986 38.2318C145.465 38.2365 145.864 38.3375 146.184 38.5347C146.503 38.7272 146.733 38.9995 146.874 39.3516C147.019 39.6991 147.069 40.1076 147.022 40.5771L146.402 44.3379C146.36 44.6055 146.343 44.8638 146.353 45.1126C146.362 45.3615 146.374 45.6173 146.388 45.8803L146.374 46L145.155 46.007C145.108 45.7911 145.087 45.5727 145.092 45.3521C145.097 45.1314 145.113 44.9131 145.141 44.6971ZM145.902 41.3799L145.754 42.2955L144.979 42.2885C144.73 42.2885 144.482 42.3166 144.233 42.373C143.989 42.4293 143.761 42.5185 143.55 42.6406C143.343 42.758 143.169 42.9153 143.028 43.1125C142.892 43.305 142.808 43.5421 142.775 43.8238C142.747 44.0538 142.754 44.2604 142.796 44.4435C142.843 44.622 142.935 44.7652 143.071 44.8732C143.212 44.9765 143.409 45.0281 143.662 45.0281C143.925 45.0281 144.179 44.9694 144.423 44.852C144.667 44.7347 144.876 44.575 145.05 44.3731C145.228 44.1712 145.346 43.9412 145.402 43.6829L145.592 44.2745C145.536 44.5187 145.439 44.7558 145.303 44.9858C145.172 45.2112 145.01 45.4131 144.817 45.5915C144.625 45.7652 144.409 45.9014 144.169 46C143.935 46.1033 143.683 46.1549 143.416 46.1549C142.989 46.1549 142.629 46.0587 142.338 45.8662C142.047 45.6737 141.831 45.4155 141.69 45.0915C141.549 44.7628 141.493 44.3919 141.521 43.9787C141.545 43.5374 141.65 43.1524 141.838 42.8237C142.031 42.4951 142.28 42.2251 142.585 42.0138C142.89 41.7978 143.23 41.6382 143.606 41.5349C143.986 41.4269 144.381 41.3729 144.789 41.3729L145.902 41.3799ZM151.17 35.1823L149.289 46H148.078L149.959 35.1823H151.17ZM154.381 35.1823L152.501 46H151.29L153.17 35.1823H154.381ZM158.346 43.9928C158.379 43.7581 158.337 43.5609 158.22 43.4012C158.107 43.2369 157.957 43.0984 157.769 42.9857C157.586 42.873 157.405 42.7721 157.227 42.6829C156.982 42.5608 156.745 42.434 156.515 42.3025C156.29 42.1711 156.088 42.0208 155.91 41.8518C155.731 41.6828 155.593 41.4856 155.494 41.2602C155.396 41.0349 155.356 40.7672 155.374 40.4573C155.393 40.1193 155.475 39.8118 155.621 39.5347C155.766 39.2577 155.959 39.023 156.198 38.8305C156.438 38.6333 156.708 38.483 157.008 38.3797C157.309 38.2764 157.623 38.2295 157.952 38.2389C158.407 38.2483 158.797 38.3539 159.121 38.5558C159.45 38.753 159.696 39.0253 159.861 39.3728C160.03 39.7155 160.105 40.1099 160.086 40.5559L158.882 40.5489C158.891 40.3329 158.861 40.1334 158.79 39.9503C158.724 39.7625 158.616 39.6122 158.466 39.4995C158.316 39.3822 158.121 39.3211 157.882 39.3164C157.656 39.3164 157.45 39.361 157.262 39.4502C157.074 39.5394 156.919 39.6662 156.797 39.8305C156.68 39.9949 156.605 40.1897 156.572 40.4151C156.548 40.5794 156.562 40.7226 156.614 40.8447C156.67 40.9621 156.75 41.0654 156.853 41.1546C156.957 41.2438 157.072 41.3236 157.198 41.394C157.33 41.4598 157.459 41.5232 157.586 41.5842C157.924 41.7485 158.248 41.9269 158.558 42.1194C158.868 42.3119 159.116 42.549 159.304 42.8308C159.497 43.1078 159.581 43.4623 159.558 43.8942C159.534 44.2557 159.447 44.5774 159.297 44.8591C159.147 45.1408 158.947 45.3779 158.699 45.5704C158.454 45.7629 158.175 45.9084 157.86 46.007C157.551 46.1056 157.222 46.1502 156.875 46.1409C156.405 46.1315 155.992 46.0235 155.635 45.8169C155.283 45.6103 155.011 45.3262 154.818 44.9647C154.63 44.6032 154.546 44.1853 154.564 43.7111L155.79 43.7181C155.781 43.9764 155.813 44.2064 155.889 44.4083C155.964 44.6102 156.086 44.7699 156.255 44.8872C156.428 44.9999 156.654 45.0586 156.931 45.0633C157.161 45.0633 157.377 45.0258 157.579 44.9506C157.781 44.8708 157.95 44.7534 158.086 44.5985C158.227 44.4389 158.314 44.237 158.346 43.9928ZM162.269 44.4506L162.1 45.4929C162.02 46.0047 161.84 46.4813 161.558 46.9226C161.276 47.3639 160.931 47.7396 160.523 48.0494L159.818 47.5212C159.983 47.3193 160.133 47.1128 160.269 46.9015C160.405 46.6949 160.52 46.4766 160.614 46.2465C160.713 46.0164 160.788 45.7746 160.84 45.5211L161.023 44.4506H162.269ZM169.46 38.3797L168.136 46H166.925L168.249 38.3797H169.46ZM168.53 36.3725C168.54 36.166 168.605 35.9875 168.727 35.8373C168.85 35.6824 169.016 35.6025 169.228 35.5978C169.448 35.5931 169.62 35.6659 169.742 35.8162C169.864 35.9664 169.92 36.1448 169.911 36.3514C169.901 36.5486 169.833 36.7223 169.706 36.8726C169.58 37.0181 169.413 37.0933 169.206 37.0979C168.99 37.1026 168.821 37.0346 168.699 36.8937C168.582 36.7482 168.526 36.5744 168.53 36.3725ZM174.073 38.3797L173.897 39.3798H170.432L170.615 38.3797H174.073ZM172.059 36.5275H173.277L171.988 44.1266C171.974 44.2487 171.969 44.3778 171.974 44.514C171.979 44.6501 172.009 44.7652 172.066 44.8591C172.127 44.953 172.237 45.0023 172.397 45.007C172.481 45.007 172.566 44.9999 172.65 44.9858C172.735 44.9671 172.817 44.9506 172.897 44.9365L172.791 46.007C172.664 46.054 172.533 46.0869 172.397 46.1056C172.265 46.1291 172.131 46.1385 171.995 46.1338C171.629 46.1291 171.354 46.0211 171.171 45.8098C170.993 45.5939 170.878 45.3309 170.826 45.0211C170.775 44.7065 170.763 44.4013 170.791 44.1055L172.059 36.5275ZM177.299 35.1823L177.151 36.0767C177.099 36.4101 177.005 36.7317 176.869 37.0416C176.737 37.3468 176.571 37.6355 176.369 37.9079C176.172 38.1755 175.944 38.4173 175.686 38.6333L175.031 38.1051C175.251 37.7999 175.439 37.483 175.594 37.1543C175.749 36.8256 175.862 36.4758 175.932 36.1049L176.094 35.1823H177.299ZM180.066 43.9928C180.099 43.7581 180.057 43.5609 179.94 43.4012C179.827 43.2369 179.677 43.0984 179.489 42.9857C179.306 42.873 179.125 42.7721 178.947 42.6829C178.702 42.5608 178.465 42.434 178.235 42.3025C178.01 42.1711 177.808 42.0208 177.63 41.8518C177.451 41.6828 177.313 41.4856 177.214 41.2602C177.115 41.0349 177.076 40.7672 177.094 40.4573C177.113 40.1193 177.195 39.8118 177.341 39.5347C177.486 39.2577 177.679 39.023 177.918 38.8305C178.158 38.6333 178.428 38.483 178.728 38.3797C179.029 38.2764 179.343 38.2295 179.672 38.2389C180.127 38.2483 180.517 38.3539 180.841 38.5558C181.17 38.753 181.416 39.0253 181.581 39.3728C181.75 39.7155 181.825 40.1099 181.806 40.5559L180.602 40.5489C180.611 40.3329 180.58 40.1334 180.51 39.9503C180.444 39.7625 180.336 39.6122 180.186 39.4995C180.036 39.3822 179.841 39.3211 179.602 39.3164C179.376 39.3164 179.17 39.361 178.982 39.4502C178.794 39.5394 178.639 39.6662 178.517 39.8305C178.4 39.9949 178.324 40.1897 178.292 40.4151C178.268 40.5794 178.282 40.7226 178.334 40.8447C178.39 40.9621 178.47 41.0654 178.573 41.1546C178.677 41.2438 178.792 41.3236 178.918 41.394C179.05 41.4598 179.179 41.5232 179.306 41.5842C179.644 41.7485 179.968 41.9269 180.278 42.1194C180.587 42.3119 180.836 42.549 181.024 42.8308C181.217 43.1078 181.301 43.4623 181.278 43.8942C181.254 44.2557 181.167 44.5774 181.017 44.8591C180.867 45.1408 180.667 45.3779 180.418 45.5704C180.174 45.7629 179.895 45.9084 179.58 46.007C179.27 46.1056 178.942 46.1502 178.594 46.1409C178.125 46.1315 177.712 46.0235 177.355 45.8169C177.003 45.6103 176.73 45.3262 176.538 44.9647C176.35 44.6032 176.266 44.1853 176.284 43.7111L177.51 43.7181C177.5 43.9764 177.533 44.2064 177.608 44.4083C177.684 44.6102 177.806 44.7699 177.975 44.8872C178.148 44.9999 178.374 45.0586 178.651 45.0633C178.881 45.0633 179.097 45.0258 179.299 44.9506C179.501 44.8708 179.67 44.7534 179.806 44.5985C179.947 44.4389 180.033 44.237 180.066 43.9928ZM189.842 44.1689L190.849 38.3797H192.067L190.743 46H189.588L189.842 44.1689ZM190.299 42.6054L190.722 42.5913C190.67 43.0045 190.591 43.4247 190.483 43.852C190.375 44.2745 190.217 44.6619 190.011 45.014C189.809 45.3662 189.539 45.6479 189.201 45.8591C188.863 46.0657 188.44 46.162 187.933 46.1479C187.539 46.1385 187.224 46.047 186.989 45.8732C186.755 45.6948 186.579 45.4671 186.461 45.1901C186.344 44.9084 186.273 44.6032 186.25 44.2745C186.226 43.9412 186.233 43.6149 186.271 43.2956L187.095 38.3797H188.306L187.482 43.3167C187.468 43.467 187.459 43.6383 187.454 43.8308C187.449 44.0233 187.466 44.2111 187.503 44.3943C187.546 44.5727 187.621 44.7229 187.729 44.845C187.842 44.9624 188.004 45.0258 188.215 45.0351C188.684 45.0586 189.062 44.9483 189.349 44.7041C189.635 44.46 189.851 44.1478 189.997 43.7674C190.147 43.3824 190.248 42.9951 190.299 42.6054ZM196.49 43.9928C196.523 43.7581 196.481 43.5609 196.363 43.4012C196.251 43.2369 196.1 43.0984 195.913 42.9857C195.729 42.873 195.549 42.7721 195.37 42.6829C195.126 42.5608 194.889 42.434 194.659 42.3025C194.434 42.1711 194.232 42.0208 194.053 41.8518C193.875 41.6828 193.736 41.4856 193.638 41.2602C193.539 41.0349 193.499 40.7672 193.518 40.4573C193.537 40.1193 193.619 39.8118 193.764 39.5347C193.91 39.2577 194.103 39.023 194.342 38.8305C194.581 38.6333 194.851 38.483 195.152 38.3797C195.452 38.2764 195.767 38.2295 196.096 38.2389C196.551 38.2483 196.941 38.3539 197.265 38.5558C197.593 38.753 197.84 39.0253 198.004 39.3728C198.173 39.7155 198.248 40.1099 198.23 40.5559L197.025 40.5489C197.035 40.3329 197.004 40.1334 196.934 39.9503C196.868 39.7625 196.76 39.6122 196.61 39.4995C196.46 39.3822 196.265 39.3211 196.025 39.3164C195.8 39.3164 195.593 39.361 195.405 39.4502C195.218 39.5394 195.063 39.6662 194.941 39.8305C194.823 39.9949 194.748 40.1897 194.715 40.4151C194.692 40.5794 194.706 40.7226 194.758 40.8447C194.814 40.9621 194.894 41.0654 194.997 41.1546C195.1 41.2438 195.215 41.3236 195.342 41.394C195.474 41.4598 195.603 41.5232 195.729 41.5842C196.067 41.7485 196.391 41.9269 196.701 42.1194C197.011 42.3119 197.26 42.549 197.448 42.8308C197.64 43.1078 197.725 43.4623 197.701 43.8942C197.678 44.2557 197.591 44.5774 197.441 44.8591C197.291 45.1408 197.091 45.3779 196.842 45.5704C196.598 45.7629 196.319 45.9084 196.004 46.007C195.694 46.1056 195.366 46.1502 195.018 46.1409C194.549 46.1315 194.135 46.0235 193.779 45.8169C193.426 45.6103 193.154 45.3262 192.962 44.9647C192.774 44.6032 192.689 44.1853 192.708 43.7111L193.934 43.7181C193.924 43.9764 193.957 44.2064 194.032 44.4083C194.107 44.6102 194.229 44.7699 194.398 44.8872C194.572 44.9999 194.797 45.0586 195.074 45.0633C195.305 45.0633 195.52 45.0258 195.722 44.9506C195.924 44.8708 196.093 44.7534 196.229 44.5985C196.37 44.4389 196.457 44.237 196.49 43.9928ZM202.983 44.1689L203.991 38.3797H205.209L203.885 46H202.73L202.983 44.1689ZM203.441 42.6054L203.864 42.5913C203.812 43.0045 203.732 43.4247 203.624 43.852C203.516 44.2745 203.359 44.6619 203.152 45.014C202.951 45.3662 202.681 45.6479 202.343 45.8591C202.005 46.0657 201.582 46.162 201.075 46.1479C200.68 46.1385 200.366 46.047 200.131 45.8732C199.896 45.6948 199.72 45.4671 199.603 45.1901C199.486 44.9084 199.415 44.6032 199.392 44.2745C199.368 43.9412 199.375 43.6149 199.413 43.2956L200.237 38.3797H201.448L200.624 43.3167C200.61 43.467 200.601 43.6383 200.596 43.8308C200.591 44.0233 200.608 44.2111 200.645 44.3943C200.688 44.5727 200.763 44.7229 200.871 44.845C200.983 44.9624 201.145 45.0258 201.357 45.0351C201.826 45.0586 202.204 44.9483 202.49 44.7041C202.777 44.46 202.993 44.1478 203.138 43.7674C203.289 43.3824 203.39 42.9951 203.441 42.6054ZM209.554 44.6971L210.223 40.5489C210.247 40.3048 210.233 40.0911 210.181 39.908C210.134 39.7202 210.036 39.5723 209.885 39.4643C209.74 39.3563 209.533 39.3023 209.266 39.3023C209.021 39.2976 208.803 39.3469 208.611 39.4502C208.418 39.5488 208.259 39.6873 208.132 39.8658C208.01 40.0442 207.925 40.2508 207.878 40.4855L206.674 40.4926C206.707 40.1498 206.803 39.8399 206.963 39.5629C207.127 39.2812 207.336 39.0418 207.589 38.8446C207.843 38.6427 208.125 38.4901 208.435 38.3868C208.744 38.2788 209.066 38.2271 209.399 38.2318C209.878 38.2365 210.277 38.3375 210.597 38.5347C210.916 38.7272 211.146 38.9995 211.287 39.3516C211.432 39.6991 211.482 40.1076 211.435 40.5771L210.815 44.3379C210.773 44.6055 210.756 44.8638 210.766 45.1126C210.775 45.3615 210.787 45.6173 210.801 45.8803L210.787 46L209.568 46.007C209.522 45.7911 209.5 45.5727 209.505 45.3521C209.51 45.1314 209.526 44.9131 209.554 44.6971ZM210.315 41.3799L210.167 42.2955L209.392 42.2885C209.144 42.2885 208.895 42.3166 208.646 42.373C208.402 42.4293 208.174 42.5185 207.963 42.6406C207.756 42.758 207.582 42.9153 207.442 43.1125C207.305 43.305 207.221 43.5421 207.188 43.8238C207.16 44.0538 207.167 44.2604 207.209 44.4435C207.256 44.622 207.348 44.7652 207.484 44.8732C207.625 44.9765 207.822 45.0281 208.075 45.0281C208.338 45.0281 208.592 44.9694 208.836 44.852C209.08 44.7347 209.289 44.575 209.463 44.3731C209.641 44.1712 209.759 43.9412 209.815 43.6829L210.005 44.2745C209.949 44.5187 209.853 44.7558 209.716 44.9858C209.585 45.2112 209.423 45.4131 209.23 45.5915C209.038 45.7652 208.822 45.9014 208.582 46C208.348 46.1033 208.097 46.1549 207.829 46.1549C207.402 46.1549 207.042 46.0587 206.751 45.8662C206.46 45.6737 206.244 45.4155 206.103 45.0915C205.963 44.7628 205.906 44.3919 205.934 43.9787C205.958 43.5374 206.064 43.1524 206.251 42.8237C206.444 42.4951 206.693 42.2251 206.998 42.0138C207.303 41.7978 207.643 41.6382 208.019 41.5349C208.399 41.4269 208.794 41.3729 209.202 41.3729L210.315 41.3799ZM215.583 35.1823L213.703 46H212.491L214.372 35.1823H215.583ZM218.794 35.1823L216.914 46H215.703L217.583 35.1823H218.794ZM220.689 45.1337L223.485 38.3797H224.816L220.879 47.1832C220.781 47.4086 220.663 47.6339 220.527 47.8593C220.396 48.0894 220.241 48.2983 220.062 48.4861C219.888 48.6739 219.689 48.8241 219.464 48.9368C219.243 49.0495 218.994 49.1035 218.717 49.0988C218.604 49.0988 218.492 49.0847 218.379 49.0566C218.262 49.0331 218.147 49.0049 218.034 48.972L218.154 47.9156C218.196 47.925 218.238 47.9321 218.28 47.9368C218.323 47.9462 218.365 47.9532 218.407 47.9579C218.694 47.972 218.935 47.9227 219.133 47.81C219.33 47.6973 219.496 47.5424 219.633 47.3452C219.769 47.1527 219.888 46.9367 219.992 46.6972L220.689 45.1337ZM220.781 38.3797L221.231 44.359L221.302 45.7112L220.393 46.169L219.492 38.3797H220.781ZM231.964 38.3797L231.788 39.3798H228.323L228.506 38.3797H231.964ZM229.95 36.5275H231.169L229.88 44.1266C229.866 44.2487 229.861 44.3778 229.866 44.514C229.87 44.6501 229.901 44.7652 229.957 44.8591C230.018 44.953 230.129 45.0023 230.288 45.007C230.373 45.007 230.457 44.9999 230.542 44.9858C230.626 44.9671 230.708 44.9506 230.788 44.9365L230.683 46.007C230.556 46.054 230.424 46.0869 230.288 46.1056C230.157 46.1291 230.023 46.1385 229.887 46.1338C229.521 46.1291 229.246 46.0211 229.063 45.8098C228.884 45.5939 228.769 45.3309 228.718 45.0211C228.666 44.7065 228.654 44.4013 228.683 44.1055L229.95 36.5275ZM235.169 35.1823L233.288 46H232.07L233.951 35.1823H235.169ZM233.753 41.9293L233.31 41.9082C233.361 41.5091 233.45 41.0935 233.577 40.6616C233.709 40.2249 233.889 39.8211 234.12 39.4502C234.35 39.0746 234.638 38.7741 234.986 38.5488C235.338 38.3234 235.76 38.2201 236.253 38.2389C236.634 38.2483 236.939 38.3375 237.169 38.5065C237.404 38.6755 237.575 38.8962 237.683 39.1685C237.796 39.4361 237.864 39.7319 237.887 40.0559C237.911 40.3752 237.906 40.6921 237.873 41.0067L237.042 46H235.824L236.662 40.9856C236.685 40.7414 236.688 40.4949 236.669 40.2461C236.655 39.9925 236.584 39.7789 236.458 39.6052C236.331 39.4268 236.113 39.3329 235.803 39.3235C235.479 39.3141 235.195 39.3939 234.951 39.5629C234.711 39.7319 234.509 39.9526 234.345 40.2249C234.181 40.4926 234.049 40.779 233.951 41.0842C233.857 41.3846 233.791 41.6664 233.753 41.9293ZM241.571 46.1409C241.078 46.1315 240.667 46.0329 240.338 45.8451C240.01 45.6573 239.754 45.4037 239.571 45.0844C239.388 44.7652 239.265 44.4036 239.204 43.9999C239.148 43.5961 239.143 43.1759 239.19 42.7392L239.296 41.88C239.352 41.4292 239.458 40.9856 239.613 40.5489C239.768 40.1123 239.977 39.7179 240.24 39.3657C240.503 39.0089 240.827 38.7272 241.212 38.5206C241.597 38.314 242.047 38.2201 242.564 38.2389C243.076 38.253 243.482 38.368 243.782 38.584C244.083 38.7999 244.303 39.0817 244.444 39.4291C244.585 39.7765 244.665 40.1592 244.684 40.5771C244.707 40.9949 244.693 41.4128 244.641 41.8307L244.536 42.5561H239.909L240.099 41.4926L243.465 41.4997L243.493 41.3095C243.531 41.0231 243.538 40.7297 243.515 40.4292C243.491 40.124 243.402 39.8658 243.247 39.6545C243.092 39.4385 242.838 39.3211 242.486 39.3023C242.125 39.2836 241.824 39.3516 241.585 39.5066C241.35 39.6615 241.16 39.8704 241.014 40.1334C240.869 40.3963 240.756 40.6827 240.676 40.9926C240.601 41.2978 240.547 41.5936 240.514 41.88L240.409 42.7462C240.381 43.0045 240.371 43.2698 240.381 43.5421C240.39 43.8097 240.435 44.0585 240.514 44.2886C240.599 44.5187 240.733 44.7065 240.916 44.852C241.104 44.9929 241.362 45.068 241.69 45.0774C242.057 45.0868 242.385 45.0117 242.676 44.852C242.972 44.6924 243.242 44.4811 243.486 44.2182L244.078 45.014C243.876 45.2722 243.641 45.4859 243.374 45.6549C243.111 45.8239 242.827 45.9484 242.522 46.0282C242.216 46.108 241.899 46.1456 241.571 46.1409ZM250.952 39.9221L249.388 48.9298H248.17L250.001 38.3797H251.107L250.952 39.9221ZM254.727 41.8448L254.635 42.549C254.583 42.9622 254.494 43.3848 254.367 43.8167C254.245 44.244 254.072 44.6361 253.846 44.9929C253.626 45.3497 253.342 45.6361 252.994 45.8521C252.647 46.0634 252.222 46.1596 251.719 46.1409C251.287 46.1268 250.935 46.0141 250.663 45.8028C250.395 45.5915 250.191 45.3192 250.05 44.9858C249.914 44.6525 249.825 44.2957 249.783 43.9153C249.74 43.5303 249.733 43.1618 249.762 42.8096L249.909 41.725C249.975 41.34 250.076 40.9433 250.212 40.5348C250.348 40.1216 250.529 39.739 250.755 39.3868C250.98 39.0347 251.259 38.7506 251.593 38.5347C251.931 38.3187 252.332 38.2177 252.797 38.2318C253.29 38.2459 253.677 38.368 253.959 38.5981C254.241 38.8234 254.443 39.1169 254.565 39.4784C254.691 39.8352 254.762 40.2226 254.776 40.6405C254.79 41.0536 254.774 41.4551 254.727 41.8448ZM253.431 42.5561L253.515 41.8377C253.543 41.5889 253.56 41.3236 253.565 41.0419C253.574 40.7555 253.546 40.4832 253.48 40.2249C253.419 39.9667 253.299 39.7554 253.121 39.5911C252.947 39.4221 252.694 39.3329 252.36 39.3235C252.107 39.3188 251.872 39.3704 251.656 39.4784C251.445 39.5864 251.255 39.7319 251.086 39.9151C250.917 40.0982 250.773 40.3024 250.656 40.5278C250.543 40.7484 250.459 40.9715 250.402 41.1968L250.057 43.3449C250.053 43.6172 250.102 43.8848 250.205 44.1478C250.308 44.406 250.459 44.622 250.656 44.7957C250.858 44.9694 251.107 45.0633 251.402 45.0774C251.759 45.0962 252.057 45.0304 252.297 44.8802C252.541 44.73 252.738 44.5304 252.888 44.2816C253.043 44.028 253.163 43.751 253.248 43.4505C253.332 43.1453 253.393 42.8472 253.431 42.5561ZM257.903 39.6263L256.797 46H255.579L256.903 38.3797H258.079L257.903 39.6263ZM259.938 38.3304L259.804 39.5418C259.715 39.523 259.624 39.5066 259.53 39.4925C259.441 39.4784 259.351 39.4714 259.262 39.4714C258.985 39.4667 258.746 39.5207 258.544 39.6333C258.342 39.746 258.168 39.8963 258.023 40.0841C257.882 40.2719 257.762 40.4785 257.663 40.7038C257.565 40.9292 257.485 41.1569 257.424 41.387L257.065 41.5983C257.107 41.279 257.173 40.9245 257.262 40.5348C257.356 40.1404 257.49 39.7648 257.663 39.408C257.837 39.0464 258.065 38.753 258.347 38.5276C258.628 38.3023 258.98 38.199 259.403 38.2177C259.497 38.2224 259.586 38.2365 259.671 38.26C259.76 38.2788 259.849 38.3023 259.938 38.3304ZM260.072 42.5561L260.164 41.8377C260.225 41.3823 260.337 40.9386 260.502 40.5066C260.671 40.0747 260.894 39.685 261.171 39.3375C261.448 38.9901 261.781 38.7154 262.171 38.5135C262.565 38.3117 263.021 38.2201 263.537 38.2389C264.025 38.253 264.432 38.368 264.756 38.584C265.08 38.7953 265.331 39.0746 265.509 39.4221C265.692 39.7695 265.812 40.1522 265.868 40.57C265.925 40.9879 265.932 41.4081 265.889 41.8307L265.798 42.5561C265.737 43.0068 265.622 43.4505 265.453 43.8872C265.288 44.3191 265.065 44.7088 264.784 45.0563C264.507 45.399 264.171 45.6713 263.777 45.8732C263.387 46.0704 262.936 46.1596 262.424 46.1409C261.931 46.1315 261.523 46.0188 261.199 45.8028C260.88 45.5868 260.628 45.3051 260.445 44.9577C260.267 44.6102 260.15 44.2276 260.093 43.8097C260.037 43.3918 260.03 42.974 260.072 42.5561ZM261.382 41.8307L261.291 42.5702C261.267 42.8049 261.258 43.0655 261.262 43.3519C261.267 43.6336 261.307 43.9036 261.382 44.1618C261.457 44.4201 261.582 44.6361 261.755 44.8098C261.934 44.9788 262.18 45.0704 262.495 45.0844C262.852 45.1032 263.152 45.0375 263.396 44.8872C263.645 44.737 263.849 44.5375 264.009 44.2886C264.173 44.0351 264.3 43.7581 264.389 43.4576C264.479 43.1524 264.542 42.8519 264.579 42.5561L264.671 41.8236C264.695 41.5889 264.704 41.3306 264.699 41.0489C264.695 40.7672 264.655 40.4973 264.579 40.239C264.504 39.9761 264.378 39.7578 264.199 39.584C264.025 39.4103 263.779 39.3164 263.46 39.3023C263.126 39.2882 262.835 39.3587 262.586 39.5136C262.342 39.6639 262.138 39.8681 261.974 40.1263C261.809 40.3846 261.678 40.6639 261.579 40.9644C261.485 41.2649 261.42 41.5537 261.382 41.8307ZM269.009 39.9221L267.446 48.9298H266.227L268.059 38.3797H269.164L269.009 39.9221ZM272.784 41.8448L272.693 42.549C272.641 42.9622 272.552 43.3848 272.425 43.8167C272.303 44.244 272.129 44.6361 271.904 44.9929C271.683 45.3497 271.399 45.6361 271.052 45.8521C270.704 46.0634 270.279 46.1596 269.777 46.1409C269.345 46.1268 268.993 46.0141 268.721 45.8028C268.453 45.5915 268.249 45.3192 268.108 44.9858C267.972 44.6525 267.883 44.2957 267.84 43.9153C267.798 43.5303 267.791 43.1618 267.819 42.8096L267.967 41.725C268.033 41.34 268.134 40.9433 268.27 40.5348C268.406 40.1216 268.587 39.739 268.812 39.3868C269.038 39.0347 269.317 38.7506 269.65 38.5347C269.988 38.3187 270.39 38.2177 270.855 38.2318C271.348 38.2459 271.735 38.368 272.017 38.5981C272.298 38.8234 272.5 39.1169 272.622 39.4784C272.749 39.8352 272.82 40.2226 272.834 40.6405C272.848 41.0536 272.831 41.4551 272.784 41.8448ZM271.488 42.5561L271.573 41.8377C271.601 41.5889 271.618 41.3236 271.622 41.0419C271.632 40.7555 271.603 40.4832 271.538 40.2249C271.477 39.9667 271.357 39.7554 271.179 39.5911C271.005 39.4221 270.751 39.3329 270.418 39.3235C270.164 39.3188 269.93 39.3704 269.714 39.4784C269.502 39.5864 269.312 39.7319 269.143 39.9151C268.974 40.0982 268.831 40.3024 268.714 40.5278C268.601 40.7484 268.516 40.9715 268.46 41.1968L268.115 43.3449C268.11 43.6172 268.16 43.8848 268.263 44.1478C268.366 44.406 268.516 44.622 268.714 44.7957C268.915 44.9694 269.164 45.0633 269.46 45.0774C269.817 45.0962 270.115 45.0304 270.355 44.8802C270.599 44.73 270.796 44.5304 270.946 44.2816C271.101 44.028 271.221 43.751 271.305 43.4505C271.39 43.1453 271.451 42.8472 271.488 42.5561ZM276.376 46.1409C275.883 46.1315 275.472 46.0329 275.144 45.8451C274.815 45.6573 274.559 45.4037 274.376 45.0844C274.193 44.7652 274.071 44.4036 274.01 43.9999C273.953 43.5961 273.949 43.1759 273.996 42.7392L274.101 41.88C274.158 41.4292 274.263 40.9856 274.418 40.5489C274.573 40.1123 274.782 39.7179 275.045 39.3657C275.308 39.0089 275.632 38.7272 276.017 38.5206C276.402 38.314 276.853 38.2201 277.369 38.2389C277.881 38.253 278.287 38.368 278.588 38.584C278.888 38.7999 279.109 39.0817 279.25 39.4291C279.39 39.7765 279.47 40.1592 279.489 40.5771C279.512 40.9949 279.498 41.4128 279.447 41.8307L279.341 42.5561H274.714L274.904 41.4926L278.271 41.4997L278.299 41.3095C278.336 41.0231 278.343 40.7297 278.32 40.4292C278.296 40.124 278.207 39.8658 278.052 39.6545C277.897 39.4385 277.644 39.3211 277.292 39.3023C276.93 39.2836 276.63 39.3516 276.39 39.5066C276.155 39.6615 275.965 39.8704 275.82 40.1334C275.674 40.3963 275.561 40.6827 275.482 40.9926C275.407 41.2978 275.353 41.5936 275.32 41.88L275.214 42.7462C275.186 43.0045 275.176 43.2698 275.186 43.5421C275.195 43.8097 275.24 44.0585 275.32 44.2886C275.404 44.5187 275.538 44.7065 275.721 44.852C275.909 44.9929 276.167 45.068 276.496 45.0774C276.862 45.0868 277.191 45.0117 277.482 44.852C277.778 44.6924 278.048 44.4811 278.292 44.2182L278.883 45.014C278.681 45.2722 278.447 45.4859 278.179 45.6549C277.916 45.8239 277.632 45.9484 277.327 46.0282C277.022 46.108 276.705 46.1456 276.376 46.1409ZM282.524 39.6263L281.419 46H280.2L281.524 38.3797H282.701L282.524 39.6263ZM284.56 38.3304L284.426 39.5418C284.337 39.523 284.245 39.5066 284.151 39.4925C284.062 39.4784 283.973 39.4714 283.884 39.4714C283.607 39.4667 283.367 39.5207 283.165 39.6333C282.963 39.746 282.79 39.8963 282.644 40.0841C282.503 40.2719 282.384 40.4785 282.285 40.7038C282.186 40.9292 282.107 41.1569 282.046 41.387L281.686 41.5983C281.729 41.279 281.794 40.9245 281.884 40.5348C281.977 40.1404 282.111 39.7648 282.285 39.408C282.459 39.0464 282.686 38.753 282.968 38.5276C283.25 38.3023 283.602 38.199 284.025 38.2177C284.118 38.2224 284.208 38.2365 284.292 38.26C284.381 38.2788 284.471 38.3023 284.56 38.3304ZM288.856 38.3797L288.68 39.3798H285.215L285.398 38.3797H288.856ZM286.842 36.5275H288.06L286.771 44.1266C286.757 44.2487 286.752 44.3778 286.757 44.514C286.762 44.6501 286.792 44.7652 286.849 44.8591C286.91 44.953 287.02 45.0023 287.18 45.007C287.264 45.007 287.349 44.9999 287.433 44.9858C287.518 44.9671 287.6 44.9506 287.68 44.9365L287.574 46.007C287.447 46.054 287.316 46.0869 287.18 46.1056C287.048 46.1291 286.914 46.1385 286.778 46.1338C286.412 46.1291 286.137 46.0211 285.954 45.8098C285.776 45.5939 285.661 45.3309 285.609 45.0211C285.558 44.7065 285.546 44.4013 285.574 44.1055L286.842 36.5275ZM290.835 45.1337L293.631 38.3797H294.962L291.025 47.1832C290.926 47.4086 290.809 47.6339 290.673 47.8593C290.541 48.0894 290.387 48.2983 290.208 48.4861C290.034 48.6739 289.835 48.8241 289.609 48.9368C289.389 49.0495 289.14 49.1035 288.863 49.0988C288.75 49.0988 288.638 49.0847 288.525 49.0566C288.407 49.0331 288.292 49.0049 288.18 48.972L288.3 47.9156C288.342 47.925 288.384 47.9321 288.426 47.9368C288.469 47.9462 288.511 47.9532 288.553 47.9579C288.839 47.972 289.081 47.9227 289.278 47.81C289.476 47.6973 289.642 47.5424 289.778 47.3452C289.915 47.1527 290.034 46.9367 290.138 46.6972L290.835 45.1337ZM290.926 38.3797L291.377 44.359L291.448 45.7112L290.539 46.169L289.638 38.3797H290.926ZM294.237 45.3309C294.237 45.1009 294.309 44.9084 294.455 44.7534C294.605 44.5985 294.795 44.5187 295.025 44.514C295.255 44.5093 295.443 44.5797 295.589 44.7253C295.739 44.8708 295.812 45.0586 295.807 45.2887C295.807 45.5187 295.732 45.7089 295.582 45.8591C295.436 46.0094 295.248 46.0869 295.018 46.0916C294.793 46.0963 294.605 46.0282 294.455 45.8873C294.305 45.7465 294.232 45.561 294.237 45.3309ZM47.3243 55.7457L45.5425 66H44.2889L46.0707 55.7457H47.3243ZM49.9372 55.7457L49.74 56.8585H43.2607L43.4579 55.7457H49.9372ZM52.5501 55.1823L50.6696 66H49.4512L51.3317 55.1823H52.5501ZM51.1345 61.9293L50.6908 61.9082C50.7424 61.5091 50.8316 61.0935 50.9584 60.6616C51.0899 60.2249 51.2706 59.8211 51.5007 59.4502C51.7308 59.0746 52.0195 58.7741 52.3669 58.5488C52.7191 58.3234 53.1417 58.2201 53.6346 58.2389C54.015 58.2483 54.3201 58.3375 54.5502 58.5065C54.785 58.6755 54.9563 58.8962 55.0643 59.1685C55.177 59.4361 55.2451 59.7319 55.2686 60.0559C55.292 60.3752 55.2873 60.6921 55.2545 61.0067L54.4234 66H53.205L54.0431 60.9856C54.0666 60.7414 54.0689 60.4949 54.0502 60.2461C54.0361 59.9925 53.9657 59.7789 53.8389 59.6052C53.7121 59.4268 53.4938 59.3329 53.1839 59.3235C52.8599 59.3141 52.5759 59.3939 52.3317 59.5629C52.0923 59.7319 51.8904 59.9526 51.7261 60.2249C51.5617 60.4926 51.4303 60.779 51.3317 61.0842C51.2378 61.3846 51.172 61.6664 51.1345 61.9293ZM58.9519 66.1409C58.4589 66.1315 58.0481 66.0329 57.7194 65.8451C57.3908 65.6573 57.1349 65.4037 56.9518 65.0844C56.7687 64.7652 56.6466 64.4036 56.5856 63.9999C56.5292 63.5961 56.5245 63.1759 56.5715 62.7392L56.6771 61.88C56.7335 61.4292 56.8391 60.9856 56.994 60.5489C57.149 60.1123 57.3579 59.7179 57.6208 59.3657C57.8838 59.0089 58.2077 58.7272 58.5927 58.5206C58.9778 58.314 59.4285 58.2201 59.945 58.2389C60.4567 58.253 60.8629 58.368 61.1634 58.584C61.4638 58.7999 61.6845 59.0817 61.8254 59.4291C61.9662 59.7765 62.046 60.1592 62.0648 60.5771C62.0883 60.9949 62.0742 61.4128 62.0226 61.8307L61.9169 62.5561H57.2898L57.48 61.4926L60.8464 61.4997L60.8746 61.3095C60.9122 61.0231 60.9192 60.7297 60.8957 60.4292C60.8723 60.124 60.783 59.8658 60.6281 59.6545C60.4732 59.4385 60.2196 59.3211 59.8675 59.3023C59.506 59.2836 59.2055 59.3516 58.966 59.5066C58.7313 59.6615 58.5411 59.8704 58.3956 60.1334C58.25 60.3963 58.1373 60.6827 58.0575 60.9926C57.9824 61.2978 57.9284 61.5936 57.8955 61.88L57.7899 62.7462C57.7617 63.0045 57.7523 63.2698 57.7617 63.5421C57.7711 63.8097 57.8157 64.0585 57.8955 64.2886C57.98 64.5187 58.1138 64.7065 58.297 64.852C58.4848 64.9929 58.743 65.068 59.0717 65.0774C59.4379 65.0868 59.7665 65.0117 60.0576 64.852C60.3534 64.6924 60.6234 64.4811 60.8676 64.2182L61.4592 65.014C61.2573 65.2722 61.0225 65.4859 60.7549 65.6549C60.4919 65.8239 60.2079 65.9484 59.9027 66.0282C59.5975 66.108 59.2806 66.1456 58.9519 66.1409ZM70.2063 64.4435L71.812 55.1823H73.0234L71.143 66H70.0443L70.2063 64.4435ZM66.4243 62.5561L66.5088 61.8518C66.5652 61.4292 66.6567 61.0043 66.7835 60.5771C66.9149 60.1451 67.0957 59.7507 67.3258 59.3939C67.5558 59.0324 67.8493 58.746 68.2061 58.5347C68.563 58.3187 68.9926 58.2201 69.4949 58.2389C69.9363 58.253 70.2861 58.3774 70.5443 58.6121C70.8072 58.8422 70.9997 59.1357 71.1218 59.4925C71.2486 59.8446 71.3237 60.2179 71.3472 60.6123C71.3754 61.0067 71.3754 61.3776 71.3472 61.725L71.2204 62.6758C71.1594 63.0514 71.0631 63.4458 70.9317 63.859C70.8002 64.2675 70.6218 64.6478 70.3964 64.9999C70.1757 65.3521 69.9011 65.6361 69.5724 65.8521C69.2438 66.0634 68.8494 66.162 68.3892 66.1479C67.915 66.1338 67.5371 66.0117 67.2553 65.7817C66.9783 65.5469 66.7717 65.2488 66.6356 64.8872C66.5041 64.5257 66.4243 64.1407 66.3961 63.7322C66.3727 63.3191 66.382 62.927 66.4243 62.5561ZM67.7272 61.8448L67.6427 62.5631C67.6145 62.8073 67.5957 63.0702 67.5864 63.3519C67.5817 63.6336 67.6098 63.9036 67.6709 64.1618C67.7319 64.4154 67.8469 64.6243 68.016 64.7886C68.1897 64.953 68.4432 65.0398 68.7766 65.0492C69.1099 65.0586 69.4081 64.9718 69.671 64.7886C69.9386 64.6055 70.1617 64.3708 70.3401 64.0844C70.5185 63.798 70.65 63.5069 70.7345 63.2111L71.0584 61.1968C71.0631 60.9902 71.042 60.7813 70.9951 60.57C70.9481 60.3541 70.8683 60.1545 70.7556 59.9714C70.6476 59.7883 70.5091 59.6404 70.3401 59.5277C70.1711 59.4103 69.9715 59.3446 69.7414 59.3305C69.3846 59.3164 69.0841 59.3822 68.84 59.5277C68.6005 59.6733 68.4033 59.8728 68.2484 60.1263C68.0981 60.3752 67.9808 60.6498 67.8962 60.9503C67.8164 61.2508 67.7601 61.549 67.7272 61.8448ZM75.6362 58.3797L74.3122 66H73.1008L74.4249 58.3797H75.6362ZM74.7066 56.3725C74.716 56.166 74.7817 55.9875 74.9038 55.8373C75.0259 55.6824 75.1925 55.6025 75.4038 55.5978C75.6245 55.5931 75.7959 55.6659 75.9179 55.8162C76.04 55.9664 76.0964 56.1448 76.087 56.3514C76.0776 56.5486 76.0095 56.7223 75.8827 56.8726C75.756 57.0181 75.5893 57.0933 75.3827 57.0979C75.1667 57.1026 74.9977 57.0346 74.8756 56.8937C74.7582 56.7482 74.7019 56.5744 74.7066 56.3725ZM77.9674 66H76.749L78.1787 57.5769C78.2397 57.112 78.3688 56.6848 78.566 56.2951C78.7632 55.9007 79.0355 55.5884 79.383 55.3584C79.7304 55.1236 80.16 55.0109 80.6718 55.0203C80.808 55.025 80.9394 55.0391 81.0662 55.0626C81.1977 55.0861 81.3291 55.1142 81.4606 55.1471L81.2916 56.2035C81.1977 56.18 81.1038 56.1613 81.0099 56.1472C80.9207 56.1284 80.8268 56.119 80.7282 56.119C80.4511 56.119 80.2211 56.1894 80.038 56.3303C79.8595 56.4711 79.7187 56.6543 79.6154 56.8796C79.5168 57.1003 79.4487 57.3327 79.4112 57.5769L77.9674 66ZM80.5521 58.3797L80.369 59.3798H76.9321L77.1082 58.3797H80.5521ZM82.4043 66H81.1859L82.6156 57.5769C82.6766 57.112 82.8058 56.6848 83.003 56.2951C83.2002 55.9007 83.4725 55.5884 83.8199 55.3584C84.1674 55.1236 84.597 55.0109 85.1088 55.0203C85.2449 55.025 85.3764 55.0391 85.5031 55.0626C85.6346 55.0861 85.7661 55.1142 85.8975 55.1471L85.7285 56.2035C85.6346 56.18 85.5407 56.1613 85.4468 56.1472C85.3576 56.1284 85.2637 56.119 85.1651 56.119C84.8881 56.119 84.658 56.1894 84.4749 56.3303C84.2965 56.4711 84.1556 56.6543 84.0523 56.8796C83.9537 57.1003 83.8857 57.3327 83.8481 57.5769L82.4043 66ZM84.989 58.3797L84.8059 59.3798H81.369L81.5451 58.3797H84.989ZM87.6582 66.1409C87.1652 66.1315 86.7544 66.0329 86.4257 65.8451C86.0971 65.6573 85.8412 65.4037 85.6581 65.0844C85.475 64.7652 85.3529 64.4036 85.2919 63.9999C85.2355 63.5961 85.2308 63.1759 85.2778 62.7392L85.3834 61.88C85.4398 61.4292 85.5454 60.9856 85.7003 60.5489C85.8553 60.1123 86.0642 59.7179 86.3271 59.3657C86.5901 59.0089 86.914 58.7272 87.299 58.5206C87.6841 58.314 88.1348 58.2201 88.6513 58.2389C89.163 58.253 89.5692 58.368 89.8697 58.584C90.1701 58.7999 90.3908 59.0817 90.5317 59.4291C90.6725 59.7765 90.7524 60.1592 90.7711 60.5771C90.7946 60.9949 90.7805 61.4128 90.7289 61.8307L90.6232 62.5561H85.9961L86.1863 61.4926L89.5527 61.4997L89.5809 61.3095C89.6185 61.0231 89.6255 60.7297 89.602 60.4292C89.5786 60.124 89.4893 59.8658 89.3344 59.6545C89.1795 59.4385 88.9259 59.3211 88.5738 59.3023C88.2123 59.2836 87.9118 59.3516 87.6723 59.5066C87.4376 59.6615 87.2474 59.8704 87.1019 60.1334C86.9563 60.3963 86.8436 60.6827 86.7638 60.9926C86.6887 61.2978 86.6347 61.5936 86.6018 61.88L86.4962 62.7462C86.468 63.0045 86.4586 63.2698 86.468 63.5421C86.4774 63.8097 86.522 64.0585 86.6018 64.2886C86.6863 64.5187 86.8201 64.7065 87.0033 64.852C87.1911 64.9929 87.4493 65.068 87.778 65.0774C88.1442 65.0868 88.4728 65.0117 88.7639 64.852C89.0597 64.6924 89.3297 64.4811 89.5739 64.2182L90.1655 65.014C89.9636 65.2722 89.7288 65.4859 89.4612 65.6549C89.1982 65.8239 88.9142 65.9484 88.609 66.0282C88.3038 66.108 87.9869 66.1456 87.6582 66.1409ZM93.8066 59.6263L92.7009 66H91.4825L92.8065 58.3797H93.9826L93.8066 59.6263ZM95.8419 58.3304L95.7081 59.5418C95.6189 59.523 95.5273 59.5066 95.4334 59.4925C95.3442 59.4784 95.255 59.4714 95.1658 59.4714C94.8888 59.4667 94.6493 59.5207 94.4475 59.6333C94.2456 59.746 94.0718 59.8963 93.9263 60.0841C93.7854 60.2719 93.6657 60.4785 93.5671 60.7038C93.4685 60.9292 93.3887 61.1569 93.3277 61.387L92.9685 61.5983C93.0107 61.279 93.0765 60.9245 93.1657 60.5348C93.2596 60.1404 93.3934 59.7648 93.5671 59.408C93.7408 59.0464 93.9685 58.753 94.2503 58.5276C94.532 58.3023 94.8841 58.199 95.3067 58.2177C95.4006 58.2224 95.4898 58.2365 95.5743 58.26C95.6635 58.2788 95.7527 58.3023 95.8419 58.3304ZM98.3491 66.1409C97.8562 66.1315 97.4453 66.0329 97.1167 65.8451C96.788 65.6573 96.5321 65.4037 96.349 65.0844C96.1659 64.7652 96.0438 64.4036 95.9828 63.9999C95.9264 63.5961 95.9217 63.1759 95.9687 62.7392L96.0743 61.88C96.1307 61.4292 96.2363 60.9856 96.3913 60.5489C96.5462 60.1123 96.7551 59.7179 97.0181 59.3657C97.281 59.0089 97.605 58.7272 97.99 58.5206C98.375 58.314 98.8257 58.2201 99.3422 58.2389C99.8539 58.253 100.26 58.368 100.561 58.584C100.861 58.7999 101.082 59.0817 101.223 59.4291C101.363 59.7765 101.443 60.1592 101.462 60.5771C101.486 60.9949 101.471 61.4128 101.42 61.8307L101.314 62.5561H96.6871L96.8772 61.4926L100.244 61.4997L100.272 61.3095C100.309 61.0231 100.316 60.7297 100.293 60.4292C100.269 60.124 100.18 59.8658 100.025 59.6545C99.8704 59.4385 99.6168 59.3211 99.2647 59.3023C98.9032 59.2836 98.6027 59.3516 98.3632 59.5066C98.1285 59.6615 97.9383 59.8704 97.7928 60.1334C97.6472 60.3963 97.5345 60.6827 97.4547 60.9926C97.3796 61.2978 97.3256 61.5936 97.2927 61.88L97.1871 62.7462C97.1589 63.0045 97.1495 63.2698 97.1589 63.5421C97.1683 63.8097 97.2129 64.0585 97.2927 64.2886C97.3772 64.5187 97.5111 64.7065 97.6942 64.852C97.882 64.9929 98.1402 65.068 98.4689 65.0774C98.8351 65.0868 99.1638 65.0117 99.4549 64.852C99.7507 64.6924 100.021 64.4811 100.265 64.2182L100.856 65.014C100.654 65.2722 100.42 65.4859 100.152 65.6549C99.8892 65.8239 99.6051 65.9484 99.2999 66.0282C98.9947 66.108 98.6778 66.1456 98.3491 66.1409ZM104.42 60.0841L103.392 66H102.173L103.497 58.3797H104.645L104.42 60.0841ZM103.857 61.9293L103.413 61.9082C103.465 61.5091 103.554 61.0935 103.681 60.6616C103.812 60.2249 103.993 59.8211 104.223 59.4502C104.453 59.0793 104.742 58.7812 105.089 58.5558C105.441 58.3257 105.864 58.2177 106.357 58.2318C106.737 58.2459 107.042 58.3375 107.272 58.5065C107.507 58.6755 107.678 58.8962 107.786 59.1685C107.899 59.4361 107.967 59.7319 107.991 60.0559C108.014 60.3752 108.009 60.6921 107.977 61.0067L107.146 66H105.927L106.765 60.9856C106.789 60.7414 106.791 60.4949 106.772 60.2461C106.758 59.9925 106.688 59.7789 106.561 59.6052C106.434 59.4268 106.216 59.3329 105.906 59.3235C105.582 59.3141 105.298 59.3939 105.054 59.5629C104.814 59.7319 104.613 59.9526 104.448 60.2249C104.284 60.4926 104.152 60.779 104.054 61.0842C103.96 61.3846 103.894 61.6664 103.857 61.9293ZM111.695 65.0915C112 65.1009 112.259 65.0375 112.47 64.9013C112.686 64.7652 112.86 64.5821 112.991 64.352C113.123 64.1219 113.219 63.8707 113.28 63.5984L114.421 63.5914C114.35 64.0703 114.188 64.5046 113.935 64.8943C113.686 65.284 113.364 65.5939 112.97 65.8239C112.576 66.0493 112.127 66.1573 111.625 66.1479C111.118 66.1385 110.702 66.0329 110.378 65.831C110.054 65.6244 109.805 65.3544 109.632 65.0211C109.463 64.683 109.355 64.3074 109.308 63.8942C109.261 63.481 109.263 63.0561 109.315 62.6195L109.427 61.7603C109.488 61.2954 109.596 60.8494 109.751 60.4221C109.906 59.9902 110.115 59.6075 110.378 59.2742C110.646 58.9408 110.972 58.6802 111.357 58.4924C111.747 58.3046 112.205 58.2201 112.73 58.2389C113.261 58.253 113.688 58.3891 114.012 58.6474C114.336 58.9056 114.569 59.2436 114.709 59.6615C114.85 60.0747 114.911 60.5231 114.893 61.0067L113.752 60.9996C113.761 60.7367 113.74 60.4785 113.688 60.2249C113.637 59.9667 113.531 59.7531 113.371 59.584C113.212 59.4103 112.975 59.3164 112.66 59.3023C112.303 59.2882 112.003 59.3516 111.759 59.4925C111.519 59.6333 111.324 59.8258 111.174 60.07C111.024 60.3094 110.906 60.5771 110.822 60.8729C110.742 61.1687 110.683 61.4645 110.646 61.7603L110.533 62.6265C110.505 62.8801 110.486 63.1477 110.477 63.4294C110.472 63.7111 110.5 63.9764 110.561 64.2252C110.622 64.4741 110.742 64.6783 110.92 64.8379C111.099 64.9976 111.357 65.0821 111.695 65.0915ZM118.153 66.1409C117.66 66.1315 117.25 66.0329 116.921 65.8451C116.592 65.6573 116.336 65.4037 116.153 65.0844C115.97 64.7652 115.848 64.4036 115.787 63.9999C115.731 63.5961 115.726 63.1759 115.773 62.7392L115.879 61.88C115.935 61.4292 116.041 60.9856 116.196 60.5489C116.35 60.1123 116.559 59.7179 116.822 59.3657C117.085 59.0089 117.409 58.7272 117.794 58.5206C118.179 58.314 118.63 58.2201 119.146 58.2389C119.658 58.253 120.064 58.368 120.365 58.584C120.665 58.7999 120.886 59.0817 121.027 59.4291C121.168 59.7765 121.248 60.1592 121.266 60.5771C121.29 60.9949 121.276 61.4128 121.224 61.8307L121.118 62.5561H116.491L116.681 61.4926L120.048 61.4997L120.076 61.3095C120.114 61.0231 120.121 60.7297 120.097 60.4292C120.074 60.124 119.985 59.8658 119.83 59.6545C119.675 59.4385 119.421 59.3211 119.069 59.3023C118.707 59.2836 118.407 59.3516 118.167 59.5066C117.933 59.6615 117.743 59.8704 117.597 60.1334C117.451 60.3963 117.339 60.6827 117.259 60.9926C117.184 61.2978 117.13 61.5936 117.097 61.88L116.991 62.7462C116.963 63.0045 116.954 63.2698 116.963 63.5421C116.973 63.8097 117.017 64.0585 117.097 64.2886C117.181 64.5187 117.315 64.7065 117.498 64.852C117.686 64.9929 117.944 65.068 118.273 65.0774C118.639 65.0868 118.968 65.0117 119.259 64.852C119.555 64.6924 119.825 64.4811 120.069 64.2182L120.661 65.014C120.459 65.2722 120.224 65.4859 119.956 65.6549C119.693 65.8239 119.409 65.9484 119.104 66.0282C118.799 66.108 118.482 66.1456 118.153 66.1409ZM127.894 58.3797L126.569 66H125.358L126.682 58.3797H127.894ZM126.964 56.3725C126.973 56.166 127.039 55.9875 127.161 55.8373C127.283 55.6824 127.45 55.6025 127.661 55.5978C127.882 55.5931 128.053 55.6659 128.175 55.8162C128.297 55.9664 128.354 56.1448 128.344 56.3514C128.335 56.5486 128.267 56.7223 128.14 56.8726C128.013 57.0181 127.847 57.0933 127.64 57.0979C127.424 57.1026 127.255 57.0346 127.133 56.8937C127.016 56.7482 126.959 56.5744 126.964 56.3725ZM132.415 63.9928C132.448 63.7581 132.406 63.5609 132.288 63.4012C132.176 63.2369 132.025 63.0984 131.837 62.9857C131.654 62.873 131.474 62.7721 131.295 62.6829C131.051 62.5608 130.814 62.434 130.584 62.3025C130.359 62.1711 130.157 62.0208 129.978 61.8518C129.8 61.6828 129.661 61.4856 129.563 61.2602C129.464 61.0349 129.424 60.7672 129.443 60.4573C129.462 60.1193 129.544 59.8118 129.689 59.5347C129.835 59.2577 130.027 59.023 130.267 58.8305C130.506 58.6333 130.776 58.483 131.077 58.3797C131.377 58.2764 131.692 58.2295 132.021 58.2389C132.476 58.2483 132.866 58.3539 133.19 58.5558C133.518 58.753 133.765 59.0253 133.929 59.3728C134.098 59.7155 134.173 60.1099 134.155 60.5559L132.95 60.5489C132.96 60.3329 132.929 60.1334 132.859 59.9503C132.793 59.7625 132.685 59.6122 132.535 59.4995C132.384 59.3822 132.19 59.3211 131.95 59.3164C131.725 59.3164 131.518 59.361 131.33 59.4502C131.143 59.5394 130.988 59.6662 130.866 59.8305C130.748 59.9949 130.673 60.1897 130.64 60.4151C130.617 60.5794 130.631 60.7226 130.682 60.8447C130.739 60.9621 130.819 61.0654 130.922 61.1546C131.025 61.2438 131.14 61.3236 131.267 61.394C131.398 61.4598 131.528 61.5232 131.654 61.5842C131.992 61.7485 132.316 61.9269 132.626 62.1194C132.936 62.3119 133.185 62.549 133.373 62.8308C133.565 63.1078 133.65 63.4623 133.626 63.8942C133.603 64.2557 133.516 64.5774 133.366 64.8591C133.216 65.1408 133.016 65.3779 132.767 65.5704C132.523 65.7629 132.244 65.9084 131.929 66.007C131.619 66.1056 131.29 66.1502 130.943 66.1409C130.474 66.1315 130.06 66.0235 129.704 65.8169C129.351 65.6103 129.079 65.3262 128.887 64.9647C128.699 64.6032 128.614 64.1853 128.633 63.7111L129.858 63.7181C129.849 63.9764 129.882 64.2064 129.957 64.4083C130.032 64.6102 130.154 64.7699 130.323 64.8872C130.497 64.9999 130.722 65.0586 130.999 65.0633C131.229 65.0633 131.445 65.0258 131.647 64.9506C131.849 64.8708 132.018 64.7534 132.154 64.5985C132.295 64.4389 132.382 64.237 132.415 63.9928ZM141.233 55.1823L139.352 66H138.134L140.014 55.1823H141.233ZM139.817 61.9293L139.373 61.9082C139.425 61.5091 139.514 61.0935 139.641 60.6616C139.772 60.2249 139.953 59.8211 140.183 59.4502C140.413 59.0746 140.702 58.7741 141.049 58.5488C141.402 58.3234 141.824 58.2201 142.317 58.2389C142.697 58.2483 143.003 58.3375 143.233 58.5065C143.467 58.6755 143.639 58.8962 143.747 59.1685C143.859 59.4361 143.928 59.7319 143.951 60.0559C143.975 60.3752 143.97 60.6921 143.937 61.0067L143.106 66H141.888L142.726 60.9856C142.749 60.7414 142.751 60.4949 142.733 60.2461C142.719 59.9925 142.648 59.7789 142.521 59.6052C142.395 59.4268 142.176 59.3329 141.866 59.3235C141.542 59.3141 141.258 59.3939 141.014 59.5629C140.775 59.7319 140.573 59.9526 140.409 60.2249C140.244 60.4926 140.113 60.779 140.014 61.0842C139.92 61.3846 139.854 61.6664 139.817 61.9293ZM148.761 64.6971L149.43 60.5489C149.454 60.3048 149.44 60.0911 149.388 59.908C149.341 59.7202 149.242 59.5723 149.092 59.4643C148.947 59.3563 148.74 59.3023 148.472 59.3023C148.228 59.2976 148.01 59.3469 147.818 59.4502C147.625 59.5488 147.465 59.6873 147.339 59.8658C147.217 60.0442 147.132 60.2508 147.085 60.4855L145.881 60.4926C145.914 60.1498 146.01 59.8399 146.17 59.5629C146.334 59.2812 146.543 59.0418 146.796 58.8446C147.05 58.6427 147.332 58.4901 147.641 58.3868C147.951 58.2788 148.273 58.2271 148.606 58.2318C149.085 58.2365 149.484 58.3375 149.804 58.5347C150.123 58.7272 150.353 58.9995 150.494 59.3516C150.639 59.6991 150.689 60.1076 150.642 60.5771L150.022 64.3379C149.98 64.6055 149.963 64.8638 149.973 65.1126C149.982 65.3615 149.994 65.6173 150.008 65.8803L149.994 66L148.775 66.007C148.728 65.7911 148.707 65.5727 148.712 65.3521C148.717 65.1314 148.733 64.9131 148.761 64.6971ZM149.522 61.3799L149.374 62.2955L148.599 62.2885C148.35 62.2885 148.102 62.3166 147.853 62.373C147.609 62.4293 147.381 62.5185 147.17 62.6406C146.963 62.758 146.789 62.9153 146.648 63.1125C146.512 63.305 146.428 63.5421 146.395 63.8238C146.367 64.0538 146.374 64.2604 146.416 64.4435C146.463 64.622 146.555 64.7652 146.691 64.8732C146.832 64.9765 147.029 65.0281 147.282 65.0281C147.545 65.0281 147.799 64.9694 148.043 64.852C148.287 64.7347 148.496 64.575 148.67 64.3731C148.848 64.1712 148.965 63.9412 149.022 63.6829L149.212 64.2745C149.156 64.5187 149.059 64.7558 148.923 64.9858C148.792 65.2112 148.63 65.4131 148.437 65.5915C148.245 65.7652 148.029 65.9014 147.789 66C147.555 66.1033 147.303 66.1549 147.036 66.1549C146.609 66.1549 146.249 66.0587 145.958 65.8662C145.667 65.6737 145.451 65.4155 145.31 65.0915C145.169 64.7628 145.113 64.3919 145.141 63.9787C145.165 63.5374 145.27 63.1524 145.458 62.8237C145.651 62.4951 145.9 62.2251 146.205 62.0138C146.51 61.7978 146.85 61.6382 147.226 61.5349C147.606 61.4269 148.001 61.3729 148.409 61.3729L149.522 61.3799ZM153.663 64.7746L156.234 58.3797H157.515L154.128 66H153.283L153.663 64.7746ZM153.381 58.3797L154.029 64.9365L153.98 66H153.212L152.184 58.3797H153.381ZM160.107 58.3797L158.783 66H157.572L158.896 58.3797H160.107ZM159.177 56.3725C159.187 56.166 159.253 55.9875 159.375 55.8373C159.497 55.6824 159.663 55.6025 159.875 55.5978C160.095 55.5931 160.267 55.6659 160.389 55.8162C160.511 55.9664 160.567 56.1448 160.558 56.3514C160.548 56.5486 160.48 56.7223 160.354 56.8726C160.227 57.0181 160.06 57.0933 159.854 57.0979C159.638 57.1026 159.469 57.0346 159.347 56.8937C159.229 56.7482 159.173 56.5744 159.177 56.3725ZM162.931 60.0841L161.903 66H160.685L162.009 58.3797H163.157L162.931 60.0841ZM162.368 61.9293L161.924 61.9082C161.976 61.5091 162.065 61.0935 162.192 60.6616C162.323 60.2249 162.504 59.8211 162.734 59.4502C162.964 59.0793 163.253 58.7812 163.6 58.5558C163.952 58.3257 164.375 58.2177 164.868 58.2318C165.248 58.2459 165.554 58.3375 165.784 58.5065C166.018 58.6755 166.19 58.8962 166.298 59.1685C166.41 59.4361 166.478 59.7319 166.502 60.0559C166.525 60.3752 166.521 60.6921 166.488 61.0067L165.657 66H164.438L165.277 60.9856C165.3 60.7414 165.302 60.4949 165.284 60.2461C165.269 59.9925 165.199 59.7789 165.072 59.6052C164.946 59.4268 164.727 59.3329 164.417 59.3235C164.093 59.3141 163.809 59.3939 163.565 59.5629C163.326 59.7319 163.124 59.9526 162.959 60.2249C162.795 60.4926 162.664 60.779 162.565 61.0842C162.471 61.3846 162.405 61.6664 162.368 61.9293ZM172.784 58.3797H173.883L172.58 66.0634C172.505 66.6268 172.34 67.1362 172.087 67.5917C171.833 68.0471 171.491 68.4016 171.059 68.6551C170.627 68.9134 170.106 69.0331 169.495 69.0143C169.228 69.0096 168.96 68.965 168.692 68.8805C168.429 68.8007 168.178 68.688 167.939 68.5424C167.699 68.4016 167.493 68.2349 167.319 68.0424L167.889 67.1691C168.091 67.3992 168.321 67.5823 168.58 67.7184C168.843 67.8593 169.131 67.9344 169.446 67.9438C169.826 67.9579 170.148 67.8875 170.411 67.7325C170.678 67.5776 170.89 67.3593 171.045 67.0775C171.199 66.8005 171.303 66.486 171.354 66.1338L172.39 59.9925L172.784 58.3797ZM167.84 62.5561L167.932 61.8589C167.983 61.4316 168.072 61.002 168.199 60.57C168.331 60.1381 168.509 59.7437 168.735 59.3868C168.965 59.0253 169.256 58.7389 169.608 58.5276C169.965 58.3163 170.397 58.2201 170.904 58.2389C171.345 58.253 171.695 58.375 171.953 58.6051C172.216 58.8352 172.411 59.1286 172.538 59.4854C172.664 59.8423 172.739 60.2179 172.763 60.6123C172.791 61.0067 172.791 61.3776 172.763 61.725L172.636 62.6758C172.575 63.0514 172.477 63.4458 172.34 63.859C172.209 64.2675 172.033 64.6478 171.812 64.9999C171.592 65.3521 171.315 65.6361 170.981 65.8521C170.652 66.0634 170.258 66.162 169.798 66.1479C169.319 66.1338 168.939 66.0117 168.657 65.7817C168.38 65.5516 168.173 65.2558 168.037 64.8943C167.906 64.5328 167.828 64.1478 167.805 63.7393C167.786 63.3261 167.798 62.9317 167.84 62.5561ZM169.136 61.8448L169.058 62.5631C169.03 62.8073 169.012 63.0702 169.002 63.3519C168.997 63.6336 169.023 63.9013 169.08 64.1548C169.141 64.4083 169.256 64.6196 169.425 64.7886C169.598 64.953 169.852 65.0398 170.185 65.0492C170.519 65.0586 170.817 64.9718 171.08 64.7886C171.347 64.6055 171.57 64.3708 171.749 64.0844C171.927 63.798 172.059 63.5069 172.143 63.2111L172.46 61.1968C172.47 60.9902 172.448 60.7813 172.397 60.57C172.35 60.3541 172.272 60.1545 172.164 59.9714C172.056 59.7883 171.918 59.6404 171.749 59.5277C171.58 59.4103 171.38 59.3446 171.15 59.3305C170.793 59.3117 170.493 59.3775 170.249 59.5277C170.009 59.6733 169.814 59.8728 169.664 60.1263C169.514 60.3752 169.397 60.6522 169.312 60.9574C169.232 61.2579 169.174 61.5537 169.136 61.8448ZM181.679 58.3797L181.503 59.3798H178.038L178.221 58.3797H181.679ZM179.665 56.5275H180.883L179.594 64.1266C179.58 64.2487 179.576 64.3778 179.58 64.514C179.585 64.6501 179.616 64.7652 179.672 64.8591C179.733 64.953 179.843 65.0023 180.003 65.007C180.087 65.007 180.172 64.9999 180.256 64.9858C180.341 64.9671 180.423 64.9506 180.503 64.9365L180.397 66.007C180.271 66.054 180.139 66.0869 180.003 66.1056C179.871 66.1291 179.738 66.1385 179.602 66.1338C179.235 66.1291 178.961 66.0211 178.778 65.8098C178.599 65.5939 178.484 65.3309 178.432 65.0211C178.381 64.7065 178.369 64.4013 178.397 64.1055L179.665 56.5275ZM184.884 55.1823L183.003 66H181.785L183.665 55.1823H184.884ZM183.468 61.9293L183.024 61.9082C183.076 61.5091 183.165 61.0935 183.292 60.6616C183.423 60.2249 183.604 59.8211 183.834 59.4502C184.064 59.0746 184.353 58.7741 184.7 58.5488C185.053 58.3234 185.475 58.2201 185.968 58.2389C186.348 58.2483 186.654 58.3375 186.884 58.5065C187.118 58.6755 187.29 58.8962 187.398 59.1685C187.511 59.4361 187.579 59.7319 187.602 60.0559C187.626 60.3752 187.621 60.6921 187.588 61.0067L186.757 66H185.539L186.377 60.9856C186.4 60.7414 186.402 60.4949 186.384 60.2461C186.37 59.9925 186.299 59.7789 186.172 59.6052C186.046 59.4268 185.827 59.3329 185.517 59.3235C185.193 59.3141 184.909 59.3939 184.665 59.5629C184.426 59.7319 184.224 59.9526 184.06 60.2249C183.895 60.4926 183.764 60.779 183.665 61.0842C183.571 61.3846 183.506 61.6664 183.468 61.9293ZM191.285 66.1409C190.792 66.1315 190.382 66.0329 190.053 65.8451C189.724 65.6573 189.468 65.4037 189.285 65.0844C189.102 64.7652 188.98 64.4036 188.919 63.9999C188.863 63.5961 188.858 63.1759 188.905 62.7392L189.011 61.88C189.067 61.4292 189.173 60.9856 189.328 60.5489C189.482 60.1123 189.691 59.7179 189.954 59.3657C190.217 59.0089 190.541 58.7272 190.926 58.5206C191.311 58.314 191.762 58.2201 192.278 58.2389C192.79 58.253 193.196 58.368 193.497 58.584C193.797 58.7999 194.018 59.0817 194.159 59.4291C194.3 59.7765 194.38 60.1592 194.398 60.5771C194.422 60.9949 194.408 61.4128 194.356 61.8307L194.25 62.5561H189.623L189.814 61.4926L193.18 61.4997L193.208 61.3095C193.246 61.0231 193.253 60.7297 193.229 60.4292C193.206 60.124 193.117 59.8658 192.962 59.6545C192.807 59.4385 192.553 59.3211 192.201 59.3023C191.839 59.2836 191.539 59.3516 191.3 59.5066C191.065 59.6615 190.875 59.8704 190.729 60.1334C190.584 60.3963 190.471 60.6827 190.391 60.9926C190.316 61.2978 190.262 61.5936 190.229 61.88L190.123 62.7462C190.095 63.0045 190.086 63.2698 190.095 63.5421C190.105 63.8097 190.149 64.0585 190.229 64.2886C190.314 64.5187 190.447 64.7065 190.63 64.852C190.818 64.9929 191.077 65.068 191.405 65.0774C191.771 65.0868 192.1 65.0117 192.391 64.852C192.687 64.6924 192.957 64.4811 193.201 64.2182L193.793 65.014C193.591 65.2722 193.356 65.4859 193.088 65.6549C192.825 65.8239 192.541 65.9484 192.236 66.0282C191.931 66.108 191.614 66.1456 191.285 66.1409ZM200.716 59.6263L199.61 66H198.392L199.716 58.3797H200.892L200.716 59.6263ZM202.751 58.3304L202.617 59.5418C202.528 59.523 202.436 59.5066 202.343 59.4925C202.253 59.4784 202.164 59.4714 202.075 59.4714C201.798 59.4667 201.558 59.5207 201.357 59.6333C201.155 59.746 200.981 59.8963 200.835 60.0841C200.695 60.2719 200.575 60.4785 200.476 60.7038C200.378 60.9292 200.298 61.1569 200.237 61.387L199.878 61.5983C199.92 61.279 199.986 60.9245 200.075 60.5348C200.169 60.1404 200.303 59.7648 200.476 59.408C200.65 59.0464 200.878 58.753 201.159 58.5276C201.441 58.3023 201.793 58.199 202.216 58.2177C202.31 58.2224 202.399 58.2365 202.483 58.26C202.573 58.2788 202.662 58.3023 202.751 58.3304ZM205.293 58.3797L203.969 66H202.758L204.082 58.3797H205.293ZM204.364 56.3725C204.373 56.166 204.439 55.9875 204.561 55.8373C204.683 55.6824 204.85 55.6025 205.061 55.5978C205.282 55.5931 205.453 55.6659 205.575 55.8162C205.697 55.9664 205.754 56.1448 205.744 56.3514C205.735 56.5486 205.667 56.7223 205.54 56.8726C205.413 57.0181 205.247 57.0933 205.04 57.0979C204.824 57.1026 204.655 57.0346 204.533 56.8937C204.416 56.7482 204.359 56.5744 204.364 56.3725ZM211.195 58.3797H212.294L210.991 66.0634C210.916 66.6268 210.752 67.1362 210.498 67.5917C210.245 68.0471 209.902 68.4016 209.47 68.6551C209.038 68.9134 208.517 69.0331 207.906 69.0143C207.639 69.0096 207.371 68.965 207.103 68.8805C206.841 68.8007 206.589 68.688 206.35 68.5424C206.11 68.4016 205.904 68.2349 205.73 68.0424L206.301 67.1691C206.503 67.3992 206.733 67.5823 206.991 67.7184C207.254 67.8593 207.542 67.9344 207.857 67.9438C208.237 67.9579 208.559 67.8875 208.822 67.7325C209.09 67.5776 209.301 67.3593 209.456 67.0775C209.611 66.8005 209.714 66.486 209.766 66.1338L210.801 59.9925L211.195 58.3797ZM206.251 62.5561L206.343 61.8589C206.395 61.4316 206.484 61.002 206.61 60.57C206.742 60.1381 206.92 59.7437 207.146 59.3868C207.376 59.0253 207.667 58.7389 208.019 58.5276C208.376 58.3163 208.808 58.2201 209.315 58.2389C209.756 58.253 210.106 58.375 210.364 58.6051C210.627 58.8352 210.822 59.1286 210.949 59.4854C211.076 59.8423 211.151 60.2179 211.174 60.6123C211.202 61.0067 211.202 61.3776 211.174 61.725L211.047 62.6758C210.986 63.0514 210.888 63.4458 210.752 63.859C210.62 64.2675 210.444 64.6478 210.223 64.9999C210.003 65.3521 209.726 65.6361 209.392 65.8521C209.064 66.0634 208.669 66.162 208.209 66.1479C207.73 66.1338 207.35 66.0117 207.068 65.7817C206.791 65.5516 206.585 65.2558 206.449 64.8943C206.317 64.5328 206.24 64.1478 206.216 63.7393C206.197 63.3261 206.209 62.9317 206.251 62.5561ZM207.547 61.8448L207.47 62.5631C207.442 62.8073 207.423 63.0702 207.413 63.3519C207.409 63.6336 207.435 63.9013 207.491 64.1548C207.552 64.4083 207.667 64.6196 207.836 64.7886C208.01 64.953 208.263 65.0398 208.597 65.0492C208.93 65.0586 209.228 64.9718 209.491 64.7886C209.759 64.6055 209.982 64.3708 210.16 64.0844C210.338 63.798 210.47 63.5069 210.554 63.2111L210.871 61.1968C210.881 60.9902 210.86 60.7813 210.808 60.57C210.761 60.3541 210.684 60.1545 210.576 59.9714C210.468 59.7883 210.329 59.6404 210.16 59.5277C209.991 59.4103 209.791 59.3446 209.561 59.3305C209.205 59.3117 208.904 59.3775 208.66 59.5277C208.42 59.6733 208.226 59.8728 208.075 60.1263C207.925 60.3752 207.808 60.6522 207.723 60.9574C207.643 61.2579 207.585 61.5537 207.547 61.8448ZM215.872 55.1823L213.991 66H212.773L214.653 55.1823H215.872ZM214.456 61.9293L214.012 61.9082C214.064 61.5091 214.153 61.0935 214.28 60.6616C214.412 60.2249 214.592 59.8211 214.822 59.4502C215.052 59.0746 215.341 58.7741 215.689 58.5488C216.041 58.3234 216.463 58.2201 216.956 58.2389C217.337 58.2483 217.642 58.3375 217.872 58.5065C218.107 58.6755 218.278 58.8962 218.386 59.1685C218.499 59.4361 218.567 59.7319 218.59 60.0559C218.614 60.3752 218.609 60.6921 218.576 61.0067L217.745 66H216.527L217.365 60.9856C217.388 60.7414 217.391 60.4949 217.372 60.2461C217.358 59.9925 217.287 59.7789 217.161 59.6052C217.034 59.4268 216.815 59.3329 216.506 59.3235C216.182 59.3141 215.898 59.3939 215.653 59.5629C215.414 59.7319 215.212 59.9526 215.048 60.2249C214.883 60.4926 214.752 60.779 214.653 61.0842C214.559 61.3846 214.494 61.6664 214.456 61.9293ZM223.569 58.3797L223.393 59.3798H219.928L220.111 58.3797H223.569ZM221.555 56.5275H222.774L221.485 64.1266C221.471 64.2487 221.466 64.3778 221.471 64.514C221.475 64.6501 221.506 64.7652 221.562 64.8591C221.623 64.953 221.734 65.0023 221.893 65.007C221.978 65.007 222.062 64.9999 222.147 64.9858C222.231 64.9671 222.314 64.9506 222.393 64.9365L222.288 66.007C222.161 66.054 222.029 66.0869 221.893 66.1056C221.762 66.1291 221.628 66.1385 221.492 66.1338C221.126 66.1291 220.851 66.0211 220.668 65.8098C220.489 65.5939 220.374 65.3309 220.323 65.0211C220.271 64.7065 220.259 64.4013 220.288 64.1055L221.555 56.5275ZM230.901 63.9928C230.934 63.7581 230.892 63.5609 230.774 63.4012C230.662 63.2369 230.511 63.0984 230.323 62.9857C230.14 62.873 229.96 62.7721 229.781 62.6829C229.537 62.5608 229.3 62.434 229.07 62.3025C228.844 62.1711 228.643 62.0208 228.464 61.8518C228.286 61.6828 228.147 61.4856 228.049 61.2602C227.95 61.0349 227.91 60.7672 227.929 60.4573C227.948 60.1193 228.03 59.8118 228.175 59.5347C228.321 59.2577 228.513 59.023 228.753 58.8305C228.992 58.6333 229.262 58.483 229.563 58.3797C229.863 58.2764 230.178 58.2295 230.507 58.2389C230.962 58.2483 231.352 58.3539 231.676 58.5558C232.004 58.753 232.251 59.0253 232.415 59.3728C232.584 59.7155 232.659 60.1099 232.641 60.5559L231.436 60.5489C231.446 60.3329 231.415 60.1334 231.345 59.9503C231.279 59.7625 231.171 59.6122 231.021 59.4995C230.87 59.3822 230.676 59.3211 230.436 59.3164C230.211 59.3164 230.004 59.361 229.816 59.4502C229.629 59.5394 229.474 59.6662 229.352 59.8305C229.234 59.9949 229.159 60.1897 229.126 60.4151C229.103 60.5794 229.117 60.7226 229.168 60.8447C229.225 60.9621 229.305 61.0654 229.408 61.1546C229.511 61.2438 229.626 61.3236 229.753 61.394C229.884 61.4598 230.014 61.5232 230.14 61.5842C230.478 61.7485 230.802 61.9269 231.112 62.1194C231.422 62.3119 231.671 62.549 231.859 62.8308C232.051 63.1078 232.136 63.4623 232.112 63.8942C232.089 64.2557 232.002 64.5774 231.852 64.8591C231.702 65.1408 231.502 65.3779 231.253 65.5704C231.009 65.7629 230.73 65.9084 230.415 66.007C230.105 66.1056 229.776 66.1502 229.429 66.1409C228.96 66.1315 228.546 66.0235 228.19 65.8169C227.837 65.6103 227.565 65.3262 227.373 64.9647C227.185 64.6032 227.1 64.1853 227.119 63.7111L228.344 63.7181C228.335 63.9764 228.368 64.2064 228.443 64.4083C228.518 64.6102 228.64 64.7699 228.809 64.8872C228.983 64.9999 229.208 65.0586 229.485 65.0633C229.715 65.0633 229.931 65.0258 230.133 64.9506C230.335 64.8708 230.504 64.7534 230.64 64.5985C230.781 64.4389 230.868 64.237 230.901 63.9928ZM235.211 65.1337L238.007 58.3797H239.338L235.401 67.1832C235.303 67.4086 235.185 67.6339 235.049 67.8593C234.918 68.0894 234.763 68.2983 234.584 68.4861C234.411 68.6739 234.211 68.8241 233.986 68.9368C233.765 69.0495 233.516 69.1035 233.239 69.0988C233.127 69.0988 233.014 69.0847 232.901 69.0566C232.784 69.0331 232.669 69.0049 232.556 68.972L232.676 67.9156C232.718 67.925 232.76 67.9321 232.803 67.9368C232.845 67.9462 232.887 67.9532 232.929 67.9579C233.216 67.972 233.458 67.9227 233.655 67.81C233.852 67.6973 234.019 67.5424 234.155 67.3452C234.291 67.1527 234.411 66.9367 234.514 66.6972L235.211 65.1337ZM235.303 58.3797L235.753 64.359L235.824 65.7112L234.915 66.169L234.014 58.3797H235.303ZM243.113 63.9928C243.146 63.7581 243.104 63.5609 242.986 63.4012C242.874 63.2369 242.723 63.0984 242.536 62.9857C242.353 62.873 242.172 62.7721 241.993 62.6829C241.749 62.5608 241.512 62.434 241.282 62.3025C241.057 62.1711 240.855 62.0208 240.676 61.8518C240.498 61.6828 240.359 61.4856 240.261 61.2602C240.162 61.0349 240.122 60.7672 240.141 60.4573C240.16 60.1193 240.242 59.8118 240.388 59.5347C240.533 59.2577 240.726 59.023 240.965 58.8305C241.205 58.6333 241.475 58.483 241.775 58.3797C242.076 58.2764 242.39 58.2295 242.719 58.2389C243.174 58.2483 243.564 58.3539 243.888 58.5558C244.217 58.753 244.463 59.0253 244.627 59.3728C244.796 59.7155 244.871 60.1099 244.853 60.5559L243.648 60.5489C243.658 60.3329 243.627 60.1334 243.557 59.9503C243.491 59.7625 243.383 59.6122 243.233 59.4995C243.083 59.3822 242.888 59.3211 242.648 59.3164C242.423 59.3164 242.216 59.361 242.029 59.4502C241.841 59.5394 241.686 59.6662 241.564 59.8305C241.446 59.9949 241.371 60.1897 241.338 60.4151C241.315 60.5794 241.329 60.7226 241.381 60.8447C241.437 60.9621 241.517 61.0654 241.62 61.1546C241.723 61.2438 241.838 61.3236 241.965 61.394C242.097 61.4598 242.226 61.5232 242.353 61.5842C242.691 61.7485 243.015 61.9269 243.324 62.1194C243.634 62.3119 243.883 62.549 244.071 62.8308C244.263 63.1078 244.348 63.4623 244.324 63.8942C244.301 64.2557 244.214 64.5774 244.064 64.8591C243.914 65.1408 243.714 65.3779 243.465 65.5704C243.221 65.7629 242.942 65.9084 242.627 66.007C242.317 66.1056 241.989 66.1502 241.641 66.1409C241.172 66.1315 240.759 66.0235 240.402 65.8169C240.05 65.6103 239.777 65.3262 239.585 64.9647C239.397 64.6032 239.312 64.1853 239.331 63.7111L240.557 63.7181C240.547 63.9764 240.58 64.2064 240.655 64.4083C240.73 64.6102 240.852 64.7699 241.021 64.8872C241.195 64.9999 241.421 65.0586 241.698 65.0633C241.928 65.0633 242.144 65.0258 242.345 64.9506C242.547 64.8708 242.716 64.7534 242.853 64.5985C242.993 64.4389 243.08 64.237 243.113 63.9928ZM249.585 58.3797L249.409 59.3798H245.944L246.127 58.3797H249.585ZM247.571 56.5275H248.79L247.501 64.1266C247.487 64.2487 247.482 64.3778 247.487 64.514C247.491 64.6501 247.522 64.7652 247.578 64.8591C247.639 64.953 247.75 65.0023 247.909 65.007C247.994 65.007 248.078 64.9999 248.163 64.9858C248.247 64.9671 248.329 64.9506 248.409 64.9365L248.304 66.007C248.177 66.054 248.045 66.0869 247.909 66.1056C247.778 66.1291 247.644 66.1385 247.508 66.1338C247.142 66.1291 246.867 66.0211 246.684 65.8098C246.505 65.5939 246.39 65.3309 246.339 65.0211C246.287 64.7065 246.275 64.4013 246.304 64.1055L247.571 56.5275ZM252.431 66.1409C251.938 66.1315 251.527 66.0329 251.198 65.8451C250.87 65.6573 250.614 65.4037 250.431 65.0844C250.247 64.7652 250.125 64.4036 250.064 63.9999C250.008 63.5961 250.003 63.1759 250.05 62.7392L250.156 61.88C250.212 61.4292 250.318 60.9856 250.473 60.5489C250.628 60.1123 250.837 59.7179 251.1 59.3657C251.363 59.0089 251.687 58.7272 252.072 58.5206C252.457 58.314 252.907 58.2201 253.424 58.2389C253.936 58.253 254.342 58.368 254.642 58.584C254.943 58.7999 255.163 59.0817 255.304 59.4291C255.445 59.7765 255.525 60.1592 255.544 60.5771C255.567 60.9949 255.553 61.4128 255.501 61.8307L255.396 62.5561H250.769L250.959 61.4926L254.325 61.4997L254.353 61.3095C254.391 61.0231 254.398 60.7297 254.375 60.4292C254.351 60.124 254.262 59.8658 254.107 59.6545C253.952 59.4385 253.698 59.3211 253.346 59.3023C252.985 59.2836 252.684 59.3516 252.445 59.5066C252.21 59.6615 252.02 59.8704 251.874 60.1334C251.729 60.3963 251.616 60.6827 251.536 60.9926C251.461 61.2978 251.407 61.5936 251.374 61.88L251.269 62.7462C251.24 63.0045 251.231 63.2698 251.24 63.5421C251.25 63.8097 251.294 64.0585 251.374 64.2886C251.459 64.5187 251.593 64.7065 251.776 64.852C251.964 64.9929 252.222 65.068 252.55 65.0774C252.917 65.0868 253.245 65.0117 253.536 64.852C253.832 64.6924 254.102 64.4811 254.346 64.2182L254.938 65.014C254.736 65.2722 254.501 65.4859 254.234 65.6549C253.971 65.8239 253.687 65.9484 253.381 66.0282C253.076 66.108 252.759 66.1456 252.431 66.1409ZM258.523 59.9714L257.473 66H256.262L257.586 58.3797H258.727L258.523 59.9714ZM257.966 61.9082L257.445 61.8941C257.492 61.4762 257.579 61.0513 257.706 60.6193C257.833 60.1827 258.011 59.7812 258.241 59.415C258.471 59.0488 258.765 58.7577 259.121 58.5417C259.478 58.321 259.91 58.2201 260.417 58.2389C260.783 58.2483 261.082 58.3351 261.312 58.4995C261.542 58.6638 261.718 58.8774 261.84 59.1403C261.962 59.3986 262.039 59.685 262.072 59.9996C262.105 60.3094 262.105 60.617 262.072 60.9222L261.227 66H260.009L260.847 60.9785C260.875 60.7203 260.873 60.4667 260.84 60.2179C260.807 59.969 260.718 59.7601 260.572 59.5911C260.431 59.4221 260.204 59.3329 259.889 59.3235C259.542 59.3094 259.253 59.3845 259.023 59.5488C258.793 59.7085 258.605 59.9221 258.459 60.1897C258.318 60.4527 258.21 60.7367 258.135 61.0419C258.06 61.3471 258.004 61.6358 257.966 61.9082ZM262.051 61.1828L261.206 61.4433C261.248 61.0583 261.34 60.6757 261.481 60.2954C261.622 59.9104 261.809 59.5606 262.044 59.246C262.279 58.9314 262.565 58.6826 262.903 58.4995C263.241 58.3117 263.631 58.2224 264.072 58.2318C264.467 58.2412 264.786 58.3281 265.03 58.4924C265.274 58.6521 265.457 58.8633 265.58 59.1263C265.706 59.3892 265.786 59.6826 265.819 60.0066C265.852 60.3306 265.85 60.6592 265.812 60.9926L264.974 66H263.763L264.594 60.9715C264.622 60.7085 264.619 60.4527 264.587 60.2038C264.558 59.9503 264.471 59.7413 264.326 59.577C264.18 59.4127 263.946 59.3282 263.622 59.3235C263.373 59.3235 263.157 59.3798 262.974 59.4925C262.791 59.6005 262.636 59.7484 262.509 59.9362C262.387 60.1193 262.288 60.3212 262.213 60.5419C262.143 60.7578 262.089 60.9715 262.051 61.1828ZM274.108 58.3797L273.932 59.3798H270.467L270.65 58.3797H274.108ZM272.094 56.5275H273.313L272.024 64.1266C272.01 64.2487 272.005 64.3778 272.01 64.514C272.014 64.6501 272.045 64.7652 272.101 64.8591C272.162 64.953 272.273 65.0023 272.432 65.007C272.517 65.007 272.601 64.9999 272.686 64.9858C272.77 64.9671 272.852 64.9506 272.932 64.9365L272.827 66.007C272.7 66.054 272.568 66.0869 272.432 66.1056C272.301 66.1291 272.167 66.1385 272.031 66.1338C271.664 66.1291 271.39 66.0211 271.207 65.8098C271.028 65.5939 270.913 65.3309 270.862 65.0211C270.81 64.7065 270.798 64.4013 270.826 64.1055L272.094 56.5275ZM274.439 62.5561L274.531 61.8377C274.592 61.3823 274.705 60.9386 274.869 60.5066C275.038 60.0747 275.261 59.685 275.538 59.3375C275.815 58.9901 276.148 58.7154 276.538 58.5135C276.932 58.3117 277.388 58.2201 277.904 58.2389C278.393 58.253 278.799 58.368 279.123 58.584C279.447 58.7953 279.698 59.0746 279.876 59.4221C280.059 59.7695 280.179 60.1522 280.236 60.57C280.292 60.9879 280.299 61.4081 280.257 61.8307L280.165 62.5561C280.104 63.0068 279.989 63.4505 279.82 63.8872C279.656 64.3191 279.433 64.7088 279.151 65.0563C278.874 65.399 278.538 65.6713 278.144 65.8732C277.754 66.0704 277.303 66.1596 276.792 66.1409C276.299 66.1315 275.89 66.0188 275.566 65.8028C275.247 65.5868 274.996 65.3051 274.813 64.9577C274.634 64.6102 274.517 64.2276 274.46 63.8097C274.404 63.3918 274.397 62.974 274.439 62.5561ZM275.749 61.8307L275.658 62.5702C275.634 62.8049 275.625 63.0655 275.63 63.3519C275.634 63.6336 275.674 63.9036 275.749 64.1618C275.824 64.4201 275.949 64.6361 276.123 64.8098C276.301 64.9788 276.547 65.0704 276.862 65.0844C277.219 65.1032 277.519 65.0375 277.764 64.8872C278.012 64.737 278.217 64.5375 278.376 64.2886C278.541 64.0351 278.667 63.7581 278.757 63.4576C278.846 63.1524 278.909 62.8519 278.947 62.5561L279.038 61.8236C279.062 61.5889 279.071 61.3306 279.066 61.0489C279.062 60.7672 279.022 60.4973 278.947 60.239C278.872 59.9761 278.745 59.7578 278.566 59.584C278.393 59.4103 278.146 59.3164 277.827 59.3023C277.494 59.2882 277.202 59.3587 276.954 59.5136C276.709 59.6639 276.505 59.8681 276.341 60.1263C276.177 60.3846 276.045 60.6639 275.946 60.9644C275.853 61.2649 275.787 61.5537 275.749 61.8307ZM286.652 59.9714L285.602 66H284.391L285.715 58.3797H286.856L286.652 59.9714ZM286.095 61.9082L285.574 61.8941C285.621 61.4762 285.708 61.0513 285.835 60.6193C285.961 60.1827 286.14 59.7812 286.37 59.415C286.6 59.0488 286.893 58.7577 287.25 58.5417C287.607 58.321 288.039 58.2201 288.546 58.2389C288.912 58.2483 289.21 58.3351 289.44 58.4995C289.671 58.6638 289.847 58.8774 289.969 59.1403C290.091 59.3986 290.168 59.685 290.201 59.9996C290.234 60.3094 290.234 60.617 290.201 60.9222L289.356 66H288.138L288.976 60.9785C289.004 60.7203 289.001 60.4667 288.969 60.2179C288.936 59.969 288.846 59.7601 288.701 59.5911C288.56 59.4221 288.332 59.3329 288.018 59.3235C287.67 59.3094 287.382 59.3845 287.152 59.5488C286.921 59.7085 286.734 59.9221 286.588 60.1897C286.447 60.4527 286.339 60.7367 286.264 61.0419C286.189 61.3471 286.133 61.6358 286.095 61.9082ZM290.18 61.1828L289.335 61.4433C289.377 61.0583 289.469 60.6757 289.609 60.2954C289.75 59.9104 289.938 59.5606 290.173 59.246C290.408 58.9314 290.694 58.6826 291.032 58.4995C291.37 58.3117 291.76 58.2224 292.201 58.2318C292.596 58.2412 292.915 58.3281 293.159 58.4924C293.403 58.6521 293.586 58.8633 293.708 59.1263C293.835 59.3892 293.915 59.6826 293.948 60.0066C293.981 60.3306 293.978 60.6592 293.941 60.9926L293.103 66H291.891L292.722 60.9715C292.751 60.7085 292.748 60.4527 292.715 60.2038C292.687 59.9503 292.6 59.7413 292.455 59.577C292.309 59.4127 292.074 59.3282 291.75 59.3235C291.502 59.3235 291.286 59.3798 291.103 59.4925C290.919 59.6005 290.764 59.7484 290.638 59.9362C290.516 60.1193 290.417 60.3212 290.342 60.5419C290.271 60.7578 290.217 60.9715 290.18 61.1828ZM298.786 64.6971L299.455 60.5489C299.479 60.3048 299.465 60.0911 299.413 59.908C299.366 59.7202 299.267 59.5723 299.117 59.4643C298.972 59.3563 298.765 59.3023 298.497 59.3023C298.253 59.2976 298.035 59.3469 297.842 59.4502C297.65 59.5488 297.49 59.6873 297.364 59.8658C297.241 60.0442 297.157 60.2508 297.11 60.4855L295.906 60.4926C295.939 60.1498 296.035 59.8399 296.194 59.5629C296.359 59.2812 296.568 59.0418 296.821 58.8446C297.075 58.6427 297.356 58.4901 297.666 58.3868C297.976 58.2788 298.298 58.2271 298.631 58.2318C299.11 58.2365 299.509 58.3375 299.829 58.5347C300.148 58.7272 300.378 58.9995 300.519 59.3516C300.664 59.6991 300.714 60.1076 300.667 60.5771L300.047 64.3379C300.005 64.6055 299.988 64.8638 299.998 65.1126C300.007 65.3615 300.019 65.6173 300.033 65.8803L300.019 66L298.8 66.007C298.753 65.7911 298.732 65.5727 298.737 65.3521C298.742 65.1314 298.758 64.9131 298.786 64.6971ZM299.547 61.3799L299.399 62.2955L298.624 62.2885C298.375 62.2885 298.127 62.3166 297.878 62.373C297.634 62.4293 297.406 62.5185 297.195 62.6406C296.988 62.758 296.814 62.9153 296.673 63.1125C296.537 63.305 296.453 63.5421 296.42 63.8238C296.392 64.0538 296.399 64.2604 296.441 64.4435C296.488 64.622 296.579 64.7652 296.716 64.8732C296.856 64.9765 297.054 65.0281 297.307 65.0281C297.57 65.0281 297.824 64.9694 298.068 64.852C298.312 64.7347 298.521 64.575 298.695 64.3731C298.873 64.1712 298.99 63.9412 299.047 63.6829L299.237 64.2745C299.181 64.5187 299.084 64.7558 298.948 64.9858C298.817 65.2112 298.655 65.4131 298.462 65.5915C298.27 65.7652 298.054 65.9014 297.814 66C297.58 66.1033 297.328 66.1549 297.061 66.1549C296.633 66.1549 296.274 66.0587 295.983 65.8662C295.692 65.6737 295.476 65.4155 295.335 65.0915C295.194 64.7628 295.138 64.3919 295.166 63.9787C295.19 63.5374 295.295 63.1524 295.483 62.8237C295.676 62.4951 295.924 62.2251 296.23 62.0138C296.535 61.7978 296.875 61.6382 297.251 61.5349C297.631 61.4269 298.026 61.3729 298.434 61.3729L299.547 61.3799ZM303.871 60.0841L302.843 66H301.624L302.948 58.3797H304.096L303.871 60.0841ZM303.308 61.9293L302.864 61.9082C302.916 61.5091 303.005 61.0935 303.132 60.6616C303.263 60.2249 303.444 59.8211 303.674 59.4502C303.904 59.0793 304.193 58.7812 304.54 58.5558C304.892 58.3257 305.315 58.2177 305.808 58.2318C306.188 58.2459 306.493 58.3375 306.723 58.5065C306.958 58.6755 307.13 58.8962 307.237 59.1685C307.35 59.4361 307.418 59.7319 307.442 60.0559C307.465 60.3752 307.461 60.6921 307.428 61.0067L306.597 66H305.378L306.216 60.9856C306.24 60.7414 306.242 60.4949 306.223 60.2461C306.209 59.9925 306.139 59.7789 306.012 59.6052C305.885 59.4268 305.667 59.3329 305.357 59.3235C305.033 59.3141 304.749 59.3939 304.505 59.5629C304.265 59.7319 304.064 59.9526 303.899 60.2249C303.735 60.4926 303.603 60.779 303.505 61.0842C303.411 61.3846 303.345 61.6664 303.308 61.9293ZM312.266 64.6971L312.935 60.5489C312.959 60.3048 312.944 60.0911 312.893 59.908C312.846 59.7202 312.747 59.5723 312.597 59.4643C312.451 59.3563 312.245 59.3023 311.977 59.3023C311.733 59.2976 311.515 59.3469 311.322 59.4502C311.13 59.5488 310.97 59.6873 310.843 59.8658C310.721 60.0442 310.637 60.2508 310.59 60.4855L309.386 60.4926C309.418 60.1498 309.515 59.8399 309.674 59.5629C309.839 59.2812 310.048 59.0418 310.301 58.8446C310.555 58.6427 310.836 58.4901 311.146 58.3868C311.456 58.2788 311.778 58.2271 312.111 58.2318C312.59 58.2365 312.989 58.3375 313.308 58.5347C313.628 58.7272 313.858 58.9995 313.999 59.3516C314.144 59.6991 314.193 60.1076 314.146 60.5771L313.527 64.3379C313.484 64.6055 313.468 64.8638 313.477 65.1126C313.487 65.3615 313.499 65.6173 313.513 65.8803L313.499 66L312.28 66.007C312.233 65.7911 312.212 65.5727 312.217 65.3521C312.221 65.1314 312.238 64.9131 312.266 64.6971ZM313.027 61.3799L312.879 62.2955L312.104 62.2885C311.855 62.2885 311.606 62.3166 311.358 62.373C311.113 62.4293 310.886 62.5185 310.674 62.6406C310.468 62.758 310.294 62.9153 310.153 63.1125C310.017 63.305 309.933 63.5421 309.9 63.8238C309.871 64.0538 309.879 64.2604 309.921 64.4435C309.968 64.622 310.059 64.7652 310.195 64.8732C310.336 64.9765 310.534 65.0281 310.787 65.0281C311.05 65.0281 311.304 64.9694 311.548 64.852C311.792 64.7347 312.001 64.575 312.174 64.3731C312.353 64.1712 312.47 63.9412 312.527 63.6829L312.717 64.2745C312.66 64.5187 312.564 64.7558 312.428 64.9858C312.297 65.2112 312.135 65.4131 311.942 65.5915C311.75 65.7652 311.534 65.9014 311.294 66C311.059 66.1033 310.808 66.1549 310.541 66.1549C310.113 66.1549 309.754 66.0587 309.463 65.8662C309.172 65.6737 308.956 65.4155 308.815 65.0915C308.674 64.7628 308.618 64.3919 308.646 63.9787C308.67 63.5374 308.775 63.1524 308.963 62.8237C309.155 62.4951 309.404 62.2251 309.71 62.0138C310.015 61.7978 310.355 61.6382 310.731 61.5349C311.111 61.4269 311.505 61.3729 311.914 61.3729L313.027 61.3799ZM320.429 58.3797H321.527L320.224 66.0634C320.149 66.6268 319.985 67.1362 319.731 67.5917C319.478 68.0471 319.135 68.4016 318.703 68.6551C318.271 68.9134 317.75 69.0331 317.14 69.0143C316.872 69.0096 316.604 68.965 316.337 68.8805C316.074 68.8007 315.823 68.688 315.583 68.5424C315.344 68.4016 315.137 68.2349 314.963 68.0424L315.534 67.1691C315.736 67.3992 315.966 67.5823 316.224 67.7184C316.487 67.8593 316.776 67.9344 317.09 67.9438C317.471 67.9579 317.792 67.8875 318.055 67.7325C318.323 67.5776 318.534 67.3593 318.689 67.0775C318.844 66.8005 318.947 66.486 318.999 66.1338L320.034 59.9925L320.429 58.3797ZM315.485 62.5561L315.576 61.8589C315.628 61.4316 315.717 61.002 315.844 60.57C315.975 60.1381 316.154 59.7437 316.379 59.3868C316.609 59.0253 316.9 58.7389 317.252 58.5276C317.609 58.3163 318.041 58.2201 318.548 58.2389C318.99 58.253 319.339 58.375 319.598 58.6051C319.86 58.8352 320.055 59.1286 320.182 59.4854C320.309 59.8423 320.384 60.2179 320.407 60.6123C320.436 61.0067 320.436 61.3776 320.407 61.725L320.281 62.6758C320.22 63.0514 320.121 63.4458 319.985 63.859C319.853 64.2675 319.677 64.6478 319.457 64.9999C319.236 65.3521 318.959 65.6361 318.626 65.8521C318.297 66.0634 317.903 66.162 317.442 66.1479C316.964 66.1338 316.583 66.0117 316.302 65.7817C316.025 65.5516 315.818 65.2558 315.682 64.8943C315.55 64.5328 315.473 64.1478 315.449 63.7393C315.431 63.3261 315.442 62.9317 315.485 62.5561ZM316.78 61.8448L316.703 62.5631C316.675 62.8073 316.656 63.0702 316.647 63.3519C316.642 63.6336 316.668 63.9013 316.724 64.1548C316.785 64.4083 316.9 64.6196 317.069 64.7886C317.243 64.953 317.496 65.0398 317.83 65.0492C318.163 65.0586 318.461 64.9718 318.724 64.7886C318.992 64.6055 319.215 64.3708 319.393 64.0844C319.572 63.798 319.703 63.5069 319.788 63.2111L320.105 61.1968C320.114 60.9902 320.093 60.7813 320.041 60.57C319.994 60.3541 319.917 60.1545 319.809 59.9714C319.701 59.7883 319.562 59.6404 319.393 59.5277C319.224 59.4103 319.025 59.3446 318.795 59.3305C318.438 59.3117 318.137 59.3775 317.893 59.5277C317.654 59.6733 317.459 59.8728 317.309 60.1263C317.158 60.3752 317.041 60.6522 316.957 60.9574C316.877 61.2579 316.818 61.5537 316.78 61.8448ZM324.746 66.1409C324.253 66.1315 323.842 66.0329 323.513 65.8451C323.185 65.6573 322.929 65.4037 322.746 65.0844C322.563 64.7652 322.44 64.4036 322.379 63.9999C322.323 63.5961 322.318 63.1759 322.365 62.7392L322.471 61.88C322.527 61.4292 322.633 60.9856 322.788 60.5489C322.943 60.1123 323.152 59.7179 323.415 59.3657C323.678 59.0089 324.002 58.7272 324.387 58.5206C324.772 58.314 325.222 58.2201 325.739 58.2389C326.251 58.253 326.657 58.368 326.957 58.584C327.258 58.7999 327.478 59.0817 327.619 59.4291C327.76 59.7765 327.84 60.1592 327.859 60.5771C327.882 60.9949 327.868 61.4128 327.816 61.8307L327.711 62.5561H323.084L323.274 61.4926L326.64 61.4997L326.668 61.3095C326.706 61.0231 326.713 60.7297 326.69 60.4292C326.666 60.124 326.577 59.8658 326.422 59.6545C326.267 59.4385 326.013 59.3211 325.661 59.3023C325.3 59.2836 324.999 59.3516 324.76 59.5066C324.525 59.6615 324.335 59.8704 324.189 60.1334C324.044 60.3963 323.931 60.6827 323.851 60.9926C323.776 61.2978 323.722 61.5936 323.689 61.88L323.584 62.7462C323.556 63.0045 323.546 63.2698 323.556 63.5421C323.565 63.8097 323.61 64.0585 323.689 64.2886C323.774 64.5187 323.908 64.7065 324.091 64.852C324.279 64.9929 324.537 65.068 324.866 65.0774C325.232 65.0868 325.56 65.0117 325.852 64.852C326.147 64.6924 326.417 64.4811 326.661 64.2182L327.253 65.014C327.051 65.2722 326.816 65.4859 326.549 65.6549C326.286 65.8239 326.002 65.9484 325.697 66.0282C325.391 66.108 325.074 66.1456 324.746 66.1409ZM334.486 58.3797L333.162 66H331.951L333.275 58.3797H334.486ZM333.556 56.3725C333.566 56.166 333.631 55.9875 333.753 55.8373C333.876 55.6824 334.042 55.6025 334.254 55.5978C334.474 55.5931 334.646 55.6659 334.768 55.8162C334.89 55.9664 334.946 56.1448 334.937 56.3514C334.927 56.5486 334.859 56.7223 334.732 56.8726C334.606 57.0181 334.439 57.0933 334.232 57.0979C334.016 57.1026 333.847 57.0346 333.725 56.8937C333.608 56.7482 333.552 56.5744 333.556 56.3725ZM339.099 58.3797L338.923 59.3798H335.458L335.641 58.3797H339.099ZM337.085 56.5275H338.303L337.014 64.1266C337 64.2487 336.996 64.3778 337 64.514C337.005 64.6501 337.035 64.7652 337.092 64.8591C337.153 64.953 337.263 65.0023 337.423 65.007C337.507 65.007 337.592 64.9999 337.676 64.9858C337.761 64.9671 337.843 64.9506 337.923 64.9365L337.817 66.007C337.69 66.054 337.559 66.0869 337.423 66.1056C337.291 66.1291 337.157 66.1385 337.021 66.1338C336.655 66.1291 336.38 66.0211 336.197 65.8098C336.019 65.5939 335.904 65.3309 335.852 65.0211C335.801 64.7065 335.789 64.4013 335.817 64.1055L337.085 56.5275ZM339.409 65.3309C339.409 65.1009 339.482 64.9084 339.627 64.7534C339.777 64.5985 339.968 64.5187 340.198 64.514C340.428 64.5093 340.616 64.5797 340.761 64.7253C340.911 64.8708 340.984 65.0586 340.979 65.2887C340.979 65.5187 340.904 65.7089 340.754 65.8591C340.608 66.0094 340.421 66.0869 340.191 66.0916C339.965 66.0963 339.777 66.0282 339.627 65.8873C339.477 65.7465 339.404 65.561 339.409 65.3309ZM346.529 62.4152V60.7813H353.797V62.4152H346.529ZM364.002 55.7457L362.227 66H360.164L361.946 55.7457H364.002ZM367.059 55.7457L366.77 57.4008H358.65L358.938 55.7457H367.059ZM365.439 62.3096L365.46 62.1617C365.516 61.6217 365.645 61.1147 365.847 60.6405C366.054 60.1615 366.326 59.7413 366.664 59.3798C367.007 59.0136 367.409 58.7295 367.869 58.5276C368.333 58.321 368.855 58.2248 369.432 58.2389C369.981 58.2483 370.456 58.3586 370.855 58.5699C371.254 58.7812 371.58 59.0652 371.834 59.4221C372.092 59.7789 372.273 60.1874 372.376 60.6475C372.484 61.1076 372.515 61.5936 372.468 62.1054L372.453 62.2603C372.392 62.7955 372.256 63.3003 372.045 63.7745C371.838 64.244 371.564 64.6595 371.221 65.0211C370.883 65.3779 370.481 65.6573 370.017 65.8591C369.552 66.061 369.035 66.1549 368.467 66.1409C367.927 66.1315 367.455 66.0235 367.052 65.8169C366.648 65.6056 366.319 65.3239 366.066 64.9718C365.812 64.6149 365.634 64.2088 365.53 63.7534C365.427 63.2979 365.397 62.8167 365.439 62.3096ZM367.439 62.1617L367.425 62.3166C367.401 62.542 367.394 62.7838 367.404 63.042C367.413 63.2956 367.453 63.5374 367.524 63.7674C367.599 63.9975 367.721 64.1853 367.89 64.3309C368.059 64.4764 368.291 64.5539 368.587 64.5633C368.902 64.5727 369.172 64.5093 369.397 64.3731C369.622 64.237 369.808 64.0538 369.953 63.8238C370.099 63.589 370.214 63.3355 370.298 63.0632C370.383 62.7862 370.439 62.5162 370.467 62.2533L370.481 62.1054C370.5 61.88 370.505 61.6382 370.496 61.3799C370.491 61.117 370.451 60.8705 370.376 60.6405C370.301 60.4057 370.179 60.2132 370.01 60.063C369.841 59.9127 369.608 59.8329 369.312 59.8235C368.998 59.8094 368.728 59.8751 368.502 60.0207C368.277 60.1615 368.092 60.3494 367.946 60.5841C367.801 60.8189 367.686 61.0748 367.601 61.3518C367.521 61.6288 367.467 61.8988 367.439 62.1617ZM375.954 60.1193L374.933 66H372.946L374.271 58.3797H376.13L375.954 60.1193ZM375.369 61.9222L374.876 61.9363C374.928 61.4809 375.031 61.0302 375.186 60.5841C375.341 60.1381 375.552 59.7366 375.82 59.3798C376.092 59.0183 376.423 58.7342 376.813 58.5276C377.207 58.321 377.665 58.2224 378.186 58.2318C378.609 58.2459 378.956 58.3351 379.229 58.4995C379.506 58.6591 379.717 58.8751 379.862 59.1474C380.013 59.4197 380.109 59.7272 380.151 60.07C380.198 60.4127 380.203 60.7696 380.165 61.1405L379.348 66H377.355L378.179 61.1194C378.207 60.8705 378.2 60.6498 378.158 60.4573C378.116 60.2648 378.022 60.1123 377.876 59.9996C377.736 59.8869 377.529 59.8282 377.257 59.8235C376.956 59.8141 376.696 59.8704 376.475 59.9925C376.259 60.1146 376.076 60.2789 375.926 60.4855C375.775 60.6921 375.656 60.9198 375.566 61.1687C375.477 61.4175 375.411 61.6687 375.369 61.9222ZM383.201 65.0351L386.285 58.3797H388.469L384.004 67.155C383.872 67.432 383.722 67.6879 383.553 67.9227C383.389 68.1621 383.201 68.3687 382.989 68.5424C382.783 68.7209 382.546 68.857 382.278 68.9509C382.015 69.0495 381.719 69.0988 381.391 69.0988C381.226 69.0988 381.067 69.0847 380.912 69.0566C380.757 69.0284 380.602 68.9955 380.447 68.958L380.588 67.4579C380.64 67.4625 380.691 67.4672 380.743 67.4719C380.79 67.4766 380.837 67.479 380.884 67.479C381.118 67.4837 381.325 67.4555 381.503 67.3945C381.687 67.3381 381.846 67.2442 381.982 67.1128C382.118 66.986 382.241 66.8193 382.349 66.6127L383.201 65.0351ZM383.518 58.3797L384.18 64.0069L384.088 66.0563L382.764 66.2113L381.461 58.3797H383.518Z" fill="white"/>
</svg>
