<svg width="300" height="72" viewBox="0 0 300 72" fill="none" xmlns="http://www.w3.org/2000/svg">
<g filter="url(#filter0_i_225_133)">
<path d="M209.297 41.1682C209.937 40.5275 209.937 39.4886 209.297 38.8479L198.855 28.4064C198.214 27.7657 197.176 27.7657 196.535 28.4064C195.894 29.0472 195.894 30.086 196.535 30.7268L205.816 40.0081L196.535 49.2893C195.894 49.9301 195.894 50.9689 196.535 51.6097C197.176 52.2504 198.214 52.2504 198.855 51.6097L209.297 41.1682ZM178.604 40.0081V41.6488H208.136V40.0081V38.3673H178.604V40.0081Z" fill="white"/>
<path d="M13.9402 48.0081V31.929H19.3611V43.8045H26.6196V48.0081H13.9402ZM42.9326 41.7143C42.9326 42.0818 42.8867 42.5642 42.8637 42.9317H34.1351C34.5026 43.8964 35.3755 44.4018 36.6618 44.4018C37.8103 44.4018 38.4535 44.1032 39.2804 43.483L41.9909 46.2164C40.7734 47.5487 39.0047 48.2378 36.501 48.2378C31.884 48.2378 28.8979 45.4584 28.8979 41.7143C28.8979 37.9012 31.953 35.2138 36.0186 35.2138C39.7398 35.2138 42.9326 37.4648 42.9326 41.7143ZM36.0646 38.7511C34.985 38.7511 34.25 39.3713 34.0432 40.428H38.0859C37.8792 39.3713 37.1212 38.7511 36.0646 38.7511ZM51.4699 35.2138C55.7883 35.2138 58.2691 37.0743 58.2691 41.2549V48.0081H53.4454V46.3542C52.8481 47.6176 51.6537 48.2378 49.885 48.2378C46.807 48.2378 45.2221 46.492 45.2221 44.3329C45.2221 41.898 47.0597 40.5428 50.9646 40.5428H53.0549C52.8941 39.5781 52.159 39.0727 50.689 39.0727C49.5634 39.0727 48.3001 39.4402 47.4731 40.0604L45.8193 36.6379C47.2894 35.7191 49.5175 35.2138 51.4699 35.2138ZM51.447 45.1138C52.159 45.1138 52.8022 44.7463 53.0778 43.9194V43.0465H51.7915C50.689 43.0465 50.2066 43.4141 50.2066 44.1032C50.2066 44.6774 50.666 45.1138 51.447 45.1138ZM67.059 36.7987C67.9778 35.7421 69.379 35.2138 71.1247 35.2138V39.8078C70.6653 39.7388 70.3437 39.7159 69.9762 39.7159C68.4143 39.7159 67.3117 40.428 67.3117 42.4263V48.0081H62.1205V35.4435H67.059V36.7987ZM82.9326 35.2138C85.8268 35.2138 88.0779 36.8906 88.0779 40.8414V48.0081H82.8866V41.7372C82.8866 40.1753 82.2894 39.5781 81.3476 39.5781C80.291 39.5781 79.3952 40.2442 79.3952 42.1048V48.0081H74.204V35.4435H79.1425V36.6838C80.1302 35.6961 81.4625 35.2138 82.9326 35.2138ZM119.89 48.0081H114.952L114.906 40.6806L111.414 46.5609H109.025L105.534 40.9333V48.0081H100.595V31.929H105.052L110.289 40.4969L115.388 31.929H119.844L119.89 48.0081ZM130.597 48.2378C126.347 48.2378 123.292 45.5273 123.292 41.7143C123.292 37.9012 126.347 35.2138 130.597 35.2138C134.869 35.2138 137.901 37.9012 137.901 41.7143C137.901 45.5273 134.869 48.2378 130.597 48.2378ZM130.597 44.195C131.745 44.195 132.641 43.3451 132.641 41.7143C132.641 40.0834 131.745 39.2565 130.597 39.2565C129.448 39.2565 128.552 40.0834 128.552 41.7143C128.552 43.3451 129.448 44.195 130.597 44.195ZM146.072 36.7987C146.991 35.7421 148.392 35.2138 150.138 35.2138V39.8078C149.679 39.7388 149.357 39.7159 148.99 39.7159C147.428 39.7159 146.325 40.428 146.325 42.4263V48.0081H141.134V35.4435H146.072V36.7987ZM166.474 41.7143C166.474 42.0818 166.428 42.5642 166.405 42.9317H157.676C158.044 43.8964 158.917 44.4018 160.203 44.4018C161.351 44.4018 161.994 44.1032 162.821 43.483L165.532 46.2164C164.314 47.5487 162.546 48.2378 160.042 48.2378C155.425 48.2378 152.439 45.4584 152.439 41.7143C152.439 37.9012 155.494 35.2138 159.56 35.2138C163.281 35.2138 166.474 37.4648 166.474 41.7143ZM159.606 38.7511C158.526 38.7511 157.791 39.3713 157.584 40.428H161.627C161.42 39.3713 160.662 38.7511 159.606 38.7511Z" fill="white"/>
</g>
<g filter="url(#filter1_ddii_225_133)">
<rect x="7.22266" y="6.67969" width="287.385" height="59.0051" rx="7.4254" fill="#FE7702"/>
<rect x="7.49422" y="6.95125" width="286.842" height="58.462" rx="7.15383" stroke="#924705" stroke-width="0.543129"/>
</g>
<g filter="url(#filter2_ddii_225_133)">
<rect x="5.60938" y="7.27734" width="289" height="58.4151" rx="8.16529" fill="#FE7702"/>
<rect x="5.908" y="7.57597" width="288.403" height="57.8178" rx="7.86667" stroke="#924705" stroke-width="0.597249"/>
</g>
<g filter="url(#filter3_d_225_133)">
<path d="M31.9857 34.3144C31.9857 33.6032 31.5511 33.129 30.7214 33.129H28.9829V35.4997H30.7214C31.5511 35.4997 31.9857 35.1441 31.9857 34.3144ZM24.5972 29.4545H31.1165C34.633 29.4545 36.4307 31.4696 36.4307 34.0378C36.4307 35.875 35.4034 37.4357 33.4081 38.0877L36.4505 43.4414H31.6301L29.0026 38.4235H28.9829V43.4414H24.5972V29.4545ZM39.1357 37.337V29.4545H43.5016V37.337C43.5016 38.542 43.9758 39.431 45.2994 39.431C46.623 39.431 47.1564 38.542 47.1564 37.337V29.4545H51.5224V37.337C51.5224 41.4659 48.6973 43.5797 45.2006 43.5797C41.7039 43.5797 39.1357 41.4659 39.1357 37.337ZM63.8251 29.4545H68.2109V43.4414H63.8251L59.1826 36.4084V43.4414H54.7969V29.4545H59.1826L63.8251 36.606V29.4545ZM75.9198 36.4282C75.9198 32.2598 78.5473 29.3162 82.8343 29.3162C86.5285 29.3162 89.0375 31.5288 89.6104 34.828H84.9876C84.5728 33.8995 83.743 33.3661 82.7552 33.3661C81.2736 33.3661 80.3648 34.5712 80.3648 36.4282C80.3648 38.2852 81.2736 39.4903 82.7552 39.4903C83.743 39.4903 84.5728 38.9569 84.9876 38.0284H89.6104C89.0375 41.3276 86.5285 43.5402 82.8343 43.5402C78.5473 43.5402 75.9198 40.5966 75.9198 36.4282ZM102.233 43.4414L101.541 41.3276H96.8791L96.1876 43.4414H91.5846L96.7013 29.4545H101.759L106.856 43.4414H102.233ZM100.475 38.0284L99.2102 34.1366L97.9458 38.0284H100.475ZM109.235 29.4545H113.621V40.1225H117.848V43.4414H109.235V29.4545ZM120.216 36.4282C120.216 32.2598 122.844 29.3162 127.131 29.3162C130.825 29.3162 133.334 31.5288 133.907 34.828H129.284C128.869 33.8995 128.039 33.3661 127.052 33.3661C125.57 33.3661 124.661 34.5712 124.661 36.4282C124.661 38.2852 125.57 39.4903 127.052 39.4903C128.039 39.4903 128.869 38.9569 129.284 38.0284H133.907C133.334 41.3276 130.825 43.5402 127.131 43.5402C122.844 43.5402 120.216 40.5966 120.216 36.4282ZM136.79 37.337V29.4545H141.156V37.337C141.156 38.542 141.63 39.431 142.953 39.431C144.277 39.431 144.81 38.542 144.81 37.337V29.4545H149.176V37.337C149.176 41.4659 146.351 43.5797 142.855 43.5797C139.358 43.5797 136.79 41.4659 136.79 37.337ZM152.451 29.4545H156.837V40.1225H161.064V43.4414H152.451V29.4545ZM173.488 43.4414L172.796 41.3276H168.134L167.443 43.4414H162.839L167.956 29.4545H173.014L178.111 43.4414H173.488ZM171.729 38.0284L170.465 34.1366L169.201 38.0284H171.729ZM179.7 32.9315V29.4545H191.474V32.9315H187.76V43.4414H183.374V32.9315H179.7ZM194.046 43.4414V29.4545H198.432V43.4414H194.046ZM215.783 36.3887C215.783 40.5966 212.562 43.5797 208.611 43.5797C204.64 43.5797 201.401 40.5966 201.401 36.3887C201.401 32.1808 204.64 29.2174 208.611 29.2174C212.602 29.2174 215.783 32.1808 215.783 36.3887ZM205.865 36.3887C205.865 38.2457 206.814 39.4903 208.611 39.4903C210.37 39.4903 211.338 38.2457 211.338 36.3887C211.338 34.4922 210.37 33.2673 208.611 33.2673C206.814 33.2673 205.865 34.4922 205.865 36.3887ZM227.776 29.4545H232.162V43.4414H227.776L223.133 36.4084V43.4414H218.748V29.4545H223.133L227.776 36.606V29.4545Z" fill="white"/>
</g>
<g filter="url(#filter4_i_225_133)">
<path d="M284.086 35.9211C284.086 25.8341 275.578 17.6565 265.083 17.6565C254.589 17.6565 246.08 25.8341 246.08 35.9211C246.08 46.008 254.589 54.1856 265.083 54.1856C275.578 54.1856 284.086 46.008 284.086 35.9211ZM266.157 39.0522H254.315V32.7899H266.157V26.18L275.851 35.9211L266.157 45.6622V39.0522Z" fill="white"/>
</g>
<defs>
<filter id="filter0_i_225_133" x="11.2324" y="25.4377" width="198.545" height="30.4986" filterUnits="userSpaceOnUse" color-interpolation-filters="sRGB">
<feFlood flood-opacity="0" result="BackgroundImageFix"/>
<feBlend mode="normal" in="SourceGraphic" in2="BackgroundImageFix" result="shape"/>
<feColorMatrix in="SourceAlpha" type="matrix" values="0 0 0 0 0 0 0 0 0 0 0 0 0 0 0 0 0 0 127 0" result="hardAlpha"/>
<feOffset dy="2.26327"/>
<feGaussianBlur stdDeviation="0.67898"/>
<feComposite in2="hardAlpha" operator="arithmetic" k2="-1" k3="1"/>
<feColorMatrix type="matrix" values="0 0 0 0 0 0 0 0 0 0 0 0 0 0 0 0 0 0 0.91 0"/>
<feBlend mode="normal" in2="shape" result="effect1_innerShadow_225_133"/>
</filter>
<filter id="filter1_ddii_225_133" x="-0.000136614" y="2.39015e-05" width="299.659" height="71.279" filterUnits="userSpaceOnUse" color-interpolation-filters="sRGB">
<feFlood flood-opacity="0" result="BackgroundImageFix"/>
<feColorMatrix in="SourceAlpha" type="matrix" values="0 0 0 0 0 0 0 0 0 0 0 0 0 0 0 0 0 0 127 0" result="hardAlpha"/>
<feOffset dy="1.62939"/>
<feGaussianBlur stdDeviation="1.98242"/>
<feComposite in2="hardAlpha" operator="out"/>
<feColorMatrix type="matrix" values="0 0 0 0 0 0 0 0 0 0 0 0 0 0 0 0 0 0 0.47 0"/>
<feBlend mode="normal" in2="BackgroundImageFix" result="effect1_dropShadow_225_133"/>
<feColorMatrix in="SourceAlpha" type="matrix" values="0 0 0 0 0 0 0 0 0 0 0 0 0 0 0 0 0 0 127 0" result="hardAlpha"/>
<feMorphology radius="1.77015" operator="dilate" in="SourceAlpha" result="effect2_dropShadow_225_133"/>
<feOffset dx="-1.08626" dy="-0.543129"/>
<feGaussianBlur stdDeviation="2.18319"/>
<feComposite in2="hardAlpha" operator="out"/>
<feColorMatrix type="matrix" values="0 0 0 0 0 0 0 0 0 0 0 0 0 0 0 0 0 0 0.47 0"/>
<feBlend mode="normal" in2="effect1_dropShadow_225_133" result="effect2_dropShadow_225_133"/>
<feBlend mode="normal" in="SourceGraphic" in2="effect2_dropShadow_225_133" result="shape"/>
<feColorMatrix in="SourceAlpha" type="matrix" values="0 0 0 0 0 0 0 0 0 0 0 0 0 0 0 0 0 0 127 0" result="hardAlpha"/>
<feOffset dx="3.25878" dy="-3.25878"/>
<feGaussianBlur stdDeviation="1.08626"/>
<feComposite in2="hardAlpha" operator="arithmetic" k2="-1" k3="1"/>
<feColorMatrix type="matrix" values="0 0 0 0 0 0 0 0 0 0 0 0 0 0 0 0 0 0 0.25 0"/>
<feBlend mode="normal" in2="shape" result="effect3_innerShadow_225_133"/>
<feColorMatrix in="SourceAlpha" type="matrix" values="0 0 0 0 0 0 0 0 0 0 0 0 0 0 0 0 0 0 127 0" result="hardAlpha"/>
<feOffset dx="-2.17252" dy="2.71565"/>
<feGaussianBlur stdDeviation="1.08626"/>
<feComposite in2="hardAlpha" operator="arithmetic" k2="-1" k3="1"/>
<feColorMatrix type="matrix" values="0 0 0 0 1 0 0 0 0 0.999906 0 0 0 0 0.999906 0 0 0 0.25 0"/>
<feBlend mode="normal" in2="effect3_innerShadow_225_133" result="effect4_innerShadow_225_133"/>
</filter>
<filter id="filter2_ddii_225_133" x="1.24946" y="4.2911" width="297.72" height="67.5529" filterUnits="userSpaceOnUse" color-interpolation-filters="sRGB">
<feFlood flood-opacity="0" result="BackgroundImageFix"/>
<feColorMatrix in="SourceAlpha" type="matrix" values="0 0 0 0 0 0 0 0 0 0 0 0 0 0 0 0 0 0 127 0" result="hardAlpha"/>
<feOffset dy="1.79175"/>
<feGaussianBlur stdDeviation="2.17996"/>
<feComposite in2="hardAlpha" operator="out"/>
<feColorMatrix type="matrix" values="0 0 0 0 0 0 0 0 0 0 0 0 0 0 0 0 0 0 0.68 0"/>
<feBlend mode="normal" in2="BackgroundImageFix" result="effect1_dropShadow_225_133"/>
<feColorMatrix in="SourceAlpha" type="matrix" values="0 0 0 0 0 0 0 0 0 0 0 0 0 0 0 0 0 0 127 0" result="hardAlpha"/>
<feOffset dx="-1.1945" dy="-0.597249"/>
<feGaussianBlur stdDeviation="1.1945"/>
<feComposite in2="hardAlpha" operator="out"/>
<feColorMatrix type="matrix" values="0 0 0 0 0 0 0 0 0 0 0 0 0 0 0 0 0 0 0.6 0"/>
<feBlend mode="normal" in2="effect1_dropShadow_225_133" result="effect2_dropShadow_225_133"/>
<feBlend mode="normal" in="SourceGraphic" in2="effect2_dropShadow_225_133" result="shape"/>
<feColorMatrix in="SourceAlpha" type="matrix" values="0 0 0 0 0 0 0 0 0 0 0 0 0 0 0 0 0 0 127 0" result="hardAlpha"/>
<feOffset dx="3.58349" dy="-3.58349"/>
<feGaussianBlur stdDeviation="1.1945"/>
<feComposite in2="hardAlpha" operator="arithmetic" k2="-1" k3="1"/>
<feColorMatrix type="matrix" values="0 0 0 0 0 0 0 0 0 0 0 0 0 0 0 0 0 0 0.25 0"/>
<feBlend mode="normal" in2="shape" result="effect3_innerShadow_225_133"/>
<feColorMatrix in="SourceAlpha" type="matrix" values="0 0 0 0 0 0 0 0 0 0 0 0 0 0 0 0 0 0 127 0" result="hardAlpha"/>
<feOffset dx="-2.389" dy="2.98624"/>
<feGaussianBlur stdDeviation="1.1945"/>
<feComposite in2="hardAlpha" operator="arithmetic" k2="-1" k3="1"/>
<feColorMatrix type="matrix" values="0 0 0 0 1 0 0 0 0 0.999906 0 0 0 0 0.999906 0 0 0 0.25 0"/>
<feBlend mode="normal" in2="effect3_innerShadow_225_133" result="effect4_innerShadow_225_133"/>
</filter>
<filter id="filter3_d_225_133" x="22.2365" y="29.2175" width="212.285" height="19.0825" filterUnits="userSpaceOnUse" color-interpolation-filters="sRGB">
<feFlood flood-opacity="0" result="BackgroundImageFix"/>
<feColorMatrix in="SourceAlpha" type="matrix" values="0 0 0 0 0 0 0 0 0 0 0 0 0 0 0 0 0 0 127 0" result="hardAlpha"/>
<feOffset dy="2.36021"/>
<feGaussianBlur stdDeviation="1.1801"/>
<feComposite in2="hardAlpha" operator="out"/>
<feColorMatrix type="matrix" values="0 0 0 0 0 0 0 0 0 0 0 0 0 0 0 0 0 0 1 0"/>
<feBlend mode="normal" in2="BackgroundImageFix" result="effect1_dropShadow_225_133"/>
<feBlend mode="normal" in="SourceGraphic" in2="effect1_dropShadow_225_133" result="shape"/>
</filter>
<filter id="filter4_i_225_133" x="245.607" y="15.2022" width="39.748" height="40.987" filterUnits="userSpaceOnUse" color-interpolation-filters="sRGB">
<feFlood flood-opacity="0" result="BackgroundImageFix"/>
<feBlend mode="normal" in="SourceGraphic" in2="BackgroundImageFix" result="shape"/>
<feColorMatrix in="SourceAlpha" type="matrix" values="0 0 0 0 0 0 0 0 0 0 0 0 0 0 0 0 0 0 127 0" result="hardAlpha"/>
<feOffset dy="-1.77033"/>
<feGaussianBlur stdDeviation="0.619615"/>
<feComposite in2="hardAlpha" operator="arithmetic" k2="-1" k3="1"/>
<feColorMatrix type="matrix" values="0 0 0 0 0 0 0 0 0 0 0 0 0 0 0 0 0 0 1 0"/>
<feBlend mode="normal" in2="shape" result="effect1_innerShadow_225_133"/>
</filter>
</defs>
</svg>
