<svg width="285" height="90" viewBox="0 0 285 90" fill="none" xmlns="http://www.w3.org/2000/svg">
<g filter="url(#filter0_i_288_4)">
<path d="M261.142 51.2661C261.939 50.4682 261.939 49.1744 261.142 48.3765L248.138 35.3732C247.34 34.5753 246.047 34.5753 245.249 35.3732C244.451 36.1712 244.451 37.4649 245.249 38.2628L256.807 49.8213L245.249 61.3797C244.451 62.1777 244.451 63.4714 245.249 64.2693C246.047 65.0673 247.34 65.0673 248.138 64.2693L261.142 51.2661ZM222.918 49.8213V51.8646H259.697V49.8213V47.778H222.918V49.8213Z" fill="white"/>
<path d="M17.8542 60.3213V40.2973H24.6051V55.0864H33.6445V60.3213H17.8542ZM53.9599 52.4833C53.9599 52.941 53.9027 53.5417 53.8741 53.9994H43.0039C43.4616 55.2009 44.5486 55.8302 46.1505 55.8302C47.5808 55.8302 48.3818 55.4583 49.4116 54.686L52.7871 58.09C51.271 59.7492 49.0683 60.6073 45.9503 60.6073C40.2006 60.6073 36.4818 57.1461 36.4818 52.4833C36.4818 47.7348 40.2864 44.3879 45.3496 44.3879C49.9837 44.3879 53.9599 47.1913 53.9599 52.4833ZM45.4068 48.7932C44.0623 48.7932 43.1469 49.5656 42.8895 50.8814H47.9241C47.6666 49.5656 46.7227 48.7932 45.4068 48.7932ZM64.5918 44.3879C69.9697 44.3879 73.0591 46.705 73.0591 51.9112V60.3213H67.0519V58.2617C66.3082 59.835 64.8207 60.6073 62.618 60.6073C58.7849 60.6073 56.8111 58.4333 56.8111 55.7444C56.8111 52.7122 59.0995 51.0244 63.9625 51.0244H66.5656C66.3654 49.823 65.45 49.1937 63.6192 49.1937C62.2175 49.1937 60.6442 49.6514 59.6144 50.4237L57.5548 46.1615C59.3856 45.0172 62.1603 44.3879 64.5918 44.3879ZM64.5632 56.717C65.45 56.717 66.251 56.2593 66.5942 55.2295V54.1425H64.9923C63.6192 54.1425 63.0185 54.6002 63.0185 55.4583C63.0185 56.1735 63.5906 56.717 64.5632 56.717ZM84.0057 46.3617C85.1499 45.0459 86.8949 44.3879 89.0689 44.3879V50.1091C88.4968 50.0232 88.0963 49.9946 87.6386 49.9946C85.6934 49.9946 84.3204 50.8814 84.3204 53.3701V60.3213H77.8555V44.674H84.0057V46.3617ZM103.774 44.3879C107.378 44.3879 110.181 46.4761 110.181 51.3963V60.3213H103.717V52.5119C103.717 50.5668 102.973 49.823 101.8 49.823C100.484 49.823 99.3685 50.6526 99.3685 52.9696V60.3213H92.9036V44.674H99.0538V46.2187C100.284 44.9886 101.943 44.3879 103.774 44.3879ZM149.799 60.3213H143.649L143.592 51.1961L139.243 58.5191H136.268L131.92 51.5107V60.3213H125.77V40.2973H131.32L137.842 50.9672L144.192 40.2973H149.742L149.799 60.3213ZM163.132 60.6073C157.84 60.6073 154.036 57.2319 154.036 52.4833C154.036 47.7348 157.84 44.3879 163.132 44.3879C168.453 44.3879 172.229 47.7348 172.229 52.4833C172.229 57.2319 168.453 60.6073 163.132 60.6073ZM163.132 55.5727C164.562 55.5727 165.678 54.5143 165.678 52.4833C165.678 50.4523 164.562 49.4225 163.132 49.4225C161.702 49.4225 160.586 50.4523 160.586 52.4833C160.586 54.5143 161.702 55.5727 163.132 55.5727ZM182.405 46.3617C183.549 45.0459 185.294 44.3879 187.468 44.3879V50.1091C186.896 50.0232 186.495 49.9946 186.038 49.9946C184.093 49.9946 182.719 50.8814 182.719 53.3701V60.3213H176.255V44.674H182.405V46.3617ZM207.812 52.4833C207.812 52.941 207.754 53.5417 207.726 53.9994H196.856C197.313 55.2009 198.4 55.8302 200.002 55.8302C201.432 55.8302 202.233 55.4583 203.263 54.686L206.639 58.09C205.123 59.7492 202.92 60.6073 199.802 60.6073C194.052 60.6073 190.333 57.1461 190.333 52.4833C190.333 47.7348 194.138 44.3879 199.201 44.3879C203.835 44.3879 207.812 47.1913 207.812 52.4833ZM199.258 48.7932C197.914 48.7932 196.999 49.5656 196.741 50.8814H201.776C201.518 49.5656 200.574 48.7932 199.258 48.7932Z" fill="white"/>
</g>
<g filter="url(#filter1_ddii_288_4)">
<rect x="8.99512" y="8.31836" width="269.489" height="73.482" rx="9.24721" fill="#0097A7"/>
</g>
<g filter="url(#filter2_ddii_288_4)">
<rect x="7.48242" y="9.06055" width="271.003" height="72.7471" rx="10.1686" fill="#0097A7"/>
</g>
<g filter="url(#filter3_d_288_4)">
<path d="M40.5274 54.139C38.4444 54.139 36.7223 53.6552 35.3609 52.6875C34.016 51.7034 33.2861 50.2682 33.1713 48.382H38.9775C39.0595 49.3825 39.5023 49.8828 40.306 49.8828C40.6013 49.8828 40.8473 49.8172 41.0441 49.686C41.2573 49.5383 41.3639 49.3169 41.3639 49.0217C41.3639 48.6116 41.1425 48.2836 40.6997 48.0376C40.2568 47.7752 39.5679 47.4799 38.633 47.1519C37.5177 46.7583 36.591 46.3728 35.853 45.9956C35.1313 45.6183 34.508 45.0689 33.9832 44.3472C33.4583 43.6255 33.2041 42.6988 33.2205 41.5671C33.2205 40.4354 33.5075 39.4759 34.0816 38.6886C34.672 37.885 35.4675 37.2781 36.468 36.868C37.4849 36.458 38.6248 36.253 39.8878 36.253C42.02 36.253 43.7094 36.745 44.9559 37.7291C46.2188 38.7132 46.8831 40.0992 46.9487 41.887H41.0687C41.0523 41.3949 40.9293 41.0423 40.6997 40.8291C40.47 40.6158 40.1912 40.5092 39.8632 40.5092C39.6336 40.5092 39.4449 40.5912 39.2973 40.7552C39.1497 40.9029 39.0759 41.1161 39.0759 41.3949C39.0759 41.7886 39.2891 42.1166 39.7156 42.379C40.1584 42.625 40.8555 42.9285 41.8068 43.2893C42.9057 43.6993 43.8078 44.093 44.5131 44.4702C45.2347 44.8475 45.858 45.3723 46.3828 46.0448C46.9077 46.7173 47.1701 47.5619 47.1701 48.5788C47.1701 49.645 46.9077 50.6045 46.3828 51.4573C45.858 52.2938 45.0953 52.9499 44.0948 53.4255C43.0943 53.9012 41.9052 54.139 40.5274 54.139ZM66.9259 36.5482V53.9668H61.4642V47.1765H56.2731V53.9668H50.8113V36.5482H56.2731V42.8219H61.4642V36.5482H66.9259ZM79.5934 54.139C77.9532 54.139 76.4442 53.7536 75.0665 52.9827C73.7051 52.2118 72.6226 51.1457 71.819 49.7844C71.0153 48.423 70.6134 46.8895 70.6134 45.1837C70.6134 43.4779 71.0153 41.9444 71.819 40.583C72.6226 39.2217 73.7051 38.1638 75.0665 37.4093C76.4442 36.6384 77.9532 36.253 79.5934 36.253C81.2335 36.253 82.7343 36.6384 84.0956 37.4093C85.457 38.1638 86.5313 39.2217 87.3185 40.583C88.1222 41.9444 88.5241 43.4779 88.5241 45.1837C88.5241 46.8895 88.1222 48.423 87.3185 49.7844C86.5313 51.1457 85.4487 52.2118 84.071 52.9827C82.7097 53.7536 81.2171 54.139 79.5934 54.139ZM79.5934 49.0463C80.6759 49.0463 81.5123 48.7019 82.1028 48.013C82.6933 47.3077 82.9885 46.3646 82.9885 45.1837C82.9885 43.9864 82.6933 43.0433 82.1028 42.3544C81.5123 41.6491 80.6759 41.2965 79.5934 41.2965C78.4944 41.2965 77.6498 41.6491 77.0593 42.3544C76.4688 43.0433 76.1736 43.9864 76.1736 45.1837C76.1736 46.3646 76.4688 47.3077 77.0593 48.013C77.6498 48.7019 78.4944 49.0463 79.5934 49.0463ZM117.311 36.5482L113.326 53.9668H106.535L104.518 44.0766L102.5 53.9668H95.7101L91.7245 36.5482H97.6045L99.1791 47.5209L101.541 36.5482H107.495L109.857 47.5209L111.431 36.5482H117.311ZM147.831 36.5482V53.9668H142.394V45.2821L139.712 53.9668H135.038L132.356 45.2821V53.9668H126.895V36.5482H133.586L137.424 47.0043L141.164 36.5482H147.831ZM160.506 54.139C158.866 54.139 157.357 53.7536 155.979 52.9827C154.618 52.2118 153.535 51.1457 152.731 49.7844C151.928 48.423 151.526 46.8895 151.526 45.1837C151.526 43.4779 151.928 41.9444 152.731 40.583C153.535 39.2217 154.618 38.1638 155.979 37.4093C157.357 36.6384 158.866 36.253 160.506 36.253C162.146 36.253 163.647 36.6384 165.008 37.4093C166.369 38.1638 167.444 39.2217 168.231 40.583C169.035 41.9444 169.437 43.4779 169.437 45.1837C169.437 46.8895 169.035 48.423 168.231 49.7844C167.444 51.1457 166.361 52.2118 164.983 52.9827C163.622 53.7536 162.13 54.139 160.506 54.139ZM160.506 49.0463C161.588 49.0463 162.425 48.7019 163.015 48.013C163.606 47.3077 163.901 46.3646 163.901 45.1837C163.901 43.9864 163.606 43.0433 163.015 42.3544C162.425 41.6491 161.588 41.2965 160.506 41.2965C159.407 41.2965 158.562 41.6491 157.972 42.3544C157.381 43.0433 157.086 43.9864 157.086 45.1837C157.086 46.3646 157.381 47.3077 157.972 48.013C158.562 48.7019 159.407 49.0463 160.506 49.0463ZM181.888 53.9668L178.615 47.7178H178.591V53.9668H173.129V36.5482H181.248C182.658 36.5482 183.864 36.8024 184.864 37.3109C185.865 37.8029 186.611 38.4836 187.103 39.3529C187.612 40.2058 187.866 41.1735 187.866 42.256C187.866 43.4205 187.538 44.4538 186.882 45.3559C186.242 46.258 185.315 46.9059 184.102 47.2995L187.891 53.9668H181.888ZM178.591 44.0766H180.756C181.281 44.0766 181.674 43.9618 181.937 43.7322C182.199 43.4861 182.33 43.1089 182.33 42.6004C182.33 42.1412 182.191 41.7804 181.912 41.5179C181.65 41.2555 181.264 41.1243 180.756 41.1243H178.591V44.0766ZM196.795 40.9029V43.0433H202.207V47.1519H196.795V49.6122H202.945V53.9668H191.333V36.5482H202.945V40.9029H196.795Z" fill="white"/>
</g>
<g filter="url(#filter4_i_288_4)">
<path d="M243.224 69.3857C255.786 69.3857 265.97 58.7901 265.97 45.7207C265.97 32.6513 255.786 22.0556 243.224 22.0556C230.662 22.0556 220.478 32.6513 220.478 45.7207C220.478 58.7901 230.662 69.3857 243.224 69.3857ZM239.325 47.0578V32.3105H247.123V47.0578H255.355L243.224 59.1309L231.093 47.0578H239.325Z" fill="white"/>
</g>
<defs>
<filter id="filter0_i_288_4" x="14.4814" y="31.6758" width="247.259" height="37.9812" filterUnits="userSpaceOnUse" color-interpolation-filters="sRGB">
<feFlood flood-opacity="0" result="BackgroundImageFix"/>
<feBlend mode="normal" in="SourceGraphic" in2="BackgroundImageFix" result="shape"/>
<feColorMatrix in="SourceAlpha" type="matrix" values="0 0 0 0 0 0 0 0 0 0 0 0 0 0 0 0 0 0 127 0" result="hardAlpha"/>
<feOffset dy="2.81856"/>
<feGaussianBlur stdDeviation="0.845567"/>
<feComposite in2="hardAlpha" operator="arithmetic" k2="-1" k3="1"/>
<feColorMatrix type="matrix" values="0 0 0 0 0 0 0 0 0 0 0 0 0 0 0 0 0 0 0.91 0"/>
<feBlend mode="normal" in2="shape" result="effect1_innerShadow_288_4"/>
</filter>
<filter id="filter1_ddii_288_4" x="0.000221372" y="-0.000151098" width="284.774" height="88.7677" filterUnits="userSpaceOnUse" color-interpolation-filters="sRGB">
<feFlood flood-opacity="0" result="BackgroundImageFix"/>
<feColorMatrix in="SourceAlpha" type="matrix" values="0 0 0 0 0 0 0 0 0 0 0 0 0 0 0 0 0 0 127 0" result="hardAlpha"/>
<feOffset dy="2.02916"/>
<feGaussianBlur stdDeviation="2.46881"/>
<feComposite in2="hardAlpha" operator="out"/>
<feColorMatrix type="matrix" values="0 0 0 0 0 0 0 0 0 0 0 0 0 0 0 0 0 0 0.47 0"/>
<feBlend mode="normal" in2="BackgroundImageFix" result="effect1_dropShadow_288_4"/>
<feColorMatrix in="SourceAlpha" type="matrix" values="0 0 0 0 0 0 0 0 0 0 0 0 0 0 0 0 0 0 127 0" result="hardAlpha"/>
<feMorphology radius="2.20446" operator="dilate" in="SourceAlpha" result="effect2_dropShadow_288_4"/>
<feOffset dx="-1.35277" dy="-0.676385"/>
<feGaussianBlur stdDeviation="2.71883"/>
<feComposite in2="hardAlpha" operator="out"/>
<feColorMatrix type="matrix" values="0 0 0 0 0 0 0 0 0 0 0 0 0 0 0 0 0 0 0.47 0"/>
<feBlend mode="normal" in2="effect1_dropShadow_288_4" result="effect2_dropShadow_288_4"/>
<feBlend mode="normal" in="SourceGraphic" in2="effect2_dropShadow_288_4" result="shape"/>
<feColorMatrix in="SourceAlpha" type="matrix" values="0 0 0 0 0 0 0 0 0 0 0 0 0 0 0 0 0 0 127 0" result="hardAlpha"/>
<feOffset dx="4.05831" dy="-4.05831"/>
<feGaussianBlur stdDeviation="1.35277"/>
<feComposite in2="hardAlpha" operator="arithmetic" k2="-1" k3="1"/>
<feColorMatrix type="matrix" values="0 0 0 0 0 0 0 0 0 0 0 0 0 0 0 0 0 0 0.25 0"/>
<feBlend mode="normal" in2="shape" result="effect3_innerShadow_288_4"/>
<feColorMatrix in="SourceAlpha" type="matrix" values="0 0 0 0 0 0 0 0 0 0 0 0 0 0 0 0 0 0 127 0" result="hardAlpha"/>
<feOffset dx="-2.70554" dy="3.38193"/>
<feGaussianBlur stdDeviation="1.35277"/>
<feComposite in2="hardAlpha" operator="arithmetic" k2="-1" k3="1"/>
<feColorMatrix type="matrix" values="0 0 0 0 1 0 0 0 0 0.999906 0 0 0 0 0.999906 0 0 0 0.25 0"/>
<feBlend mode="normal" in2="effect3_innerShadow_288_4" result="effect4_innerShadow_288_4"/>
</filter>
<filter id="filter2_ddii_288_4" x="2.0528" y="5.34163" width="281.862" height="84.127" filterUnits="userSpaceOnUse" color-interpolation-filters="sRGB">
<feFlood flood-opacity="0" result="BackgroundImageFix"/>
<feColorMatrix in="SourceAlpha" type="matrix" values="0 0 0 0 0 0 0 0 0 0 0 0 0 0 0 0 0 0 127 0" result="hardAlpha"/>
<feOffset dy="2.23135"/>
<feGaussianBlur stdDeviation="2.71481"/>
<feComposite in2="hardAlpha" operator="out"/>
<feColorMatrix type="matrix" values="0 0 0 0 0 0 0 0 0 0 0 0 0 0 0 0 0 0 0.68 0"/>
<feBlend mode="normal" in2="BackgroundImageFix" result="effect1_dropShadow_288_4"/>
<feColorMatrix in="SourceAlpha" type="matrix" values="0 0 0 0 0 0 0 0 0 0 0 0 0 0 0 0 0 0 127 0" result="hardAlpha"/>
<feOffset dx="-1.48757" dy="-0.743783"/>
<feGaussianBlur stdDeviation="1.48757"/>
<feComposite in2="hardAlpha" operator="out"/>
<feColorMatrix type="matrix" values="0 0 0 0 0 0 0 0 0 0 0 0 0 0 0 0 0 0 0.6 0"/>
<feBlend mode="normal" in2="effect1_dropShadow_288_4" result="effect2_dropShadow_288_4"/>
<feBlend mode="normal" in="SourceGraphic" in2="effect2_dropShadow_288_4" result="shape"/>
<feColorMatrix in="SourceAlpha" type="matrix" values="0 0 0 0 0 0 0 0 0 0 0 0 0 0 0 0 0 0 127 0" result="hardAlpha"/>
<feOffset dx="4.4627" dy="-4.4627"/>
<feGaussianBlur stdDeviation="1.48757"/>
<feComposite in2="hardAlpha" operator="arithmetic" k2="-1" k3="1"/>
<feColorMatrix type="matrix" values="0 0 0 0 0 0 0 0 0 0 0 0 0 0 0 0 0 0 0.25 0"/>
<feBlend mode="normal" in2="shape" result="effect3_innerShadow_288_4"/>
<feColorMatrix in="SourceAlpha" type="matrix" values="0 0 0 0 0 0 0 0 0 0 0 0 0 0 0 0 0 0 127 0" result="hardAlpha"/>
<feOffset dx="-2.97513" dy="3.71892"/>
<feGaussianBlur stdDeviation="1.48757"/>
<feComposite in2="hardAlpha" operator="arithmetic" k2="-1" k3="1"/>
<feColorMatrix type="matrix" values="0 0 0 0 1 0 0 0 0 0.999906 0 0 0 0 0.999906 0 0 0 0.25 0"/>
<feBlend mode="normal" in2="effect3_innerShadow_288_4" result="effect4_innerShadow_288_4"/>
</filter>
<filter id="filter3_d_288_4" x="30.2316" y="36.2529" width="175.653" height="23.7643" filterUnits="userSpaceOnUse" color-interpolation-filters="sRGB">
<feFlood flood-opacity="0" result="BackgroundImageFix"/>
<feColorMatrix in="SourceAlpha" type="matrix" values="0 0 0 0 0 0 0 0 0 0 0 0 0 0 0 0 0 0 127 0" result="hardAlpha"/>
<feOffset dy="2.93928"/>
<feGaussianBlur stdDeviation="1.46964"/>
<feComposite in2="hardAlpha" operator="out"/>
<feColorMatrix type="matrix" values="0 0 0 0 0 0 0 0 0 0 0 0 0 0 0 0 0 0 1 0"/>
<feBlend mode="normal" in2="BackgroundImageFix" result="effect1_dropShadow_288_4"/>
<feBlend mode="normal" in="SourceGraphic" in2="effect1_dropShadow_288_4" result="shape"/>
</filter>
<filter id="filter4_i_288_4" x="218.481" y="19.4236" width="49" height="51.5432" filterUnits="userSpaceOnUse" color-interpolation-filters="sRGB">
<feFlood flood-opacity="0" result="BackgroundImageFix"/>
<feBlend mode="normal" in="SourceGraphic" in2="BackgroundImageFix" result="shape"/>
<feColorMatrix in="SourceAlpha" type="matrix" values="0 0 0 0 0 0 0 0 0 0 0 0 0 0 0 0 0 0 127 0" result="hardAlpha"/>
<feOffset dy="-2.20456"/>
<feGaussianBlur stdDeviation="0.771597"/>
<feComposite in2="hardAlpha" operator="arithmetic" k2="-1" k3="1"/>
<feColorMatrix type="matrix" values="0 0 0 0 0 0 0 0 0 0 0 0 0 0 0 0 0 0 1 0"/>
<feBlend mode="normal" in2="shape" result="effect1_innerShadow_288_4"/>
</filter>
</defs>
</svg>
