<svg width="285" height="90" viewBox="0 0 285 90" fill="none" xmlns="http://www.w3.org/2000/svg">
<g filter="url(#filter0_i_288_4)">
<path d="M261.142 51.2661C261.939 50.4682 261.939 49.1744 261.142 48.3765L248.138 35.3732C247.34 34.5753 246.047 34.5753 245.249 35.3732C244.451 36.1712 244.451 37.4649 245.249 38.2628L256.807 49.8213L245.249 61.3797C244.451 62.1777 244.451 63.4714 245.249 64.2693C246.047 65.0673 247.34 65.0673 248.138 64.2693L261.142 51.2661ZM222.918 49.8213V51.8646H259.697V49.8213V47.778H222.918V49.8213Z" fill="white"/>
<path d="M17.8542 60.3213V40.2973H24.6051V55.0864H33.6445V60.3213H17.8542ZM53.9599 52.4833C53.9599 52.941 53.9027 53.5417 53.8741 53.9994H43.0039C43.4616 55.2009 44.5486 55.8302 46.1505 55.8302C47.5808 55.8302 48.3818 55.4583 49.4116 54.686L52.7871 58.09C51.271 59.7492 49.0683 60.6073 45.9503 60.6073C40.2006 60.6073 36.4818 57.1461 36.4818 52.4833C36.4818 47.7348 40.2864 44.3879 45.3496 44.3879C49.9837 44.3879 53.9599 47.1913 53.9599 52.4833ZM45.4068 48.7932C44.0623 48.7932 43.1469 49.5656 42.8895 50.8814H47.9241C47.6666 49.5656 46.7227 48.7932 45.4068 48.7932ZM64.5918 44.3879C69.9697 44.3879 73.0591 46.705 73.0591 51.9112V60.3213H67.0519V58.2617C66.3082 59.835 64.8207 60.6073 62.618 60.6073C58.7849 60.6073 56.8111 58.4333 56.8111 55.7444C56.8111 52.7122 59.0995 51.0244 63.9625 51.0244H66.5656C66.3654 49.823 65.45 49.1937 63.6192 49.1937C62.2175 49.1937 60.6442 49.6514 59.6144 50.4237L57.5548 46.1615C59.3856 45.0172 62.1603 44.3879 64.5918 44.3879ZM64.5632 56.717C65.45 56.717 66.251 56.2593 66.5942 55.2295V54.1425H64.9923C63.6192 54.1425 63.0185 54.6002 63.0185 55.4583C63.0185 56.1735 63.5906 56.717 64.5632 56.717ZM84.0057 46.3617C85.1499 45.0459 86.8949 44.3879 89.0689 44.3879V50.1091C88.4968 50.0232 88.0963 49.9946 87.6386 49.9946C85.6934 49.9946 84.3204 50.8814 84.3204 53.3701V60.3213H77.8555V44.674H84.0057V46.3617ZM103.774 44.3879C107.378 44.3879 110.181 46.4761 110.181 51.3963V60.3213H103.717V52.5119C103.717 50.5668 102.973 49.823 101.8 49.823C100.484 49.823 99.3685 50.6526 99.3685 52.9696V60.3213H92.9036V44.674H99.0538V46.2187C100.284 44.9886 101.943 44.3879 103.774 44.3879ZM149.799 60.3213H143.649L143.592 51.1961L139.243 58.5191H136.268L131.92 51.5107V60.3213H125.77V40.2973H131.32L137.842 50.9672L144.192 40.2973H149.742L149.799 60.3213ZM163.132 60.6073C157.84 60.6073 154.036 57.2319 154.036 52.4833C154.036 47.7348 157.84 44.3879 163.132 44.3879C168.453 44.3879 172.229 47.7348 172.229 52.4833C172.229 57.2319 168.453 60.6073 163.132 60.6073ZM163.132 55.5727C164.562 55.5727 165.678 54.5143 165.678 52.4833C165.678 50.4523 164.562 49.4225 163.132 49.4225C161.702 49.4225 160.586 50.4523 160.586 52.4833C160.586 54.5143 161.702 55.5727 163.132 55.5727ZM182.405 46.3617C183.549 45.0459 185.294 44.3879 187.468 44.3879V50.1091C186.896 50.0232 186.495 49.9946 186.038 49.9946C184.093 49.9946 182.719 50.8814 182.719 53.3701V60.3213H176.255V44.674H182.405V46.3617ZM207.812 52.4833C207.812 52.941 207.754 53.5417 207.726 53.9994H196.856C197.313 55.2009 198.4 55.8302 200.002 55.8302C201.432 55.8302 202.233 55.4583 203.263 54.686L206.639 58.09C205.123 59.7492 202.92 60.6073 199.802 60.6073C194.052 60.6073 190.333 57.1461 190.333 52.4833C190.333 47.7348 194.138 44.3879 199.201 44.3879C203.835 44.3879 207.812 47.1913 207.812 52.4833ZM199.258 48.7932C197.914 48.7932 196.999 49.5656 196.741 50.8814H201.776C201.518 49.5656 200.574 48.7932 199.258 48.7932Z" fill="white"/>
</g>
<g filter="url(#filter1_ddii_288_4)">
<rect x="8.99512" y="8.31836" width="269.489" height="73.482" rx="9.24721" fill="#0097A7"/>
</g>
<g filter="url(#filter2_ddii_288_4)">
<rect x="7.48242" y="9.06055" width="271.003" height="72.7471" rx="10.1686" fill="#0097A7"/>
</g>
<g filter="url(#filter3_d_288_4)">
<path d="M50.5274 54.139C48.4444 54.139 46.7223 53.6552 45.3609 52.6875C44.016 51.7034 43.2861 50.2682 43.1713 48.382H48.9775C49.0595 49.3825 49.5023 49.8828 50.306 49.8828C50.6013 49.8828 50.8473 49.8172 51.0441 49.686C51.2573 49.5383 51.3639 49.3169 51.3639 49.0217C51.3639 48.6116 51.1425 48.2836 50.6997 48.0376C50.2568 47.7752 49.5679 47.4799 48.633 47.1519C47.5177 46.7583 46.591 46.3728 45.853 45.9956C45.1313 45.6183 44.508 45.0689 43.9832 44.3472C43.4583 43.6255 43.2041 42.6988 43.2205 41.5671C43.2205 40.4354 43.5075 39.4759 44.0816 38.6886C44.672 37.885 45.4675 37.2781 46.468 36.868C47.4849 36.458 48.6248 36.253 49.8878 36.253C52.02 36.253 53.7094 36.745 54.9559 37.7291C56.2188 38.7132 56.8831 40.0992 56.9487 41.887H51.0687C51.0523 41.3949 50.9293 41.0423 50.6997 40.8291C50.47 40.6158 50.1912 40.5092 49.8632 40.5092C49.6336 40.5092 49.4449 40.5912 49.2973 40.7552C49.1497 40.9029 49.0759 41.1161 49.0759 41.3949C49.0759 41.7886 49.2891 42.1166 49.7156 42.379C50.1584 42.625 50.8555 42.9285 51.8068 43.2893C52.9057 43.6993 53.8078 44.093 54.5131 44.4702C55.2347 44.8475 55.858 45.3723 56.3828 46.0448C56.9077 46.7173 57.1701 47.5619 57.1701 48.5788C57.1701 49.645 56.9077 50.6045 56.3828 51.4573C55.858 52.2938 55.0953 52.9499 54.0948 53.4255C53.0943 53.9012 51.9052 54.139 50.5274 54.139ZM76.9259 36.5482V53.9668H71.4642V47.1765H66.2731V53.9668H60.8113V36.5482H66.2731V42.8219H71.4642V36.5482H76.9259ZM89.5934 54.139C87.9532 54.139 86.4442 53.7536 85.0665 52.9827C83.7051 52.2118 82.6226 51.1457 81.819 49.7844C81.0153 48.423 80.6134 46.8895 80.6134 45.1837C80.6134 43.4779 81.0153 41.9444 81.819 40.583C82.6226 39.2217 83.7051 38.1638 85.0665 37.4093C86.4442 36.6384 87.9532 36.253 89.5934 36.253C91.2335 36.253 92.7343 36.6384 94.0956 37.4093C95.457 38.1638 96.5313 39.2217 97.3185 40.583C98.1222 41.9444 98.5241 43.4779 98.5241 45.1837C98.5241 46.8895 98.1222 48.423 97.3185 49.7844C96.5313 51.1457 95.4487 52.2118 94.071 52.9827C92.7097 53.7536 91.2171 54.139 89.5934 54.139ZM89.5934 49.0463C90.6759 49.0463 91.5123 48.7019 92.1028 48.013C92.6933 47.3077 92.9885 46.3646 92.9885 45.1837C92.9885 43.9864 92.6933 43.0433 92.1028 42.3544C91.5123 41.6491 90.6759 41.2965 89.5934 41.2965C88.4944 41.2965 87.6498 41.6491 87.0593 42.3544C86.4688 43.0433 86.1736 43.9864 86.1736 45.1837C86.1736 46.3646 86.4688 47.3077 87.0593 48.013C87.6498 48.7019 88.4944 49.0463 89.5934 49.0463ZM127.311 36.5482L123.326 53.9668H116.535L114.518 44.0766L112.5 53.9668H105.71L101.725 36.5482H107.605L109.179 47.5209L111.541 36.5482H117.495L119.857 47.5209L121.431 36.5482H127.311ZM142.356 49.8336H147.621V53.9668H136.895V36.5482H142.356V49.8336ZM156.524 40.9029V43.0433H161.936V47.1519H156.524V49.6122H162.675V53.9668H151.062V36.5482H162.675V40.9029H156.524ZM173.27 54.139C171.187 54.139 169.465 53.6552 168.103 52.6875C166.758 51.7034 166.029 50.2682 165.914 48.382H171.72C171.802 49.3825 172.245 49.8828 173.049 49.8828C173.344 49.8828 173.59 49.8172 173.787 49.686C174 49.5383 174.106 49.3169 174.106 49.0217C174.106 48.6116 173.885 48.2836 173.442 48.0376C172.999 47.7752 172.31 47.4799 171.376 47.1519C170.26 46.7583 169.334 46.3728 168.595 45.9956C167.874 45.6183 167.251 45.0689 166.726 44.3472C166.201 43.6255 165.947 42.6988 165.963 41.5671C165.963 40.4354 166.25 39.4759 166.824 38.6886C167.415 37.885 168.21 37.2781 169.211 36.868C170.227 36.458 171.367 36.253 172.63 36.253C174.763 36.253 176.452 36.745 177.698 37.7291C178.961 38.7132 179.626 40.0992 179.691 41.887H173.811C173.795 41.3949 173.672 41.0423 173.442 40.8291C173.213 40.6158 172.934 40.5092 172.606 40.5092C172.376 40.5092 172.187 40.5912 172.04 40.7552C171.892 40.9029 171.818 41.1161 171.818 41.3949C171.818 41.7886 172.032 42.1166 172.458 42.379C172.901 42.625 173.598 42.9285 174.549 43.2893C175.648 43.6993 176.55 44.093 177.256 44.4702C177.977 44.8475 178.6 45.3723 179.125 46.0448C179.65 46.7173 179.913 47.5619 179.913 48.5788C179.913 49.645 179.65 50.6045 179.125 51.4573C178.6 52.2938 177.838 52.9499 176.837 53.4255C175.837 53.9012 174.648 54.139 173.27 54.139ZM190.369 54.139C188.286 54.139 186.564 53.6552 185.202 52.6875C183.857 51.7034 183.127 50.2682 183.013 48.382H188.819C188.901 49.3825 189.344 49.8828 190.147 49.8828C190.442 49.8828 190.689 49.8172 190.885 49.686C191.099 49.5383 191.205 49.3169 191.205 49.0217C191.205 48.6116 190.984 48.2836 190.541 48.0376C190.098 47.7752 189.409 47.4799 188.474 47.1519C187.359 46.7583 186.432 46.3728 185.694 45.9956C184.973 45.6183 184.349 45.0689 183.824 44.3472C183.3 43.6255 183.045 42.6988 183.062 41.5671C183.062 40.4354 183.349 39.4759 183.923 38.6886C184.513 37.885 185.309 37.2781 186.309 36.868C187.326 36.458 188.466 36.253 189.729 36.253C191.861 36.253 193.551 36.745 194.797 37.7291C196.06 38.7132 196.724 40.0992 196.79 41.887H190.91C190.894 41.3949 190.771 41.0423 190.541 40.8291C190.311 40.6158 190.032 40.5092 189.704 40.5092C189.475 40.5092 189.286 40.5912 189.139 40.7552C188.991 40.9029 188.917 41.1161 188.917 41.3949C188.917 41.7886 189.13 42.1166 189.557 42.379C190 42.625 190.697 42.9285 191.648 43.2893C192.747 43.6993 193.649 44.093 194.354 44.4702C195.076 44.8475 195.699 45.3723 196.224 46.0448C196.749 46.7173 197.011 47.5619 197.011 48.5788C197.011 49.645 196.749 50.6045 196.224 51.4573C195.699 52.2938 194.937 52.9499 193.936 53.4255C192.936 53.9012 191.746 54.139 190.369 54.139Z" fill="white"/>
</g>
<g filter="url(#filter4_i_288_4)">
<path d="M241.741 22.5479C229.179 22.5479 218.995 33.1435 218.995 46.2129C218.995 59.2823 229.179 69.8779 241.741 69.8779C254.303 69.8779 264.487 59.2823 264.487 46.2129C264.487 33.1435 254.303 22.5479 241.741 22.5479ZM245.64 44.8758V59.6231H237.841V44.8758H229.61L241.741 32.8027L253.872 44.8758H245.64Z" fill="white"/>
</g>
<defs>
<filter id="filter0_i_288_4" x="14.4814" y="31.6758" width="247.259" height="37.9812" filterUnits="userSpaceOnUse" color-interpolation-filters="sRGB">
<feFlood flood-opacity="0" result="BackgroundImageFix"/>
<feBlend mode="normal" in="SourceGraphic" in2="BackgroundImageFix" result="shape"/>
<feColorMatrix in="SourceAlpha" type="matrix" values="0 0 0 0 0 0 0 0 0 0 0 0 0 0 0 0 0 0 127 0" result="hardAlpha"/>
<feOffset dy="2.81856"/>
<feGaussianBlur stdDeviation="0.845567"/>
<feComposite in2="hardAlpha" operator="arithmetic" k2="-1" k3="1"/>
<feColorMatrix type="matrix" values="0 0 0 0 0 0 0 0 0 0 0 0 0 0 0 0 0 0 0.91 0"/>
<feBlend mode="normal" in2="shape" result="effect1_innerShadow_288_4"/>
</filter>
<filter id="filter1_ddii_288_4" x="0.000221372" y="-0.000151098" width="284.774" height="88.7677" filterUnits="userSpaceOnUse" color-interpolation-filters="sRGB">
<feFlood flood-opacity="0" result="BackgroundImageFix"/>
<feColorMatrix in="SourceAlpha" type="matrix" values="0 0 0 0 0 0 0 0 0 0 0 0 0 0 0 0 0 0 127 0" result="hardAlpha"/>
<feOffset dy="2.02916"/>
<feGaussianBlur stdDeviation="2.46881"/>
<feComposite in2="hardAlpha" operator="out"/>
<feColorMatrix type="matrix" values="0 0 0 0 0 0 0 0 0 0 0 0 0 0 0 0 0 0 0.47 0"/>
<feBlend mode="normal" in2="BackgroundImageFix" result="effect1_dropShadow_288_4"/>
<feColorMatrix in="SourceAlpha" type="matrix" values="0 0 0 0 0 0 0 0 0 0 0 0 0 0 0 0 0 0 127 0" result="hardAlpha"/>
<feMorphology radius="2.20446" operator="dilate" in="SourceAlpha" result="effect2_dropShadow_288_4"/>
<feOffset dx="-1.35277" dy="-0.676385"/>
<feGaussianBlur stdDeviation="2.71883"/>
<feComposite in2="hardAlpha" operator="out"/>
<feColorMatrix type="matrix" values="0 0 0 0 0 0 0 0 0 0 0 0 0 0 0 0 0 0 0.47 0"/>
<feBlend mode="normal" in2="effect1_dropShadow_288_4" result="effect2_dropShadow_288_4"/>
<feBlend mode="normal" in="SourceGraphic" in2="effect2_dropShadow_288_4" result="shape"/>
<feColorMatrix in="SourceAlpha" type="matrix" values="0 0 0 0 0 0 0 0 0 0 0 0 0 0 0 0 0 0 127 0" result="hardAlpha"/>
<feOffset dx="4.05831" dy="-4.05831"/>
<feGaussianBlur stdDeviation="1.35277"/>
<feComposite in2="hardAlpha" operator="arithmetic" k2="-1" k3="1"/>
<feColorMatrix type="matrix" values="0 0 0 0 0 0 0 0 0 0 0 0 0 0 0 0 0 0 0.25 0"/>
<feBlend mode="normal" in2="shape" result="effect3_innerShadow_288_4"/>
<feColorMatrix in="SourceAlpha" type="matrix" values="0 0 0 0 0 0 0 0 0 0 0 0 0 0 0 0 0 0 127 0" result="hardAlpha"/>
<feOffset dx="-2.70554" dy="3.38193"/>
<feGaussianBlur stdDeviation="1.35277"/>
<feComposite in2="hardAlpha" operator="arithmetic" k2="-1" k3="1"/>
<feColorMatrix type="matrix" values="0 0 0 0 1 0 0 0 0 0.999906 0 0 0 0 0.999906 0 0 0 0.25 0"/>
<feBlend mode="normal" in2="effect3_innerShadow_288_4" result="effect4_innerShadow_288_4"/>
</filter>
<filter id="filter2_ddii_288_4" x="2.0528" y="5.34163" width="281.862" height="84.127" filterUnits="userSpaceOnUse" color-interpolation-filters="sRGB">
<feFlood flood-opacity="0" result="BackgroundImageFix"/>
<feColorMatrix in="SourceAlpha" type="matrix" values="0 0 0 0 0 0 0 0 0 0 0 0 0 0 0 0 0 0 127 0" result="hardAlpha"/>
<feOffset dy="2.23135"/>
<feGaussianBlur stdDeviation="2.71481"/>
<feComposite in2="hardAlpha" operator="out"/>
<feColorMatrix type="matrix" values="0 0 0 0 0 0 0 0 0 0 0 0 0 0 0 0 0 0 0.68 0"/>
<feBlend mode="normal" in2="BackgroundImageFix" result="effect1_dropShadow_288_4"/>
<feColorMatrix in="SourceAlpha" type="matrix" values="0 0 0 0 0 0 0 0 0 0 0 0 0 0 0 0 0 0 127 0" result="hardAlpha"/>
<feOffset dx="-1.48757" dy="-0.743783"/>
<feGaussianBlur stdDeviation="1.48757"/>
<feComposite in2="hardAlpha" operator="out"/>
<feColorMatrix type="matrix" values="0 0 0 0 0 0 0 0 0 0 0 0 0 0 0 0 0 0 0.6 0"/>
<feBlend mode="normal" in2="effect1_dropShadow_288_4" result="effect2_dropShadow_288_4"/>
<feBlend mode="normal" in="SourceGraphic" in2="effect2_dropShadow_288_4" result="shape"/>
<feColorMatrix in="SourceAlpha" type="matrix" values="0 0 0 0 0 0 0 0 0 0 0 0 0 0 0 0 0 0 127 0" result="hardAlpha"/>
<feOffset dx="4.4627" dy="-4.4627"/>
<feGaussianBlur stdDeviation="1.48757"/>
<feComposite in2="hardAlpha" operator="arithmetic" k2="-1" k3="1"/>
<feColorMatrix type="matrix" values="0 0 0 0 0 0 0 0 0 0 0 0 0 0 0 0 0 0 0.25 0"/>
<feBlend mode="normal" in2="shape" result="effect3_innerShadow_288_4"/>
<feColorMatrix in="SourceAlpha" type="matrix" values="0 0 0 0 0 0 0 0 0 0 0 0 0 0 0 0 0 0 127 0" result="hardAlpha"/>
<feOffset dx="-2.97513" dy="3.71892"/>
<feGaussianBlur stdDeviation="1.48757"/>
<feComposite in2="hardAlpha" operator="arithmetic" k2="-1" k3="1"/>
<feColorMatrix type="matrix" values="0 0 0 0 1 0 0 0 0 0.999906 0 0 0 0 0.999906 0 0 0 0.25 0"/>
<feBlend mode="normal" in2="effect3_innerShadow_288_4" result="effect4_innerShadow_288_4"/>
</filter>
<filter id="filter3_d_288_4" x="40.2316" y="36.2529" width="159.719" height="23.7643" filterUnits="userSpaceOnUse" color-interpolation-filters="sRGB">
<feFlood flood-opacity="0" result="BackgroundImageFix"/>
<feColorMatrix in="SourceAlpha" type="matrix" values="0 0 0 0 0 0 0 0 0 0 0 0 0 0 0 0 0 0 127 0" result="hardAlpha"/>
<feOffset dy="2.93928"/>
<feGaussianBlur stdDeviation="1.46964"/>
<feComposite in2="hardAlpha" operator="out"/>
<feColorMatrix type="matrix" values="0 0 0 0 0 0 0 0 0 0 0 0 0 0 0 0 0 0 1 0"/>
<feBlend mode="normal" in2="BackgroundImageFix" result="effect1_dropShadow_288_4"/>
<feBlend mode="normal" in="SourceGraphic" in2="effect1_dropShadow_288_4" result="shape"/>
</filter>
<filter id="filter4_i_288_4" x="217.483" y="19.4236" width="49" height="51.5432" filterUnits="userSpaceOnUse" color-interpolation-filters="sRGB">
<feFlood flood-opacity="0" result="BackgroundImageFix"/>
<feBlend mode="normal" in="SourceGraphic" in2="BackgroundImageFix" result="shape"/>
<feColorMatrix in="SourceAlpha" type="matrix" values="0 0 0 0 0 0 0 0 0 0 0 0 0 0 0 0 0 0 127 0" result="hardAlpha"/>
<feOffset dy="-2.20456"/>
<feGaussianBlur stdDeviation="0.771597"/>
<feComposite in2="hardAlpha" operator="arithmetic" k2="-1" k3="1"/>
<feColorMatrix type="matrix" values="0 0 0 0 0 0 0 0 0 0 0 0 0 0 0 0 0 0 1 0"/>
<feBlend mode="normal" in2="shape" result="effect1_innerShadow_288_4"/>
</filter>
</defs>
</svg>
