<svg width="192" height="64" viewBox="0 0 192 64" fill="none" xmlns="http://www.w3.org/2000/svg">
<g filter="url(#filter0_ddii_45_976)">
<rect x="4.06445" y="2.78418" width="183" height="55.0063" rx="7.61193" fill="#FE7702"/>
<rect x="4.34284" y="3.06257" width="182.443" height="54.4496" rx="7.33354" stroke="#924705" stroke-width="0.556773"/>
</g>
<g filter="url(#filter1_d_45_976)">
<path d="M26.0867 36.9131C24.5274 36.9131 23.2383 36.5509 22.2192 35.8265C21.2124 35.0898 20.6661 34.0155 20.5801 32.6036H24.9265C24.9878 33.3525 25.3193 33.727 25.921 33.727C26.142 33.727 26.3261 33.6779 26.4735 33.5797C26.6331 33.4692 26.7129 33.3034 26.7129 33.0824C26.7129 32.7755 26.5471 32.5299 26.2156 32.3458C25.8841 32.1493 25.3685 31.9283 24.6686 31.6828C23.8337 31.3881 23.14 31.0996 22.5875 30.8172C22.0473 30.5348 21.5808 30.1235 21.1879 29.5833C20.795 29.043 20.6047 28.3493 20.617 27.5022C20.617 26.655 20.8318 25.9368 21.2615 25.3474C21.7035 24.7458 22.299 24.2915 23.048 23.9846C23.8092 23.6776 24.6625 23.5242 25.6079 23.5242C27.204 23.5242 28.4686 23.8925 29.4017 24.6292C30.3471 25.3658 30.8444 26.4033 30.8935 27.7416H26.4919C26.4796 27.3733 26.3875 27.1093 26.2156 26.9497C26.0437 26.7901 25.835 26.7103 25.5895 26.7103C25.4176 26.7103 25.2764 26.7716 25.1659 26.8944C25.0554 27.0049 25.0001 27.1645 25.0001 27.3733C25.0001 27.6679 25.1597 27.9135 25.479 28.1099C25.8105 28.2941 26.3323 28.5212 27.0444 28.7913C27.867 29.0983 28.5423 29.3929 29.0702 29.6753C29.6104 29.9577 30.077 30.3506 30.4699 30.854C30.8628 31.3574 31.0592 31.9897 31.0592 32.7509C31.0592 33.549 30.8628 34.2672 30.4699 34.9057C30.077 35.5318 29.5061 36.023 28.7571 36.379C28.0082 36.7351 27.118 36.9131 26.0867 36.9131ZM37.7813 23.7452V31.0934C37.7813 31.695 37.9102 32.1739 38.1681 32.5299C38.4382 32.8737 38.8679 33.0456 39.4572 33.0456C40.0466 33.0456 40.4824 32.8737 40.7648 32.5299C41.0472 32.1739 41.1884 31.695 41.1884 31.0934V23.7452H45.2585V31.0934C45.2585 32.3335 45.0006 33.3955 44.485 34.2795C43.9693 35.1512 43.2633 35.8081 42.3671 36.2501C41.4708 36.6921 40.4701 36.9131 39.3651 36.9131C38.2601 36.9131 37.2779 36.6921 36.4185 36.2501C35.5713 35.8081 34.9083 35.1512 34.4295 34.2795C33.9506 33.4078 33.7112 32.3458 33.7112 31.0934V23.7452H37.7813ZM57.0406 30.0989C57.8263 30.2831 58.4341 30.6637 58.8638 31.2408C59.3058 31.8055 59.5268 32.4624 59.5268 33.2113C59.5268 34.3532 59.1462 35.2372 58.385 35.8633C57.636 36.4772 56.5556 36.7842 55.1436 36.7842H48.311V23.7452H54.9595C56.2855 23.7452 57.3291 24.0337 58.0903 24.6107C58.8515 25.1878 59.2321 26.0288 59.2321 27.1338C59.2321 27.8951 59.0296 28.5396 58.6244 29.0676C58.2315 29.5833 57.7036 29.927 57.0406 30.0989ZM52.3996 28.8282H53.9834C54.3517 28.8282 54.6218 28.7545 54.7937 28.6072C54.9779 28.4598 55.07 28.2327 55.07 27.9258C55.07 27.6065 54.9779 27.3733 54.7937 27.2259C54.6218 27.0663 54.3517 26.9865 53.9834 26.9865H52.3996V28.8282ZM54.2596 33.506C54.628 33.506 54.8981 33.4385 55.07 33.3034C55.2541 33.1561 55.3462 32.9228 55.3462 32.6036C55.3462 31.9774 54.984 31.6643 54.2596 31.6643H52.3996V33.506H54.2596ZM67.2912 36.9131C65.7319 36.9131 64.4427 36.5509 63.4237 35.8265C62.4169 35.0898 61.8705 34.0155 61.7846 32.6036H66.1309C66.1923 33.3525 66.5238 33.727 67.1254 33.727C67.3464 33.727 67.5306 33.6779 67.6779 33.5797C67.8375 33.4692 67.9173 33.3034 67.9173 33.0824C67.9173 32.7755 67.7516 32.5299 67.4201 32.3458C67.0886 32.1493 66.5729 31.9283 65.8731 31.6828C65.0382 31.3881 64.3445 31.0996 63.792 30.8172C63.2518 30.5348 62.7852 30.1235 62.3923 29.5833C61.9994 29.043 61.8091 28.3493 61.8214 27.5022C61.8214 26.655 62.0363 25.9368 62.466 25.3474C62.908 24.7458 63.5035 24.2915 64.2524 23.9846C65.0136 23.6776 65.8669 23.5242 66.8123 23.5242C68.4084 23.5242 69.6731 23.8925 70.6062 24.6292C71.5516 25.3658 72.0488 26.4033 72.0979 27.7416H67.6963C67.6841 27.3733 67.592 27.1093 67.4201 26.9497C67.2482 26.7901 67.0395 26.7103 66.7939 26.7103C66.622 26.7103 66.4808 26.7716 66.3703 26.8944C66.2598 27.0049 66.2046 27.1645 66.2046 27.3733C66.2046 27.6679 66.3642 27.9135 66.6834 28.1099C67.0149 28.2941 67.5367 28.5212 68.2488 28.7913C69.0714 29.0983 69.7467 29.3929 70.2747 29.6753C70.8149 29.9577 71.2815 30.3506 71.6743 30.854C72.0672 31.3574 72.2637 31.9897 72.2637 32.7509C72.2637 33.549 72.0672 34.2672 71.6743 34.9057C71.2815 35.5318 70.7105 36.023 69.9616 36.379C69.2126 36.7351 68.3225 36.9131 67.2912 36.9131ZM74.621 30.2463C74.621 28.9571 74.8788 27.8091 75.3945 26.8023C75.9225 25.7956 76.6714 25.0159 77.6413 24.4634C78.6113 23.8986 79.7531 23.6162 81.0669 23.6162C82.1964 23.6162 83.2032 23.8311 84.0872 24.2608C84.9835 24.6783 85.7079 25.2737 86.2604 26.0473C86.8251 26.8208 87.1996 27.7232 87.3838 28.7545H83.0743C82.8778 28.3248 82.5954 27.9933 82.2271 27.76C81.871 27.5144 81.4597 27.3917 80.9932 27.3917C80.3056 27.3917 79.7593 27.6495 79.3541 28.1652C78.9612 28.6808 78.7648 29.3745 78.7648 30.2463C78.7648 31.118 78.9612 31.8117 79.3541 32.3273C79.7593 32.843 80.3056 33.1008 80.9932 33.1008C81.4597 33.1008 81.871 32.9842 82.2271 32.7509C82.5954 32.5054 82.8778 32.1677 83.0743 31.738H87.3838C87.1996 32.7693 86.8251 33.6718 86.2604 34.4453C85.7079 35.2188 84.9835 35.8204 84.0872 36.2501C83.2032 36.6675 82.1964 36.8763 81.0669 36.8763C79.7531 36.8763 78.6113 36.6 77.6413 36.0475C76.6714 35.4827 75.9225 34.697 75.3945 33.6902C74.8788 32.6834 74.621 31.5354 74.621 30.2463ZM96.7013 36.7842L94.2519 32.1063H94.2335V36.7842H90.145V23.7452H96.2225C97.2784 23.7452 98.1808 23.9355 98.9297 24.3161C99.6787 24.6844 100.237 25.1939 100.606 25.8447C100.986 26.4831 101.177 27.2075 101.177 28.0178C101.177 28.8896 100.931 29.6631 100.44 30.3383C99.9611 31.0136 99.2674 31.4986 98.3588 31.7933L101.195 36.7842H96.7013ZM94.2335 29.3807H95.8542C96.247 29.3807 96.5417 29.2947 96.7382 29.1228C96.9346 28.9387 97.0328 28.6563 97.0328 28.2757C97.0328 27.9319 96.9285 27.6618 96.7197 27.4653C96.5233 27.2689 96.2348 27.1707 95.8542 27.1707H94.2335V29.3807ZM107.86 23.7452V36.7842H103.772V23.7452H107.86ZM119.726 30.0989C120.511 30.2831 121.119 30.6637 121.549 31.2408C121.991 31.8055 122.212 32.4624 122.212 33.2113C122.212 34.3532 121.831 35.2372 121.07 35.8633C120.321 36.4772 119.241 36.7842 117.829 36.7842H110.996V23.7452H117.645C118.971 23.7452 120.014 24.0337 120.775 24.6107C121.537 25.1878 121.917 26.0288 121.917 27.1338C121.917 27.8951 121.715 28.5396 121.309 29.0676C120.917 29.5833 120.389 29.927 119.726 30.0989ZM115.085 28.8282H116.668C117.037 28.8282 117.307 28.7545 117.479 28.6072C117.663 28.4598 117.755 28.2327 117.755 27.9258C117.755 27.6065 117.663 27.3733 117.479 27.2259C117.307 27.0663 117.037 26.9865 116.668 26.9865H115.085V28.8282ZM116.945 33.506C117.313 33.506 117.583 33.4385 117.755 33.3034C117.939 33.1561 118.031 32.9228 118.031 32.6036C118.031 31.9774 117.669 31.6643 116.945 31.6643H115.085V33.506H116.945ZM128.963 27.0049V28.6072H133.015V31.6828H128.963V33.5244H133.568V36.7842H124.875V23.7452H133.568V27.0049H128.963Z" fill="white"/>
</g>
<g filter="url(#filter2_i_45_976)">
<path d="M176.972 29.291C176.972 20.2304 169.626 12.8848 160.565 12.8848C151.505 12.8848 144.159 20.2304 144.159 29.291C144.159 38.3516 151.505 45.6973 160.565 45.6973C169.626 45.6973 176.972 38.3516 176.972 29.291ZM161.492 32.1036H151.269V26.4784H161.492V20.541L169.862 29.291L161.492 38.041V32.1036Z" fill="white"/>
</g>
<defs>
<filter id="filter0_ddii_45_976" x="8.10623e-06" y="0.000313461" width="191.129" height="63.5245" filterUnits="userSpaceOnUse" color-interpolation-filters="sRGB">
<feFlood flood-opacity="0" result="BackgroundImageFix"/>
<feColorMatrix in="SourceAlpha" type="matrix" values="0 0 0 0 0 0 0 0 0 0 0 0 0 0 0 0 0 0 127 0" result="hardAlpha"/>
<feOffset dy="1.67032"/>
<feGaussianBlur stdDeviation="2.03222"/>
<feComposite in2="hardAlpha" operator="out"/>
<feColorMatrix type="matrix" values="0 0 0 0 0 0 0 0 0 0 0 0 0 0 0 0 0 0 0.68 0"/>
<feBlend mode="normal" in2="BackgroundImageFix" result="effect1_dropShadow_45_976"/>
<feColorMatrix in="SourceAlpha" type="matrix" values="0 0 0 0 0 0 0 0 0 0 0 0 0 0 0 0 0 0 127 0" result="hardAlpha"/>
<feOffset dx="-1.11355" dy="-0.556773"/>
<feGaussianBlur stdDeviation="1.11355"/>
<feComposite in2="hardAlpha" operator="out"/>
<feColorMatrix type="matrix" values="0 0 0 0 0 0 0 0 0 0 0 0 0 0 0 0 0 0 0.6 0"/>
<feBlend mode="normal" in2="effect1_dropShadow_45_976" result="effect2_dropShadow_45_976"/>
<feBlend mode="normal" in="SourceGraphic" in2="effect2_dropShadow_45_976" result="shape"/>
<feColorMatrix in="SourceAlpha" type="matrix" values="0 0 0 0 0 0 0 0 0 0 0 0 0 0 0 0 0 0 127 0" result="hardAlpha"/>
<feOffset dx="3.34064" dy="-3.34064"/>
<feGaussianBlur stdDeviation="1.11355"/>
<feComposite in2="hardAlpha" operator="arithmetic" k2="-1" k3="1"/>
<feColorMatrix type="matrix" values="0 0 0 0 0 0 0 0 0 0 0 0 0 0 0 0 0 0 0.25 0"/>
<feBlend mode="normal" in2="shape" result="effect3_innerShadow_45_976"/>
<feColorMatrix in="SourceAlpha" type="matrix" values="0 0 0 0 0 0 0 0 0 0 0 0 0 0 0 0 0 0 127 0" result="hardAlpha"/>
<feOffset dx="-2.22709" dy="2.78387"/>
<feGaussianBlur stdDeviation="1.11355"/>
<feComposite in2="hardAlpha" operator="arithmetic" k2="-1" k3="1"/>
<feColorMatrix type="matrix" values="0 0 0 0 1 0 0 0 0 0.999906 0 0 0 0 0.999906 0 0 0 0.25 0"/>
<feBlend mode="normal" in2="effect3_innerShadow_45_976" result="effect4_innerShadow_45_976"/>
</filter>
<filter id="filter1_d_45_976" x="18.3798" y="23.5244" width="117.388" height="17.7892" filterUnits="userSpaceOnUse" color-interpolation-filters="sRGB">
<feFlood flood-opacity="0" result="BackgroundImageFix"/>
<feColorMatrix in="SourceAlpha" type="matrix" values="0 0 0 0 0 0 0 0 0 0 0 0 0 0 0 0 0 0 127 0" result="hardAlpha"/>
<feOffset dy="2.20025"/>
<feGaussianBlur stdDeviation="1.10013"/>
<feComposite in2="hardAlpha" operator="out"/>
<feColorMatrix type="matrix" values="0 0 0 0 0 0 0 0 0 0 0 0 0 0 0 0 0 0 1 0"/>
<feBlend mode="normal" in2="BackgroundImageFix" result="effect1_dropShadow_45_976"/>
<feBlend mode="normal" in="SourceGraphic" in2="effect1_dropShadow_45_976" result="shape"/>
</filter>
<filter id="filter2_i_45_976" x="143.064" y="10.629" width="35" height="36.1551" filterUnits="userSpaceOnUse" color-interpolation-filters="sRGB">
<feFlood flood-opacity="0" result="BackgroundImageFix"/>
<feBlend mode="normal" in="SourceGraphic" in2="BackgroundImageFix" result="shape"/>
<feColorMatrix in="SourceAlpha" type="matrix" values="0 0 0 0 0 0 0 0 0 0 0 0 0 0 0 0 0 0 127 0" result="hardAlpha"/>
<feOffset dy="-1.65019"/>
<feGaussianBlur stdDeviation="0.577567"/>
<feComposite in2="hardAlpha" operator="arithmetic" k2="-1" k3="1"/>
<feColorMatrix type="matrix" values="0 0 0 0 0 0 0 0 0 0 0 0 0 0 0 0 0 0 1 0"/>
<feBlend mode="normal" in2="shape" result="effect1_innerShadow_45_976"/>
</filter>
</defs>
</svg>
